%
M48
M72
T01C0.01969
T02C0.02362
T03C0.04000
T04C0.04803
T05C0.06299
%
T01
X386600Y144710
X386600Y149631
X386600Y154553
X386600Y159474
X385025Y247880
X385025Y252801
X385025Y257722
X385025Y262643
X385025Y267565
X385025Y272486
X292840Y331206
X287919Y331206
X282998Y331206
X278076Y331206
X273155Y331206
X268234Y331206
X263313Y331206
X258391Y331206
T02
X452781Y287978
X414238Y292112
X385419Y306521
X331088Y338214
X288962Y377860
X267655Y373033
X254238Y356246
X239750Y359120
X197033Y360222
X187348Y370576
X196954Y391876
X171403Y391561
X145419Y379159
X435458Y378017
T03
X372072Y334120
X372072Y344120
X372072Y354120
X372072Y364120
X372072Y374120
X372072Y384120
X372072Y394120
X372072Y404120
X372072Y414120
X372072Y424120
X452072Y424120
X452072Y414120
X452072Y404120
X452072Y394120
X452072Y384120
X452072Y374120
X452072Y364120
X452072Y354120
X452072Y344120
X452072Y334120
X226876Y334317
X216876Y334317
X206876Y334317
X206915Y353096
X216915Y353096
X226915Y353096
X226915Y373096
X216915Y373096
X206915Y373096
X117564Y303067
X107564Y303067
X97564Y303067
X109494Y333628
X119494Y333628
T04
X93608Y227545
X93608Y237387
X128923Y259631
X128923Y269474
X176718Y421285
X166876Y421285
X200813Y421462
X210655Y421462
X220498Y421462
X230340Y421462
X255045Y421974
X264887Y421974
X274730Y421974
X284572Y421974
X308883Y422604
X318726Y422604
X328569Y422604
X338411Y422604
X385301Y223687
X385301Y213844
X385301Y204002
X385301Y194159
X344553Y66167
X354395Y66167
X364238Y66167
X374080Y66167
X400616Y65301
X410458Y65301
X420301Y65301
X430143Y65301
X451639Y157545
X451639Y167387
X451639Y177230
X451639Y187072
X450813Y213411
X450813Y223254
X450813Y233096
X450813Y242939
X450813Y252781
X450813Y262624
X313962Y66285
X304120Y66285
X294277Y66285
X284435Y66285
T05
X178411Y138962
X335891Y138962
X335891Y296443
X178411Y296443
M30
