G75*
%MOIN*%
%OFA0B0*%
%FSLAX25Y25*%
%IPPOS*%
%LPD*%
%AMOC8*
5,1,8,0,0,1.08239X$1,22.5*
%
%ADD10C,0.00800*%
%ADD11C,0.00000*%
%ADD12R,0.05906X0.05118*%
%ADD13C,0.07205*%
%ADD14C,0.06000*%
%ADD15C,0.03969*%
%ADD16C,0.07400*%
%ADD17R,0.05512X0.04724*%
%ADD18R,0.10000X0.05000*%
%ADD19R,0.04724X0.02165*%
%ADD20R,0.08000X0.02600*%
%ADD21R,0.04724X0.03150*%
%ADD22R,0.03150X0.04724*%
%ADD23C,0.01000*%
%ADD24R,0.03562X0.03562*%
%ADD25C,0.01600*%
D10*
X0075655Y0047033D02*
X0469356Y0047033D01*
X0469356Y0440734D01*
X0075655Y0440734D01*
X0075655Y0047033D01*
D11*
X0175261Y0138962D02*
X0175263Y0139074D01*
X0175269Y0139185D01*
X0175279Y0139297D01*
X0175293Y0139408D01*
X0175310Y0139518D01*
X0175332Y0139628D01*
X0175358Y0139737D01*
X0175387Y0139845D01*
X0175420Y0139951D01*
X0175457Y0140057D01*
X0175498Y0140161D01*
X0175543Y0140264D01*
X0175591Y0140365D01*
X0175642Y0140464D01*
X0175697Y0140561D01*
X0175756Y0140656D01*
X0175817Y0140750D01*
X0175882Y0140841D01*
X0175951Y0140929D01*
X0176022Y0141015D01*
X0176096Y0141099D01*
X0176174Y0141179D01*
X0176254Y0141257D01*
X0176337Y0141333D01*
X0176422Y0141405D01*
X0176510Y0141474D01*
X0176600Y0141540D01*
X0176693Y0141602D01*
X0176788Y0141662D01*
X0176885Y0141718D01*
X0176983Y0141770D01*
X0177084Y0141819D01*
X0177186Y0141864D01*
X0177290Y0141906D01*
X0177395Y0141944D01*
X0177502Y0141978D01*
X0177609Y0142008D01*
X0177718Y0142035D01*
X0177827Y0142057D01*
X0177938Y0142076D01*
X0178048Y0142091D01*
X0178160Y0142102D01*
X0178271Y0142109D01*
X0178383Y0142112D01*
X0178495Y0142111D01*
X0178607Y0142106D01*
X0178718Y0142097D01*
X0178829Y0142084D01*
X0178940Y0142067D01*
X0179050Y0142047D01*
X0179159Y0142022D01*
X0179267Y0141994D01*
X0179374Y0141961D01*
X0179480Y0141925D01*
X0179584Y0141885D01*
X0179687Y0141842D01*
X0179789Y0141795D01*
X0179888Y0141744D01*
X0179986Y0141690D01*
X0180082Y0141632D01*
X0180176Y0141571D01*
X0180267Y0141507D01*
X0180356Y0141440D01*
X0180443Y0141369D01*
X0180527Y0141295D01*
X0180609Y0141219D01*
X0180687Y0141139D01*
X0180763Y0141057D01*
X0180836Y0140972D01*
X0180906Y0140885D01*
X0180972Y0140795D01*
X0181036Y0140703D01*
X0181096Y0140609D01*
X0181153Y0140513D01*
X0181206Y0140414D01*
X0181256Y0140314D01*
X0181302Y0140213D01*
X0181345Y0140109D01*
X0181384Y0140004D01*
X0181419Y0139898D01*
X0181450Y0139791D01*
X0181478Y0139682D01*
X0181501Y0139573D01*
X0181521Y0139463D01*
X0181537Y0139352D01*
X0181549Y0139241D01*
X0181557Y0139130D01*
X0181561Y0139018D01*
X0181561Y0138906D01*
X0181557Y0138794D01*
X0181549Y0138683D01*
X0181537Y0138572D01*
X0181521Y0138461D01*
X0181501Y0138351D01*
X0181478Y0138242D01*
X0181450Y0138133D01*
X0181419Y0138026D01*
X0181384Y0137920D01*
X0181345Y0137815D01*
X0181302Y0137711D01*
X0181256Y0137610D01*
X0181206Y0137510D01*
X0181153Y0137411D01*
X0181096Y0137315D01*
X0181036Y0137221D01*
X0180972Y0137129D01*
X0180906Y0137039D01*
X0180836Y0136952D01*
X0180763Y0136867D01*
X0180687Y0136785D01*
X0180609Y0136705D01*
X0180527Y0136629D01*
X0180443Y0136555D01*
X0180356Y0136484D01*
X0180267Y0136417D01*
X0180176Y0136353D01*
X0180082Y0136292D01*
X0179986Y0136234D01*
X0179888Y0136180D01*
X0179789Y0136129D01*
X0179687Y0136082D01*
X0179584Y0136039D01*
X0179480Y0135999D01*
X0179374Y0135963D01*
X0179267Y0135930D01*
X0179159Y0135902D01*
X0179050Y0135877D01*
X0178940Y0135857D01*
X0178829Y0135840D01*
X0178718Y0135827D01*
X0178607Y0135818D01*
X0178495Y0135813D01*
X0178383Y0135812D01*
X0178271Y0135815D01*
X0178160Y0135822D01*
X0178048Y0135833D01*
X0177938Y0135848D01*
X0177827Y0135867D01*
X0177718Y0135889D01*
X0177609Y0135916D01*
X0177502Y0135946D01*
X0177395Y0135980D01*
X0177290Y0136018D01*
X0177186Y0136060D01*
X0177084Y0136105D01*
X0176983Y0136154D01*
X0176885Y0136206D01*
X0176788Y0136262D01*
X0176693Y0136322D01*
X0176600Y0136384D01*
X0176510Y0136450D01*
X0176422Y0136519D01*
X0176337Y0136591D01*
X0176254Y0136667D01*
X0176174Y0136745D01*
X0176096Y0136825D01*
X0176022Y0136909D01*
X0175951Y0136995D01*
X0175882Y0137083D01*
X0175817Y0137174D01*
X0175756Y0137268D01*
X0175697Y0137363D01*
X0175642Y0137460D01*
X0175591Y0137559D01*
X0175543Y0137660D01*
X0175498Y0137763D01*
X0175457Y0137867D01*
X0175420Y0137973D01*
X0175387Y0138079D01*
X0175358Y0138187D01*
X0175332Y0138296D01*
X0175310Y0138406D01*
X0175293Y0138516D01*
X0175279Y0138627D01*
X0175269Y0138739D01*
X0175263Y0138850D01*
X0175261Y0138962D01*
X0332741Y0138962D02*
X0332743Y0139074D01*
X0332749Y0139185D01*
X0332759Y0139297D01*
X0332773Y0139408D01*
X0332790Y0139518D01*
X0332812Y0139628D01*
X0332838Y0139737D01*
X0332867Y0139845D01*
X0332900Y0139951D01*
X0332937Y0140057D01*
X0332978Y0140161D01*
X0333023Y0140264D01*
X0333071Y0140365D01*
X0333122Y0140464D01*
X0333177Y0140561D01*
X0333236Y0140656D01*
X0333297Y0140750D01*
X0333362Y0140841D01*
X0333431Y0140929D01*
X0333502Y0141015D01*
X0333576Y0141099D01*
X0333654Y0141179D01*
X0333734Y0141257D01*
X0333817Y0141333D01*
X0333902Y0141405D01*
X0333990Y0141474D01*
X0334080Y0141540D01*
X0334173Y0141602D01*
X0334268Y0141662D01*
X0334365Y0141718D01*
X0334463Y0141770D01*
X0334564Y0141819D01*
X0334666Y0141864D01*
X0334770Y0141906D01*
X0334875Y0141944D01*
X0334982Y0141978D01*
X0335089Y0142008D01*
X0335198Y0142035D01*
X0335307Y0142057D01*
X0335418Y0142076D01*
X0335528Y0142091D01*
X0335640Y0142102D01*
X0335751Y0142109D01*
X0335863Y0142112D01*
X0335975Y0142111D01*
X0336087Y0142106D01*
X0336198Y0142097D01*
X0336309Y0142084D01*
X0336420Y0142067D01*
X0336530Y0142047D01*
X0336639Y0142022D01*
X0336747Y0141994D01*
X0336854Y0141961D01*
X0336960Y0141925D01*
X0337064Y0141885D01*
X0337167Y0141842D01*
X0337269Y0141795D01*
X0337368Y0141744D01*
X0337466Y0141690D01*
X0337562Y0141632D01*
X0337656Y0141571D01*
X0337747Y0141507D01*
X0337836Y0141440D01*
X0337923Y0141369D01*
X0338007Y0141295D01*
X0338089Y0141219D01*
X0338167Y0141139D01*
X0338243Y0141057D01*
X0338316Y0140972D01*
X0338386Y0140885D01*
X0338452Y0140795D01*
X0338516Y0140703D01*
X0338576Y0140609D01*
X0338633Y0140513D01*
X0338686Y0140414D01*
X0338736Y0140314D01*
X0338782Y0140213D01*
X0338825Y0140109D01*
X0338864Y0140004D01*
X0338899Y0139898D01*
X0338930Y0139791D01*
X0338958Y0139682D01*
X0338981Y0139573D01*
X0339001Y0139463D01*
X0339017Y0139352D01*
X0339029Y0139241D01*
X0339037Y0139130D01*
X0339041Y0139018D01*
X0339041Y0138906D01*
X0339037Y0138794D01*
X0339029Y0138683D01*
X0339017Y0138572D01*
X0339001Y0138461D01*
X0338981Y0138351D01*
X0338958Y0138242D01*
X0338930Y0138133D01*
X0338899Y0138026D01*
X0338864Y0137920D01*
X0338825Y0137815D01*
X0338782Y0137711D01*
X0338736Y0137610D01*
X0338686Y0137510D01*
X0338633Y0137411D01*
X0338576Y0137315D01*
X0338516Y0137221D01*
X0338452Y0137129D01*
X0338386Y0137039D01*
X0338316Y0136952D01*
X0338243Y0136867D01*
X0338167Y0136785D01*
X0338089Y0136705D01*
X0338007Y0136629D01*
X0337923Y0136555D01*
X0337836Y0136484D01*
X0337747Y0136417D01*
X0337656Y0136353D01*
X0337562Y0136292D01*
X0337466Y0136234D01*
X0337368Y0136180D01*
X0337269Y0136129D01*
X0337167Y0136082D01*
X0337064Y0136039D01*
X0336960Y0135999D01*
X0336854Y0135963D01*
X0336747Y0135930D01*
X0336639Y0135902D01*
X0336530Y0135877D01*
X0336420Y0135857D01*
X0336309Y0135840D01*
X0336198Y0135827D01*
X0336087Y0135818D01*
X0335975Y0135813D01*
X0335863Y0135812D01*
X0335751Y0135815D01*
X0335640Y0135822D01*
X0335528Y0135833D01*
X0335418Y0135848D01*
X0335307Y0135867D01*
X0335198Y0135889D01*
X0335089Y0135916D01*
X0334982Y0135946D01*
X0334875Y0135980D01*
X0334770Y0136018D01*
X0334666Y0136060D01*
X0334564Y0136105D01*
X0334463Y0136154D01*
X0334365Y0136206D01*
X0334268Y0136262D01*
X0334173Y0136322D01*
X0334080Y0136384D01*
X0333990Y0136450D01*
X0333902Y0136519D01*
X0333817Y0136591D01*
X0333734Y0136667D01*
X0333654Y0136745D01*
X0333576Y0136825D01*
X0333502Y0136909D01*
X0333431Y0136995D01*
X0333362Y0137083D01*
X0333297Y0137174D01*
X0333236Y0137268D01*
X0333177Y0137363D01*
X0333122Y0137460D01*
X0333071Y0137559D01*
X0333023Y0137660D01*
X0332978Y0137763D01*
X0332937Y0137867D01*
X0332900Y0137973D01*
X0332867Y0138079D01*
X0332838Y0138187D01*
X0332812Y0138296D01*
X0332790Y0138406D01*
X0332773Y0138516D01*
X0332759Y0138627D01*
X0332749Y0138739D01*
X0332743Y0138850D01*
X0332741Y0138962D01*
X0332741Y0296443D02*
X0332743Y0296555D01*
X0332749Y0296666D01*
X0332759Y0296778D01*
X0332773Y0296889D01*
X0332790Y0296999D01*
X0332812Y0297109D01*
X0332838Y0297218D01*
X0332867Y0297326D01*
X0332900Y0297432D01*
X0332937Y0297538D01*
X0332978Y0297642D01*
X0333023Y0297745D01*
X0333071Y0297846D01*
X0333122Y0297945D01*
X0333177Y0298042D01*
X0333236Y0298137D01*
X0333297Y0298231D01*
X0333362Y0298322D01*
X0333431Y0298410D01*
X0333502Y0298496D01*
X0333576Y0298580D01*
X0333654Y0298660D01*
X0333734Y0298738D01*
X0333817Y0298814D01*
X0333902Y0298886D01*
X0333990Y0298955D01*
X0334080Y0299021D01*
X0334173Y0299083D01*
X0334268Y0299143D01*
X0334365Y0299199D01*
X0334463Y0299251D01*
X0334564Y0299300D01*
X0334666Y0299345D01*
X0334770Y0299387D01*
X0334875Y0299425D01*
X0334982Y0299459D01*
X0335089Y0299489D01*
X0335198Y0299516D01*
X0335307Y0299538D01*
X0335418Y0299557D01*
X0335528Y0299572D01*
X0335640Y0299583D01*
X0335751Y0299590D01*
X0335863Y0299593D01*
X0335975Y0299592D01*
X0336087Y0299587D01*
X0336198Y0299578D01*
X0336309Y0299565D01*
X0336420Y0299548D01*
X0336530Y0299528D01*
X0336639Y0299503D01*
X0336747Y0299475D01*
X0336854Y0299442D01*
X0336960Y0299406D01*
X0337064Y0299366D01*
X0337167Y0299323D01*
X0337269Y0299276D01*
X0337368Y0299225D01*
X0337466Y0299171D01*
X0337562Y0299113D01*
X0337656Y0299052D01*
X0337747Y0298988D01*
X0337836Y0298921D01*
X0337923Y0298850D01*
X0338007Y0298776D01*
X0338089Y0298700D01*
X0338167Y0298620D01*
X0338243Y0298538D01*
X0338316Y0298453D01*
X0338386Y0298366D01*
X0338452Y0298276D01*
X0338516Y0298184D01*
X0338576Y0298090D01*
X0338633Y0297994D01*
X0338686Y0297895D01*
X0338736Y0297795D01*
X0338782Y0297694D01*
X0338825Y0297590D01*
X0338864Y0297485D01*
X0338899Y0297379D01*
X0338930Y0297272D01*
X0338958Y0297163D01*
X0338981Y0297054D01*
X0339001Y0296944D01*
X0339017Y0296833D01*
X0339029Y0296722D01*
X0339037Y0296611D01*
X0339041Y0296499D01*
X0339041Y0296387D01*
X0339037Y0296275D01*
X0339029Y0296164D01*
X0339017Y0296053D01*
X0339001Y0295942D01*
X0338981Y0295832D01*
X0338958Y0295723D01*
X0338930Y0295614D01*
X0338899Y0295507D01*
X0338864Y0295401D01*
X0338825Y0295296D01*
X0338782Y0295192D01*
X0338736Y0295091D01*
X0338686Y0294991D01*
X0338633Y0294892D01*
X0338576Y0294796D01*
X0338516Y0294702D01*
X0338452Y0294610D01*
X0338386Y0294520D01*
X0338316Y0294433D01*
X0338243Y0294348D01*
X0338167Y0294266D01*
X0338089Y0294186D01*
X0338007Y0294110D01*
X0337923Y0294036D01*
X0337836Y0293965D01*
X0337747Y0293898D01*
X0337656Y0293834D01*
X0337562Y0293773D01*
X0337466Y0293715D01*
X0337368Y0293661D01*
X0337269Y0293610D01*
X0337167Y0293563D01*
X0337064Y0293520D01*
X0336960Y0293480D01*
X0336854Y0293444D01*
X0336747Y0293411D01*
X0336639Y0293383D01*
X0336530Y0293358D01*
X0336420Y0293338D01*
X0336309Y0293321D01*
X0336198Y0293308D01*
X0336087Y0293299D01*
X0335975Y0293294D01*
X0335863Y0293293D01*
X0335751Y0293296D01*
X0335640Y0293303D01*
X0335528Y0293314D01*
X0335418Y0293329D01*
X0335307Y0293348D01*
X0335198Y0293370D01*
X0335089Y0293397D01*
X0334982Y0293427D01*
X0334875Y0293461D01*
X0334770Y0293499D01*
X0334666Y0293541D01*
X0334564Y0293586D01*
X0334463Y0293635D01*
X0334365Y0293687D01*
X0334268Y0293743D01*
X0334173Y0293803D01*
X0334080Y0293865D01*
X0333990Y0293931D01*
X0333902Y0294000D01*
X0333817Y0294072D01*
X0333734Y0294148D01*
X0333654Y0294226D01*
X0333576Y0294306D01*
X0333502Y0294390D01*
X0333431Y0294476D01*
X0333362Y0294564D01*
X0333297Y0294655D01*
X0333236Y0294749D01*
X0333177Y0294844D01*
X0333122Y0294941D01*
X0333071Y0295040D01*
X0333023Y0295141D01*
X0332978Y0295244D01*
X0332937Y0295348D01*
X0332900Y0295454D01*
X0332867Y0295560D01*
X0332838Y0295668D01*
X0332812Y0295777D01*
X0332790Y0295887D01*
X0332773Y0295997D01*
X0332759Y0296108D01*
X0332749Y0296220D01*
X0332743Y0296331D01*
X0332741Y0296443D01*
X0175261Y0296443D02*
X0175263Y0296555D01*
X0175269Y0296666D01*
X0175279Y0296778D01*
X0175293Y0296889D01*
X0175310Y0296999D01*
X0175332Y0297109D01*
X0175358Y0297218D01*
X0175387Y0297326D01*
X0175420Y0297432D01*
X0175457Y0297538D01*
X0175498Y0297642D01*
X0175543Y0297745D01*
X0175591Y0297846D01*
X0175642Y0297945D01*
X0175697Y0298042D01*
X0175756Y0298137D01*
X0175817Y0298231D01*
X0175882Y0298322D01*
X0175951Y0298410D01*
X0176022Y0298496D01*
X0176096Y0298580D01*
X0176174Y0298660D01*
X0176254Y0298738D01*
X0176337Y0298814D01*
X0176422Y0298886D01*
X0176510Y0298955D01*
X0176600Y0299021D01*
X0176693Y0299083D01*
X0176788Y0299143D01*
X0176885Y0299199D01*
X0176983Y0299251D01*
X0177084Y0299300D01*
X0177186Y0299345D01*
X0177290Y0299387D01*
X0177395Y0299425D01*
X0177502Y0299459D01*
X0177609Y0299489D01*
X0177718Y0299516D01*
X0177827Y0299538D01*
X0177938Y0299557D01*
X0178048Y0299572D01*
X0178160Y0299583D01*
X0178271Y0299590D01*
X0178383Y0299593D01*
X0178495Y0299592D01*
X0178607Y0299587D01*
X0178718Y0299578D01*
X0178829Y0299565D01*
X0178940Y0299548D01*
X0179050Y0299528D01*
X0179159Y0299503D01*
X0179267Y0299475D01*
X0179374Y0299442D01*
X0179480Y0299406D01*
X0179584Y0299366D01*
X0179687Y0299323D01*
X0179789Y0299276D01*
X0179888Y0299225D01*
X0179986Y0299171D01*
X0180082Y0299113D01*
X0180176Y0299052D01*
X0180267Y0298988D01*
X0180356Y0298921D01*
X0180443Y0298850D01*
X0180527Y0298776D01*
X0180609Y0298700D01*
X0180687Y0298620D01*
X0180763Y0298538D01*
X0180836Y0298453D01*
X0180906Y0298366D01*
X0180972Y0298276D01*
X0181036Y0298184D01*
X0181096Y0298090D01*
X0181153Y0297994D01*
X0181206Y0297895D01*
X0181256Y0297795D01*
X0181302Y0297694D01*
X0181345Y0297590D01*
X0181384Y0297485D01*
X0181419Y0297379D01*
X0181450Y0297272D01*
X0181478Y0297163D01*
X0181501Y0297054D01*
X0181521Y0296944D01*
X0181537Y0296833D01*
X0181549Y0296722D01*
X0181557Y0296611D01*
X0181561Y0296499D01*
X0181561Y0296387D01*
X0181557Y0296275D01*
X0181549Y0296164D01*
X0181537Y0296053D01*
X0181521Y0295942D01*
X0181501Y0295832D01*
X0181478Y0295723D01*
X0181450Y0295614D01*
X0181419Y0295507D01*
X0181384Y0295401D01*
X0181345Y0295296D01*
X0181302Y0295192D01*
X0181256Y0295091D01*
X0181206Y0294991D01*
X0181153Y0294892D01*
X0181096Y0294796D01*
X0181036Y0294702D01*
X0180972Y0294610D01*
X0180906Y0294520D01*
X0180836Y0294433D01*
X0180763Y0294348D01*
X0180687Y0294266D01*
X0180609Y0294186D01*
X0180527Y0294110D01*
X0180443Y0294036D01*
X0180356Y0293965D01*
X0180267Y0293898D01*
X0180176Y0293834D01*
X0180082Y0293773D01*
X0179986Y0293715D01*
X0179888Y0293661D01*
X0179789Y0293610D01*
X0179687Y0293563D01*
X0179584Y0293520D01*
X0179480Y0293480D01*
X0179374Y0293444D01*
X0179267Y0293411D01*
X0179159Y0293383D01*
X0179050Y0293358D01*
X0178940Y0293338D01*
X0178829Y0293321D01*
X0178718Y0293308D01*
X0178607Y0293299D01*
X0178495Y0293294D01*
X0178383Y0293293D01*
X0178271Y0293296D01*
X0178160Y0293303D01*
X0178048Y0293314D01*
X0177938Y0293329D01*
X0177827Y0293348D01*
X0177718Y0293370D01*
X0177609Y0293397D01*
X0177502Y0293427D01*
X0177395Y0293461D01*
X0177290Y0293499D01*
X0177186Y0293541D01*
X0177084Y0293586D01*
X0176983Y0293635D01*
X0176885Y0293687D01*
X0176788Y0293743D01*
X0176693Y0293803D01*
X0176600Y0293865D01*
X0176510Y0293931D01*
X0176422Y0294000D01*
X0176337Y0294072D01*
X0176254Y0294148D01*
X0176174Y0294226D01*
X0176096Y0294306D01*
X0176022Y0294390D01*
X0175951Y0294476D01*
X0175882Y0294564D01*
X0175817Y0294655D01*
X0175756Y0294749D01*
X0175697Y0294844D01*
X0175642Y0294941D01*
X0175591Y0295040D01*
X0175543Y0295141D01*
X0175498Y0295244D01*
X0175457Y0295348D01*
X0175420Y0295454D01*
X0175387Y0295560D01*
X0175358Y0295668D01*
X0175332Y0295777D01*
X0175310Y0295887D01*
X0175293Y0295997D01*
X0175279Y0296108D01*
X0175269Y0296220D01*
X0175263Y0296331D01*
X0175261Y0296443D01*
D12*
X0187348Y0379277D03*
X0187348Y0385970D03*
X0153332Y0385970D03*
X0153332Y0379277D03*
D13*
X0166876Y0417683D02*
X0166876Y0424887D01*
X0176718Y0424887D02*
X0176718Y0417683D01*
X0200813Y0417860D02*
X0200813Y0425065D01*
X0210655Y0425065D02*
X0210655Y0417860D01*
X0220498Y0417860D02*
X0220498Y0425065D01*
X0230340Y0425065D02*
X0230340Y0417860D01*
X0255045Y0418372D02*
X0255045Y0425576D01*
X0264887Y0425576D02*
X0264887Y0418372D01*
X0274730Y0418372D02*
X0274730Y0425576D01*
X0284572Y0425576D02*
X0284572Y0418372D01*
X0308883Y0419002D02*
X0308883Y0426206D01*
X0318726Y0426206D02*
X0318726Y0419002D01*
X0328569Y0419002D02*
X0328569Y0426206D01*
X0338411Y0426206D02*
X0338411Y0419002D01*
X0447210Y0262624D02*
X0454415Y0262624D01*
X0454415Y0252781D02*
X0447210Y0252781D01*
X0447210Y0242939D02*
X0454415Y0242939D01*
X0454415Y0233096D02*
X0447210Y0233096D01*
X0447210Y0223254D02*
X0454415Y0223254D01*
X0454415Y0213411D02*
X0447210Y0213411D01*
X0448037Y0187072D02*
X0455242Y0187072D01*
X0455242Y0177230D02*
X0448037Y0177230D01*
X0448037Y0167387D02*
X0455242Y0167387D01*
X0455242Y0157545D02*
X0448037Y0157545D01*
X0388903Y0194159D02*
X0381698Y0194159D01*
X0381698Y0204002D02*
X0388903Y0204002D01*
X0388903Y0213844D02*
X0381698Y0213844D01*
X0381698Y0223687D02*
X0388903Y0223687D01*
X0374080Y0069769D02*
X0374080Y0062565D01*
X0364238Y0062565D02*
X0364238Y0069769D01*
X0354395Y0069769D02*
X0354395Y0062565D01*
X0344553Y0062565D02*
X0344553Y0069769D01*
X0313962Y0069887D02*
X0313962Y0062683D01*
X0304120Y0062683D02*
X0304120Y0069887D01*
X0294277Y0069887D02*
X0294277Y0062683D01*
X0284435Y0062683D02*
X0284435Y0069887D01*
X0400616Y0068903D02*
X0400616Y0061698D01*
X0410458Y0061698D02*
X0410458Y0068903D01*
X0420301Y0068903D02*
X0420301Y0061698D01*
X0430143Y0061698D02*
X0430143Y0068903D01*
X0132525Y0259631D02*
X0125320Y0259631D01*
X0125320Y0269474D02*
X0132525Y0269474D01*
X0097210Y0237387D02*
X0090006Y0237387D01*
X0090006Y0227545D02*
X0097210Y0227545D01*
D14*
X0109494Y0330628D02*
X0109494Y0336628D01*
X0119494Y0336628D02*
X0119494Y0330628D01*
D15*
X0258391Y0329222D02*
X0258391Y0333191D01*
X0263313Y0333191D02*
X0263313Y0329222D01*
X0268234Y0329222D02*
X0268234Y0333191D01*
X0273155Y0333191D02*
X0273155Y0329222D01*
X0278076Y0329222D02*
X0278076Y0333191D01*
X0282998Y0333191D02*
X0282998Y0329222D01*
X0287919Y0329222D02*
X0287919Y0333191D01*
X0292840Y0333191D02*
X0292840Y0329222D01*
X0383041Y0272486D02*
X0387009Y0272486D01*
X0387009Y0267565D02*
X0383041Y0267565D01*
X0383041Y0262643D02*
X0387009Y0262643D01*
X0387009Y0257722D02*
X0383041Y0257722D01*
X0383041Y0252801D02*
X0387009Y0252801D01*
X0387009Y0247880D02*
X0383041Y0247880D01*
X0384616Y0159474D02*
X0388584Y0159474D01*
X0388584Y0154553D02*
X0384616Y0154553D01*
X0384616Y0149631D02*
X0388584Y0149631D01*
X0388584Y0144710D02*
X0384616Y0144710D01*
D16*
X0372072Y0334120D03*
X0372072Y0344120D03*
X0372072Y0354120D03*
X0372072Y0364120D03*
X0372072Y0374120D03*
X0372072Y0384120D03*
X0372072Y0394120D03*
X0372072Y0404120D03*
X0372072Y0414120D03*
X0372072Y0424120D03*
X0452072Y0424120D03*
X0452072Y0414120D03*
X0452072Y0404120D03*
X0452072Y0394120D03*
X0452072Y0384120D03*
X0452072Y0374120D03*
X0452072Y0364120D03*
X0452072Y0354120D03*
X0452072Y0344120D03*
X0452072Y0334120D03*
X0226876Y0334317D03*
X0216876Y0334317D03*
X0206876Y0334317D03*
X0206915Y0353096D03*
X0216915Y0353096D03*
X0226915Y0353096D03*
X0226915Y0373096D03*
X0216915Y0373096D03*
X0206915Y0373096D03*
X0118214Y0303017D03*
X0108214Y0303017D03*
X0098214Y0303017D03*
D17*
X0377584Y0300616D03*
X0377584Y0288805D03*
D18*
X0414435Y0310419D03*
X0414435Y0320419D03*
X0435419Y0320931D03*
X0435419Y0310931D03*
X0344474Y0368411D03*
X0344474Y0378411D03*
X0321954Y0378529D03*
X0321954Y0368529D03*
X0299317Y0368293D03*
X0299317Y0378293D03*
D19*
X0176777Y0378549D03*
X0176777Y0386029D03*
X0166541Y0386029D03*
X0166541Y0382289D03*
X0166541Y0378549D03*
D20*
X0155346Y0364336D03*
X0155346Y0359336D03*
X0155346Y0354336D03*
X0155346Y0349336D03*
X0155346Y0344336D03*
X0155346Y0339336D03*
X0155346Y0334336D03*
X0155346Y0329336D03*
X0179546Y0329336D03*
X0179546Y0334336D03*
X0179546Y0339336D03*
X0179546Y0344336D03*
X0179546Y0349336D03*
X0179546Y0354336D03*
X0179546Y0359336D03*
X0179546Y0364336D03*
D21*
X0308057Y0355438D03*
X0308057Y0348352D03*
X0345734Y0347840D03*
X0345734Y0354926D03*
X0377072Y0317860D03*
X0377072Y0310773D03*
X0395143Y0306954D03*
X0395143Y0299868D03*
D22*
X0396443Y0287939D03*
X0389356Y0287939D03*
X0414317Y0299828D03*
X0421403Y0299828D03*
D23*
X0435419Y0310931D01*
X0435419Y0320931D02*
X0435419Y0341994D01*
X0435498Y0342072D01*
X0452112Y0333726D02*
X0452112Y0293726D01*
X0447781Y0287860D01*
X0452781Y0287899D01*
X0447781Y0287860D02*
X0396443Y0287939D01*
X0396443Y0271797D01*
X0392269Y0267624D01*
X0385084Y0267624D01*
X0385025Y0262643D02*
X0403352Y0262643D01*
X0420084Y0262643D01*
X0433844Y0276403D01*
X0446049Y0276403D01*
X0458844Y0287230D01*
X0458844Y0339002D01*
X0452072Y0384120D02*
X0414435Y0320419D01*
X0414435Y0310419D02*
X0395143Y0306954D01*
X0395143Y0299868D02*
X0414317Y0299828D01*
X0414317Y0294002D01*
X0414750Y0292702D01*
X0395143Y0299868D02*
X0389356Y0287939D01*
X0389277Y0288805D01*
X0377584Y0288805D01*
X0377584Y0300616D02*
X0377072Y0301128D01*
X0377072Y0310773D01*
X0377072Y0317860D02*
X0452072Y0392860D01*
X0452072Y0394120D01*
X0465970Y0424120D02*
X0454750Y0438096D01*
X0323214Y0438175D01*
X0318726Y0431403D01*
X0318844Y0422840D01*
X0318726Y0422604D01*
X0318726Y0431403D02*
X0316482Y0438175D01*
X0267309Y0438175D01*
X0264848Y0433588D01*
X0264887Y0421974D01*
X0274730Y0421974D02*
X0274730Y0409179D01*
X0266403Y0400852D01*
X0205931Y0400852D01*
X0196954Y0391876D01*
X0187348Y0385970D02*
X0265438Y0385970D01*
X0308057Y0348352D01*
X0345734Y0347840D01*
X0357289Y0334120D01*
X0372072Y0334120D01*
X0345734Y0354926D02*
X0344474Y0356186D01*
X0344474Y0368411D01*
X0348765Y0374120D02*
X0344474Y0378411D01*
X0348765Y0374120D02*
X0372072Y0374120D01*
X0372072Y0384120D02*
X0371246Y0384946D01*
X0335419Y0384946D01*
X0329002Y0378529D01*
X0321954Y0378529D01*
X0321954Y0368529D02*
X0306718Y0355301D01*
X0308057Y0355438D01*
X0308765Y0368293D02*
X0299317Y0368293D01*
X0308765Y0368293D02*
X0310852Y0370380D01*
X0310852Y0386206D01*
X0315380Y0390734D01*
X0348687Y0390734D01*
X0372072Y0414120D01*
X0321954Y0368529D02*
X0320458Y0366757D01*
X0331088Y0338214D02*
X0311049Y0318017D01*
X0282387Y0318017D01*
X0278076Y0322328D01*
X0278076Y0331206D01*
X0258391Y0331206D02*
X0258391Y0352092D01*
X0254238Y0356246D01*
X0239750Y0359120D02*
X0239631Y0359002D01*
X0239631Y0340498D01*
X0233135Y0334002D01*
X0226876Y0334317D01*
X0217387Y0343529D01*
X0204356Y0343529D01*
X0200163Y0339336D01*
X0179546Y0339336D01*
X0179546Y0334336D02*
X0206876Y0334317D01*
X0216876Y0334317D02*
X0216915Y0323962D01*
X0216951Y0323824D01*
X0216991Y0323687D01*
X0217035Y0323551D01*
X0217082Y0323417D01*
X0217133Y0323284D01*
X0217188Y0323152D01*
X0217246Y0323022D01*
X0217308Y0322894D01*
X0217373Y0322767D01*
X0217442Y0322643D01*
X0217514Y0322520D01*
X0217590Y0322399D01*
X0217669Y0322280D01*
X0217751Y0322164D01*
X0217836Y0322050D01*
X0217924Y0321938D01*
X0218016Y0321829D01*
X0218110Y0321722D01*
X0218208Y0321618D01*
X0218308Y0321517D01*
X0218411Y0321418D01*
X0218516Y0321322D01*
X0218625Y0321230D01*
X0218735Y0321140D01*
X0218848Y0321053D01*
X0218964Y0320970D01*
X0219082Y0320890D01*
X0219202Y0320813D01*
X0219324Y0320739D01*
X0219447Y0320669D01*
X0219573Y0320602D01*
X0219701Y0320538D01*
X0219830Y0320479D01*
X0219961Y0320422D01*
X0220094Y0320370D01*
X0220228Y0320321D01*
X0220363Y0320276D01*
X0220499Y0320234D01*
X0220636Y0320197D01*
X0220775Y0320163D01*
X0220914Y0320133D01*
X0221054Y0320107D01*
X0221195Y0320084D01*
X0221336Y0320066D01*
X0221478Y0320051D01*
X0221620Y0320041D01*
X0221762Y0320034D01*
X0221905Y0320031D01*
X0222047Y0320032D01*
X0222190Y0320037D01*
X0222332Y0320046D01*
X0222474Y0320059D01*
X0222615Y0320076D01*
X0222756Y0320097D01*
X0222897Y0320121D01*
X0223036Y0320150D01*
X0223175Y0320182D01*
X0223175Y0320183D02*
X0253431Y0320183D01*
X0253683Y0320199D01*
X0253935Y0320222D01*
X0254186Y0320251D01*
X0254437Y0320286D01*
X0254687Y0320328D01*
X0254935Y0320375D01*
X0255182Y0320428D01*
X0255428Y0320487D01*
X0255673Y0320552D01*
X0255916Y0320623D01*
X0256157Y0320700D01*
X0256396Y0320782D01*
X0256633Y0320871D01*
X0256868Y0320965D01*
X0257100Y0321064D01*
X0257330Y0321169D01*
X0257558Y0321280D01*
X0257782Y0321397D01*
X0258004Y0321518D01*
X0258223Y0321645D01*
X0258439Y0321777D01*
X0258651Y0321915D01*
X0258860Y0322057D01*
X0259066Y0322205D01*
X0259267Y0322357D01*
X0259466Y0322514D01*
X0259660Y0322676D01*
X0259850Y0322843D01*
X0260036Y0323014D01*
X0260219Y0323190D01*
X0260396Y0323370D01*
X0260570Y0323554D01*
X0260738Y0323742D01*
X0260903Y0323935D01*
X0261062Y0324131D01*
X0261217Y0324331D01*
X0261367Y0324535D01*
X0261512Y0324742D01*
X0261652Y0324953D01*
X0261786Y0325167D01*
X0261916Y0325384D01*
X0262040Y0325605D01*
X0262159Y0325828D01*
X0262273Y0326054D01*
X0262380Y0326283D01*
X0262483Y0326514D01*
X0262580Y0326748D01*
X0262671Y0326984D01*
X0262756Y0327222D01*
X0262836Y0327462D01*
X0262909Y0327704D01*
X0262977Y0327948D01*
X0263039Y0328193D01*
X0263095Y0328440D01*
X0263145Y0328688D01*
X0263189Y0328937D01*
X0263227Y0329187D01*
X0263259Y0329438D01*
X0263285Y0329690D01*
X0263305Y0329942D01*
X0263319Y0330194D01*
X0263326Y0330447D01*
X0263328Y0330700D01*
X0263323Y0330953D01*
X0263312Y0331206D01*
X0226915Y0353096D02*
X0221009Y0360419D01*
X0196994Y0360301D01*
X0196757Y0360616D01*
X0197033Y0360222D01*
X0196994Y0360301D02*
X0185911Y0349218D01*
X0179546Y0349336D01*
X0179546Y0344336D02*
X0197998Y0344179D01*
X0206915Y0353096D01*
X0201718Y0367899D02*
X0206915Y0373096D01*
X0201718Y0367899D02*
X0196600Y0367899D01*
X0183037Y0354336D01*
X0179546Y0354336D01*
X0179546Y0359336D02*
X0183116Y0359336D01*
X0205419Y0381639D01*
X0218372Y0381639D01*
X0226915Y0373096D01*
X0252781Y0373096D01*
X0268017Y0372899D01*
X0210655Y0421462D02*
X0210655Y0429277D01*
X0216954Y0438135D01*
X0267309Y0438175D01*
X0187348Y0385970D02*
X0187289Y0386029D01*
X0176777Y0386029D01*
X0176718Y0421285D01*
X0171403Y0391561D02*
X0166541Y0386423D01*
X0166541Y0386029D01*
X0153332Y0385970D01*
X0145931Y0385970D01*
X0145781Y0385968D01*
X0145630Y0385962D01*
X0145480Y0385952D01*
X0145330Y0385939D01*
X0145181Y0385921D01*
X0145032Y0385899D01*
X0144884Y0385874D01*
X0144736Y0385844D01*
X0144589Y0385811D01*
X0144443Y0385774D01*
X0144298Y0385733D01*
X0144155Y0385689D01*
X0144012Y0385640D01*
X0143871Y0385588D01*
X0143731Y0385532D01*
X0143593Y0385473D01*
X0143456Y0385410D01*
X0143321Y0385344D01*
X0143188Y0385273D01*
X0143057Y0385200D01*
X0142928Y0385123D01*
X0142800Y0385043D01*
X0142675Y0384959D01*
X0142552Y0384872D01*
X0142432Y0384782D01*
X0142314Y0384689D01*
X0142198Y0384593D01*
X0142085Y0384494D01*
X0141974Y0384391D01*
X0141867Y0384286D01*
X0141762Y0384179D01*
X0141659Y0384068D01*
X0141560Y0383955D01*
X0141464Y0383839D01*
X0141371Y0383721D01*
X0141281Y0383601D01*
X0141194Y0383478D01*
X0141110Y0383353D01*
X0141030Y0383225D01*
X0140953Y0383096D01*
X0140880Y0382965D01*
X0140809Y0382832D01*
X0140743Y0382697D01*
X0140680Y0382560D01*
X0140621Y0382422D01*
X0140565Y0382282D01*
X0140513Y0382141D01*
X0140464Y0381998D01*
X0140420Y0381855D01*
X0140379Y0381710D01*
X0140342Y0381564D01*
X0140309Y0381417D01*
X0140279Y0381269D01*
X0140254Y0381121D01*
X0140232Y0380972D01*
X0140214Y0380823D01*
X0140201Y0380673D01*
X0140191Y0380523D01*
X0140185Y0380372D01*
X0140183Y0380222D01*
X0140183Y0376324D01*
X0147072Y0315537D01*
X0179546Y0329336D01*
X0118214Y0303017D01*
X0107077Y0273311D01*
X0107077Y0272856D01*
X0107076Y0272856D02*
X0107078Y0272739D01*
X0107084Y0272622D01*
X0107093Y0272505D01*
X0107107Y0272389D01*
X0107124Y0272273D01*
X0107145Y0272158D01*
X0107169Y0272043D01*
X0107198Y0271930D01*
X0107230Y0271817D01*
X0107266Y0271706D01*
X0107305Y0271595D01*
X0107348Y0271486D01*
X0107395Y0271379D01*
X0107445Y0271273D01*
X0107499Y0271169D01*
X0107555Y0271067D01*
X0107616Y0270966D01*
X0107679Y0270868D01*
X0107746Y0270771D01*
X0107816Y0270677D01*
X0107888Y0270586D01*
X0107964Y0270496D01*
X0108043Y0270409D01*
X0108124Y0270325D01*
X0108208Y0270244D01*
X0108295Y0270165D01*
X0108385Y0270089D01*
X0108476Y0270017D01*
X0108570Y0269947D01*
X0108667Y0269880D01*
X0108765Y0269817D01*
X0108866Y0269756D01*
X0108968Y0269700D01*
X0109072Y0269646D01*
X0109178Y0269596D01*
X0109285Y0269549D01*
X0109394Y0269506D01*
X0109505Y0269467D01*
X0109616Y0269431D01*
X0109729Y0269399D01*
X0109842Y0269370D01*
X0109957Y0269346D01*
X0110072Y0269325D01*
X0110188Y0269308D01*
X0110304Y0269294D01*
X0110421Y0269285D01*
X0110538Y0269279D01*
X0110655Y0269277D01*
X0128923Y0269474D01*
X0118214Y0303017D02*
X0093608Y0237387D01*
X0108214Y0303017D02*
X0108214Y0311561D01*
X0119494Y0322840D01*
X0119494Y0333628D01*
X0143883Y0371718D02*
X0159631Y0371639D01*
X0159631Y0371640D02*
X0159798Y0371642D01*
X0159965Y0371648D01*
X0160131Y0371658D01*
X0160298Y0371672D01*
X0160464Y0371690D01*
X0160629Y0371713D01*
X0160794Y0371739D01*
X0160958Y0371769D01*
X0161122Y0371803D01*
X0161284Y0371841D01*
X0161446Y0371883D01*
X0161607Y0371928D01*
X0161766Y0371978D01*
X0161924Y0372032D01*
X0162081Y0372089D01*
X0162236Y0372150D01*
X0162390Y0372215D01*
X0162542Y0372283D01*
X0162693Y0372356D01*
X0162842Y0372431D01*
X0162989Y0372511D01*
X0163134Y0372594D01*
X0163276Y0372680D01*
X0163417Y0372770D01*
X0163556Y0372863D01*
X0163692Y0372960D01*
X0163826Y0373059D01*
X0163957Y0373162D01*
X0164086Y0373268D01*
X0164213Y0373378D01*
X0164336Y0373490D01*
X0164457Y0373605D01*
X0164575Y0373723D01*
X0164690Y0373844D01*
X0164802Y0373967D01*
X0164912Y0374094D01*
X0165018Y0374223D01*
X0165121Y0374354D01*
X0165220Y0374488D01*
X0165317Y0374624D01*
X0165410Y0374763D01*
X0165500Y0374904D01*
X0165586Y0375046D01*
X0165669Y0375191D01*
X0165749Y0375338D01*
X0165824Y0375487D01*
X0165897Y0375638D01*
X0165965Y0375790D01*
X0166030Y0375944D01*
X0166091Y0376099D01*
X0166148Y0376256D01*
X0166202Y0376414D01*
X0166252Y0376573D01*
X0166297Y0376734D01*
X0166339Y0376896D01*
X0166377Y0377058D01*
X0166411Y0377222D01*
X0166441Y0377386D01*
X0166467Y0377551D01*
X0166490Y0377716D01*
X0166508Y0377882D01*
X0166522Y0378049D01*
X0166532Y0378215D01*
X0166538Y0378382D01*
X0166540Y0378549D01*
X0166541Y0382289D02*
X0156186Y0379751D01*
X0153332Y0379277D01*
X0153450Y0379080D02*
X0156186Y0379751D01*
X0153450Y0379080D02*
X0145419Y0379159D01*
X0140183Y0376325D02*
X0140171Y0376199D01*
X0140163Y0376073D01*
X0140159Y0375947D01*
X0140158Y0375821D01*
X0140162Y0375695D01*
X0140169Y0375569D01*
X0140180Y0375443D01*
X0140195Y0375318D01*
X0140214Y0375193D01*
X0140236Y0375069D01*
X0140262Y0374945D01*
X0140292Y0374823D01*
X0140326Y0374701D01*
X0140363Y0374580D01*
X0140404Y0374461D01*
X0140448Y0374343D01*
X0140496Y0374226D01*
X0140547Y0374111D01*
X0140602Y0373997D01*
X0140661Y0373885D01*
X0140722Y0373775D01*
X0140787Y0373667D01*
X0140856Y0373561D01*
X0140927Y0373457D01*
X0141001Y0373355D01*
X0141079Y0373255D01*
X0141159Y0373158D01*
X0141243Y0373063D01*
X0141329Y0372971D01*
X0141418Y0372882D01*
X0141510Y0372795D01*
X0141604Y0372711D01*
X0141701Y0372630D01*
X0141800Y0372552D01*
X0141901Y0372477D01*
X0142005Y0372405D01*
X0142111Y0372336D01*
X0142219Y0372270D01*
X0142328Y0372208D01*
X0142440Y0372149D01*
X0142553Y0372093D01*
X0142668Y0372041D01*
X0142785Y0371993D01*
X0142902Y0371948D01*
X0143022Y0371906D01*
X0143142Y0371868D01*
X0143263Y0371834D01*
X0143386Y0371803D01*
X0143509Y0371777D01*
X0143633Y0371754D01*
X0143758Y0371734D01*
X0143883Y0371719D01*
X0179546Y0364336D02*
X0187348Y0370576D01*
X0187348Y0379277D01*
X0385301Y0223687D02*
X0385340Y0223726D01*
X0406049Y0223726D01*
X0442702Y0187072D01*
X0451639Y0187072D01*
X0451639Y0177230D02*
X0439828Y0177230D01*
X0403214Y0213844D01*
X0385301Y0213844D01*
X0433175Y0232820D02*
X0450537Y0233057D01*
X0450813Y0233096D01*
X0433175Y0232820D02*
X0403352Y0262643D01*
X0450813Y0252781D02*
X0456521Y0252781D01*
X0465970Y0262230D01*
X0465970Y0424120D01*
X0456521Y0252781D02*
X0465813Y0244474D01*
X0465694Y0112781D01*
X0430143Y0078883D01*
X0430143Y0065301D01*
X0430143Y0073096D01*
X0424198Y0079041D01*
X0386954Y0079041D01*
X0374080Y0066167D01*
X0374080Y0074395D01*
X0369435Y0079041D01*
X0326718Y0079041D01*
X0313962Y0066285D01*
X0298411Y0052387D02*
X0294277Y0056521D01*
X0293175Y0055419D01*
X0274277Y0055419D01*
X0265773Y0063923D01*
X0265773Y0080222D01*
X0278765Y0093214D01*
X0357742Y0093214D01*
X0369041Y0104513D01*
X0369041Y0141443D01*
X0377230Y0149631D01*
X0386600Y0149631D01*
X0410458Y0065301D02*
X0410458Y0059238D01*
X0403490Y0052269D01*
X0358254Y0052269D01*
X0354710Y0055813D01*
X0354356Y0065852D01*
X0354395Y0066167D01*
X0354395Y0055065D01*
X0351718Y0052387D01*
X0298411Y0052387D01*
X0294277Y0056521D02*
X0294277Y0066285D01*
D24*
X0452781Y0287899D03*
X0414750Y0292702D03*
X0385419Y0306521D03*
X0435498Y0342072D03*
X0331088Y0338214D03*
X0288962Y0377860D03*
X0268017Y0372899D03*
X0254238Y0356246D03*
X0239750Y0359120D03*
X0197033Y0360222D03*
X0187348Y0370576D03*
X0196954Y0391876D03*
X0171403Y0391561D03*
X0145419Y0379159D03*
D25*
X0119494Y0333628D02*
X0119474Y0333628D01*
X0288962Y0377860D02*
X0289395Y0378293D01*
X0299317Y0378293D01*
X0385419Y0306521D02*
X0388529Y0299868D01*
X0395143Y0299868D01*
X0385084Y0267624D02*
X0385025Y0267565D01*
X0452112Y0333726D02*
X0452072Y0334120D01*
X0458844Y0339002D02*
X0452072Y0344120D01*
M02*
