G75*
%MOIN*%
%OFA0B0*%
%FSLAX25Y25*%
%IPPOS*%
%LPD*%
%AMOC8*
5,1,8,0,0,1.08239X$1,22.5*
%
%ADD10C,0.00800*%
%ADD11C,0.00000*%
%ADD12C,0.07205*%
%ADD13C,0.06000*%
%ADD14C,0.03969*%
%ADD15C,0.07400*%
%ADD16R,0.03562X0.03562*%
%ADD17C,0.01000*%
%ADD18C,0.01200*%
%ADD19C,0.01600*%
D10*
X0075655Y0047033D02*
X0469356Y0047033D01*
X0469356Y0440734D01*
X0075655Y0440734D01*
X0075655Y0047033D01*
D11*
X0175261Y0138962D02*
X0175263Y0139074D01*
X0175269Y0139185D01*
X0175279Y0139297D01*
X0175293Y0139408D01*
X0175310Y0139518D01*
X0175332Y0139628D01*
X0175358Y0139737D01*
X0175387Y0139845D01*
X0175420Y0139951D01*
X0175457Y0140057D01*
X0175498Y0140161D01*
X0175543Y0140264D01*
X0175591Y0140365D01*
X0175642Y0140464D01*
X0175697Y0140561D01*
X0175756Y0140656D01*
X0175817Y0140750D01*
X0175882Y0140841D01*
X0175951Y0140929D01*
X0176022Y0141015D01*
X0176096Y0141099D01*
X0176174Y0141179D01*
X0176254Y0141257D01*
X0176337Y0141333D01*
X0176422Y0141405D01*
X0176510Y0141474D01*
X0176600Y0141540D01*
X0176693Y0141602D01*
X0176788Y0141662D01*
X0176885Y0141718D01*
X0176983Y0141770D01*
X0177084Y0141819D01*
X0177186Y0141864D01*
X0177290Y0141906D01*
X0177395Y0141944D01*
X0177502Y0141978D01*
X0177609Y0142008D01*
X0177718Y0142035D01*
X0177827Y0142057D01*
X0177938Y0142076D01*
X0178048Y0142091D01*
X0178160Y0142102D01*
X0178271Y0142109D01*
X0178383Y0142112D01*
X0178495Y0142111D01*
X0178607Y0142106D01*
X0178718Y0142097D01*
X0178829Y0142084D01*
X0178940Y0142067D01*
X0179050Y0142047D01*
X0179159Y0142022D01*
X0179267Y0141994D01*
X0179374Y0141961D01*
X0179480Y0141925D01*
X0179584Y0141885D01*
X0179687Y0141842D01*
X0179789Y0141795D01*
X0179888Y0141744D01*
X0179986Y0141690D01*
X0180082Y0141632D01*
X0180176Y0141571D01*
X0180267Y0141507D01*
X0180356Y0141440D01*
X0180443Y0141369D01*
X0180527Y0141295D01*
X0180609Y0141219D01*
X0180687Y0141139D01*
X0180763Y0141057D01*
X0180836Y0140972D01*
X0180906Y0140885D01*
X0180972Y0140795D01*
X0181036Y0140703D01*
X0181096Y0140609D01*
X0181153Y0140513D01*
X0181206Y0140414D01*
X0181256Y0140314D01*
X0181302Y0140213D01*
X0181345Y0140109D01*
X0181384Y0140004D01*
X0181419Y0139898D01*
X0181450Y0139791D01*
X0181478Y0139682D01*
X0181501Y0139573D01*
X0181521Y0139463D01*
X0181537Y0139352D01*
X0181549Y0139241D01*
X0181557Y0139130D01*
X0181561Y0139018D01*
X0181561Y0138906D01*
X0181557Y0138794D01*
X0181549Y0138683D01*
X0181537Y0138572D01*
X0181521Y0138461D01*
X0181501Y0138351D01*
X0181478Y0138242D01*
X0181450Y0138133D01*
X0181419Y0138026D01*
X0181384Y0137920D01*
X0181345Y0137815D01*
X0181302Y0137711D01*
X0181256Y0137610D01*
X0181206Y0137510D01*
X0181153Y0137411D01*
X0181096Y0137315D01*
X0181036Y0137221D01*
X0180972Y0137129D01*
X0180906Y0137039D01*
X0180836Y0136952D01*
X0180763Y0136867D01*
X0180687Y0136785D01*
X0180609Y0136705D01*
X0180527Y0136629D01*
X0180443Y0136555D01*
X0180356Y0136484D01*
X0180267Y0136417D01*
X0180176Y0136353D01*
X0180082Y0136292D01*
X0179986Y0136234D01*
X0179888Y0136180D01*
X0179789Y0136129D01*
X0179687Y0136082D01*
X0179584Y0136039D01*
X0179480Y0135999D01*
X0179374Y0135963D01*
X0179267Y0135930D01*
X0179159Y0135902D01*
X0179050Y0135877D01*
X0178940Y0135857D01*
X0178829Y0135840D01*
X0178718Y0135827D01*
X0178607Y0135818D01*
X0178495Y0135813D01*
X0178383Y0135812D01*
X0178271Y0135815D01*
X0178160Y0135822D01*
X0178048Y0135833D01*
X0177938Y0135848D01*
X0177827Y0135867D01*
X0177718Y0135889D01*
X0177609Y0135916D01*
X0177502Y0135946D01*
X0177395Y0135980D01*
X0177290Y0136018D01*
X0177186Y0136060D01*
X0177084Y0136105D01*
X0176983Y0136154D01*
X0176885Y0136206D01*
X0176788Y0136262D01*
X0176693Y0136322D01*
X0176600Y0136384D01*
X0176510Y0136450D01*
X0176422Y0136519D01*
X0176337Y0136591D01*
X0176254Y0136667D01*
X0176174Y0136745D01*
X0176096Y0136825D01*
X0176022Y0136909D01*
X0175951Y0136995D01*
X0175882Y0137083D01*
X0175817Y0137174D01*
X0175756Y0137268D01*
X0175697Y0137363D01*
X0175642Y0137460D01*
X0175591Y0137559D01*
X0175543Y0137660D01*
X0175498Y0137763D01*
X0175457Y0137867D01*
X0175420Y0137973D01*
X0175387Y0138079D01*
X0175358Y0138187D01*
X0175332Y0138296D01*
X0175310Y0138406D01*
X0175293Y0138516D01*
X0175279Y0138627D01*
X0175269Y0138739D01*
X0175263Y0138850D01*
X0175261Y0138962D01*
X0332741Y0138962D02*
X0332743Y0139074D01*
X0332749Y0139185D01*
X0332759Y0139297D01*
X0332773Y0139408D01*
X0332790Y0139518D01*
X0332812Y0139628D01*
X0332838Y0139737D01*
X0332867Y0139845D01*
X0332900Y0139951D01*
X0332937Y0140057D01*
X0332978Y0140161D01*
X0333023Y0140264D01*
X0333071Y0140365D01*
X0333122Y0140464D01*
X0333177Y0140561D01*
X0333236Y0140656D01*
X0333297Y0140750D01*
X0333362Y0140841D01*
X0333431Y0140929D01*
X0333502Y0141015D01*
X0333576Y0141099D01*
X0333654Y0141179D01*
X0333734Y0141257D01*
X0333817Y0141333D01*
X0333902Y0141405D01*
X0333990Y0141474D01*
X0334080Y0141540D01*
X0334173Y0141602D01*
X0334268Y0141662D01*
X0334365Y0141718D01*
X0334463Y0141770D01*
X0334564Y0141819D01*
X0334666Y0141864D01*
X0334770Y0141906D01*
X0334875Y0141944D01*
X0334982Y0141978D01*
X0335089Y0142008D01*
X0335198Y0142035D01*
X0335307Y0142057D01*
X0335418Y0142076D01*
X0335528Y0142091D01*
X0335640Y0142102D01*
X0335751Y0142109D01*
X0335863Y0142112D01*
X0335975Y0142111D01*
X0336087Y0142106D01*
X0336198Y0142097D01*
X0336309Y0142084D01*
X0336420Y0142067D01*
X0336530Y0142047D01*
X0336639Y0142022D01*
X0336747Y0141994D01*
X0336854Y0141961D01*
X0336960Y0141925D01*
X0337064Y0141885D01*
X0337167Y0141842D01*
X0337269Y0141795D01*
X0337368Y0141744D01*
X0337466Y0141690D01*
X0337562Y0141632D01*
X0337656Y0141571D01*
X0337747Y0141507D01*
X0337836Y0141440D01*
X0337923Y0141369D01*
X0338007Y0141295D01*
X0338089Y0141219D01*
X0338167Y0141139D01*
X0338243Y0141057D01*
X0338316Y0140972D01*
X0338386Y0140885D01*
X0338452Y0140795D01*
X0338516Y0140703D01*
X0338576Y0140609D01*
X0338633Y0140513D01*
X0338686Y0140414D01*
X0338736Y0140314D01*
X0338782Y0140213D01*
X0338825Y0140109D01*
X0338864Y0140004D01*
X0338899Y0139898D01*
X0338930Y0139791D01*
X0338958Y0139682D01*
X0338981Y0139573D01*
X0339001Y0139463D01*
X0339017Y0139352D01*
X0339029Y0139241D01*
X0339037Y0139130D01*
X0339041Y0139018D01*
X0339041Y0138906D01*
X0339037Y0138794D01*
X0339029Y0138683D01*
X0339017Y0138572D01*
X0339001Y0138461D01*
X0338981Y0138351D01*
X0338958Y0138242D01*
X0338930Y0138133D01*
X0338899Y0138026D01*
X0338864Y0137920D01*
X0338825Y0137815D01*
X0338782Y0137711D01*
X0338736Y0137610D01*
X0338686Y0137510D01*
X0338633Y0137411D01*
X0338576Y0137315D01*
X0338516Y0137221D01*
X0338452Y0137129D01*
X0338386Y0137039D01*
X0338316Y0136952D01*
X0338243Y0136867D01*
X0338167Y0136785D01*
X0338089Y0136705D01*
X0338007Y0136629D01*
X0337923Y0136555D01*
X0337836Y0136484D01*
X0337747Y0136417D01*
X0337656Y0136353D01*
X0337562Y0136292D01*
X0337466Y0136234D01*
X0337368Y0136180D01*
X0337269Y0136129D01*
X0337167Y0136082D01*
X0337064Y0136039D01*
X0336960Y0135999D01*
X0336854Y0135963D01*
X0336747Y0135930D01*
X0336639Y0135902D01*
X0336530Y0135877D01*
X0336420Y0135857D01*
X0336309Y0135840D01*
X0336198Y0135827D01*
X0336087Y0135818D01*
X0335975Y0135813D01*
X0335863Y0135812D01*
X0335751Y0135815D01*
X0335640Y0135822D01*
X0335528Y0135833D01*
X0335418Y0135848D01*
X0335307Y0135867D01*
X0335198Y0135889D01*
X0335089Y0135916D01*
X0334982Y0135946D01*
X0334875Y0135980D01*
X0334770Y0136018D01*
X0334666Y0136060D01*
X0334564Y0136105D01*
X0334463Y0136154D01*
X0334365Y0136206D01*
X0334268Y0136262D01*
X0334173Y0136322D01*
X0334080Y0136384D01*
X0333990Y0136450D01*
X0333902Y0136519D01*
X0333817Y0136591D01*
X0333734Y0136667D01*
X0333654Y0136745D01*
X0333576Y0136825D01*
X0333502Y0136909D01*
X0333431Y0136995D01*
X0333362Y0137083D01*
X0333297Y0137174D01*
X0333236Y0137268D01*
X0333177Y0137363D01*
X0333122Y0137460D01*
X0333071Y0137559D01*
X0333023Y0137660D01*
X0332978Y0137763D01*
X0332937Y0137867D01*
X0332900Y0137973D01*
X0332867Y0138079D01*
X0332838Y0138187D01*
X0332812Y0138296D01*
X0332790Y0138406D01*
X0332773Y0138516D01*
X0332759Y0138627D01*
X0332749Y0138739D01*
X0332743Y0138850D01*
X0332741Y0138962D01*
X0332741Y0296443D02*
X0332743Y0296555D01*
X0332749Y0296666D01*
X0332759Y0296778D01*
X0332773Y0296889D01*
X0332790Y0296999D01*
X0332812Y0297109D01*
X0332838Y0297218D01*
X0332867Y0297326D01*
X0332900Y0297432D01*
X0332937Y0297538D01*
X0332978Y0297642D01*
X0333023Y0297745D01*
X0333071Y0297846D01*
X0333122Y0297945D01*
X0333177Y0298042D01*
X0333236Y0298137D01*
X0333297Y0298231D01*
X0333362Y0298322D01*
X0333431Y0298410D01*
X0333502Y0298496D01*
X0333576Y0298580D01*
X0333654Y0298660D01*
X0333734Y0298738D01*
X0333817Y0298814D01*
X0333902Y0298886D01*
X0333990Y0298955D01*
X0334080Y0299021D01*
X0334173Y0299083D01*
X0334268Y0299143D01*
X0334365Y0299199D01*
X0334463Y0299251D01*
X0334564Y0299300D01*
X0334666Y0299345D01*
X0334770Y0299387D01*
X0334875Y0299425D01*
X0334982Y0299459D01*
X0335089Y0299489D01*
X0335198Y0299516D01*
X0335307Y0299538D01*
X0335418Y0299557D01*
X0335528Y0299572D01*
X0335640Y0299583D01*
X0335751Y0299590D01*
X0335863Y0299593D01*
X0335975Y0299592D01*
X0336087Y0299587D01*
X0336198Y0299578D01*
X0336309Y0299565D01*
X0336420Y0299548D01*
X0336530Y0299528D01*
X0336639Y0299503D01*
X0336747Y0299475D01*
X0336854Y0299442D01*
X0336960Y0299406D01*
X0337064Y0299366D01*
X0337167Y0299323D01*
X0337269Y0299276D01*
X0337368Y0299225D01*
X0337466Y0299171D01*
X0337562Y0299113D01*
X0337656Y0299052D01*
X0337747Y0298988D01*
X0337836Y0298921D01*
X0337923Y0298850D01*
X0338007Y0298776D01*
X0338089Y0298700D01*
X0338167Y0298620D01*
X0338243Y0298538D01*
X0338316Y0298453D01*
X0338386Y0298366D01*
X0338452Y0298276D01*
X0338516Y0298184D01*
X0338576Y0298090D01*
X0338633Y0297994D01*
X0338686Y0297895D01*
X0338736Y0297795D01*
X0338782Y0297694D01*
X0338825Y0297590D01*
X0338864Y0297485D01*
X0338899Y0297379D01*
X0338930Y0297272D01*
X0338958Y0297163D01*
X0338981Y0297054D01*
X0339001Y0296944D01*
X0339017Y0296833D01*
X0339029Y0296722D01*
X0339037Y0296611D01*
X0339041Y0296499D01*
X0339041Y0296387D01*
X0339037Y0296275D01*
X0339029Y0296164D01*
X0339017Y0296053D01*
X0339001Y0295942D01*
X0338981Y0295832D01*
X0338958Y0295723D01*
X0338930Y0295614D01*
X0338899Y0295507D01*
X0338864Y0295401D01*
X0338825Y0295296D01*
X0338782Y0295192D01*
X0338736Y0295091D01*
X0338686Y0294991D01*
X0338633Y0294892D01*
X0338576Y0294796D01*
X0338516Y0294702D01*
X0338452Y0294610D01*
X0338386Y0294520D01*
X0338316Y0294433D01*
X0338243Y0294348D01*
X0338167Y0294266D01*
X0338089Y0294186D01*
X0338007Y0294110D01*
X0337923Y0294036D01*
X0337836Y0293965D01*
X0337747Y0293898D01*
X0337656Y0293834D01*
X0337562Y0293773D01*
X0337466Y0293715D01*
X0337368Y0293661D01*
X0337269Y0293610D01*
X0337167Y0293563D01*
X0337064Y0293520D01*
X0336960Y0293480D01*
X0336854Y0293444D01*
X0336747Y0293411D01*
X0336639Y0293383D01*
X0336530Y0293358D01*
X0336420Y0293338D01*
X0336309Y0293321D01*
X0336198Y0293308D01*
X0336087Y0293299D01*
X0335975Y0293294D01*
X0335863Y0293293D01*
X0335751Y0293296D01*
X0335640Y0293303D01*
X0335528Y0293314D01*
X0335418Y0293329D01*
X0335307Y0293348D01*
X0335198Y0293370D01*
X0335089Y0293397D01*
X0334982Y0293427D01*
X0334875Y0293461D01*
X0334770Y0293499D01*
X0334666Y0293541D01*
X0334564Y0293586D01*
X0334463Y0293635D01*
X0334365Y0293687D01*
X0334268Y0293743D01*
X0334173Y0293803D01*
X0334080Y0293865D01*
X0333990Y0293931D01*
X0333902Y0294000D01*
X0333817Y0294072D01*
X0333734Y0294148D01*
X0333654Y0294226D01*
X0333576Y0294306D01*
X0333502Y0294390D01*
X0333431Y0294476D01*
X0333362Y0294564D01*
X0333297Y0294655D01*
X0333236Y0294749D01*
X0333177Y0294844D01*
X0333122Y0294941D01*
X0333071Y0295040D01*
X0333023Y0295141D01*
X0332978Y0295244D01*
X0332937Y0295348D01*
X0332900Y0295454D01*
X0332867Y0295560D01*
X0332838Y0295668D01*
X0332812Y0295777D01*
X0332790Y0295887D01*
X0332773Y0295997D01*
X0332759Y0296108D01*
X0332749Y0296220D01*
X0332743Y0296331D01*
X0332741Y0296443D01*
X0175261Y0296443D02*
X0175263Y0296555D01*
X0175269Y0296666D01*
X0175279Y0296778D01*
X0175293Y0296889D01*
X0175310Y0296999D01*
X0175332Y0297109D01*
X0175358Y0297218D01*
X0175387Y0297326D01*
X0175420Y0297432D01*
X0175457Y0297538D01*
X0175498Y0297642D01*
X0175543Y0297745D01*
X0175591Y0297846D01*
X0175642Y0297945D01*
X0175697Y0298042D01*
X0175756Y0298137D01*
X0175817Y0298231D01*
X0175882Y0298322D01*
X0175951Y0298410D01*
X0176022Y0298496D01*
X0176096Y0298580D01*
X0176174Y0298660D01*
X0176254Y0298738D01*
X0176337Y0298814D01*
X0176422Y0298886D01*
X0176510Y0298955D01*
X0176600Y0299021D01*
X0176693Y0299083D01*
X0176788Y0299143D01*
X0176885Y0299199D01*
X0176983Y0299251D01*
X0177084Y0299300D01*
X0177186Y0299345D01*
X0177290Y0299387D01*
X0177395Y0299425D01*
X0177502Y0299459D01*
X0177609Y0299489D01*
X0177718Y0299516D01*
X0177827Y0299538D01*
X0177938Y0299557D01*
X0178048Y0299572D01*
X0178160Y0299583D01*
X0178271Y0299590D01*
X0178383Y0299593D01*
X0178495Y0299592D01*
X0178607Y0299587D01*
X0178718Y0299578D01*
X0178829Y0299565D01*
X0178940Y0299548D01*
X0179050Y0299528D01*
X0179159Y0299503D01*
X0179267Y0299475D01*
X0179374Y0299442D01*
X0179480Y0299406D01*
X0179584Y0299366D01*
X0179687Y0299323D01*
X0179789Y0299276D01*
X0179888Y0299225D01*
X0179986Y0299171D01*
X0180082Y0299113D01*
X0180176Y0299052D01*
X0180267Y0298988D01*
X0180356Y0298921D01*
X0180443Y0298850D01*
X0180527Y0298776D01*
X0180609Y0298700D01*
X0180687Y0298620D01*
X0180763Y0298538D01*
X0180836Y0298453D01*
X0180906Y0298366D01*
X0180972Y0298276D01*
X0181036Y0298184D01*
X0181096Y0298090D01*
X0181153Y0297994D01*
X0181206Y0297895D01*
X0181256Y0297795D01*
X0181302Y0297694D01*
X0181345Y0297590D01*
X0181384Y0297485D01*
X0181419Y0297379D01*
X0181450Y0297272D01*
X0181478Y0297163D01*
X0181501Y0297054D01*
X0181521Y0296944D01*
X0181537Y0296833D01*
X0181549Y0296722D01*
X0181557Y0296611D01*
X0181561Y0296499D01*
X0181561Y0296387D01*
X0181557Y0296275D01*
X0181549Y0296164D01*
X0181537Y0296053D01*
X0181521Y0295942D01*
X0181501Y0295832D01*
X0181478Y0295723D01*
X0181450Y0295614D01*
X0181419Y0295507D01*
X0181384Y0295401D01*
X0181345Y0295296D01*
X0181302Y0295192D01*
X0181256Y0295091D01*
X0181206Y0294991D01*
X0181153Y0294892D01*
X0181096Y0294796D01*
X0181036Y0294702D01*
X0180972Y0294610D01*
X0180906Y0294520D01*
X0180836Y0294433D01*
X0180763Y0294348D01*
X0180687Y0294266D01*
X0180609Y0294186D01*
X0180527Y0294110D01*
X0180443Y0294036D01*
X0180356Y0293965D01*
X0180267Y0293898D01*
X0180176Y0293834D01*
X0180082Y0293773D01*
X0179986Y0293715D01*
X0179888Y0293661D01*
X0179789Y0293610D01*
X0179687Y0293563D01*
X0179584Y0293520D01*
X0179480Y0293480D01*
X0179374Y0293444D01*
X0179267Y0293411D01*
X0179159Y0293383D01*
X0179050Y0293358D01*
X0178940Y0293338D01*
X0178829Y0293321D01*
X0178718Y0293308D01*
X0178607Y0293299D01*
X0178495Y0293294D01*
X0178383Y0293293D01*
X0178271Y0293296D01*
X0178160Y0293303D01*
X0178048Y0293314D01*
X0177938Y0293329D01*
X0177827Y0293348D01*
X0177718Y0293370D01*
X0177609Y0293397D01*
X0177502Y0293427D01*
X0177395Y0293461D01*
X0177290Y0293499D01*
X0177186Y0293541D01*
X0177084Y0293586D01*
X0176983Y0293635D01*
X0176885Y0293687D01*
X0176788Y0293743D01*
X0176693Y0293803D01*
X0176600Y0293865D01*
X0176510Y0293931D01*
X0176422Y0294000D01*
X0176337Y0294072D01*
X0176254Y0294148D01*
X0176174Y0294226D01*
X0176096Y0294306D01*
X0176022Y0294390D01*
X0175951Y0294476D01*
X0175882Y0294564D01*
X0175817Y0294655D01*
X0175756Y0294749D01*
X0175697Y0294844D01*
X0175642Y0294941D01*
X0175591Y0295040D01*
X0175543Y0295141D01*
X0175498Y0295244D01*
X0175457Y0295348D01*
X0175420Y0295454D01*
X0175387Y0295560D01*
X0175358Y0295668D01*
X0175332Y0295777D01*
X0175310Y0295887D01*
X0175293Y0295997D01*
X0175279Y0296108D01*
X0175269Y0296220D01*
X0175263Y0296331D01*
X0175261Y0296443D01*
D12*
X0132525Y0269474D02*
X0125320Y0269474D01*
X0125320Y0259631D02*
X0132525Y0259631D01*
X0097210Y0237387D02*
X0090006Y0237387D01*
X0090006Y0227545D02*
X0097210Y0227545D01*
X0284435Y0069887D02*
X0284435Y0062683D01*
X0294277Y0062683D02*
X0294277Y0069887D01*
X0304120Y0069887D02*
X0304120Y0062683D01*
X0313962Y0062683D02*
X0313962Y0069887D01*
X0344553Y0069769D02*
X0344553Y0062565D01*
X0354395Y0062565D02*
X0354395Y0069769D01*
X0364238Y0069769D02*
X0364238Y0062565D01*
X0374080Y0062565D02*
X0374080Y0069769D01*
X0400616Y0068903D02*
X0400616Y0061698D01*
X0410458Y0061698D02*
X0410458Y0068903D01*
X0420301Y0068903D02*
X0420301Y0061698D01*
X0430143Y0061698D02*
X0430143Y0068903D01*
X0448037Y0157545D02*
X0455242Y0157545D01*
X0455242Y0167387D02*
X0448037Y0167387D01*
X0448037Y0177230D02*
X0455242Y0177230D01*
X0455242Y0187072D02*
X0448037Y0187072D01*
X0447210Y0213411D02*
X0454415Y0213411D01*
X0454415Y0223254D02*
X0447210Y0223254D01*
X0447210Y0233096D02*
X0454415Y0233096D01*
X0454415Y0242939D02*
X0447210Y0242939D01*
X0447210Y0252781D02*
X0454415Y0252781D01*
X0454415Y0262624D02*
X0447210Y0262624D01*
X0388903Y0223687D02*
X0381698Y0223687D01*
X0381698Y0213844D02*
X0388903Y0213844D01*
X0388903Y0204002D02*
X0381698Y0204002D01*
X0381698Y0194159D02*
X0388903Y0194159D01*
X0230340Y0417860D02*
X0230340Y0425065D01*
X0220498Y0425065D02*
X0220498Y0417860D01*
X0210655Y0417860D02*
X0210655Y0425065D01*
X0200813Y0425065D02*
X0200813Y0417860D01*
X0176718Y0417683D02*
X0176718Y0424887D01*
X0166876Y0424887D02*
X0166876Y0417683D01*
X0255045Y0418372D02*
X0255045Y0425576D01*
X0264887Y0425576D02*
X0264887Y0418372D01*
X0274730Y0418372D02*
X0274730Y0425576D01*
X0284572Y0425576D02*
X0284572Y0418372D01*
X0308883Y0419002D02*
X0308883Y0426206D01*
X0318726Y0426206D02*
X0318726Y0419002D01*
X0328569Y0419002D02*
X0328569Y0426206D01*
X0338411Y0426206D02*
X0338411Y0419002D01*
D13*
X0119494Y0336628D02*
X0119494Y0330628D01*
X0109494Y0330628D02*
X0109494Y0336628D01*
D14*
X0258391Y0333191D02*
X0258391Y0329222D01*
X0263313Y0329222D02*
X0263313Y0333191D01*
X0268234Y0333191D02*
X0268234Y0329222D01*
X0273155Y0329222D02*
X0273155Y0333191D01*
X0278076Y0333191D02*
X0278076Y0329222D01*
X0282998Y0329222D02*
X0282998Y0333191D01*
X0287919Y0333191D02*
X0287919Y0329222D01*
X0292840Y0329222D02*
X0292840Y0333191D01*
X0383041Y0272486D02*
X0387009Y0272486D01*
X0387009Y0267565D02*
X0383041Y0267565D01*
X0383041Y0262643D02*
X0387009Y0262643D01*
X0387009Y0257722D02*
X0383041Y0257722D01*
X0383041Y0252801D02*
X0387009Y0252801D01*
X0387009Y0247880D02*
X0383041Y0247880D01*
X0384616Y0159474D02*
X0388584Y0159474D01*
X0388584Y0154553D02*
X0384616Y0154553D01*
X0384616Y0149631D02*
X0388584Y0149631D01*
X0388584Y0144710D02*
X0384616Y0144710D01*
D15*
X0372072Y0334120D03*
X0372072Y0344120D03*
X0372072Y0354120D03*
X0372072Y0364120D03*
X0372072Y0374120D03*
X0372072Y0384120D03*
X0372072Y0394120D03*
X0372072Y0404120D03*
X0372072Y0414120D03*
X0372072Y0424120D03*
X0452072Y0424120D03*
X0452072Y0414120D03*
X0452072Y0404120D03*
X0452072Y0394120D03*
X0452072Y0384120D03*
X0452072Y0374120D03*
X0452072Y0364120D03*
X0452072Y0354120D03*
X0452072Y0344120D03*
X0452072Y0334120D03*
X0226876Y0334317D03*
X0216876Y0334317D03*
X0206876Y0334317D03*
X0206915Y0353096D03*
X0216915Y0353096D03*
X0226915Y0353096D03*
X0226915Y0373096D03*
X0216915Y0373096D03*
X0206915Y0373096D03*
X0117564Y0303067D03*
X0107564Y0303067D03*
X0097564Y0303067D03*
D16*
X0145419Y0379159D03*
X0171403Y0391561D03*
X0187348Y0370576D03*
X0197033Y0360222D03*
X0196954Y0391876D03*
X0239750Y0359120D03*
X0254238Y0356246D03*
X0267655Y0373033D03*
X0288962Y0377860D03*
X0331088Y0338214D03*
X0385419Y0306521D03*
X0414238Y0292112D03*
X0452781Y0287978D03*
X0435458Y0378017D03*
D17*
X0435458Y0398332D01*
X0441167Y0404041D01*
X0451994Y0404041D01*
X0452072Y0404120D01*
X0381009Y0334041D02*
X0372151Y0334041D01*
X0372072Y0334120D01*
X0381009Y0334041D02*
X0385419Y0329631D01*
X0385419Y0306521D01*
X0362899Y0314986D02*
X0362899Y0282072D01*
X0372486Y0272486D01*
X0362427Y0265261D01*
X0362427Y0249120D01*
X0376403Y0235143D01*
X0415340Y0235143D01*
X0437191Y0213293D01*
X0450694Y0213293D01*
X0450813Y0223254D02*
X0460143Y0223254D01*
X0462151Y0225261D01*
X0462151Y0282899D01*
X0457033Y0288017D01*
X0452820Y0288017D01*
X0452781Y0287978D01*
X0414238Y0292112D02*
X0414238Y0261443D01*
X0432742Y0242939D01*
X0450813Y0242939D01*
X0404277Y0202348D02*
X0402309Y0204041D01*
X0385301Y0204002D01*
X0404277Y0202348D02*
X0439238Y0167387D01*
X0451639Y0167387D01*
X0386600Y0144710D02*
X0386600Y0088765D01*
X0391954Y0083411D01*
X0351994Y0083411D01*
X0344553Y0076521D01*
X0344553Y0066167D01*
X0344553Y0076679D01*
X0337269Y0083962D01*
X0290852Y0083962D01*
X0284435Y0077112D01*
X0284435Y0066285D01*
X0391954Y0083411D02*
X0392742Y0082624D01*
X0400616Y0074750D01*
X0400616Y0065301D01*
X0385025Y0272486D02*
X0372486Y0272486D01*
X0362899Y0314986D02*
X0354002Y0323883D01*
X0323254Y0323883D01*
X0288962Y0358175D01*
X0288962Y0377860D01*
X0273655Y0373033D02*
X0304655Y0404033D01*
X0319655Y0404033D01*
X0328655Y0413033D01*
X0328655Y0422517D01*
X0328569Y0422604D01*
X0338411Y0422604D02*
X0338450Y0409356D01*
X0331088Y0401994D01*
X0331088Y0338214D01*
X0303450Y0335458D02*
X0303450Y0323017D01*
X0300616Y0320183D01*
X0270498Y0320183D01*
X0268234Y0322446D01*
X0268234Y0331206D01*
X0273155Y0331206D02*
X0273175Y0331226D01*
X0273175Y0338017D01*
X0266206Y0344986D01*
X0218450Y0344986D01*
X0216915Y0346521D01*
X0216915Y0353096D01*
X0197033Y0360222D02*
X0196954Y0362978D01*
X0196954Y0391876D01*
X0198903Y0400104D02*
X0210655Y0421462D01*
X0220498Y0421462D02*
X0220498Y0403529D01*
X0239750Y0384277D01*
X0239750Y0359120D01*
X0246797Y0363687D02*
X0246797Y0385025D01*
X0230340Y0401482D01*
X0230340Y0421462D01*
X0198903Y0400104D02*
X0180340Y0400104D01*
X0175143Y0395183D01*
X0171403Y0391561D01*
X0187348Y0370576D02*
X0187348Y0364828D01*
X0187427Y0367151D01*
X0216915Y0373017D02*
X0239986Y0349946D01*
X0273962Y0349946D01*
X0282781Y0341128D01*
X0282781Y0331423D01*
X0282998Y0331206D01*
X0303450Y0335458D02*
X0275380Y0363529D01*
X0259159Y0363529D01*
X0254356Y0368332D01*
X0254356Y0377033D01*
X0284553Y0407230D01*
X0284553Y0421954D01*
X0284572Y0421974D01*
X0273655Y0373033D02*
X0267655Y0373033D01*
X0254238Y0356246D02*
X0246797Y0363687D01*
X0216915Y0373017D02*
X0216915Y0373096D01*
X0145419Y0379159D02*
X0141482Y0379159D01*
D18*
X0168422Y0389282D02*
X0169125Y0388580D01*
X0173681Y0388580D01*
X0174384Y0389282D01*
X0174384Y0392081D01*
X0176319Y0393955D01*
X0181017Y0398404D01*
X0198466Y0398404D01*
X0198701Y0398275D01*
X0199145Y0398404D01*
X0199607Y0398404D01*
X0199796Y0398593D01*
X0200053Y0398667D01*
X0200276Y0399073D01*
X0200603Y0399400D01*
X0200603Y0399667D01*
X0208292Y0413641D01*
X0209700Y0413057D01*
X0211610Y0413057D01*
X0213375Y0413789D01*
X0214726Y0415140D01*
X0215457Y0416905D01*
X0215457Y0426020D01*
X0214726Y0427785D01*
X0213375Y0429136D01*
X0211610Y0429867D01*
X0209700Y0429867D01*
X0207935Y0429136D01*
X0206584Y0427785D01*
X0205908Y0426152D01*
X0205887Y0426283D01*
X0205634Y0427062D01*
X0205262Y0427791D01*
X0204781Y0428454D01*
X0204202Y0429033D01*
X0203539Y0429514D01*
X0202810Y0429886D01*
X0202031Y0430139D01*
X0201413Y0430237D01*
X0201413Y0422062D01*
X0200213Y0422062D01*
X0200213Y0430237D01*
X0199594Y0430139D01*
X0198816Y0429886D01*
X0198086Y0429514D01*
X0197423Y0429033D01*
X0196844Y0428454D01*
X0196363Y0427791D01*
X0195991Y0427062D01*
X0195738Y0426283D01*
X0195610Y0425474D01*
X0195610Y0422062D01*
X0200213Y0422062D01*
X0200213Y0420862D01*
X0201413Y0420862D01*
X0201413Y0412688D01*
X0202031Y0412786D01*
X0202810Y0413039D01*
X0203539Y0413410D01*
X0204202Y0413892D01*
X0204781Y0414471D01*
X0205140Y0414965D01*
X0197898Y0401804D01*
X0180363Y0401804D01*
X0179683Y0401822D01*
X0179663Y0401804D01*
X0179636Y0401804D01*
X0179154Y0401322D01*
X0174478Y0396894D01*
X0174466Y0396894D01*
X0173968Y0396411D01*
X0173463Y0395933D01*
X0173463Y0395922D01*
X0172038Y0394542D01*
X0169125Y0394542D01*
X0168422Y0393839D01*
X0168422Y0389282D01*
X0168422Y0389807D02*
X0077655Y0389807D01*
X0077655Y0388609D02*
X0169096Y0388609D01*
X0168422Y0391006D02*
X0077655Y0391006D01*
X0077655Y0392204D02*
X0168422Y0392204D01*
X0168422Y0393403D02*
X0077655Y0393403D01*
X0077655Y0394601D02*
X0172099Y0394601D01*
X0173337Y0395800D02*
X0077655Y0395800D01*
X0077655Y0396998D02*
X0174588Y0396998D01*
X0175854Y0398197D02*
X0077655Y0398197D01*
X0077655Y0399395D02*
X0177120Y0399395D01*
X0178385Y0400594D02*
X0077655Y0400594D01*
X0077655Y0401792D02*
X0179624Y0401792D01*
X0180799Y0398197D02*
X0223426Y0398197D01*
X0224624Y0396998D02*
X0179533Y0396998D01*
X0178267Y0395800D02*
X0225823Y0395800D01*
X0227021Y0394601D02*
X0199488Y0394601D01*
X0199232Y0394857D02*
X0194676Y0394857D01*
X0193973Y0394154D01*
X0193973Y0389597D01*
X0194676Y0388894D01*
X0195254Y0388894D01*
X0195254Y0363654D01*
X0195235Y0363633D01*
X0195247Y0363203D01*
X0194755Y0363203D01*
X0194052Y0362500D01*
X0194052Y0357944D01*
X0194755Y0357241D01*
X0199311Y0357241D01*
X0200014Y0357944D01*
X0200014Y0362500D01*
X0199311Y0363203D01*
X0198654Y0363203D01*
X0198654Y0388894D01*
X0199232Y0388894D01*
X0199935Y0389597D01*
X0199935Y0394154D01*
X0199232Y0394857D01*
X0199935Y0393403D02*
X0228220Y0393403D01*
X0229418Y0392204D02*
X0199935Y0392204D01*
X0199935Y0391006D02*
X0230617Y0391006D01*
X0231815Y0389807D02*
X0199935Y0389807D01*
X0198654Y0388609D02*
X0233014Y0388609D01*
X0234212Y0387410D02*
X0198654Y0387410D01*
X0198654Y0386212D02*
X0235411Y0386212D01*
X0236609Y0385013D02*
X0198654Y0385013D01*
X0198654Y0383815D02*
X0237808Y0383815D01*
X0238050Y0383573D02*
X0238050Y0362101D01*
X0237471Y0362101D01*
X0236769Y0361398D01*
X0236769Y0356842D01*
X0237471Y0356139D01*
X0242028Y0356139D01*
X0242731Y0356842D01*
X0242731Y0361398D01*
X0242028Y0362101D01*
X0241450Y0362101D01*
X0241450Y0384981D01*
X0222198Y0404233D01*
X0222198Y0413366D01*
X0223218Y0413789D01*
X0224569Y0415140D01*
X0225300Y0416905D01*
X0225300Y0426020D01*
X0224569Y0427785D01*
X0223218Y0429136D01*
X0221453Y0429867D01*
X0219542Y0429867D01*
X0217777Y0429136D01*
X0216426Y0427785D01*
X0215695Y0426020D01*
X0215695Y0416905D01*
X0216426Y0415140D01*
X0217777Y0413789D01*
X0218798Y0413366D01*
X0218798Y0402825D01*
X0219793Y0401829D01*
X0238050Y0383573D01*
X0238050Y0382616D02*
X0198654Y0382616D01*
X0198654Y0381418D02*
X0238050Y0381418D01*
X0238050Y0380219D02*
X0198654Y0380219D01*
X0198654Y0379021D02*
X0238050Y0379021D01*
X0238050Y0377822D02*
X0228309Y0377822D01*
X0227890Y0377996D02*
X0229691Y0377250D01*
X0231069Y0375872D01*
X0231815Y0374071D01*
X0231815Y0372121D01*
X0231069Y0370320D01*
X0229691Y0368942D01*
X0227890Y0368196D01*
X0225940Y0368196D01*
X0224139Y0368942D01*
X0222761Y0370320D01*
X0222015Y0372121D01*
X0222015Y0374071D01*
X0222761Y0375872D01*
X0224139Y0377250D01*
X0225940Y0377996D01*
X0227890Y0377996D01*
X0225521Y0377822D02*
X0218309Y0377822D01*
X0217890Y0377996D02*
X0215940Y0377996D01*
X0214139Y0377250D01*
X0212761Y0375872D01*
X0212015Y0374071D01*
X0212015Y0372121D01*
X0212761Y0370320D01*
X0214139Y0368942D01*
X0215940Y0368196D01*
X0217890Y0368196D01*
X0218910Y0368619D01*
X0238286Y0349242D01*
X0239282Y0348246D01*
X0273258Y0348246D01*
X0281081Y0340423D01*
X0281081Y0335777D01*
X0280537Y0335233D01*
X0279880Y0335890D01*
X0278710Y0336375D01*
X0277443Y0336375D01*
X0276273Y0335890D01*
X0275616Y0335233D01*
X0274959Y0335890D01*
X0274875Y0335925D01*
X0274875Y0338721D01*
X0273879Y0339717D01*
X0266910Y0346686D01*
X0219155Y0346686D01*
X0218615Y0347225D01*
X0218615Y0348497D01*
X0219691Y0348942D01*
X0221069Y0350320D01*
X0221815Y0352121D01*
X0221815Y0354071D01*
X0221069Y0355872D01*
X0219691Y0357250D01*
X0217890Y0357996D01*
X0215940Y0357996D01*
X0214139Y0357250D01*
X0212761Y0355872D01*
X0212015Y0354071D01*
X0212015Y0352121D01*
X0212761Y0350320D01*
X0214139Y0348942D01*
X0215215Y0348497D01*
X0215215Y0345817D01*
X0216750Y0344282D01*
X0217746Y0343286D01*
X0265502Y0343286D01*
X0271475Y0337313D01*
X0271475Y0335941D01*
X0271351Y0335890D01*
X0270694Y0335233D01*
X0270038Y0335890D01*
X0268867Y0336375D01*
X0267600Y0336375D01*
X0266430Y0335890D01*
X0265773Y0335233D01*
X0265116Y0335890D01*
X0263946Y0336375D01*
X0262679Y0336375D01*
X0261509Y0335890D01*
X0260852Y0335233D01*
X0260195Y0335890D01*
X0259025Y0336375D01*
X0257758Y0336375D01*
X0256588Y0335890D01*
X0255692Y0334994D01*
X0255207Y0333824D01*
X0255207Y0328589D01*
X0255692Y0327418D01*
X0256588Y0326523D01*
X0257758Y0326038D01*
X0259025Y0326038D01*
X0260195Y0326523D01*
X0260852Y0327179D01*
X0261509Y0326523D01*
X0262679Y0326038D01*
X0263946Y0326038D01*
X0265116Y0326523D01*
X0265773Y0327179D01*
X0266430Y0326523D01*
X0266534Y0326480D01*
X0266534Y0321742D01*
X0268798Y0319479D01*
X0269793Y0318483D01*
X0301320Y0318483D01*
X0304155Y0321317D01*
X0305150Y0322313D01*
X0305150Y0336162D01*
X0277080Y0364233D01*
X0276084Y0365229D01*
X0259863Y0365229D01*
X0256056Y0369036D01*
X0256056Y0376329D01*
X0285257Y0405530D01*
X0286253Y0406526D01*
X0286253Y0413870D01*
X0287293Y0414300D01*
X0288644Y0415651D01*
X0289375Y0417416D01*
X0289375Y0426532D01*
X0288644Y0428297D01*
X0287293Y0429648D01*
X0285528Y0430379D01*
X0283617Y0430379D01*
X0281852Y0429648D01*
X0280501Y0428297D01*
X0279770Y0426532D01*
X0279770Y0417416D01*
X0280501Y0415651D01*
X0281852Y0414300D01*
X0282853Y0413886D01*
X0282853Y0407934D01*
X0253652Y0378733D01*
X0253652Y0378733D01*
X0252656Y0377737D01*
X0252656Y0367628D01*
X0253652Y0366632D01*
X0258455Y0361829D01*
X0274675Y0361829D01*
X0301750Y0334754D01*
X0301750Y0323721D01*
X0299912Y0321883D01*
X0271202Y0321883D01*
X0269934Y0323151D01*
X0269934Y0326480D01*
X0270038Y0326523D01*
X0270694Y0327179D01*
X0271351Y0326523D01*
X0272522Y0326038D01*
X0273789Y0326038D01*
X0274959Y0326523D01*
X0275616Y0327179D01*
X0276273Y0326523D01*
X0277443Y0326038D01*
X0278710Y0326038D01*
X0279880Y0326523D01*
X0280537Y0327179D01*
X0281194Y0326523D01*
X0282364Y0326038D01*
X0283631Y0326038D01*
X0284801Y0326523D01*
X0285458Y0327179D01*
X0286115Y0326523D01*
X0287285Y0326038D01*
X0288552Y0326038D01*
X0289723Y0326523D01*
X0290380Y0327179D01*
X0291036Y0326523D01*
X0292207Y0326038D01*
X0293474Y0326038D01*
X0294644Y0326523D01*
X0295540Y0327418D01*
X0296024Y0328589D01*
X0296024Y0333824D01*
X0295540Y0334994D01*
X0294644Y0335890D01*
X0293474Y0336375D01*
X0292207Y0336375D01*
X0291036Y0335890D01*
X0290380Y0335233D01*
X0289723Y0335890D01*
X0288552Y0336375D01*
X0287285Y0336375D01*
X0286115Y0335890D01*
X0285458Y0335233D01*
X0284801Y0335890D01*
X0284481Y0336023D01*
X0284481Y0341832D01*
X0283485Y0342828D01*
X0274666Y0351646D01*
X0240690Y0351646D01*
X0221346Y0370990D01*
X0221815Y0372121D01*
X0221815Y0374071D01*
X0221069Y0375872D01*
X0219691Y0377250D01*
X0217890Y0377996D01*
X0215521Y0377822D02*
X0208309Y0377822D01*
X0207890Y0377996D02*
X0205940Y0377996D01*
X0204139Y0377250D01*
X0202761Y0375872D01*
X0202015Y0374071D01*
X0202015Y0372121D01*
X0202761Y0370320D01*
X0204139Y0368942D01*
X0205940Y0368196D01*
X0207890Y0368196D01*
X0209691Y0368942D01*
X0211069Y0370320D01*
X0211815Y0372121D01*
X0211815Y0374071D01*
X0211069Y0375872D01*
X0209691Y0377250D01*
X0207890Y0377996D01*
X0205521Y0377822D02*
X0198654Y0377822D01*
X0198654Y0376624D02*
X0203513Y0376624D01*
X0202576Y0375425D02*
X0198654Y0375425D01*
X0198654Y0374227D02*
X0202080Y0374227D01*
X0202015Y0373028D02*
X0198654Y0373028D01*
X0198654Y0371830D02*
X0202136Y0371830D01*
X0202632Y0370631D02*
X0198654Y0370631D01*
X0198654Y0369433D02*
X0203649Y0369433D01*
X0205848Y0368234D02*
X0198654Y0368234D01*
X0198654Y0367036D02*
X0220493Y0367036D01*
X0221691Y0365837D02*
X0198654Y0365837D01*
X0198654Y0364639D02*
X0222890Y0364639D01*
X0224088Y0363440D02*
X0198654Y0363440D01*
X0200014Y0362242D02*
X0225287Y0362242D01*
X0226485Y0361043D02*
X0200014Y0361043D01*
X0200014Y0359845D02*
X0227684Y0359845D01*
X0228882Y0358646D02*
X0200014Y0358646D01*
X0199518Y0357448D02*
X0204616Y0357448D01*
X0204139Y0357250D02*
X0202761Y0355872D01*
X0202015Y0354071D01*
X0202015Y0352121D01*
X0202761Y0350320D01*
X0204139Y0348942D01*
X0205940Y0348196D01*
X0207890Y0348196D01*
X0209691Y0348942D01*
X0211069Y0350320D01*
X0211815Y0352121D01*
X0211815Y0354071D01*
X0211069Y0355872D01*
X0209691Y0357250D01*
X0207890Y0357996D01*
X0205940Y0357996D01*
X0204139Y0357250D01*
X0203138Y0356249D02*
X0077655Y0356249D01*
X0077655Y0357448D02*
X0194548Y0357448D01*
X0194052Y0358646D02*
X0077655Y0358646D01*
X0077655Y0359845D02*
X0194052Y0359845D01*
X0194052Y0361043D02*
X0077655Y0361043D01*
X0077655Y0362242D02*
X0194052Y0362242D01*
X0195240Y0363440D02*
X0077655Y0363440D01*
X0077655Y0364639D02*
X0195254Y0364639D01*
X0195254Y0365837D02*
X0077655Y0365837D01*
X0077655Y0367036D02*
X0195254Y0367036D01*
X0195254Y0368234D02*
X0077655Y0368234D01*
X0077655Y0369433D02*
X0195254Y0369433D01*
X0195254Y0370631D02*
X0077655Y0370631D01*
X0077655Y0371830D02*
X0195254Y0371830D01*
X0195254Y0373028D02*
X0077655Y0373028D01*
X0077655Y0374227D02*
X0195254Y0374227D01*
X0195254Y0375425D02*
X0077655Y0375425D01*
X0077655Y0376624D02*
X0195254Y0376624D01*
X0195254Y0377822D02*
X0077655Y0377822D01*
X0077655Y0379021D02*
X0195254Y0379021D01*
X0195254Y0380219D02*
X0077655Y0380219D01*
X0077655Y0381418D02*
X0195254Y0381418D01*
X0195254Y0382616D02*
X0077655Y0382616D01*
X0077655Y0383815D02*
X0195254Y0383815D01*
X0195254Y0385013D02*
X0077655Y0385013D01*
X0077655Y0386212D02*
X0195254Y0386212D01*
X0195254Y0387410D02*
X0077655Y0387410D01*
X0077655Y0402991D02*
X0198551Y0402991D01*
X0199211Y0404189D02*
X0077655Y0404189D01*
X0077655Y0405388D02*
X0199870Y0405388D01*
X0200530Y0406586D02*
X0077655Y0406586D01*
X0077655Y0407785D02*
X0201189Y0407785D01*
X0201849Y0408983D02*
X0077655Y0408983D01*
X0077655Y0410182D02*
X0202508Y0410182D01*
X0203168Y0411381D02*
X0077655Y0411381D01*
X0077655Y0412579D02*
X0165843Y0412579D01*
X0165657Y0412608D02*
X0164879Y0412861D01*
X0164149Y0413233D01*
X0163486Y0413715D01*
X0162907Y0414294D01*
X0162426Y0414956D01*
X0162054Y0415686D01*
X0161801Y0416464D01*
X0161673Y0417273D01*
X0161673Y0420685D01*
X0166276Y0420685D01*
X0167476Y0420685D01*
X0167476Y0412510D01*
X0168094Y0412608D01*
X0168873Y0412861D01*
X0169602Y0413233D01*
X0170265Y0413715D01*
X0170844Y0414294D01*
X0171325Y0414956D01*
X0171697Y0415686D01*
X0171950Y0416464D01*
X0171971Y0416595D01*
X0172647Y0414962D01*
X0173998Y0413611D01*
X0175763Y0412880D01*
X0177673Y0412880D01*
X0179438Y0413611D01*
X0180789Y0414962D01*
X0181520Y0416727D01*
X0181520Y0425843D01*
X0180789Y0427608D01*
X0179438Y0428959D01*
X0177673Y0429690D01*
X0175763Y0429690D01*
X0173998Y0428959D01*
X0172647Y0427608D01*
X0171971Y0425975D01*
X0171950Y0426106D01*
X0171697Y0426884D01*
X0171325Y0427614D01*
X0170844Y0428277D01*
X0170265Y0428856D01*
X0169602Y0429337D01*
X0168873Y0429709D01*
X0168094Y0429962D01*
X0167476Y0430060D01*
X0167476Y0421885D01*
X0166276Y0421885D01*
X0166276Y0430060D01*
X0165657Y0429962D01*
X0164879Y0429709D01*
X0164149Y0429337D01*
X0163486Y0428856D01*
X0162907Y0428277D01*
X0162426Y0427614D01*
X0162054Y0426884D01*
X0161801Y0426106D01*
X0161673Y0425297D01*
X0161673Y0421885D01*
X0166276Y0421885D01*
X0166276Y0420685D01*
X0166276Y0412510D01*
X0165657Y0412608D01*
X0166276Y0412579D02*
X0167476Y0412579D01*
X0167908Y0412579D02*
X0203827Y0412579D01*
X0204045Y0413778D02*
X0204486Y0413778D01*
X0201413Y0413778D02*
X0200213Y0413778D01*
X0200213Y0412688D02*
X0200213Y0420862D01*
X0195610Y0420862D01*
X0195610Y0417450D01*
X0195738Y0416642D01*
X0195991Y0415863D01*
X0196363Y0415133D01*
X0196844Y0414471D01*
X0197423Y0413892D01*
X0198086Y0413410D01*
X0198816Y0413039D01*
X0199594Y0412786D01*
X0200213Y0412688D01*
X0200213Y0414976D02*
X0201413Y0414976D01*
X0201413Y0416175D02*
X0200213Y0416175D01*
X0200213Y0417373D02*
X0201413Y0417373D01*
X0201413Y0418572D02*
X0200213Y0418572D01*
X0200213Y0419770D02*
X0201413Y0419770D01*
X0200213Y0420969D02*
X0181520Y0420969D01*
X0181520Y0422167D02*
X0195610Y0422167D01*
X0195610Y0423366D02*
X0181520Y0423366D01*
X0181520Y0424564D02*
X0195610Y0424564D01*
X0195656Y0425763D02*
X0181520Y0425763D01*
X0181057Y0426961D02*
X0195959Y0426961D01*
X0196631Y0428160D02*
X0180237Y0428160D01*
X0178474Y0429358D02*
X0197871Y0429358D01*
X0200213Y0429358D02*
X0201413Y0429358D01*
X0201413Y0428160D02*
X0200213Y0428160D01*
X0200213Y0426961D02*
X0201413Y0426961D01*
X0201413Y0425763D02*
X0200213Y0425763D01*
X0200213Y0424564D02*
X0201413Y0424564D01*
X0201413Y0423366D02*
X0200213Y0423366D01*
X0200213Y0422167D02*
X0201413Y0422167D01*
X0195610Y0419770D02*
X0181520Y0419770D01*
X0181520Y0418572D02*
X0195610Y0418572D01*
X0195622Y0417373D02*
X0181520Y0417373D01*
X0181291Y0416175D02*
X0195890Y0416175D01*
X0196477Y0414976D02*
X0180795Y0414976D01*
X0179605Y0413778D02*
X0197581Y0413778D01*
X0205729Y0408983D02*
X0218798Y0408983D01*
X0218798Y0407785D02*
X0205070Y0407785D01*
X0204410Y0406586D02*
X0218798Y0406586D01*
X0218798Y0405388D02*
X0203751Y0405388D01*
X0203091Y0404189D02*
X0218798Y0404189D01*
X0218798Y0402991D02*
X0202432Y0402991D01*
X0201773Y0401792D02*
X0219830Y0401792D01*
X0221029Y0400594D02*
X0201113Y0400594D01*
X0200599Y0399395D02*
X0222227Y0399395D01*
X0224638Y0401792D02*
X0228640Y0401792D01*
X0228640Y0400778D02*
X0229636Y0399782D01*
X0245097Y0384321D01*
X0245097Y0362982D01*
X0246093Y0361987D01*
X0251257Y0356823D01*
X0251257Y0353968D01*
X0251960Y0353265D01*
X0256516Y0353265D01*
X0257219Y0353968D01*
X0257219Y0358524D01*
X0256516Y0359227D01*
X0253661Y0359227D01*
X0248497Y0364391D01*
X0248497Y0385729D01*
X0232040Y0402186D01*
X0232040Y0413366D01*
X0233060Y0413789D01*
X0234411Y0415140D01*
X0235143Y0416905D01*
X0235143Y0426020D01*
X0234411Y0427785D01*
X0233060Y0429136D01*
X0231295Y0429867D01*
X0229385Y0429867D01*
X0227620Y0429136D01*
X0226269Y0427785D01*
X0225538Y0426020D01*
X0225538Y0416905D01*
X0226269Y0415140D01*
X0227620Y0413789D01*
X0228640Y0413366D01*
X0228640Y0400778D01*
X0228824Y0400594D02*
X0225837Y0400594D01*
X0227036Y0399395D02*
X0230022Y0399395D01*
X0231221Y0398197D02*
X0228234Y0398197D01*
X0229433Y0396998D02*
X0232420Y0396998D01*
X0233618Y0395800D02*
X0230631Y0395800D01*
X0231830Y0394601D02*
X0234817Y0394601D01*
X0236015Y0393403D02*
X0233028Y0393403D01*
X0234227Y0392204D02*
X0237214Y0392204D01*
X0238412Y0391006D02*
X0235425Y0391006D01*
X0236624Y0389807D02*
X0239611Y0389807D01*
X0240809Y0388609D02*
X0237822Y0388609D01*
X0239021Y0387410D02*
X0242008Y0387410D01*
X0243206Y0386212D02*
X0240219Y0386212D01*
X0241418Y0385013D02*
X0244405Y0385013D01*
X0245097Y0383815D02*
X0241450Y0383815D01*
X0241450Y0382616D02*
X0245097Y0382616D01*
X0245097Y0381418D02*
X0241450Y0381418D01*
X0241450Y0380219D02*
X0245097Y0380219D01*
X0245097Y0379021D02*
X0241450Y0379021D01*
X0241450Y0377822D02*
X0245097Y0377822D01*
X0245097Y0376624D02*
X0241450Y0376624D01*
X0241450Y0375425D02*
X0245097Y0375425D01*
X0245097Y0374227D02*
X0241450Y0374227D01*
X0241450Y0373028D02*
X0245097Y0373028D01*
X0245097Y0371830D02*
X0241450Y0371830D01*
X0241450Y0370631D02*
X0245097Y0370631D01*
X0245097Y0369433D02*
X0241450Y0369433D01*
X0241450Y0368234D02*
X0245097Y0368234D01*
X0245097Y0367036D02*
X0241450Y0367036D01*
X0241450Y0365837D02*
X0245097Y0365837D01*
X0245097Y0364639D02*
X0241450Y0364639D01*
X0241450Y0363440D02*
X0245097Y0363440D01*
X0245838Y0362242D02*
X0241450Y0362242D01*
X0242731Y0361043D02*
X0247036Y0361043D01*
X0248235Y0359845D02*
X0242731Y0359845D01*
X0242731Y0358646D02*
X0249433Y0358646D01*
X0250632Y0357448D02*
X0242731Y0357448D01*
X0242138Y0356249D02*
X0251257Y0356249D01*
X0251257Y0355050D02*
X0237286Y0355050D01*
X0237361Y0356249D02*
X0236087Y0356249D01*
X0236769Y0357448D02*
X0234889Y0357448D01*
X0233690Y0358646D02*
X0236769Y0358646D01*
X0236769Y0359845D02*
X0232492Y0359845D01*
X0231293Y0361043D02*
X0236769Y0361043D01*
X0238050Y0362242D02*
X0230095Y0362242D01*
X0228896Y0363440D02*
X0238050Y0363440D01*
X0238050Y0364639D02*
X0227698Y0364639D01*
X0226499Y0365837D02*
X0238050Y0365837D01*
X0238050Y0367036D02*
X0225301Y0367036D01*
X0225848Y0368234D02*
X0224102Y0368234D01*
X0223649Y0369433D02*
X0222904Y0369433D01*
X0222632Y0370631D02*
X0221705Y0370631D01*
X0221694Y0371830D02*
X0222136Y0371830D01*
X0222015Y0373028D02*
X0221815Y0373028D01*
X0221750Y0374227D02*
X0222080Y0374227D01*
X0222576Y0375425D02*
X0221254Y0375425D01*
X0220317Y0376624D02*
X0223513Y0376624D01*
X0230317Y0376624D02*
X0238050Y0376624D01*
X0238050Y0375425D02*
X0231254Y0375425D01*
X0231750Y0374227D02*
X0238050Y0374227D01*
X0238050Y0373028D02*
X0231815Y0373028D01*
X0231694Y0371830D02*
X0238050Y0371830D01*
X0238050Y0370631D02*
X0231198Y0370631D01*
X0230181Y0369433D02*
X0238050Y0369433D01*
X0238050Y0368234D02*
X0227981Y0368234D01*
X0219294Y0368234D02*
X0217981Y0368234D01*
X0215848Y0368234D02*
X0207981Y0368234D01*
X0210181Y0369433D02*
X0213649Y0369433D01*
X0212632Y0370631D02*
X0211198Y0370631D01*
X0211694Y0371830D02*
X0212136Y0371830D01*
X0212015Y0373028D02*
X0211815Y0373028D01*
X0211750Y0374227D02*
X0212080Y0374227D01*
X0212576Y0375425D02*
X0211254Y0375425D01*
X0210317Y0376624D02*
X0213513Y0376624D01*
X0214616Y0357448D02*
X0209214Y0357448D01*
X0210692Y0356249D02*
X0213138Y0356249D01*
X0212421Y0355050D02*
X0211409Y0355050D01*
X0211815Y0353852D02*
X0212015Y0353852D01*
X0212015Y0352653D02*
X0211815Y0352653D01*
X0211539Y0351455D02*
X0212291Y0351455D01*
X0212825Y0350256D02*
X0211005Y0350256D01*
X0209806Y0349058D02*
X0214023Y0349058D01*
X0215215Y0347859D02*
X0077655Y0347859D01*
X0077655Y0346661D02*
X0215215Y0346661D01*
X0215570Y0345462D02*
X0077655Y0345462D01*
X0077655Y0344264D02*
X0216768Y0344264D01*
X0218615Y0347859D02*
X0273645Y0347859D01*
X0274844Y0346661D02*
X0266935Y0346661D01*
X0268134Y0345462D02*
X0276042Y0345462D01*
X0277241Y0344264D02*
X0269332Y0344264D01*
X0270531Y0343065D02*
X0278439Y0343065D01*
X0279638Y0341867D02*
X0271729Y0341867D01*
X0272928Y0340668D02*
X0280836Y0340668D01*
X0281081Y0339470D02*
X0274126Y0339470D01*
X0274875Y0338271D02*
X0281081Y0338271D01*
X0281081Y0337073D02*
X0274875Y0337073D01*
X0274975Y0335874D02*
X0276257Y0335874D01*
X0279896Y0335874D02*
X0281081Y0335874D01*
X0284481Y0337073D02*
X0299432Y0337073D01*
X0300630Y0335874D02*
X0294660Y0335874D01*
X0295672Y0334676D02*
X0301750Y0334676D01*
X0301750Y0333477D02*
X0296024Y0333477D01*
X0296024Y0332279D02*
X0301750Y0332279D01*
X0301750Y0331080D02*
X0296024Y0331080D01*
X0296024Y0329882D02*
X0301750Y0329882D01*
X0301750Y0328683D02*
X0296024Y0328683D01*
X0295567Y0327485D02*
X0301750Y0327485D01*
X0301750Y0326286D02*
X0294073Y0326286D01*
X0291607Y0326286D02*
X0289152Y0326286D01*
X0286686Y0326286D02*
X0284231Y0326286D01*
X0281765Y0326286D02*
X0279309Y0326286D01*
X0276843Y0326286D02*
X0274388Y0326286D01*
X0271922Y0326286D02*
X0269934Y0326286D01*
X0269934Y0325088D02*
X0301750Y0325088D01*
X0301750Y0323889D02*
X0269934Y0323889D01*
X0270394Y0322691D02*
X0300720Y0322691D01*
X0303131Y0320294D02*
X0355187Y0320294D01*
X0353989Y0321492D02*
X0304329Y0321492D01*
X0305150Y0322691D02*
X0322042Y0322691D01*
X0321554Y0323179D02*
X0322549Y0322183D01*
X0353297Y0322183D01*
X0361199Y0314282D01*
X0361199Y0281368D01*
X0369868Y0272699D01*
X0361880Y0266961D01*
X0361723Y0266961D01*
X0361323Y0266561D01*
X0360863Y0266231D01*
X0360838Y0266077D01*
X0360727Y0265966D01*
X0360727Y0265400D01*
X0360635Y0264842D01*
X0360727Y0264714D01*
X0360727Y0248416D01*
X0374703Y0234439D01*
X0375699Y0233443D01*
X0414636Y0233443D01*
X0435491Y0212589D01*
X0436486Y0211593D01*
X0442765Y0211593D01*
X0443139Y0210691D01*
X0444490Y0209340D01*
X0446255Y0208609D01*
X0455370Y0208609D01*
X0457135Y0209340D01*
X0458486Y0210691D01*
X0459217Y0212456D01*
X0459217Y0214366D01*
X0458486Y0216131D01*
X0457135Y0217482D01*
X0455370Y0218213D01*
X0446255Y0218213D01*
X0444490Y0217482D01*
X0443139Y0216131D01*
X0442667Y0214993D01*
X0437895Y0214993D01*
X0416044Y0236843D01*
X0377107Y0236843D01*
X0364127Y0249824D01*
X0364127Y0264389D01*
X0373033Y0270786D01*
X0380298Y0270786D01*
X0380341Y0270682D01*
X0380998Y0270025D01*
X0380341Y0269368D01*
X0379857Y0268198D01*
X0379857Y0266931D01*
X0380341Y0265761D01*
X0380998Y0265104D01*
X0380341Y0264447D01*
X0379857Y0263277D01*
X0379857Y0262010D01*
X0380341Y0260840D01*
X0380998Y0260183D01*
X0380341Y0259526D01*
X0379857Y0258355D01*
X0379857Y0257089D01*
X0380341Y0255918D01*
X0380998Y0255261D01*
X0380341Y0254605D01*
X0379857Y0253434D01*
X0379857Y0252167D01*
X0380341Y0250997D01*
X0380998Y0250340D01*
X0380341Y0249683D01*
X0379857Y0248513D01*
X0379857Y0247246D01*
X0380341Y0246076D01*
X0381237Y0245180D01*
X0382408Y0244695D01*
X0387643Y0244695D01*
X0388813Y0245180D01*
X0389709Y0246076D01*
X0390194Y0247246D01*
X0390194Y0248513D01*
X0389709Y0249683D01*
X0389052Y0250340D01*
X0389709Y0250997D01*
X0390194Y0252167D01*
X0390194Y0253434D01*
X0389709Y0254605D01*
X0389052Y0255261D01*
X0389709Y0255918D01*
X0390194Y0257089D01*
X0390194Y0258355D01*
X0389709Y0259526D01*
X0389052Y0260183D01*
X0389709Y0260840D01*
X0390194Y0262010D01*
X0390194Y0263277D01*
X0389709Y0264447D01*
X0389052Y0265104D01*
X0389709Y0265761D01*
X0390194Y0266931D01*
X0390194Y0268198D01*
X0389709Y0269368D01*
X0389052Y0270025D01*
X0389709Y0270682D01*
X0390194Y0271852D01*
X0390194Y0273119D01*
X0389709Y0274290D01*
X0388813Y0275185D01*
X0387643Y0275670D01*
X0382408Y0275670D01*
X0381237Y0275185D01*
X0380341Y0274290D01*
X0380298Y0274186D01*
X0373190Y0274186D01*
X0364599Y0282777D01*
X0364599Y0315690D01*
X0363603Y0316686D01*
X0354706Y0325583D01*
X0323958Y0325583D01*
X0290662Y0358879D01*
X0290662Y0374879D01*
X0291240Y0374879D01*
X0291943Y0375582D01*
X0291943Y0380138D01*
X0291240Y0380841D01*
X0286684Y0380841D01*
X0285981Y0380138D01*
X0285981Y0375582D01*
X0286684Y0374879D01*
X0287262Y0374879D01*
X0287262Y0357471D01*
X0321554Y0323179D01*
X0320844Y0323889D02*
X0305150Y0323889D01*
X0305150Y0325088D02*
X0319645Y0325088D01*
X0318447Y0326286D02*
X0305150Y0326286D01*
X0305150Y0327485D02*
X0317248Y0327485D01*
X0316050Y0328683D02*
X0305150Y0328683D01*
X0305150Y0329882D02*
X0314851Y0329882D01*
X0313653Y0331080D02*
X0305150Y0331080D01*
X0305150Y0332279D02*
X0312454Y0332279D01*
X0311256Y0333477D02*
X0305150Y0333477D01*
X0305150Y0334676D02*
X0310057Y0334676D01*
X0308859Y0335874D02*
X0305150Y0335874D01*
X0304240Y0337073D02*
X0307660Y0337073D01*
X0306462Y0338271D02*
X0303041Y0338271D01*
X0301843Y0339470D02*
X0305263Y0339470D01*
X0304064Y0340668D02*
X0300644Y0340668D01*
X0299446Y0341867D02*
X0302866Y0341867D01*
X0301667Y0343065D02*
X0298247Y0343065D01*
X0297049Y0344264D02*
X0300469Y0344264D01*
X0299270Y0345462D02*
X0295850Y0345462D01*
X0294652Y0346661D02*
X0298072Y0346661D01*
X0296873Y0347859D02*
X0293453Y0347859D01*
X0292255Y0349058D02*
X0295675Y0349058D01*
X0294476Y0350256D02*
X0291056Y0350256D01*
X0289858Y0351455D02*
X0293278Y0351455D01*
X0292079Y0352653D02*
X0288659Y0352653D01*
X0287461Y0353852D02*
X0290881Y0353852D01*
X0289682Y0355050D02*
X0286262Y0355050D01*
X0285064Y0356249D02*
X0288484Y0356249D01*
X0287285Y0357448D02*
X0283865Y0357448D01*
X0282667Y0358646D02*
X0287262Y0358646D01*
X0287262Y0359845D02*
X0281468Y0359845D01*
X0280270Y0361043D02*
X0287262Y0361043D01*
X0287262Y0362242D02*
X0279071Y0362242D01*
X0277873Y0363440D02*
X0287262Y0363440D01*
X0287262Y0364639D02*
X0276674Y0364639D01*
X0275461Y0361043D02*
X0251845Y0361043D01*
X0253043Y0359845D02*
X0276660Y0359845D01*
X0277858Y0358646D02*
X0257097Y0358646D01*
X0257219Y0357448D02*
X0279057Y0357448D01*
X0280255Y0356249D02*
X0257219Y0356249D01*
X0257219Y0355050D02*
X0281454Y0355050D01*
X0282653Y0353852D02*
X0257103Y0353852D01*
X0251372Y0353852D02*
X0238484Y0353852D01*
X0239683Y0352653D02*
X0283851Y0352653D01*
X0285050Y0351455D02*
X0274858Y0351455D01*
X0276056Y0350256D02*
X0286248Y0350256D01*
X0287447Y0349058D02*
X0277255Y0349058D01*
X0278453Y0347859D02*
X0288645Y0347859D01*
X0289844Y0346661D02*
X0279652Y0346661D01*
X0280850Y0345462D02*
X0291042Y0345462D01*
X0292241Y0344264D02*
X0282049Y0344264D01*
X0283247Y0343065D02*
X0293439Y0343065D01*
X0294638Y0341867D02*
X0284446Y0341867D01*
X0284481Y0340668D02*
X0295836Y0340668D01*
X0297035Y0339470D02*
X0284481Y0339470D01*
X0284481Y0338271D02*
X0298233Y0338271D01*
X0305277Y0344264D02*
X0329388Y0344264D01*
X0329388Y0345462D02*
X0304079Y0345462D01*
X0302880Y0346661D02*
X0329388Y0346661D01*
X0329388Y0347859D02*
X0301682Y0347859D01*
X0300483Y0349058D02*
X0329388Y0349058D01*
X0329388Y0350256D02*
X0299285Y0350256D01*
X0298086Y0351455D02*
X0329388Y0351455D01*
X0329388Y0352653D02*
X0296888Y0352653D01*
X0295689Y0353852D02*
X0329388Y0353852D01*
X0329388Y0355050D02*
X0294491Y0355050D01*
X0293292Y0356249D02*
X0329388Y0356249D01*
X0329388Y0357448D02*
X0292094Y0357448D01*
X0290895Y0358646D02*
X0329388Y0358646D01*
X0329388Y0359845D02*
X0290662Y0359845D01*
X0290662Y0361043D02*
X0329388Y0361043D01*
X0329388Y0362242D02*
X0290662Y0362242D01*
X0290662Y0363440D02*
X0329388Y0363440D01*
X0329388Y0364639D02*
X0290662Y0364639D01*
X0290662Y0365837D02*
X0329388Y0365837D01*
X0329388Y0367036D02*
X0290662Y0367036D01*
X0290662Y0368234D02*
X0329388Y0368234D01*
X0329388Y0369433D02*
X0290662Y0369433D01*
X0290662Y0370631D02*
X0329388Y0370631D01*
X0329388Y0371830D02*
X0290662Y0371830D01*
X0290662Y0373028D02*
X0329388Y0373028D01*
X0329388Y0374227D02*
X0290662Y0374227D01*
X0291787Y0375425D02*
X0329388Y0375425D01*
X0329388Y0376624D02*
X0291943Y0376624D01*
X0291943Y0377822D02*
X0329388Y0377822D01*
X0329388Y0379021D02*
X0291943Y0379021D01*
X0291862Y0380219D02*
X0329388Y0380219D01*
X0329388Y0381418D02*
X0284444Y0381418D01*
X0285642Y0382616D02*
X0329388Y0382616D01*
X0329388Y0383815D02*
X0286841Y0383815D01*
X0288039Y0385013D02*
X0329388Y0385013D01*
X0329388Y0386212D02*
X0289238Y0386212D01*
X0290436Y0387410D02*
X0329388Y0387410D01*
X0329388Y0388609D02*
X0291635Y0388609D01*
X0292834Y0389807D02*
X0329388Y0389807D01*
X0329388Y0391006D02*
X0294032Y0391006D01*
X0295231Y0392204D02*
X0329388Y0392204D01*
X0329388Y0393403D02*
X0296429Y0393403D01*
X0297628Y0394601D02*
X0329388Y0394601D01*
X0329388Y0395800D02*
X0298826Y0395800D01*
X0300025Y0396998D02*
X0329388Y0396998D01*
X0329388Y0398197D02*
X0301223Y0398197D01*
X0302422Y0399395D02*
X0329388Y0399395D01*
X0329388Y0400594D02*
X0303620Y0400594D01*
X0304819Y0401792D02*
X0329388Y0401792D01*
X0329388Y0402698D02*
X0329388Y0341195D01*
X0328810Y0341195D01*
X0328107Y0340492D01*
X0328107Y0335936D01*
X0328810Y0335233D01*
X0333366Y0335233D01*
X0334069Y0335936D01*
X0334069Y0340492D01*
X0333366Y0341195D01*
X0332788Y0341195D01*
X0332788Y0401290D01*
X0339157Y0407658D01*
X0339160Y0407658D01*
X0339653Y0408154D01*
X0340150Y0408652D01*
X0340150Y0408655D01*
X0340152Y0408657D01*
X0340150Y0409357D01*
X0340150Y0410060D01*
X0340148Y0410062D01*
X0340135Y0414518D01*
X0341131Y0414930D01*
X0342482Y0416281D01*
X0343213Y0418046D01*
X0343213Y0427162D01*
X0342482Y0428927D01*
X0341131Y0430278D01*
X0339366Y0431009D01*
X0337456Y0431009D01*
X0335691Y0430278D01*
X0334340Y0428927D01*
X0333609Y0427162D01*
X0333609Y0418046D01*
X0334340Y0416281D01*
X0335691Y0414930D01*
X0336735Y0414498D01*
X0336748Y0410058D01*
X0329388Y0402698D01*
X0329681Y0402991D02*
X0321017Y0402991D01*
X0320359Y0402333D02*
X0329359Y0411333D01*
X0330355Y0412329D01*
X0330355Y0414544D01*
X0331289Y0414930D01*
X0332640Y0416281D01*
X0333371Y0418046D01*
X0333371Y0427162D01*
X0332640Y0428927D01*
X0331289Y0430278D01*
X0329524Y0431009D01*
X0327613Y0431009D01*
X0325848Y0430278D01*
X0324497Y0428927D01*
X0323766Y0427162D01*
X0323766Y0418046D01*
X0324497Y0416281D01*
X0325848Y0414930D01*
X0326955Y0414472D01*
X0326955Y0413737D01*
X0318951Y0405733D01*
X0303951Y0405733D01*
X0302955Y0404737D01*
X0272951Y0374733D01*
X0270636Y0374733D01*
X0270636Y0375311D01*
X0269933Y0376014D01*
X0265377Y0376014D01*
X0264674Y0375311D01*
X0264674Y0370755D01*
X0265377Y0370052D01*
X0269933Y0370052D01*
X0270636Y0370755D01*
X0270636Y0371333D01*
X0274359Y0371333D01*
X0305359Y0402333D01*
X0320359Y0402333D01*
X0322216Y0404189D02*
X0330880Y0404189D01*
X0332078Y0405388D02*
X0323414Y0405388D01*
X0324613Y0406586D02*
X0333277Y0406586D01*
X0334475Y0407785D02*
X0325811Y0407785D01*
X0327010Y0408983D02*
X0335674Y0408983D01*
X0336748Y0410182D02*
X0328208Y0410182D01*
X0329407Y0411381D02*
X0336744Y0411381D01*
X0336741Y0412579D02*
X0330355Y0412579D01*
X0330355Y0413778D02*
X0336737Y0413778D01*
X0335645Y0414976D02*
X0331335Y0414976D01*
X0332533Y0416175D02*
X0334446Y0416175D01*
X0333888Y0417373D02*
X0333092Y0417373D01*
X0333371Y0418572D02*
X0333609Y0418572D01*
X0333609Y0419770D02*
X0333371Y0419770D01*
X0333371Y0420969D02*
X0333609Y0420969D01*
X0333609Y0422167D02*
X0333371Y0422167D01*
X0333371Y0423366D02*
X0333609Y0423366D01*
X0333609Y0424564D02*
X0333371Y0424564D01*
X0333371Y0425763D02*
X0333609Y0425763D01*
X0333609Y0426961D02*
X0333371Y0426961D01*
X0332957Y0428160D02*
X0334022Y0428160D01*
X0334771Y0429358D02*
X0332208Y0429358D01*
X0330615Y0430557D02*
X0336365Y0430557D01*
X0340457Y0430557D02*
X0467356Y0430557D01*
X0467356Y0431755D02*
X0077655Y0431755D01*
X0077655Y0430557D02*
X0253538Y0430557D01*
X0253827Y0430651D02*
X0253048Y0430398D01*
X0252318Y0430026D01*
X0251656Y0429545D01*
X0251077Y0428965D01*
X0250595Y0428303D01*
X0250224Y0427573D01*
X0249971Y0426795D01*
X0249843Y0425986D01*
X0249843Y0422574D01*
X0254445Y0422574D01*
X0254445Y0430749D01*
X0253827Y0430651D01*
X0254445Y0430557D02*
X0255645Y0430557D01*
X0255645Y0430749D02*
X0255645Y0422574D01*
X0254445Y0422574D01*
X0254445Y0421374D01*
X0255645Y0421374D01*
X0255645Y0413199D01*
X0256263Y0413297D01*
X0257042Y0413550D01*
X0257772Y0413922D01*
X0258434Y0414404D01*
X0259013Y0414983D01*
X0259494Y0415645D01*
X0259866Y0416375D01*
X0260119Y0417153D01*
X0260140Y0417284D01*
X0260816Y0415651D01*
X0262167Y0414300D01*
X0263932Y0413569D01*
X0265843Y0413569D01*
X0267608Y0414300D01*
X0268959Y0415651D01*
X0269690Y0417416D01*
X0269690Y0426532D01*
X0268959Y0428297D01*
X0267608Y0429648D01*
X0265843Y0430379D01*
X0263932Y0430379D01*
X0262167Y0429648D01*
X0260816Y0428297D01*
X0260140Y0426664D01*
X0260119Y0426795D01*
X0259866Y0427573D01*
X0259494Y0428303D01*
X0259013Y0428965D01*
X0258434Y0429545D01*
X0257772Y0430026D01*
X0257042Y0430398D01*
X0256263Y0430651D01*
X0255645Y0430749D01*
X0256552Y0430557D02*
X0306020Y0430557D01*
X0306157Y0430656D02*
X0305494Y0430174D01*
X0304915Y0429595D01*
X0304434Y0428933D01*
X0304062Y0428203D01*
X0303809Y0427425D01*
X0303681Y0426616D01*
X0303681Y0423204D01*
X0308283Y0423204D01*
X0308283Y0422004D01*
X0303681Y0422004D01*
X0303681Y0418592D01*
X0303809Y0417783D01*
X0304062Y0417005D01*
X0304434Y0416275D01*
X0304915Y0415612D01*
X0305494Y0415033D01*
X0306157Y0414552D01*
X0306886Y0414180D01*
X0307665Y0413927D01*
X0308283Y0413829D01*
X0308283Y0422004D01*
X0309483Y0422004D01*
X0309483Y0413829D01*
X0310102Y0413927D01*
X0310880Y0414180D01*
X0311610Y0414552D01*
X0312273Y0415033D01*
X0312852Y0415612D01*
X0313333Y0416275D01*
X0313705Y0417005D01*
X0313958Y0417783D01*
X0313978Y0417914D01*
X0314655Y0416281D01*
X0316006Y0414930D01*
X0317771Y0414199D01*
X0319681Y0414199D01*
X0321446Y0414930D01*
X0322797Y0416281D01*
X0323528Y0418046D01*
X0323528Y0427162D01*
X0322797Y0428927D01*
X0321446Y0430278D01*
X0319681Y0431009D01*
X0317771Y0431009D01*
X0316006Y0430278D01*
X0314655Y0428927D01*
X0313978Y0427294D01*
X0313958Y0427425D01*
X0313705Y0428203D01*
X0313333Y0428933D01*
X0312852Y0429595D01*
X0312273Y0430174D01*
X0311610Y0430656D01*
X0310880Y0431028D01*
X0310102Y0431281D01*
X0309483Y0431378D01*
X0309483Y0423204D01*
X0308283Y0423204D01*
X0308283Y0431378D01*
X0307665Y0431281D01*
X0306886Y0431028D01*
X0306157Y0430656D01*
X0304743Y0429358D02*
X0287582Y0429358D01*
X0288700Y0428160D02*
X0304048Y0428160D01*
X0303736Y0426961D02*
X0289197Y0426961D01*
X0289375Y0425763D02*
X0303681Y0425763D01*
X0303681Y0424564D02*
X0289375Y0424564D01*
X0289375Y0423366D02*
X0303681Y0423366D01*
X0303681Y0420969D02*
X0289375Y0420969D01*
X0289375Y0422167D02*
X0308283Y0422167D01*
X0308283Y0420969D02*
X0309483Y0420969D01*
X0309483Y0419770D02*
X0308283Y0419770D01*
X0308283Y0418572D02*
X0309483Y0418572D01*
X0309483Y0417373D02*
X0308283Y0417373D01*
X0308283Y0416175D02*
X0309483Y0416175D01*
X0309483Y0414976D02*
X0308283Y0414976D01*
X0305573Y0414976D02*
X0287968Y0414976D01*
X0288860Y0416175D02*
X0304507Y0416175D01*
X0303942Y0417373D02*
X0289357Y0417373D01*
X0289375Y0418572D02*
X0303684Y0418572D01*
X0303681Y0419770D02*
X0289375Y0419770D01*
X0286253Y0413778D02*
X0326955Y0413778D01*
X0325802Y0414976D02*
X0321492Y0414976D01*
X0322691Y0416175D02*
X0324604Y0416175D01*
X0324045Y0417373D02*
X0323249Y0417373D01*
X0323528Y0418572D02*
X0323766Y0418572D01*
X0323766Y0419770D02*
X0323528Y0419770D01*
X0323528Y0420969D02*
X0323766Y0420969D01*
X0323766Y0422167D02*
X0323528Y0422167D01*
X0323528Y0423366D02*
X0323766Y0423366D01*
X0323766Y0424564D02*
X0323528Y0424564D01*
X0323528Y0425763D02*
X0323766Y0425763D01*
X0323766Y0426961D02*
X0323528Y0426961D01*
X0323115Y0428160D02*
X0324180Y0428160D01*
X0324929Y0429358D02*
X0322366Y0429358D01*
X0320772Y0430557D02*
X0326522Y0430557D01*
X0316680Y0430557D02*
X0311746Y0430557D01*
X0313024Y0429358D02*
X0315086Y0429358D01*
X0314337Y0428160D02*
X0313719Y0428160D01*
X0309483Y0428160D02*
X0308283Y0428160D01*
X0308283Y0429358D02*
X0309483Y0429358D01*
X0309483Y0430557D02*
X0308283Y0430557D01*
X0308283Y0426961D02*
X0309483Y0426961D01*
X0309483Y0425763D02*
X0308283Y0425763D01*
X0308283Y0424564D02*
X0309483Y0424564D01*
X0309483Y0423366D02*
X0308283Y0423366D01*
X0313824Y0417373D02*
X0314202Y0417373D01*
X0314761Y0416175D02*
X0313260Y0416175D01*
X0312194Y0414976D02*
X0315960Y0414976D01*
X0322201Y0408983D02*
X0286253Y0408983D01*
X0286253Y0407785D02*
X0321003Y0407785D01*
X0319804Y0406586D02*
X0286253Y0406586D01*
X0285257Y0405530D02*
X0285257Y0405530D01*
X0285115Y0405388D02*
X0303606Y0405388D01*
X0302407Y0404189D02*
X0283916Y0404189D01*
X0282718Y0402991D02*
X0301209Y0402991D01*
X0300010Y0401792D02*
X0281519Y0401792D01*
X0280321Y0400594D02*
X0298812Y0400594D01*
X0297613Y0399395D02*
X0279122Y0399395D01*
X0277924Y0398197D02*
X0296415Y0398197D01*
X0295216Y0396998D02*
X0276725Y0396998D01*
X0275527Y0395800D02*
X0294018Y0395800D01*
X0292819Y0394601D02*
X0274328Y0394601D01*
X0273130Y0393403D02*
X0291621Y0393403D01*
X0290422Y0392204D02*
X0271931Y0392204D01*
X0270733Y0391006D02*
X0289224Y0391006D01*
X0288025Y0389807D02*
X0269534Y0389807D01*
X0268336Y0388609D02*
X0286827Y0388609D01*
X0285628Y0387410D02*
X0267137Y0387410D01*
X0265939Y0386212D02*
X0284430Y0386212D01*
X0283231Y0385013D02*
X0264740Y0385013D01*
X0263542Y0383815D02*
X0282033Y0383815D01*
X0280834Y0382616D02*
X0262343Y0382616D01*
X0261145Y0381418D02*
X0279636Y0381418D01*
X0278437Y0380219D02*
X0259946Y0380219D01*
X0258748Y0379021D02*
X0277239Y0379021D01*
X0276040Y0377822D02*
X0257549Y0377822D01*
X0256351Y0376624D02*
X0274842Y0376624D01*
X0273643Y0375425D02*
X0270522Y0375425D01*
X0270512Y0370631D02*
X0287262Y0370631D01*
X0287262Y0369433D02*
X0256056Y0369433D01*
X0256056Y0370631D02*
X0264798Y0370631D01*
X0264674Y0371830D02*
X0256056Y0371830D01*
X0256056Y0373028D02*
X0264674Y0373028D01*
X0264674Y0374227D02*
X0256056Y0374227D01*
X0256056Y0375425D02*
X0264788Y0375425D01*
X0257535Y0382616D02*
X0248497Y0382616D01*
X0248497Y0381418D02*
X0256336Y0381418D01*
X0255138Y0380219D02*
X0248497Y0380219D01*
X0248497Y0379021D02*
X0253939Y0379021D01*
X0252741Y0377822D02*
X0248497Y0377822D01*
X0248497Y0376624D02*
X0252656Y0376624D01*
X0252656Y0375425D02*
X0248497Y0375425D01*
X0248497Y0374227D02*
X0252656Y0374227D01*
X0252656Y0373028D02*
X0248497Y0373028D01*
X0248497Y0371830D02*
X0252656Y0371830D01*
X0252656Y0370631D02*
X0248497Y0370631D01*
X0248497Y0369433D02*
X0252656Y0369433D01*
X0252656Y0368234D02*
X0248497Y0368234D01*
X0248497Y0367036D02*
X0253248Y0367036D01*
X0254447Y0365837D02*
X0248497Y0365837D01*
X0248497Y0364639D02*
X0255645Y0364639D01*
X0256844Y0363440D02*
X0249448Y0363440D01*
X0250646Y0362242D02*
X0258042Y0362242D01*
X0259255Y0365837D02*
X0287262Y0365837D01*
X0287262Y0367036D02*
X0258057Y0367036D01*
X0256858Y0368234D02*
X0287262Y0368234D01*
X0287262Y0371830D02*
X0274856Y0371830D01*
X0276054Y0373028D02*
X0287262Y0373028D01*
X0287262Y0374227D02*
X0277253Y0374227D01*
X0278451Y0375425D02*
X0286138Y0375425D01*
X0285981Y0376624D02*
X0279650Y0376624D01*
X0280848Y0377822D02*
X0285981Y0377822D01*
X0285981Y0379021D02*
X0282047Y0379021D01*
X0283245Y0380219D02*
X0286062Y0380219D01*
X0270719Y0395800D02*
X0238426Y0395800D01*
X0237228Y0396998D02*
X0271917Y0396998D01*
X0273116Y0398197D02*
X0236029Y0398197D01*
X0234831Y0399395D02*
X0274314Y0399395D01*
X0275513Y0400594D02*
X0233632Y0400594D01*
X0232434Y0401792D02*
X0276711Y0401792D01*
X0277910Y0402991D02*
X0232040Y0402991D01*
X0232040Y0404189D02*
X0279108Y0404189D01*
X0280307Y0405388D02*
X0232040Y0405388D01*
X0232040Y0406586D02*
X0281505Y0406586D01*
X0282704Y0407785D02*
X0232040Y0407785D01*
X0232040Y0408983D02*
X0282853Y0408983D01*
X0282853Y0410182D02*
X0232040Y0410182D01*
X0232040Y0411381D02*
X0282853Y0411381D01*
X0282853Y0412579D02*
X0232040Y0412579D01*
X0233034Y0413778D02*
X0252602Y0413778D01*
X0252318Y0413922D02*
X0253048Y0413550D01*
X0253827Y0413297D01*
X0254445Y0413199D01*
X0254445Y0421374D01*
X0249843Y0421374D01*
X0249843Y0417962D01*
X0249971Y0417153D01*
X0250224Y0416375D01*
X0250595Y0415645D01*
X0251077Y0414983D01*
X0251656Y0414404D01*
X0252318Y0413922D01*
X0251083Y0414976D02*
X0234248Y0414976D01*
X0234840Y0416175D02*
X0250326Y0416175D01*
X0249936Y0417373D02*
X0235143Y0417373D01*
X0235143Y0418572D02*
X0249843Y0418572D01*
X0249843Y0419770D02*
X0235143Y0419770D01*
X0235143Y0420969D02*
X0249843Y0420969D01*
X0249843Y0423366D02*
X0235143Y0423366D01*
X0235143Y0424564D02*
X0249843Y0424564D01*
X0249843Y0425763D02*
X0235143Y0425763D01*
X0234753Y0426961D02*
X0250025Y0426961D01*
X0250522Y0428160D02*
X0234037Y0428160D01*
X0232524Y0429358D02*
X0251469Y0429358D01*
X0254445Y0429358D02*
X0255645Y0429358D01*
X0255645Y0428160D02*
X0254445Y0428160D01*
X0254445Y0426961D02*
X0255645Y0426961D01*
X0255645Y0425763D02*
X0254445Y0425763D01*
X0254445Y0424564D02*
X0255645Y0424564D01*
X0255645Y0423366D02*
X0254445Y0423366D01*
X0254445Y0422167D02*
X0235143Y0422167D01*
X0225538Y0422167D02*
X0225300Y0422167D01*
X0225300Y0420969D02*
X0225538Y0420969D01*
X0225538Y0419770D02*
X0225300Y0419770D01*
X0225300Y0418572D02*
X0225538Y0418572D01*
X0225538Y0417373D02*
X0225300Y0417373D01*
X0224998Y0416175D02*
X0225840Y0416175D01*
X0226432Y0414976D02*
X0224405Y0414976D01*
X0223191Y0413778D02*
X0227647Y0413778D01*
X0228640Y0412579D02*
X0222198Y0412579D01*
X0222198Y0411381D02*
X0228640Y0411381D01*
X0228640Y0410182D02*
X0222198Y0410182D01*
X0222198Y0408983D02*
X0228640Y0408983D01*
X0228640Y0407785D02*
X0222198Y0407785D01*
X0222198Y0406586D02*
X0228640Y0406586D01*
X0228640Y0405388D02*
X0222198Y0405388D01*
X0222241Y0404189D02*
X0228640Y0404189D01*
X0228640Y0402991D02*
X0223440Y0402991D01*
X0218798Y0410182D02*
X0206389Y0410182D01*
X0207048Y0411381D02*
X0218798Y0411381D01*
X0218798Y0412579D02*
X0207708Y0412579D01*
X0213349Y0413778D02*
X0217804Y0413778D01*
X0216590Y0414976D02*
X0214563Y0414976D01*
X0215155Y0416175D02*
X0215998Y0416175D01*
X0215695Y0417373D02*
X0215457Y0417373D01*
X0215457Y0418572D02*
X0215695Y0418572D01*
X0215695Y0419770D02*
X0215457Y0419770D01*
X0215457Y0420969D02*
X0215695Y0420969D01*
X0215695Y0422167D02*
X0215457Y0422167D01*
X0215457Y0423366D02*
X0215695Y0423366D01*
X0215695Y0424564D02*
X0215457Y0424564D01*
X0215457Y0425763D02*
X0215695Y0425763D01*
X0216085Y0426961D02*
X0215068Y0426961D01*
X0214352Y0428160D02*
X0216801Y0428160D01*
X0218314Y0429358D02*
X0212839Y0429358D01*
X0208472Y0429358D02*
X0203754Y0429358D01*
X0204994Y0428160D02*
X0206959Y0428160D01*
X0206243Y0426961D02*
X0205666Y0426961D01*
X0222681Y0429358D02*
X0228157Y0429358D01*
X0226644Y0428160D02*
X0224194Y0428160D01*
X0224910Y0426961D02*
X0225928Y0426961D01*
X0225538Y0425763D02*
X0225300Y0425763D01*
X0225300Y0424564D02*
X0225538Y0424564D01*
X0225538Y0423366D02*
X0225300Y0423366D01*
X0254445Y0420969D02*
X0255645Y0420969D01*
X0255645Y0419770D02*
X0254445Y0419770D01*
X0254445Y0418572D02*
X0255645Y0418572D01*
X0255645Y0417373D02*
X0254445Y0417373D01*
X0254445Y0416175D02*
X0255645Y0416175D01*
X0255645Y0414976D02*
X0254445Y0414976D01*
X0254445Y0413778D02*
X0255645Y0413778D01*
X0257488Y0413778D02*
X0263429Y0413778D01*
X0261491Y0414976D02*
X0259007Y0414976D01*
X0259764Y0416175D02*
X0260599Y0416175D01*
X0266345Y0413778D02*
X0273272Y0413778D01*
X0273775Y0413569D02*
X0275685Y0413569D01*
X0277450Y0414300D01*
X0278801Y0415651D01*
X0279532Y0417416D01*
X0279532Y0426532D01*
X0278801Y0428297D01*
X0277450Y0429648D01*
X0275685Y0430379D01*
X0273775Y0430379D01*
X0272010Y0429648D01*
X0270659Y0428297D01*
X0269928Y0426532D01*
X0269928Y0417416D01*
X0270659Y0415651D01*
X0272010Y0414300D01*
X0273775Y0413569D01*
X0276188Y0413778D02*
X0282853Y0413778D01*
X0281176Y0414976D02*
X0278126Y0414976D01*
X0279018Y0416175D02*
X0280284Y0416175D01*
X0279788Y0417373D02*
X0279514Y0417373D01*
X0279532Y0418572D02*
X0279770Y0418572D01*
X0279770Y0419770D02*
X0279532Y0419770D01*
X0279532Y0420969D02*
X0279770Y0420969D01*
X0279770Y0422167D02*
X0279532Y0422167D01*
X0279532Y0423366D02*
X0279770Y0423366D01*
X0279770Y0424564D02*
X0279532Y0424564D01*
X0279532Y0425763D02*
X0279770Y0425763D01*
X0279948Y0426961D02*
X0279354Y0426961D01*
X0278858Y0428160D02*
X0280444Y0428160D01*
X0281563Y0429358D02*
X0277740Y0429358D01*
X0271720Y0429358D02*
X0267897Y0429358D01*
X0269015Y0428160D02*
X0270602Y0428160D01*
X0270105Y0426961D02*
X0269512Y0426961D01*
X0269690Y0425763D02*
X0269928Y0425763D01*
X0269928Y0424564D02*
X0269690Y0424564D01*
X0269690Y0423366D02*
X0269928Y0423366D01*
X0269928Y0422167D02*
X0269690Y0422167D01*
X0269690Y0420969D02*
X0269928Y0420969D01*
X0269928Y0419770D02*
X0269690Y0419770D01*
X0269690Y0418572D02*
X0269928Y0418572D01*
X0269945Y0417373D02*
X0269672Y0417373D01*
X0269175Y0416175D02*
X0270442Y0416175D01*
X0271334Y0414976D02*
X0268283Y0414976D01*
X0260263Y0426961D02*
X0260065Y0426961D01*
X0259567Y0428160D02*
X0260759Y0428160D01*
X0261878Y0429358D02*
X0258620Y0429358D01*
X0286253Y0412579D02*
X0325797Y0412579D01*
X0324598Y0411381D02*
X0286253Y0411381D01*
X0286253Y0410182D02*
X0323400Y0410182D01*
X0333291Y0401792D02*
X0367733Y0401792D01*
X0367918Y0401344D02*
X0369297Y0399966D01*
X0371098Y0399220D01*
X0373047Y0399220D01*
X0374848Y0399966D01*
X0376226Y0401344D01*
X0376972Y0403145D01*
X0376972Y0405094D01*
X0376226Y0406895D01*
X0374848Y0408274D01*
X0373047Y0409020D01*
X0371098Y0409020D01*
X0369297Y0408274D01*
X0367918Y0406895D01*
X0367172Y0405094D01*
X0367172Y0403145D01*
X0367918Y0401344D01*
X0368669Y0400594D02*
X0332788Y0400594D01*
X0332788Y0399395D02*
X0370674Y0399395D01*
X0371098Y0399020D02*
X0369297Y0398274D01*
X0367918Y0396895D01*
X0367172Y0395094D01*
X0367172Y0393145D01*
X0367918Y0391344D01*
X0369297Y0389966D01*
X0371098Y0389220D01*
X0373047Y0389220D01*
X0374848Y0389966D01*
X0376226Y0391344D01*
X0376972Y0393145D01*
X0376972Y0395094D01*
X0376226Y0396895D01*
X0374848Y0398274D01*
X0373047Y0399020D01*
X0371098Y0399020D01*
X0369220Y0398197D02*
X0332788Y0398197D01*
X0332788Y0396998D02*
X0368021Y0396998D01*
X0367465Y0395800D02*
X0332788Y0395800D01*
X0332788Y0394601D02*
X0367172Y0394601D01*
X0367172Y0393403D02*
X0332788Y0393403D01*
X0332788Y0392204D02*
X0367562Y0392204D01*
X0368257Y0391006D02*
X0332788Y0391006D01*
X0332788Y0389807D02*
X0369679Y0389807D01*
X0370106Y0388609D02*
X0332788Y0388609D01*
X0332788Y0387410D02*
X0368433Y0387410D01*
X0367918Y0386895D02*
X0367172Y0385094D01*
X0367172Y0383145D01*
X0367918Y0381344D01*
X0369297Y0379966D01*
X0371098Y0379220D01*
X0373047Y0379220D01*
X0374848Y0379966D01*
X0376226Y0381344D01*
X0376972Y0383145D01*
X0376972Y0385094D01*
X0376226Y0386895D01*
X0374848Y0388274D01*
X0373047Y0389020D01*
X0371098Y0389020D01*
X0369297Y0388274D01*
X0367918Y0386895D01*
X0367635Y0386212D02*
X0332788Y0386212D01*
X0332788Y0385013D02*
X0367172Y0385013D01*
X0367172Y0383815D02*
X0332788Y0383815D01*
X0332788Y0382616D02*
X0367391Y0382616D01*
X0367888Y0381418D02*
X0332788Y0381418D01*
X0332788Y0380219D02*
X0369043Y0380219D01*
X0369297Y0378274D02*
X0367918Y0376895D01*
X0367172Y0375094D01*
X0367172Y0373145D01*
X0367918Y0371344D01*
X0369297Y0369966D01*
X0371098Y0369220D01*
X0373047Y0369220D01*
X0374848Y0369966D01*
X0376226Y0371344D01*
X0376972Y0373145D01*
X0376972Y0375094D01*
X0376226Y0376895D01*
X0374848Y0378274D01*
X0373047Y0379020D01*
X0371098Y0379020D01*
X0369297Y0378274D01*
X0368845Y0377822D02*
X0332788Y0377822D01*
X0332788Y0376624D02*
X0367806Y0376624D01*
X0367309Y0375425D02*
X0332788Y0375425D01*
X0332788Y0374227D02*
X0367172Y0374227D01*
X0367221Y0373028D02*
X0332788Y0373028D01*
X0332788Y0371830D02*
X0367717Y0371830D01*
X0368631Y0370631D02*
X0332788Y0370631D01*
X0332788Y0369433D02*
X0370584Y0369433D01*
X0371098Y0369020D02*
X0369297Y0368274D01*
X0367918Y0366895D01*
X0367172Y0365094D01*
X0367172Y0363145D01*
X0367918Y0361344D01*
X0369297Y0359966D01*
X0371098Y0359220D01*
X0373047Y0359220D01*
X0374848Y0359966D01*
X0376226Y0361344D01*
X0376972Y0363145D01*
X0376972Y0365094D01*
X0376226Y0366895D01*
X0374848Y0368274D01*
X0373047Y0369020D01*
X0371098Y0369020D01*
X0369257Y0368234D02*
X0332788Y0368234D01*
X0332788Y0367036D02*
X0368059Y0367036D01*
X0367480Y0365837D02*
X0332788Y0365837D01*
X0332788Y0364639D02*
X0367172Y0364639D01*
X0367172Y0363440D02*
X0332788Y0363440D01*
X0332788Y0362242D02*
X0367547Y0362242D01*
X0368219Y0361043D02*
X0332788Y0361043D01*
X0332788Y0359845D02*
X0369589Y0359845D01*
X0370196Y0358646D02*
X0332788Y0358646D01*
X0332788Y0357448D02*
X0368471Y0357448D01*
X0367918Y0356895D02*
X0367172Y0355094D01*
X0367172Y0353145D01*
X0367918Y0351344D01*
X0369297Y0349966D01*
X0370903Y0349300D01*
X0370831Y0349289D01*
X0370038Y0349031D01*
X0369295Y0348653D01*
X0368620Y0348162D01*
X0368030Y0347572D01*
X0367539Y0346897D01*
X0367161Y0346154D01*
X0366903Y0345361D01*
X0366772Y0344537D01*
X0366772Y0344520D01*
X0371672Y0344520D01*
X0371672Y0343720D01*
X0366772Y0343720D01*
X0366772Y0343703D01*
X0366903Y0342879D01*
X0367161Y0342085D01*
X0367539Y0341342D01*
X0368030Y0340667D01*
X0368620Y0340077D01*
X0369295Y0339587D01*
X0370038Y0339208D01*
X0370831Y0338950D01*
X0370903Y0338939D01*
X0369297Y0338274D01*
X0367918Y0336895D01*
X0367172Y0335094D01*
X0367172Y0333145D01*
X0367918Y0331344D01*
X0369297Y0329966D01*
X0371098Y0329220D01*
X0373047Y0329220D01*
X0374848Y0329966D01*
X0376226Y0331344D01*
X0376639Y0332341D01*
X0380305Y0332341D01*
X0383719Y0328927D01*
X0383719Y0309502D01*
X0383141Y0309502D01*
X0382438Y0308799D01*
X0382438Y0304243D01*
X0383141Y0303540D01*
X0387697Y0303540D01*
X0388400Y0304243D01*
X0388400Y0308799D01*
X0387697Y0309502D01*
X0387119Y0309502D01*
X0387119Y0330336D01*
X0382709Y0334745D01*
X0381714Y0335741D01*
X0376705Y0335741D01*
X0376226Y0336895D01*
X0374848Y0338274D01*
X0373242Y0338939D01*
X0373314Y0338950D01*
X0374107Y0339208D01*
X0374850Y0339587D01*
X0375525Y0340077D01*
X0376115Y0340667D01*
X0376605Y0341342D01*
X0376984Y0342085D01*
X0377242Y0342879D01*
X0377372Y0343703D01*
X0377372Y0343720D01*
X0372473Y0343720D01*
X0372473Y0344520D01*
X0377372Y0344520D01*
X0377372Y0344537D01*
X0377242Y0345361D01*
X0376984Y0346154D01*
X0376605Y0346897D01*
X0376115Y0347572D01*
X0375525Y0348162D01*
X0374850Y0348653D01*
X0374107Y0349031D01*
X0373314Y0349289D01*
X0373242Y0349300D01*
X0374848Y0349966D01*
X0376226Y0351344D01*
X0376972Y0353145D01*
X0376972Y0355094D01*
X0376226Y0356895D01*
X0374848Y0358274D01*
X0373047Y0359020D01*
X0371098Y0359020D01*
X0369297Y0358274D01*
X0367918Y0356895D01*
X0367651Y0356249D02*
X0332788Y0356249D01*
X0332788Y0355050D02*
X0367172Y0355050D01*
X0367172Y0353852D02*
X0332788Y0353852D01*
X0332788Y0352653D02*
X0367376Y0352653D01*
X0367872Y0351455D02*
X0332788Y0351455D01*
X0332788Y0350256D02*
X0369006Y0350256D01*
X0370120Y0349058D02*
X0332788Y0349058D01*
X0332788Y0347859D02*
X0368317Y0347859D01*
X0367419Y0346661D02*
X0332788Y0346661D01*
X0332788Y0345462D02*
X0366936Y0345462D01*
X0366873Y0343065D02*
X0332788Y0343065D01*
X0332788Y0341867D02*
X0367272Y0341867D01*
X0368029Y0340668D02*
X0333893Y0340668D01*
X0334069Y0339470D02*
X0369524Y0339470D01*
X0369294Y0338271D02*
X0334069Y0338271D01*
X0334069Y0337073D02*
X0368096Y0337073D01*
X0367496Y0335874D02*
X0334008Y0335874D01*
X0328169Y0335874D02*
X0313667Y0335874D01*
X0314865Y0334676D02*
X0367172Y0334676D01*
X0367172Y0333477D02*
X0316064Y0333477D01*
X0317262Y0332279D02*
X0367531Y0332279D01*
X0368182Y0331080D02*
X0318461Y0331080D01*
X0319659Y0329882D02*
X0369499Y0329882D01*
X0374645Y0329882D02*
X0382764Y0329882D01*
X0383719Y0328683D02*
X0320858Y0328683D01*
X0322056Y0327485D02*
X0383719Y0327485D01*
X0383719Y0326286D02*
X0323255Y0326286D01*
X0328107Y0337073D02*
X0312468Y0337073D01*
X0311270Y0338271D02*
X0328107Y0338271D01*
X0328107Y0339470D02*
X0310071Y0339470D01*
X0308873Y0340668D02*
X0328283Y0340668D01*
X0329388Y0341867D02*
X0307674Y0341867D01*
X0306476Y0343065D02*
X0329388Y0343065D01*
X0332788Y0344264D02*
X0371672Y0344264D01*
X0372473Y0344264D02*
X0447172Y0344264D01*
X0447172Y0345094D02*
X0447172Y0343145D01*
X0447918Y0341344D01*
X0449297Y0339966D01*
X0451098Y0339220D01*
X0453047Y0339220D01*
X0454848Y0339966D01*
X0456226Y0341344D01*
X0456972Y0343145D01*
X0456972Y0345094D01*
X0456226Y0346895D01*
X0454848Y0348274D01*
X0453047Y0349020D01*
X0451098Y0349020D01*
X0449297Y0348274D01*
X0447918Y0346895D01*
X0447172Y0345094D01*
X0447325Y0345462D02*
X0377209Y0345462D01*
X0376726Y0346661D02*
X0447821Y0346661D01*
X0448883Y0347859D02*
X0375828Y0347859D01*
X0374025Y0349058D02*
X0467356Y0349058D01*
X0467356Y0350256D02*
X0455139Y0350256D01*
X0454848Y0349966D02*
X0456226Y0351344D01*
X0456972Y0353145D01*
X0456972Y0355094D01*
X0456226Y0356895D01*
X0454848Y0358274D01*
X0453047Y0359020D01*
X0451098Y0359020D01*
X0449297Y0358274D01*
X0447918Y0356895D01*
X0447172Y0355094D01*
X0447172Y0353145D01*
X0447918Y0351344D01*
X0449297Y0349966D01*
X0451098Y0349220D01*
X0453047Y0349220D01*
X0454848Y0349966D01*
X0456272Y0351455D02*
X0467356Y0351455D01*
X0467356Y0352653D02*
X0456769Y0352653D01*
X0456972Y0353852D02*
X0467356Y0353852D01*
X0467356Y0355050D02*
X0456972Y0355050D01*
X0456494Y0356249D02*
X0467356Y0356249D01*
X0467356Y0357448D02*
X0455674Y0357448D01*
X0453949Y0358646D02*
X0467356Y0358646D01*
X0467356Y0359845D02*
X0454556Y0359845D01*
X0454848Y0359966D02*
X0456226Y0361344D01*
X0456972Y0363145D01*
X0456972Y0365094D01*
X0456226Y0366895D01*
X0454848Y0368274D01*
X0453047Y0369020D01*
X0451098Y0369020D01*
X0449297Y0368274D01*
X0447918Y0366895D01*
X0447172Y0365094D01*
X0447172Y0363145D01*
X0447918Y0361344D01*
X0449297Y0359966D01*
X0451098Y0359220D01*
X0453047Y0359220D01*
X0454848Y0359966D01*
X0455925Y0361043D02*
X0467356Y0361043D01*
X0467356Y0362242D02*
X0456598Y0362242D01*
X0456972Y0363440D02*
X0467356Y0363440D01*
X0467356Y0364639D02*
X0456972Y0364639D01*
X0456665Y0365837D02*
X0467356Y0365837D01*
X0467356Y0367036D02*
X0456086Y0367036D01*
X0454888Y0368234D02*
X0467356Y0368234D01*
X0467356Y0369433D02*
X0453561Y0369433D01*
X0453047Y0369220D02*
X0454848Y0369966D01*
X0456226Y0371344D01*
X0456972Y0373145D01*
X0456972Y0375094D01*
X0456226Y0376895D01*
X0454848Y0378274D01*
X0453047Y0379020D01*
X0451098Y0379020D01*
X0449297Y0378274D01*
X0447918Y0376895D01*
X0447172Y0375094D01*
X0447172Y0373145D01*
X0447918Y0371344D01*
X0449297Y0369966D01*
X0451098Y0369220D01*
X0453047Y0369220D01*
X0450584Y0369433D02*
X0373561Y0369433D01*
X0374888Y0368234D02*
X0449257Y0368234D01*
X0448059Y0367036D02*
X0376086Y0367036D01*
X0376665Y0365837D02*
X0447480Y0365837D01*
X0447172Y0364639D02*
X0376972Y0364639D01*
X0376972Y0363440D02*
X0447172Y0363440D01*
X0447547Y0362242D02*
X0376598Y0362242D01*
X0375925Y0361043D02*
X0448219Y0361043D01*
X0449589Y0359845D02*
X0374556Y0359845D01*
X0373949Y0358646D02*
X0450196Y0358646D01*
X0448471Y0357448D02*
X0375674Y0357448D01*
X0376494Y0356249D02*
X0447651Y0356249D01*
X0447172Y0355050D02*
X0376972Y0355050D01*
X0376972Y0353852D02*
X0447172Y0353852D01*
X0447376Y0352653D02*
X0376769Y0352653D01*
X0376272Y0351455D02*
X0447872Y0351455D01*
X0449006Y0350256D02*
X0375139Y0350256D01*
X0377272Y0343065D02*
X0447205Y0343065D01*
X0447702Y0341867D02*
X0376873Y0341867D01*
X0376116Y0340668D02*
X0448594Y0340668D01*
X0450494Y0339470D02*
X0374621Y0339470D01*
X0374850Y0338271D02*
X0449294Y0338271D01*
X0449297Y0338274D02*
X0447918Y0336895D01*
X0447172Y0335094D01*
X0447172Y0333145D01*
X0447918Y0331344D01*
X0449297Y0329966D01*
X0451098Y0329220D01*
X0453047Y0329220D01*
X0454848Y0329966D01*
X0456226Y0331344D01*
X0456972Y0333145D01*
X0456972Y0335094D01*
X0456226Y0336895D01*
X0454848Y0338274D01*
X0453047Y0339020D01*
X0451098Y0339020D01*
X0449297Y0338274D01*
X0448096Y0337073D02*
X0376049Y0337073D01*
X0376649Y0335874D02*
X0447496Y0335874D01*
X0447172Y0334676D02*
X0382779Y0334676D01*
X0383977Y0333477D02*
X0447172Y0333477D01*
X0447531Y0332279D02*
X0385176Y0332279D01*
X0386374Y0331080D02*
X0448182Y0331080D01*
X0449499Y0329882D02*
X0387119Y0329882D01*
X0387119Y0328683D02*
X0467356Y0328683D01*
X0467356Y0327485D02*
X0387119Y0327485D01*
X0387119Y0326286D02*
X0467356Y0326286D01*
X0467356Y0325088D02*
X0387119Y0325088D01*
X0387119Y0323889D02*
X0467356Y0323889D01*
X0467356Y0322691D02*
X0387119Y0322691D01*
X0387119Y0321492D02*
X0467356Y0321492D01*
X0467356Y0320294D02*
X0387119Y0320294D01*
X0387119Y0319095D02*
X0467356Y0319095D01*
X0467356Y0317897D02*
X0387119Y0317897D01*
X0387119Y0316698D02*
X0467356Y0316698D01*
X0467356Y0315500D02*
X0387119Y0315500D01*
X0387119Y0314301D02*
X0467356Y0314301D01*
X0467356Y0313103D02*
X0387119Y0313103D01*
X0387119Y0311904D02*
X0467356Y0311904D01*
X0467356Y0310706D02*
X0387119Y0310706D01*
X0387119Y0309507D02*
X0467356Y0309507D01*
X0467356Y0308309D02*
X0388400Y0308309D01*
X0388400Y0307110D02*
X0467356Y0307110D01*
X0467356Y0305912D02*
X0388400Y0305912D01*
X0388400Y0304713D02*
X0467356Y0304713D01*
X0467356Y0303514D02*
X0364599Y0303514D01*
X0364599Y0302316D02*
X0467356Y0302316D01*
X0467356Y0301117D02*
X0364599Y0301117D01*
X0364599Y0299919D02*
X0467356Y0299919D01*
X0467356Y0298720D02*
X0364599Y0298720D01*
X0364599Y0297522D02*
X0467356Y0297522D01*
X0467356Y0296323D02*
X0364599Y0296323D01*
X0364599Y0295125D02*
X0467356Y0295125D01*
X0467356Y0293926D02*
X0417219Y0293926D01*
X0417219Y0294390D02*
X0416516Y0295093D01*
X0411960Y0295093D01*
X0411257Y0294390D01*
X0411257Y0289834D01*
X0411960Y0289131D01*
X0412538Y0289131D01*
X0412538Y0260738D01*
X0413534Y0259743D01*
X0432038Y0241239D01*
X0442716Y0241239D01*
X0443139Y0240218D01*
X0444490Y0238867D01*
X0446255Y0238136D01*
X0455370Y0238136D01*
X0457135Y0238867D01*
X0458486Y0240218D01*
X0459217Y0241983D01*
X0459217Y0243894D01*
X0458486Y0245659D01*
X0457135Y0247010D01*
X0455370Y0247741D01*
X0446255Y0247741D01*
X0444490Y0247010D01*
X0443139Y0245659D01*
X0442716Y0244639D01*
X0433446Y0244639D01*
X0415938Y0262147D01*
X0415938Y0289131D01*
X0416516Y0289131D01*
X0417219Y0289834D01*
X0417219Y0294390D01*
X0417219Y0292728D02*
X0467356Y0292728D01*
X0467356Y0291529D02*
X0417219Y0291529D01*
X0417219Y0290331D02*
X0449875Y0290331D01*
X0449800Y0290256D02*
X0449800Y0285700D01*
X0450503Y0284997D01*
X0455059Y0284997D01*
X0455762Y0285700D01*
X0455762Y0286317D01*
X0456329Y0286317D01*
X0460451Y0282195D01*
X0460451Y0225966D01*
X0459439Y0224954D01*
X0458909Y0224954D01*
X0458486Y0225974D01*
X0457135Y0227325D01*
X0455370Y0228056D01*
X0446255Y0228056D01*
X0444490Y0227325D01*
X0443139Y0225974D01*
X0442408Y0224209D01*
X0442408Y0222298D01*
X0443139Y0220533D01*
X0444490Y0219182D01*
X0446255Y0218451D01*
X0455370Y0218451D01*
X0457135Y0219182D01*
X0458486Y0220533D01*
X0458909Y0221554D01*
X0460847Y0221554D01*
X0462855Y0223561D01*
X0463851Y0224557D01*
X0463851Y0283603D01*
X0458733Y0288721D01*
X0457737Y0289717D01*
X0455762Y0289717D01*
X0455762Y0290256D01*
X0455059Y0290959D01*
X0450503Y0290959D01*
X0449800Y0290256D01*
X0449800Y0289132D02*
X0416518Y0289132D01*
X0415938Y0287934D02*
X0449800Y0287934D01*
X0449800Y0286735D02*
X0415938Y0286735D01*
X0415938Y0285537D02*
X0449963Y0285537D01*
X0455599Y0285537D02*
X0457109Y0285537D01*
X0458308Y0284338D02*
X0415938Y0284338D01*
X0415938Y0283140D02*
X0459506Y0283140D01*
X0460451Y0281941D02*
X0415938Y0281941D01*
X0415938Y0280743D02*
X0460451Y0280743D01*
X0460451Y0279544D02*
X0415938Y0279544D01*
X0415938Y0278346D02*
X0460451Y0278346D01*
X0460451Y0277147D02*
X0415938Y0277147D01*
X0415938Y0275949D02*
X0460451Y0275949D01*
X0460451Y0274750D02*
X0415938Y0274750D01*
X0415938Y0273552D02*
X0460451Y0273552D01*
X0460451Y0272353D02*
X0415938Y0272353D01*
X0415938Y0271155D02*
X0460451Y0271155D01*
X0460451Y0269956D02*
X0415938Y0269956D01*
X0415938Y0268758D02*
X0460451Y0268758D01*
X0460451Y0267559D02*
X0456060Y0267559D01*
X0456412Y0267445D02*
X0455633Y0267698D01*
X0454824Y0267826D01*
X0451413Y0267826D01*
X0451413Y0263224D01*
X0459587Y0263224D01*
X0459489Y0263842D01*
X0459236Y0264621D01*
X0458864Y0265350D01*
X0458383Y0266013D01*
X0457804Y0266592D01*
X0457142Y0267073D01*
X0456412Y0267445D01*
X0458035Y0266361D02*
X0460451Y0266361D01*
X0460451Y0265162D02*
X0458960Y0265162D01*
X0459450Y0263964D02*
X0460451Y0263964D01*
X0460451Y0262765D02*
X0451413Y0262765D01*
X0451413Y0263224D02*
X0451413Y0262024D01*
X0459587Y0262024D01*
X0459489Y0261405D01*
X0459236Y0260627D01*
X0458864Y0259897D01*
X0458383Y0259235D01*
X0457804Y0258655D01*
X0457142Y0258174D01*
X0456412Y0257802D01*
X0455633Y0257549D01*
X0455502Y0257529D01*
X0457135Y0256852D01*
X0458486Y0255501D01*
X0459217Y0253736D01*
X0459217Y0251826D01*
X0458486Y0250061D01*
X0457135Y0248710D01*
X0455370Y0247979D01*
X0446255Y0247979D01*
X0444490Y0248710D01*
X0443139Y0250061D01*
X0442408Y0251826D01*
X0442408Y0253736D01*
X0443139Y0255501D01*
X0444490Y0256852D01*
X0446123Y0257529D01*
X0445992Y0257549D01*
X0445213Y0257802D01*
X0444484Y0258174D01*
X0443821Y0258655D01*
X0443242Y0259235D01*
X0442761Y0259897D01*
X0442389Y0260627D01*
X0442136Y0261405D01*
X0442038Y0262024D01*
X0450213Y0262024D01*
X0450213Y0263224D01*
X0450213Y0267826D01*
X0446801Y0267826D01*
X0445992Y0267698D01*
X0445213Y0267445D01*
X0444484Y0267073D01*
X0443821Y0266592D01*
X0443242Y0266013D01*
X0442761Y0265350D01*
X0442389Y0264621D01*
X0442136Y0263842D01*
X0442038Y0263224D01*
X0450213Y0263224D01*
X0451413Y0263224D01*
X0451413Y0263964D02*
X0450213Y0263964D01*
X0450213Y0265162D02*
X0451413Y0265162D01*
X0451413Y0266361D02*
X0450213Y0266361D01*
X0450213Y0267559D02*
X0451413Y0267559D01*
X0450213Y0262765D02*
X0415938Y0262765D01*
X0415938Y0263964D02*
X0442176Y0263964D01*
X0442665Y0265162D02*
X0415938Y0265162D01*
X0415938Y0266361D02*
X0443590Y0266361D01*
X0445565Y0267559D02*
X0415938Y0267559D01*
X0412538Y0267559D02*
X0390194Y0267559D01*
X0389962Y0268758D02*
X0412538Y0268758D01*
X0412538Y0269956D02*
X0389121Y0269956D01*
X0389905Y0271155D02*
X0412538Y0271155D01*
X0412538Y0272353D02*
X0390194Y0272353D01*
X0390015Y0273552D02*
X0412538Y0273552D01*
X0412538Y0274750D02*
X0389248Y0274750D01*
X0389957Y0266361D02*
X0412538Y0266361D01*
X0412538Y0265162D02*
X0389110Y0265162D01*
X0389909Y0263964D02*
X0412538Y0263964D01*
X0412538Y0262765D02*
X0390194Y0262765D01*
X0390010Y0261567D02*
X0412538Y0261567D01*
X0412908Y0260368D02*
X0389237Y0260368D01*
X0389856Y0259170D02*
X0414107Y0259170D01*
X0415305Y0257971D02*
X0390194Y0257971D01*
X0390063Y0256773D02*
X0416504Y0256773D01*
X0417702Y0255574D02*
X0389365Y0255574D01*
X0389804Y0254376D02*
X0418901Y0254376D01*
X0420099Y0253177D02*
X0390194Y0253177D01*
X0390115Y0251979D02*
X0421298Y0251979D01*
X0422496Y0250780D02*
X0389492Y0250780D01*
X0389751Y0249581D02*
X0423695Y0249581D01*
X0424893Y0248383D02*
X0390194Y0248383D01*
X0390168Y0247184D02*
X0426092Y0247184D01*
X0427290Y0245986D02*
X0389619Y0245986D01*
X0387865Y0244787D02*
X0428489Y0244787D01*
X0429687Y0243589D02*
X0370362Y0243589D01*
X0371560Y0242390D02*
X0430886Y0242390D01*
X0433297Y0244787D02*
X0442778Y0244787D01*
X0443466Y0245986D02*
X0432099Y0245986D01*
X0430900Y0247184D02*
X0444912Y0247184D01*
X0445279Y0248383D02*
X0429701Y0248383D01*
X0428503Y0249581D02*
X0443618Y0249581D01*
X0442841Y0250780D02*
X0427304Y0250780D01*
X0426106Y0251979D02*
X0442408Y0251979D01*
X0442408Y0253177D02*
X0424907Y0253177D01*
X0423709Y0254376D02*
X0442673Y0254376D01*
X0443212Y0255574D02*
X0422510Y0255574D01*
X0421312Y0256773D02*
X0444410Y0256773D01*
X0444882Y0257971D02*
X0420113Y0257971D01*
X0418915Y0259170D02*
X0443307Y0259170D01*
X0442521Y0260368D02*
X0417716Y0260368D01*
X0416518Y0261567D02*
X0442110Y0261567D01*
X0456346Y0248383D02*
X0460451Y0248383D01*
X0460451Y0249581D02*
X0458007Y0249581D01*
X0458784Y0250780D02*
X0460451Y0250780D01*
X0460451Y0251979D02*
X0459217Y0251979D01*
X0459217Y0253177D02*
X0460451Y0253177D01*
X0460451Y0254376D02*
X0458953Y0254376D01*
X0458414Y0255574D02*
X0460451Y0255574D01*
X0460451Y0256773D02*
X0457215Y0256773D01*
X0456743Y0257971D02*
X0460451Y0257971D01*
X0460451Y0259170D02*
X0458318Y0259170D01*
X0459104Y0260368D02*
X0460451Y0260368D01*
X0460451Y0261567D02*
X0459515Y0261567D01*
X0463851Y0261567D02*
X0467356Y0261567D01*
X0467356Y0262765D02*
X0463851Y0262765D01*
X0463851Y0263964D02*
X0467356Y0263964D01*
X0467356Y0265162D02*
X0463851Y0265162D01*
X0463851Y0266361D02*
X0467356Y0266361D01*
X0467356Y0267559D02*
X0463851Y0267559D01*
X0463851Y0268758D02*
X0467356Y0268758D01*
X0467356Y0269956D02*
X0463851Y0269956D01*
X0463851Y0271155D02*
X0467356Y0271155D01*
X0467356Y0272353D02*
X0463851Y0272353D01*
X0463851Y0273552D02*
X0467356Y0273552D01*
X0467356Y0274750D02*
X0463851Y0274750D01*
X0463851Y0275949D02*
X0467356Y0275949D01*
X0467356Y0277147D02*
X0463851Y0277147D01*
X0463851Y0278346D02*
X0467356Y0278346D01*
X0467356Y0279544D02*
X0463851Y0279544D01*
X0463851Y0280743D02*
X0467356Y0280743D01*
X0467356Y0281941D02*
X0463851Y0281941D01*
X0463851Y0283140D02*
X0467356Y0283140D01*
X0467356Y0284338D02*
X0463116Y0284338D01*
X0461918Y0285537D02*
X0467356Y0285537D01*
X0467356Y0286735D02*
X0460719Y0286735D01*
X0459521Y0287934D02*
X0467356Y0287934D01*
X0467356Y0289132D02*
X0458322Y0289132D01*
X0455687Y0290331D02*
X0467356Y0290331D01*
X0467356Y0260368D02*
X0463851Y0260368D01*
X0463851Y0259170D02*
X0467356Y0259170D01*
X0467356Y0257971D02*
X0463851Y0257971D01*
X0463851Y0256773D02*
X0467356Y0256773D01*
X0467356Y0255574D02*
X0463851Y0255574D01*
X0463851Y0254376D02*
X0467356Y0254376D01*
X0467356Y0253177D02*
X0463851Y0253177D01*
X0463851Y0251979D02*
X0467356Y0251979D01*
X0467356Y0250780D02*
X0463851Y0250780D01*
X0463851Y0249581D02*
X0467356Y0249581D01*
X0467356Y0248383D02*
X0463851Y0248383D01*
X0463851Y0247184D02*
X0467356Y0247184D01*
X0467356Y0245986D02*
X0463851Y0245986D01*
X0463851Y0244787D02*
X0467356Y0244787D01*
X0467356Y0243589D02*
X0463851Y0243589D01*
X0463851Y0242390D02*
X0467356Y0242390D01*
X0467356Y0241192D02*
X0463851Y0241192D01*
X0463851Y0239993D02*
X0467356Y0239993D01*
X0467356Y0238795D02*
X0463851Y0238795D01*
X0463851Y0237596D02*
X0467356Y0237596D01*
X0467356Y0236398D02*
X0463851Y0236398D01*
X0463851Y0235199D02*
X0467356Y0235199D01*
X0467356Y0234001D02*
X0463851Y0234001D01*
X0463851Y0232802D02*
X0467356Y0232802D01*
X0467356Y0231604D02*
X0463851Y0231604D01*
X0463851Y0230405D02*
X0467356Y0230405D01*
X0467356Y0229207D02*
X0463851Y0229207D01*
X0463851Y0228008D02*
X0467356Y0228008D01*
X0467356Y0226810D02*
X0463851Y0226810D01*
X0463851Y0225611D02*
X0467356Y0225611D01*
X0467356Y0224413D02*
X0463707Y0224413D01*
X0462508Y0223214D02*
X0467356Y0223214D01*
X0467356Y0222016D02*
X0461310Y0222016D01*
X0458604Y0220817D02*
X0467356Y0220817D01*
X0467356Y0219619D02*
X0457572Y0219619D01*
X0457396Y0217222D02*
X0467356Y0217222D01*
X0467356Y0218420D02*
X0434467Y0218420D01*
X0433269Y0219619D02*
X0444054Y0219619D01*
X0443021Y0220817D02*
X0432070Y0220817D01*
X0430872Y0222016D02*
X0442525Y0222016D01*
X0442408Y0223214D02*
X0429673Y0223214D01*
X0428475Y0224413D02*
X0442492Y0224413D01*
X0442989Y0225611D02*
X0427276Y0225611D01*
X0426078Y0226810D02*
X0443975Y0226810D01*
X0444490Y0229025D02*
X0446255Y0228294D01*
X0455370Y0228294D01*
X0457135Y0229025D01*
X0458486Y0230376D01*
X0459217Y0232141D01*
X0459217Y0234051D01*
X0458486Y0235816D01*
X0457135Y0237167D01*
X0455370Y0237898D01*
X0446255Y0237898D01*
X0444490Y0237167D01*
X0443139Y0235816D01*
X0442408Y0234051D01*
X0442408Y0232141D01*
X0443139Y0230376D01*
X0444490Y0229025D01*
X0444308Y0229207D02*
X0423681Y0229207D01*
X0422482Y0230405D02*
X0443127Y0230405D01*
X0442630Y0231604D02*
X0421284Y0231604D01*
X0420085Y0232802D02*
X0442408Y0232802D01*
X0442408Y0234001D02*
X0418887Y0234001D01*
X0417688Y0235199D02*
X0442883Y0235199D01*
X0443720Y0236398D02*
X0416490Y0236398D01*
X0415277Y0232802D02*
X0098690Y0232802D01*
X0098428Y0232619D02*
X0098298Y0232640D01*
X0099931Y0233316D01*
X0101281Y0234667D01*
X0102013Y0236432D01*
X0102013Y0238343D01*
X0101281Y0240108D01*
X0099931Y0241459D01*
X0098165Y0242190D01*
X0089050Y0242190D01*
X0087285Y0241459D01*
X0085934Y0240108D01*
X0085203Y0238343D01*
X0085203Y0236432D01*
X0085934Y0234667D01*
X0087285Y0233316D01*
X0088918Y0232640D01*
X0088787Y0232619D01*
X0088008Y0232366D01*
X0087279Y0231994D01*
X0086616Y0231513D01*
X0086037Y0230934D01*
X0085556Y0230272D01*
X0085184Y0229542D01*
X0084931Y0228763D01*
X0084833Y0228145D01*
X0093008Y0228145D01*
X0093008Y0226945D01*
X0094208Y0226945D01*
X0094208Y0228145D01*
X0102382Y0228145D01*
X0102284Y0228763D01*
X0102031Y0229542D01*
X0101660Y0230272D01*
X0101178Y0230934D01*
X0100599Y0231513D01*
X0099937Y0231994D01*
X0099207Y0232366D01*
X0098428Y0232619D01*
X0100474Y0231604D02*
X0416475Y0231604D01*
X0417674Y0230405D02*
X0101562Y0230405D01*
X0102140Y0229207D02*
X0418873Y0229207D01*
X0420071Y0228008D02*
X0391019Y0228008D01*
X0391623Y0227758D02*
X0389858Y0228489D01*
X0380743Y0228489D01*
X0378978Y0227758D01*
X0377627Y0226407D01*
X0376896Y0224642D01*
X0376896Y0222731D01*
X0377627Y0220966D01*
X0378978Y0219615D01*
X0380743Y0218884D01*
X0389858Y0218884D01*
X0391623Y0219615D01*
X0392974Y0220966D01*
X0393705Y0222731D01*
X0393705Y0224642D01*
X0392974Y0226407D01*
X0391623Y0227758D01*
X0392572Y0226810D02*
X0421270Y0226810D01*
X0422468Y0225611D02*
X0393304Y0225611D01*
X0393705Y0224413D02*
X0423667Y0224413D01*
X0424865Y0223214D02*
X0393705Y0223214D01*
X0393409Y0222016D02*
X0426064Y0222016D01*
X0427262Y0220817D02*
X0392825Y0220817D01*
X0391627Y0219619D02*
X0428461Y0219619D01*
X0429659Y0218420D02*
X0390405Y0218420D01*
X0389858Y0218646D02*
X0380743Y0218646D01*
X0378978Y0217915D01*
X0377627Y0216564D01*
X0376896Y0214799D01*
X0376896Y0212889D01*
X0377627Y0211124D01*
X0378978Y0209773D01*
X0380743Y0209042D01*
X0389858Y0209042D01*
X0391623Y0209773D01*
X0392974Y0211124D01*
X0393705Y0212889D01*
X0393705Y0214799D01*
X0392974Y0216564D01*
X0391623Y0217915D01*
X0389858Y0218646D01*
X0392317Y0217222D02*
X0430858Y0217222D01*
X0432056Y0216023D02*
X0393199Y0216023D01*
X0393695Y0214825D02*
X0433255Y0214825D01*
X0434453Y0213626D02*
X0393705Y0213626D01*
X0393514Y0212428D02*
X0435652Y0212428D01*
X0436864Y0216023D02*
X0443094Y0216023D01*
X0444229Y0217222D02*
X0435666Y0217222D01*
X0442916Y0211229D02*
X0393018Y0211229D01*
X0391881Y0210031D02*
X0443799Y0210031D01*
X0445716Y0208832D02*
X0077655Y0208832D01*
X0077655Y0207634D02*
X0378539Y0207634D01*
X0378978Y0208073D02*
X0377627Y0206722D01*
X0376896Y0204957D01*
X0376896Y0203046D01*
X0377627Y0201281D01*
X0378978Y0199930D01*
X0380743Y0199199D01*
X0389858Y0199199D01*
X0391623Y0199930D01*
X0392974Y0201281D01*
X0393405Y0202320D01*
X0401680Y0202339D01*
X0403120Y0201101D01*
X0438534Y0165687D01*
X0443543Y0165687D01*
X0443966Y0164667D01*
X0445317Y0163316D01*
X0446949Y0162640D01*
X0446819Y0162619D01*
X0446040Y0162366D01*
X0445310Y0161994D01*
X0444648Y0161513D01*
X0444069Y0160934D01*
X0443588Y0160272D01*
X0443216Y0159542D01*
X0442963Y0158763D01*
X0442865Y0158145D01*
X0451039Y0158145D01*
X0451039Y0156945D01*
X0442865Y0156945D01*
X0442963Y0156327D01*
X0443216Y0155548D01*
X0443588Y0154818D01*
X0444069Y0154156D01*
X0444648Y0153577D01*
X0445310Y0153095D01*
X0446040Y0152724D01*
X0446819Y0152471D01*
X0447628Y0152343D01*
X0451039Y0152343D01*
X0451039Y0156945D01*
X0452239Y0156945D01*
X0452239Y0152343D01*
X0455651Y0152343D01*
X0456460Y0152471D01*
X0457239Y0152724D01*
X0457968Y0153095D01*
X0458631Y0153577D01*
X0459210Y0154156D01*
X0459691Y0154818D01*
X0460063Y0155548D01*
X0460316Y0156327D01*
X0460414Y0156945D01*
X0452239Y0156945D01*
X0452239Y0158145D01*
X0460414Y0158145D01*
X0460316Y0158763D01*
X0460063Y0159542D01*
X0459691Y0160272D01*
X0459210Y0160934D01*
X0458631Y0161513D01*
X0457968Y0161994D01*
X0457239Y0162366D01*
X0456460Y0162619D01*
X0456329Y0162640D01*
X0457962Y0163316D01*
X0459313Y0164667D01*
X0460044Y0166432D01*
X0460044Y0168343D01*
X0459313Y0170108D01*
X0457962Y0171459D01*
X0456197Y0172190D01*
X0447082Y0172190D01*
X0445317Y0171459D01*
X0443966Y0170108D01*
X0443543Y0169087D01*
X0439942Y0169087D01*
X0405925Y0203104D01*
X0405920Y0203178D01*
X0405434Y0203595D01*
X0404981Y0204048D01*
X0404908Y0204048D01*
X0403464Y0205289D01*
X0403009Y0205743D01*
X0402937Y0205742D01*
X0402883Y0205789D01*
X0402243Y0205741D01*
X0393389Y0205720D01*
X0392974Y0206722D01*
X0391623Y0208073D01*
X0389858Y0208804D01*
X0380743Y0208804D01*
X0378978Y0208073D01*
X0378720Y0210031D02*
X0077655Y0210031D01*
X0077655Y0211229D02*
X0377584Y0211229D01*
X0377087Y0212428D02*
X0077655Y0212428D01*
X0077655Y0213626D02*
X0376896Y0213626D01*
X0376907Y0214825D02*
X0077655Y0214825D01*
X0077655Y0216023D02*
X0377403Y0216023D01*
X0378284Y0217222D02*
X0077655Y0217222D01*
X0077655Y0218420D02*
X0380197Y0218420D01*
X0378975Y0219619D02*
X0077655Y0219619D01*
X0077655Y0220817D02*
X0377776Y0220817D01*
X0377192Y0222016D02*
X0077655Y0222016D01*
X0077655Y0223214D02*
X0087115Y0223214D01*
X0087279Y0223095D02*
X0088008Y0222724D01*
X0088787Y0222471D01*
X0089596Y0222343D01*
X0093008Y0222343D01*
X0093008Y0226945D01*
X0084833Y0226945D01*
X0084931Y0226327D01*
X0085184Y0225548D01*
X0085556Y0224818D01*
X0086037Y0224156D01*
X0086616Y0223577D01*
X0087279Y0223095D01*
X0085851Y0224413D02*
X0077655Y0224413D01*
X0077655Y0225611D02*
X0085164Y0225611D01*
X0084855Y0226810D02*
X0077655Y0226810D01*
X0077655Y0228008D02*
X0093008Y0228008D01*
X0093008Y0226810D02*
X0094208Y0226810D01*
X0094208Y0226945D02*
X0094208Y0222343D01*
X0097620Y0222343D01*
X0098428Y0222471D01*
X0099207Y0222724D01*
X0099937Y0223095D01*
X0100599Y0223577D01*
X0101178Y0224156D01*
X0101660Y0224818D01*
X0102031Y0225548D01*
X0102284Y0226327D01*
X0102382Y0226945D01*
X0094208Y0226945D01*
X0094208Y0228008D02*
X0379583Y0228008D01*
X0378030Y0226810D02*
X0102361Y0226810D01*
X0102052Y0225611D02*
X0377298Y0225611D01*
X0376896Y0224413D02*
X0101365Y0224413D01*
X0100100Y0223214D02*
X0376896Y0223214D01*
X0375141Y0234001D02*
X0100615Y0234001D01*
X0101502Y0235199D02*
X0373943Y0235199D01*
X0372744Y0236398D02*
X0101998Y0236398D01*
X0102013Y0237596D02*
X0371546Y0237596D01*
X0370347Y0238795D02*
X0101825Y0238795D01*
X0101329Y0239993D02*
X0369149Y0239993D01*
X0367950Y0241192D02*
X0100197Y0241192D01*
X0087018Y0241192D02*
X0077655Y0241192D01*
X0077655Y0242390D02*
X0366752Y0242390D01*
X0365553Y0243589D02*
X0077655Y0243589D01*
X0077655Y0244787D02*
X0364355Y0244787D01*
X0363156Y0245986D02*
X0077655Y0245986D01*
X0077655Y0247184D02*
X0361958Y0247184D01*
X0360759Y0248383D02*
X0077655Y0248383D01*
X0077655Y0249581D02*
X0360727Y0249581D01*
X0360727Y0250780D02*
X0077655Y0250780D01*
X0077655Y0251979D02*
X0360727Y0251979D01*
X0360727Y0253177D02*
X0077655Y0253177D01*
X0077655Y0254376D02*
X0360727Y0254376D01*
X0360727Y0255574D02*
X0135791Y0255574D01*
X0135914Y0255663D02*
X0136493Y0256242D01*
X0136975Y0256905D01*
X0137346Y0257634D01*
X0137599Y0258413D01*
X0137697Y0259031D01*
X0129523Y0259031D01*
X0129523Y0254429D01*
X0132935Y0254429D01*
X0133743Y0254557D01*
X0134522Y0254810D01*
X0135252Y0255182D01*
X0135914Y0255663D01*
X0136879Y0256773D02*
X0360727Y0256773D01*
X0360727Y0257971D02*
X0137456Y0257971D01*
X0137697Y0260231D02*
X0137599Y0260850D01*
X0137346Y0261629D01*
X0136975Y0262358D01*
X0136493Y0263021D01*
X0135914Y0263600D01*
X0135252Y0264081D01*
X0134522Y0264453D01*
X0133743Y0264706D01*
X0133613Y0264726D01*
X0135246Y0265403D01*
X0136596Y0266754D01*
X0137328Y0268519D01*
X0137328Y0270429D01*
X0136596Y0272194D01*
X0135246Y0273545D01*
X0133480Y0274276D01*
X0124365Y0274276D01*
X0122600Y0273545D01*
X0121249Y0272194D01*
X0120518Y0270429D01*
X0120518Y0268519D01*
X0121249Y0266754D01*
X0122600Y0265403D01*
X0124233Y0264726D01*
X0124102Y0264706D01*
X0123323Y0264453D01*
X0122594Y0264081D01*
X0121931Y0263600D01*
X0121352Y0263021D01*
X0120871Y0262358D01*
X0120499Y0261629D01*
X0120246Y0260850D01*
X0120148Y0260231D01*
X0128323Y0260231D01*
X0128323Y0259031D01*
X0129523Y0259031D01*
X0129523Y0260231D01*
X0137697Y0260231D01*
X0137676Y0260368D02*
X0360727Y0260368D01*
X0360727Y0259170D02*
X0129523Y0259170D01*
X0129523Y0257971D02*
X0128323Y0257971D01*
X0128323Y0259031D02*
X0128323Y0254429D01*
X0124911Y0254429D01*
X0124102Y0254557D01*
X0123323Y0254810D01*
X0122594Y0255182D01*
X0121931Y0255663D01*
X0121352Y0256242D01*
X0120871Y0256905D01*
X0120499Y0257634D01*
X0120246Y0258413D01*
X0120148Y0259031D01*
X0128323Y0259031D01*
X0128323Y0259170D02*
X0077655Y0259170D01*
X0077655Y0260368D02*
X0120170Y0260368D01*
X0120479Y0261567D02*
X0077655Y0261567D01*
X0077655Y0262765D02*
X0121167Y0262765D01*
X0122432Y0263964D02*
X0077655Y0263964D01*
X0077655Y0265162D02*
X0123181Y0265162D01*
X0121642Y0266361D02*
X0077655Y0266361D01*
X0077655Y0267559D02*
X0120916Y0267559D01*
X0120518Y0268758D02*
X0077655Y0268758D01*
X0077655Y0269956D02*
X0120518Y0269956D01*
X0120819Y0271155D02*
X0077655Y0271155D01*
X0077655Y0272353D02*
X0121408Y0272353D01*
X0122616Y0273552D02*
X0077655Y0273552D01*
X0077655Y0274750D02*
X0367817Y0274750D01*
X0366619Y0275949D02*
X0077655Y0275949D01*
X0077655Y0277147D02*
X0365420Y0277147D01*
X0364222Y0278346D02*
X0077655Y0278346D01*
X0077655Y0279544D02*
X0363023Y0279544D01*
X0361825Y0280743D02*
X0077655Y0280743D01*
X0077655Y0281941D02*
X0361199Y0281941D01*
X0361199Y0283140D02*
X0077655Y0283140D01*
X0077655Y0284338D02*
X0361199Y0284338D01*
X0361199Y0285537D02*
X0077655Y0285537D01*
X0077655Y0286735D02*
X0361199Y0286735D01*
X0361199Y0287934D02*
X0077655Y0287934D01*
X0077655Y0289132D02*
X0361199Y0289132D01*
X0361199Y0290331D02*
X0077655Y0290331D01*
X0077655Y0291529D02*
X0361199Y0291529D01*
X0361199Y0292728D02*
X0338894Y0292728D01*
X0338582Y0292416D02*
X0339918Y0293752D01*
X0340641Y0295498D01*
X0340641Y0297387D01*
X0339918Y0299133D01*
X0338582Y0300469D01*
X0336836Y0301192D01*
X0334947Y0301192D01*
X0333201Y0300469D01*
X0331865Y0299133D01*
X0331142Y0297387D01*
X0331142Y0295498D01*
X0331865Y0293752D01*
X0333201Y0292416D01*
X0334947Y0291693D01*
X0336836Y0291693D01*
X0338582Y0292416D01*
X0339990Y0293926D02*
X0361199Y0293926D01*
X0361199Y0295125D02*
X0340486Y0295125D01*
X0340641Y0296323D02*
X0361199Y0296323D01*
X0361199Y0297522D02*
X0340585Y0297522D01*
X0340089Y0298720D02*
X0361199Y0298720D01*
X0361199Y0299919D02*
X0339132Y0299919D01*
X0337016Y0301117D02*
X0361199Y0301117D01*
X0361199Y0302316D02*
X0122464Y0302316D01*
X0122464Y0302093D02*
X0121718Y0300292D01*
X0120340Y0298913D01*
X0118539Y0298167D01*
X0116589Y0298167D01*
X0114789Y0298913D01*
X0113410Y0300292D01*
X0112664Y0302093D01*
X0112664Y0304042D01*
X0113410Y0305843D01*
X0114789Y0307221D01*
X0116589Y0307967D01*
X0118539Y0307967D01*
X0120340Y0307221D01*
X0121718Y0305843D01*
X0122464Y0304042D01*
X0122464Y0302093D01*
X0122060Y0301117D02*
X0177286Y0301117D01*
X0177466Y0301192D02*
X0175721Y0300469D01*
X0174384Y0299133D01*
X0173661Y0297387D01*
X0173661Y0295498D01*
X0174384Y0293752D01*
X0175721Y0292416D01*
X0177466Y0291693D01*
X0179356Y0291693D01*
X0181101Y0292416D01*
X0182438Y0293752D01*
X0183161Y0295498D01*
X0183161Y0297387D01*
X0182438Y0299133D01*
X0181101Y0300469D01*
X0179356Y0301192D01*
X0177466Y0301192D01*
X0179536Y0301117D02*
X0334766Y0301117D01*
X0332651Y0299919D02*
X0181652Y0299919D01*
X0182608Y0298720D02*
X0331694Y0298720D01*
X0331198Y0297522D02*
X0183105Y0297522D01*
X0183161Y0296323D02*
X0331142Y0296323D01*
X0331296Y0295125D02*
X0183006Y0295125D01*
X0182510Y0293926D02*
X0331793Y0293926D01*
X0332889Y0292728D02*
X0181413Y0292728D01*
X0175409Y0292728D02*
X0077655Y0292728D01*
X0077655Y0293926D02*
X0174312Y0293926D01*
X0173816Y0295125D02*
X0077655Y0295125D01*
X0077655Y0296323D02*
X0173661Y0296323D01*
X0173717Y0297522D02*
X0077655Y0297522D01*
X0077655Y0298720D02*
X0095254Y0298720D01*
X0094789Y0298913D02*
X0096589Y0298167D01*
X0098539Y0298167D01*
X0100340Y0298913D01*
X0101718Y0300292D01*
X0102464Y0302093D01*
X0102464Y0304042D01*
X0101718Y0305843D01*
X0100340Y0307221D01*
X0098539Y0307967D01*
X0096589Y0307967D01*
X0094789Y0307221D01*
X0093410Y0305843D01*
X0092664Y0304042D01*
X0092664Y0302093D01*
X0093410Y0300292D01*
X0094789Y0298913D01*
X0093783Y0299919D02*
X0077655Y0299919D01*
X0077655Y0301117D02*
X0093068Y0301117D01*
X0092664Y0302316D02*
X0077655Y0302316D01*
X0077655Y0303514D02*
X0092664Y0303514D01*
X0092942Y0304713D02*
X0077655Y0304713D01*
X0077655Y0305912D02*
X0093479Y0305912D01*
X0094677Y0307110D02*
X0077655Y0307110D01*
X0077655Y0308309D02*
X0361199Y0308309D01*
X0361199Y0309507D02*
X0077655Y0309507D01*
X0077655Y0310706D02*
X0361199Y0310706D01*
X0361199Y0311904D02*
X0077655Y0311904D01*
X0077655Y0313103D02*
X0361199Y0313103D01*
X0361180Y0314301D02*
X0077655Y0314301D01*
X0077655Y0315500D02*
X0359981Y0315500D01*
X0358783Y0316698D02*
X0077655Y0316698D01*
X0077655Y0317897D02*
X0357584Y0317897D01*
X0356386Y0319095D02*
X0301932Y0319095D01*
X0291021Y0335874D02*
X0289738Y0335874D01*
X0286099Y0335874D02*
X0284817Y0335874D01*
X0271475Y0337073D02*
X0231038Y0337073D01*
X0231030Y0337092D02*
X0229651Y0338471D01*
X0227850Y0339217D01*
X0225901Y0339217D01*
X0224100Y0338471D01*
X0222722Y0337092D01*
X0221976Y0335291D01*
X0221976Y0333342D01*
X0222722Y0331541D01*
X0224100Y0330163D01*
X0225901Y0329417D01*
X0227850Y0329417D01*
X0229651Y0330163D01*
X0231030Y0331541D01*
X0231776Y0333342D01*
X0231776Y0335291D01*
X0231030Y0337092D01*
X0231534Y0335874D02*
X0256572Y0335874D01*
X0255560Y0334676D02*
X0231776Y0334676D01*
X0231776Y0333477D02*
X0255207Y0333477D01*
X0255207Y0332279D02*
X0231335Y0332279D01*
X0230569Y0331080D02*
X0255207Y0331080D01*
X0255207Y0329882D02*
X0228973Y0329882D01*
X0224778Y0329882D02*
X0218973Y0329882D01*
X0219651Y0330163D02*
X0221030Y0331541D01*
X0221776Y0333342D01*
X0221776Y0335291D01*
X0221030Y0337092D01*
X0219651Y0338471D01*
X0217850Y0339217D01*
X0215901Y0339217D01*
X0214100Y0338471D01*
X0212722Y0337092D01*
X0211976Y0335291D01*
X0211976Y0333342D01*
X0212722Y0331541D01*
X0214100Y0330163D01*
X0215901Y0329417D01*
X0217850Y0329417D01*
X0219651Y0330163D01*
X0220569Y0331080D02*
X0223182Y0331080D01*
X0222416Y0332279D02*
X0221335Y0332279D01*
X0221776Y0333477D02*
X0221976Y0333477D01*
X0221976Y0334676D02*
X0221776Y0334676D01*
X0221534Y0335874D02*
X0222217Y0335874D01*
X0222714Y0337073D02*
X0221038Y0337073D01*
X0219850Y0338271D02*
X0223901Y0338271D01*
X0229850Y0338271D02*
X0270517Y0338271D01*
X0269318Y0339470D02*
X0122591Y0339470D01*
X0123054Y0339007D02*
X0121873Y0340188D01*
X0120329Y0340828D01*
X0118658Y0340828D01*
X0117115Y0340188D01*
X0115933Y0339007D01*
X0115294Y0337463D01*
X0115294Y0329792D01*
X0115933Y0328248D01*
X0117115Y0327067D01*
X0118658Y0326428D01*
X0120329Y0326428D01*
X0121873Y0327067D01*
X0123054Y0328248D01*
X0123694Y0329792D01*
X0123694Y0337463D01*
X0123054Y0339007D01*
X0123359Y0338271D02*
X0203901Y0338271D01*
X0204100Y0338471D02*
X0202722Y0337092D01*
X0201976Y0335291D01*
X0201976Y0333342D01*
X0202722Y0331541D01*
X0204100Y0330163D01*
X0205901Y0329417D01*
X0207850Y0329417D01*
X0209651Y0330163D01*
X0211030Y0331541D01*
X0211776Y0333342D01*
X0211776Y0335291D01*
X0211030Y0337092D01*
X0209651Y0338471D01*
X0207850Y0339217D01*
X0205901Y0339217D01*
X0204100Y0338471D01*
X0202714Y0337073D02*
X0123694Y0337073D01*
X0123694Y0335874D02*
X0202217Y0335874D01*
X0201976Y0334676D02*
X0123694Y0334676D01*
X0123694Y0333477D02*
X0201976Y0333477D01*
X0202416Y0332279D02*
X0123694Y0332279D01*
X0123694Y0331080D02*
X0203182Y0331080D01*
X0204778Y0329882D02*
X0123694Y0329882D01*
X0123234Y0328683D02*
X0255207Y0328683D01*
X0255664Y0327485D02*
X0122291Y0327485D01*
X0116697Y0327485D02*
X0112856Y0327485D01*
X0113002Y0327631D02*
X0113428Y0328217D01*
X0113757Y0328862D01*
X0113980Y0329550D01*
X0114094Y0330266D01*
X0114094Y0333228D01*
X0109894Y0333228D01*
X0109894Y0334028D01*
X0109094Y0334028D01*
X0109094Y0341222D01*
X0108417Y0341114D01*
X0107728Y0340891D01*
X0107083Y0340562D01*
X0106497Y0340136D01*
X0105985Y0339624D01*
X0105559Y0339038D01*
X0105231Y0338393D01*
X0105007Y0337705D01*
X0104894Y0336990D01*
X0104894Y0334028D01*
X0109094Y0334028D01*
X0109094Y0333228D01*
X0104894Y0333228D01*
X0104894Y0330266D01*
X0105007Y0329550D01*
X0105231Y0328862D01*
X0105559Y0328217D01*
X0105985Y0327631D01*
X0106497Y0327119D01*
X0107083Y0326693D01*
X0107728Y0326365D01*
X0108417Y0326141D01*
X0109094Y0326034D01*
X0109094Y0333227D01*
X0109894Y0333227D01*
X0109894Y0326034D01*
X0110571Y0326141D01*
X0111259Y0326365D01*
X0111905Y0326693D01*
X0112490Y0327119D01*
X0113002Y0327631D01*
X0113666Y0328683D02*
X0115753Y0328683D01*
X0115294Y0329882D02*
X0114033Y0329882D01*
X0114094Y0331080D02*
X0115294Y0331080D01*
X0115294Y0332279D02*
X0114094Y0332279D01*
X0115294Y0333477D02*
X0109894Y0333477D01*
X0109894Y0334028D02*
X0114094Y0334028D01*
X0114094Y0336990D01*
X0113980Y0337705D01*
X0113757Y0338393D01*
X0113428Y0339038D01*
X0113002Y0339624D01*
X0112490Y0340136D01*
X0111905Y0340562D01*
X0111259Y0340891D01*
X0110571Y0341114D01*
X0109894Y0341222D01*
X0109894Y0334028D01*
X0109894Y0334676D02*
X0109094Y0334676D01*
X0109094Y0335874D02*
X0109894Y0335874D01*
X0109894Y0337073D02*
X0109094Y0337073D01*
X0109094Y0338271D02*
X0109894Y0338271D01*
X0109894Y0339470D02*
X0109094Y0339470D01*
X0109094Y0340668D02*
X0109894Y0340668D01*
X0111696Y0340668D02*
X0118274Y0340668D01*
X0116396Y0339470D02*
X0113115Y0339470D01*
X0113796Y0338271D02*
X0115629Y0338271D01*
X0115294Y0337073D02*
X0114081Y0337073D01*
X0114094Y0335874D02*
X0115294Y0335874D01*
X0115294Y0334676D02*
X0114094Y0334676D01*
X0109894Y0332279D02*
X0109094Y0332279D01*
X0109094Y0333477D02*
X0077655Y0333477D01*
X0077655Y0332279D02*
X0104894Y0332279D01*
X0104894Y0331080D02*
X0077655Y0331080D01*
X0077655Y0329882D02*
X0104954Y0329882D01*
X0105322Y0328683D02*
X0077655Y0328683D01*
X0077655Y0327485D02*
X0106131Y0327485D01*
X0107969Y0326286D02*
X0077655Y0326286D01*
X0077655Y0325088D02*
X0266534Y0325088D01*
X0266534Y0326286D02*
X0264546Y0326286D01*
X0262079Y0326286D02*
X0259624Y0326286D01*
X0257158Y0326286D02*
X0111018Y0326286D01*
X0109894Y0326286D02*
X0109094Y0326286D01*
X0109094Y0327485D02*
X0109894Y0327485D01*
X0109894Y0328683D02*
X0109094Y0328683D01*
X0109094Y0329882D02*
X0109894Y0329882D01*
X0109894Y0331080D02*
X0109094Y0331080D01*
X0104894Y0334676D02*
X0077655Y0334676D01*
X0077655Y0335874D02*
X0104894Y0335874D01*
X0104907Y0337073D02*
X0077655Y0337073D01*
X0077655Y0338271D02*
X0105191Y0338271D01*
X0105873Y0339470D02*
X0077655Y0339470D01*
X0077655Y0340668D02*
X0107292Y0340668D01*
X0120713Y0340668D02*
X0268120Y0340668D01*
X0266921Y0341867D02*
X0077655Y0341867D01*
X0077655Y0343065D02*
X0265723Y0343065D01*
X0265132Y0335874D02*
X0266414Y0335874D01*
X0270053Y0335874D02*
X0271336Y0335874D01*
X0261493Y0335874D02*
X0260211Y0335874D01*
X0266534Y0323889D02*
X0077655Y0323889D01*
X0077655Y0322691D02*
X0266534Y0322691D01*
X0266784Y0321492D02*
X0077655Y0321492D01*
X0077655Y0320294D02*
X0267982Y0320294D01*
X0269181Y0319095D02*
X0077655Y0319095D01*
X0100451Y0307110D02*
X0104677Y0307110D01*
X0104789Y0307221D02*
X0103410Y0305843D01*
X0102664Y0304042D01*
X0102664Y0302093D01*
X0103410Y0300292D01*
X0104789Y0298913D01*
X0106589Y0298167D01*
X0108539Y0298167D01*
X0110340Y0298913D01*
X0111718Y0300292D01*
X0112464Y0302093D01*
X0112464Y0304042D01*
X0111718Y0305843D01*
X0110340Y0307221D01*
X0108539Y0307967D01*
X0106589Y0307967D01*
X0104789Y0307221D01*
X0103479Y0305912D02*
X0101650Y0305912D01*
X0102186Y0304713D02*
X0102942Y0304713D01*
X0102664Y0303514D02*
X0102464Y0303514D01*
X0102464Y0302316D02*
X0102664Y0302316D01*
X0103068Y0301117D02*
X0102060Y0301117D01*
X0101345Y0299919D02*
X0103783Y0299919D01*
X0105254Y0298720D02*
X0099874Y0298720D01*
X0109874Y0298720D02*
X0115254Y0298720D01*
X0113783Y0299919D02*
X0111345Y0299919D01*
X0112060Y0301117D02*
X0113068Y0301117D01*
X0112664Y0302316D02*
X0112464Y0302316D01*
X0112464Y0303514D02*
X0112664Y0303514D01*
X0112942Y0304713D02*
X0112186Y0304713D01*
X0111650Y0305912D02*
X0113479Y0305912D01*
X0114677Y0307110D02*
X0110451Y0307110D01*
X0120451Y0307110D02*
X0361199Y0307110D01*
X0361199Y0305912D02*
X0121650Y0305912D01*
X0122186Y0304713D02*
X0361199Y0304713D01*
X0361199Y0303514D02*
X0122464Y0303514D01*
X0121345Y0299919D02*
X0175171Y0299919D01*
X0174214Y0298720D02*
X0119874Y0298720D01*
X0135230Y0273552D02*
X0369016Y0273552D01*
X0369387Y0272353D02*
X0136438Y0272353D01*
X0137027Y0271155D02*
X0367718Y0271155D01*
X0366049Y0269956D02*
X0137328Y0269956D01*
X0137328Y0268758D02*
X0364381Y0268758D01*
X0362712Y0267559D02*
X0136930Y0267559D01*
X0136203Y0266361D02*
X0361043Y0266361D01*
X0360688Y0265162D02*
X0134665Y0265162D01*
X0135413Y0263964D02*
X0360727Y0263964D01*
X0360727Y0262765D02*
X0136679Y0262765D01*
X0137367Y0261567D02*
X0360727Y0261567D01*
X0364127Y0261567D02*
X0380040Y0261567D01*
X0379857Y0262765D02*
X0364127Y0262765D01*
X0364127Y0263964D02*
X0380141Y0263964D01*
X0380940Y0265162D02*
X0365203Y0265162D01*
X0366872Y0266361D02*
X0380093Y0266361D01*
X0379857Y0267559D02*
X0368540Y0267559D01*
X0370209Y0268758D02*
X0380089Y0268758D01*
X0380929Y0269956D02*
X0371878Y0269956D01*
X0372626Y0274750D02*
X0380802Y0274750D01*
X0371427Y0275949D02*
X0412538Y0275949D01*
X0412538Y0277147D02*
X0370229Y0277147D01*
X0369030Y0278346D02*
X0412538Y0278346D01*
X0412538Y0279544D02*
X0367832Y0279544D01*
X0366633Y0280743D02*
X0412538Y0280743D01*
X0412538Y0281941D02*
X0365435Y0281941D01*
X0364599Y0283140D02*
X0412538Y0283140D01*
X0412538Y0284338D02*
X0364599Y0284338D01*
X0364599Y0285537D02*
X0412538Y0285537D01*
X0412538Y0286735D02*
X0364599Y0286735D01*
X0364599Y0287934D02*
X0412538Y0287934D01*
X0411958Y0289132D02*
X0364599Y0289132D01*
X0364599Y0290331D02*
X0411257Y0290331D01*
X0411257Y0291529D02*
X0364599Y0291529D01*
X0364599Y0292728D02*
X0411257Y0292728D01*
X0411257Y0293926D02*
X0364599Y0293926D01*
X0364599Y0304713D02*
X0382438Y0304713D01*
X0382438Y0305912D02*
X0364599Y0305912D01*
X0364599Y0307110D02*
X0382438Y0307110D01*
X0382438Y0308309D02*
X0364599Y0308309D01*
X0364599Y0309507D02*
X0383719Y0309507D01*
X0383719Y0310706D02*
X0364599Y0310706D01*
X0364599Y0311904D02*
X0383719Y0311904D01*
X0383719Y0313103D02*
X0364599Y0313103D01*
X0364599Y0314301D02*
X0383719Y0314301D01*
X0383719Y0315500D02*
X0364599Y0315500D01*
X0363603Y0316686D02*
X0363603Y0316686D01*
X0363591Y0316698D02*
X0383719Y0316698D01*
X0383719Y0317897D02*
X0362393Y0317897D01*
X0361194Y0319095D02*
X0383719Y0319095D01*
X0383719Y0320294D02*
X0359996Y0320294D01*
X0358797Y0321492D02*
X0383719Y0321492D01*
X0383719Y0322691D02*
X0357599Y0322691D01*
X0356400Y0323889D02*
X0383719Y0323889D01*
X0383719Y0325088D02*
X0355201Y0325088D01*
X0375963Y0331080D02*
X0381566Y0331080D01*
X0380367Y0332279D02*
X0376614Y0332279D01*
X0375514Y0370631D02*
X0448631Y0370631D01*
X0447717Y0371830D02*
X0376428Y0371830D01*
X0376924Y0373028D02*
X0447221Y0373028D01*
X0447172Y0374227D02*
X0376972Y0374227D01*
X0376835Y0375425D02*
X0432791Y0375425D01*
X0432477Y0375739D02*
X0433180Y0375036D01*
X0437736Y0375036D01*
X0438439Y0375739D01*
X0438439Y0380295D01*
X0437736Y0380998D01*
X0437158Y0380998D01*
X0437158Y0397628D01*
X0441871Y0402341D01*
X0447505Y0402341D01*
X0447918Y0401344D01*
X0449297Y0399966D01*
X0451098Y0399220D01*
X0453047Y0399220D01*
X0454848Y0399966D01*
X0456226Y0401344D01*
X0456972Y0403145D01*
X0456972Y0405094D01*
X0456226Y0406895D01*
X0454848Y0408274D01*
X0453047Y0409020D01*
X0451098Y0409020D01*
X0449297Y0408274D01*
X0447918Y0406895D01*
X0447440Y0405741D01*
X0440463Y0405741D01*
X0439467Y0404745D01*
X0433758Y0399036D01*
X0433758Y0380998D01*
X0433180Y0380998D01*
X0432477Y0380295D01*
X0432477Y0375739D01*
X0432477Y0376624D02*
X0376339Y0376624D01*
X0375300Y0377822D02*
X0432477Y0377822D01*
X0432477Y0379021D02*
X0332788Y0379021D01*
X0334490Y0402991D02*
X0367236Y0402991D01*
X0367172Y0404189D02*
X0335688Y0404189D01*
X0336887Y0405388D02*
X0367294Y0405388D01*
X0367791Y0406586D02*
X0338085Y0406586D01*
X0339286Y0407785D02*
X0368808Y0407785D01*
X0369297Y0409966D02*
X0371098Y0409220D01*
X0373047Y0409220D01*
X0374848Y0409966D01*
X0376226Y0411344D01*
X0376972Y0413145D01*
X0376972Y0415094D01*
X0376226Y0416895D01*
X0374848Y0418274D01*
X0373047Y0419020D01*
X0371098Y0419020D01*
X0369297Y0418274D01*
X0367918Y0416895D01*
X0367172Y0415094D01*
X0367172Y0413145D01*
X0367918Y0411344D01*
X0369297Y0409966D01*
X0369080Y0410182D02*
X0340148Y0410182D01*
X0340144Y0411381D02*
X0367903Y0411381D01*
X0367407Y0412579D02*
X0340141Y0412579D01*
X0340137Y0413778D02*
X0367172Y0413778D01*
X0367172Y0414976D02*
X0341177Y0414976D01*
X0342376Y0416175D02*
X0367620Y0416175D01*
X0368396Y0417373D02*
X0342934Y0417373D01*
X0343213Y0418572D02*
X0370016Y0418572D01*
X0369769Y0419770D02*
X0343213Y0419770D01*
X0343213Y0420969D02*
X0368294Y0420969D01*
X0367918Y0421344D02*
X0369297Y0419966D01*
X0371098Y0419220D01*
X0373047Y0419220D01*
X0374848Y0419966D01*
X0376226Y0421344D01*
X0376972Y0423145D01*
X0376972Y0425094D01*
X0376226Y0426895D01*
X0374848Y0428274D01*
X0373047Y0429020D01*
X0371098Y0429020D01*
X0369297Y0428274D01*
X0367918Y0426895D01*
X0367172Y0425094D01*
X0367172Y0423145D01*
X0367918Y0421344D01*
X0367577Y0422167D02*
X0343213Y0422167D01*
X0343213Y0423366D02*
X0367172Y0423366D01*
X0367172Y0424564D02*
X0343213Y0424564D01*
X0343213Y0425763D02*
X0367449Y0425763D01*
X0367984Y0426961D02*
X0343213Y0426961D01*
X0342800Y0428160D02*
X0369183Y0428160D01*
X0374962Y0428160D02*
X0449183Y0428160D01*
X0449297Y0428274D02*
X0447918Y0426895D01*
X0447172Y0425094D01*
X0447172Y0423145D01*
X0447918Y0421344D01*
X0449297Y0419966D01*
X0451098Y0419220D01*
X0453047Y0419220D01*
X0454848Y0419966D01*
X0456226Y0421344D01*
X0456972Y0423145D01*
X0456972Y0425094D01*
X0456226Y0426895D01*
X0454848Y0428274D01*
X0453047Y0429020D01*
X0451098Y0429020D01*
X0449297Y0428274D01*
X0447984Y0426961D02*
X0376161Y0426961D01*
X0376696Y0425763D02*
X0447449Y0425763D01*
X0447172Y0424564D02*
X0376972Y0424564D01*
X0376972Y0423366D02*
X0447172Y0423366D01*
X0447577Y0422167D02*
X0376567Y0422167D01*
X0375851Y0420969D02*
X0448294Y0420969D01*
X0449769Y0419770D02*
X0374376Y0419770D01*
X0374129Y0418572D02*
X0450016Y0418572D01*
X0449297Y0418274D02*
X0447918Y0416895D01*
X0447172Y0415094D01*
X0447172Y0413145D01*
X0447918Y0411344D01*
X0449297Y0409966D01*
X0451098Y0409220D01*
X0453047Y0409220D01*
X0454848Y0409966D01*
X0456226Y0411344D01*
X0456972Y0413145D01*
X0456972Y0415094D01*
X0456226Y0416895D01*
X0454848Y0418274D01*
X0453047Y0419020D01*
X0451098Y0419020D01*
X0449297Y0418274D01*
X0448396Y0417373D02*
X0375749Y0417373D01*
X0376525Y0416175D02*
X0447620Y0416175D01*
X0447172Y0414976D02*
X0376972Y0414976D01*
X0376972Y0413778D02*
X0447172Y0413778D01*
X0447407Y0412579D02*
X0376738Y0412579D01*
X0376242Y0411381D02*
X0447903Y0411381D01*
X0449080Y0410182D02*
X0375064Y0410182D01*
X0373134Y0408983D02*
X0451010Y0408983D01*
X0453134Y0408983D02*
X0467356Y0408983D01*
X0467356Y0407785D02*
X0455337Y0407785D01*
X0456354Y0406586D02*
X0467356Y0406586D01*
X0467356Y0405388D02*
X0456851Y0405388D01*
X0456972Y0404189D02*
X0467356Y0404189D01*
X0467356Y0402991D02*
X0456909Y0402991D01*
X0456412Y0401792D02*
X0467356Y0401792D01*
X0467356Y0400594D02*
X0455476Y0400594D01*
X0453471Y0399395D02*
X0467356Y0399395D01*
X0467356Y0398197D02*
X0454925Y0398197D01*
X0454848Y0398274D02*
X0453047Y0399020D01*
X0451098Y0399020D01*
X0449297Y0398274D01*
X0447918Y0396895D01*
X0447172Y0395094D01*
X0447172Y0393145D01*
X0447918Y0391344D01*
X0449297Y0389966D01*
X0451098Y0389220D01*
X0453047Y0389220D01*
X0454848Y0389966D01*
X0456226Y0391344D01*
X0456972Y0393145D01*
X0456972Y0395094D01*
X0456226Y0396895D01*
X0454848Y0398274D01*
X0456123Y0396998D02*
X0467356Y0396998D01*
X0467356Y0395800D02*
X0456680Y0395800D01*
X0456972Y0394601D02*
X0467356Y0394601D01*
X0467356Y0393403D02*
X0456972Y0393403D01*
X0456583Y0392204D02*
X0467356Y0392204D01*
X0467356Y0391006D02*
X0455888Y0391006D01*
X0454466Y0389807D02*
X0467356Y0389807D01*
X0467356Y0388609D02*
X0454039Y0388609D01*
X0454848Y0388274D02*
X0453047Y0389020D01*
X0451098Y0389020D01*
X0449297Y0388274D01*
X0447918Y0386895D01*
X0447172Y0385094D01*
X0447172Y0383145D01*
X0447918Y0381344D01*
X0449297Y0379966D01*
X0451098Y0379220D01*
X0453047Y0379220D01*
X0454848Y0379966D01*
X0456226Y0381344D01*
X0456972Y0383145D01*
X0456972Y0385094D01*
X0456226Y0386895D01*
X0454848Y0388274D01*
X0455711Y0387410D02*
X0467356Y0387410D01*
X0467356Y0386212D02*
X0456510Y0386212D01*
X0456972Y0385013D02*
X0467356Y0385013D01*
X0467356Y0383815D02*
X0456972Y0383815D01*
X0456753Y0382616D02*
X0467356Y0382616D01*
X0467356Y0381418D02*
X0456257Y0381418D01*
X0455102Y0380219D02*
X0467356Y0380219D01*
X0467356Y0379021D02*
X0438439Y0379021D01*
X0438439Y0380219D02*
X0449043Y0380219D01*
X0447888Y0381418D02*
X0437158Y0381418D01*
X0437158Y0382616D02*
X0447391Y0382616D01*
X0447172Y0383815D02*
X0437158Y0383815D01*
X0437158Y0385013D02*
X0447172Y0385013D01*
X0447635Y0386212D02*
X0437158Y0386212D01*
X0437158Y0387410D02*
X0448433Y0387410D01*
X0450106Y0388609D02*
X0437158Y0388609D01*
X0437158Y0389807D02*
X0449679Y0389807D01*
X0448257Y0391006D02*
X0437158Y0391006D01*
X0437158Y0392204D02*
X0447562Y0392204D01*
X0447172Y0393403D02*
X0437158Y0393403D01*
X0437158Y0394601D02*
X0447172Y0394601D01*
X0447465Y0395800D02*
X0437158Y0395800D01*
X0437158Y0396998D02*
X0448021Y0396998D01*
X0449220Y0398197D02*
X0437727Y0398197D01*
X0438926Y0399395D02*
X0450674Y0399395D01*
X0448669Y0400594D02*
X0440124Y0400594D01*
X0441323Y0401792D02*
X0447733Y0401792D01*
X0447791Y0406586D02*
X0376354Y0406586D01*
X0376851Y0405388D02*
X0440110Y0405388D01*
X0438911Y0404189D02*
X0376972Y0404189D01*
X0376909Y0402991D02*
X0437713Y0402991D01*
X0436514Y0401792D02*
X0376412Y0401792D01*
X0375476Y0400594D02*
X0435316Y0400594D01*
X0434117Y0399395D02*
X0373471Y0399395D01*
X0374925Y0398197D02*
X0433758Y0398197D01*
X0433758Y0396998D02*
X0376123Y0396998D01*
X0376680Y0395800D02*
X0433758Y0395800D01*
X0433758Y0394601D02*
X0376972Y0394601D01*
X0376972Y0393403D02*
X0433758Y0393403D01*
X0433758Y0392204D02*
X0376583Y0392204D01*
X0375888Y0391006D02*
X0433758Y0391006D01*
X0433758Y0389807D02*
X0374466Y0389807D01*
X0374039Y0388609D02*
X0433758Y0388609D01*
X0433758Y0387410D02*
X0375711Y0387410D01*
X0376510Y0386212D02*
X0433758Y0386212D01*
X0433758Y0385013D02*
X0376972Y0385013D01*
X0376972Y0383815D02*
X0433758Y0383815D01*
X0433758Y0382616D02*
X0376753Y0382616D01*
X0376257Y0381418D02*
X0433758Y0381418D01*
X0432477Y0380219D02*
X0375102Y0380219D01*
X0375337Y0407785D02*
X0448808Y0407785D01*
X0455064Y0410182D02*
X0467356Y0410182D01*
X0467356Y0411381D02*
X0456242Y0411381D01*
X0456738Y0412579D02*
X0467356Y0412579D01*
X0467356Y0413778D02*
X0456972Y0413778D01*
X0456972Y0414976D02*
X0467356Y0414976D01*
X0467356Y0416175D02*
X0456525Y0416175D01*
X0455749Y0417373D02*
X0467356Y0417373D01*
X0467356Y0418572D02*
X0454129Y0418572D01*
X0454376Y0419770D02*
X0467356Y0419770D01*
X0467356Y0420969D02*
X0455851Y0420969D01*
X0456567Y0422167D02*
X0467356Y0422167D01*
X0467356Y0423366D02*
X0456972Y0423366D01*
X0456972Y0424564D02*
X0467356Y0424564D01*
X0467356Y0425763D02*
X0456696Y0425763D01*
X0456161Y0426961D02*
X0467356Y0426961D01*
X0467356Y0428160D02*
X0454962Y0428160D01*
X0467356Y0429358D02*
X0342051Y0429358D01*
X0340152Y0408983D02*
X0371010Y0408983D01*
X0438439Y0377822D02*
X0448845Y0377822D01*
X0447806Y0376624D02*
X0438439Y0376624D01*
X0438125Y0375425D02*
X0447309Y0375425D01*
X0455300Y0377822D02*
X0467356Y0377822D01*
X0467356Y0376624D02*
X0456339Y0376624D01*
X0456835Y0375425D02*
X0467356Y0375425D01*
X0467356Y0374227D02*
X0456972Y0374227D01*
X0456924Y0373028D02*
X0467356Y0373028D01*
X0467356Y0371830D02*
X0456428Y0371830D01*
X0455514Y0370631D02*
X0467356Y0370631D01*
X0467356Y0347859D02*
X0455262Y0347859D01*
X0456324Y0346661D02*
X0467356Y0346661D01*
X0467356Y0345462D02*
X0456820Y0345462D01*
X0456972Y0344264D02*
X0467356Y0344264D01*
X0467356Y0343065D02*
X0456939Y0343065D01*
X0456443Y0341867D02*
X0467356Y0341867D01*
X0467356Y0340668D02*
X0455551Y0340668D01*
X0453651Y0339470D02*
X0467356Y0339470D01*
X0467356Y0338271D02*
X0454850Y0338271D01*
X0456049Y0337073D02*
X0467356Y0337073D01*
X0467356Y0335874D02*
X0456649Y0335874D01*
X0456972Y0334676D02*
X0467356Y0334676D01*
X0467356Y0333477D02*
X0456972Y0333477D01*
X0456614Y0332279D02*
X0467356Y0332279D01*
X0467356Y0331080D02*
X0455963Y0331080D01*
X0454645Y0329882D02*
X0467356Y0329882D01*
X0460451Y0247184D02*
X0456714Y0247184D01*
X0458159Y0245986D02*
X0460451Y0245986D01*
X0460451Y0244787D02*
X0458847Y0244787D01*
X0459217Y0243589D02*
X0460451Y0243589D01*
X0460451Y0242390D02*
X0459217Y0242390D01*
X0458889Y0241192D02*
X0460451Y0241192D01*
X0460451Y0239993D02*
X0458261Y0239993D01*
X0456960Y0238795D02*
X0460451Y0238795D01*
X0460451Y0237596D02*
X0456099Y0237596D01*
X0457905Y0236398D02*
X0460451Y0236398D01*
X0460451Y0235199D02*
X0458742Y0235199D01*
X0459217Y0234001D02*
X0460451Y0234001D01*
X0460451Y0232802D02*
X0459217Y0232802D01*
X0458995Y0231604D02*
X0460451Y0231604D01*
X0460451Y0230405D02*
X0458498Y0230405D01*
X0457317Y0229207D02*
X0460451Y0229207D01*
X0460451Y0228008D02*
X0455485Y0228008D01*
X0457650Y0226810D02*
X0460451Y0226810D01*
X0460097Y0225611D02*
X0458636Y0225611D01*
X0458531Y0216023D02*
X0467356Y0216023D01*
X0467356Y0214825D02*
X0459027Y0214825D01*
X0459217Y0213626D02*
X0467356Y0213626D01*
X0467356Y0212428D02*
X0459206Y0212428D01*
X0458709Y0211229D02*
X0467356Y0211229D01*
X0467356Y0210031D02*
X0457826Y0210031D01*
X0455910Y0208832D02*
X0467356Y0208832D01*
X0467356Y0207634D02*
X0392063Y0207634D01*
X0393093Y0206435D02*
X0467356Y0206435D01*
X0467356Y0205237D02*
X0403526Y0205237D01*
X0404991Y0204038D02*
X0467356Y0204038D01*
X0467356Y0202840D02*
X0406190Y0202840D01*
X0407388Y0201641D02*
X0467356Y0201641D01*
X0467356Y0200443D02*
X0408587Y0200443D01*
X0409785Y0199244D02*
X0467356Y0199244D01*
X0467356Y0198045D02*
X0410984Y0198045D01*
X0412182Y0196847D02*
X0467356Y0196847D01*
X0467356Y0195648D02*
X0413381Y0195648D01*
X0414579Y0194450D02*
X0467356Y0194450D01*
X0467356Y0193251D02*
X0415778Y0193251D01*
X0416976Y0192053D02*
X0467356Y0192053D01*
X0467356Y0190854D02*
X0458251Y0190854D01*
X0457962Y0191144D02*
X0456197Y0191875D01*
X0447082Y0191875D01*
X0445317Y0191144D01*
X0443966Y0189793D01*
X0443235Y0188028D01*
X0443235Y0186117D01*
X0443966Y0184352D01*
X0445317Y0183001D01*
X0447082Y0182270D01*
X0456197Y0182270D01*
X0457962Y0183001D01*
X0459313Y0184352D01*
X0460044Y0186117D01*
X0460044Y0188028D01*
X0459313Y0189793D01*
X0457962Y0191144D01*
X0459370Y0189656D02*
X0467356Y0189656D01*
X0467356Y0188457D02*
X0459866Y0188457D01*
X0460044Y0187259D02*
X0467356Y0187259D01*
X0467356Y0186060D02*
X0460021Y0186060D01*
X0459524Y0184862D02*
X0467356Y0184862D01*
X0467356Y0183663D02*
X0458624Y0183663D01*
X0456667Y0182465D02*
X0467356Y0182465D01*
X0467356Y0181266D02*
X0457997Y0181266D01*
X0457962Y0181301D02*
X0456197Y0182032D01*
X0447082Y0182032D01*
X0445317Y0181301D01*
X0443966Y0179950D01*
X0443235Y0178185D01*
X0443235Y0176275D01*
X0443966Y0174510D01*
X0445317Y0173159D01*
X0447082Y0172428D01*
X0456197Y0172428D01*
X0457962Y0173159D01*
X0459313Y0174510D01*
X0460044Y0176275D01*
X0460044Y0178185D01*
X0459313Y0179950D01*
X0457962Y0181301D01*
X0459195Y0180068D02*
X0467356Y0180068D01*
X0467356Y0178869D02*
X0459761Y0178869D01*
X0460044Y0177671D02*
X0467356Y0177671D01*
X0467356Y0176472D02*
X0460044Y0176472D01*
X0459629Y0175274D02*
X0467356Y0175274D01*
X0467356Y0174075D02*
X0458879Y0174075D01*
X0457281Y0172877D02*
X0467356Y0172877D01*
X0467356Y0171678D02*
X0457432Y0171678D01*
X0458941Y0170480D02*
X0467356Y0170480D01*
X0467356Y0169281D02*
X0459655Y0169281D01*
X0460044Y0168083D02*
X0467356Y0168083D01*
X0467356Y0166884D02*
X0460044Y0166884D01*
X0459735Y0165686D02*
X0467356Y0165686D01*
X0467356Y0164487D02*
X0459133Y0164487D01*
X0457896Y0163289D02*
X0467356Y0163289D01*
X0467356Y0162090D02*
X0457780Y0162090D01*
X0459241Y0160892D02*
X0467356Y0160892D01*
X0467356Y0159693D02*
X0459986Y0159693D01*
X0460359Y0158495D02*
X0467356Y0158495D01*
X0467356Y0157296D02*
X0452239Y0157296D01*
X0452239Y0156098D02*
X0451039Y0156098D01*
X0451039Y0157296D02*
X0390910Y0157296D01*
X0390627Y0157013D02*
X0391284Y0157670D01*
X0391768Y0158841D01*
X0391768Y0160107D01*
X0391284Y0161278D01*
X0390388Y0162173D01*
X0389218Y0162658D01*
X0383982Y0162658D01*
X0382812Y0162173D01*
X0381916Y0161278D01*
X0381431Y0160107D01*
X0381431Y0158841D01*
X0381916Y0157670D01*
X0382573Y0157013D01*
X0381916Y0156356D01*
X0381431Y0155186D01*
X0381431Y0153919D01*
X0381916Y0152749D01*
X0382573Y0152092D01*
X0381916Y0151435D01*
X0381431Y0150265D01*
X0381431Y0148998D01*
X0381916Y0147828D01*
X0382573Y0147171D01*
X0381916Y0146514D01*
X0381431Y0145344D01*
X0381431Y0144077D01*
X0381916Y0142906D01*
X0382812Y0142011D01*
X0383982Y0141526D01*
X0384900Y0141526D01*
X0384900Y0088061D01*
X0387850Y0085111D01*
X0352026Y0085111D01*
X0351355Y0085137D01*
X0351328Y0085111D01*
X0351290Y0085111D01*
X0350815Y0084636D01*
X0344680Y0078956D01*
X0338969Y0084666D01*
X0337973Y0085662D01*
X0291524Y0085662D01*
X0291500Y0085684D01*
X0290824Y0085662D01*
X0290148Y0085662D01*
X0290125Y0085639D01*
X0290093Y0085638D01*
X0289630Y0085145D01*
X0289152Y0084666D01*
X0289152Y0084634D01*
X0283213Y0078294D01*
X0282735Y0077816D01*
X0282735Y0077784D01*
X0282713Y0077760D01*
X0282735Y0077084D01*
X0282735Y0074381D01*
X0281714Y0073959D01*
X0280363Y0072608D01*
X0279632Y0070843D01*
X0279632Y0061727D01*
X0280363Y0059962D01*
X0281714Y0058611D01*
X0283479Y0057880D01*
X0285390Y0057880D01*
X0287155Y0058611D01*
X0288506Y0059962D01*
X0289237Y0061727D01*
X0289237Y0070843D01*
X0288506Y0072608D01*
X0287155Y0073959D01*
X0286135Y0074381D01*
X0286135Y0076440D01*
X0291589Y0082262D01*
X0336565Y0082262D01*
X0342831Y0075996D01*
X0342827Y0075883D01*
X0342853Y0075855D01*
X0342853Y0074263D01*
X0341832Y0073841D01*
X0340482Y0072490D01*
X0339750Y0070725D01*
X0339750Y0061609D01*
X0340482Y0059844D01*
X0341832Y0058493D01*
X0343598Y0057762D01*
X0345508Y0057762D01*
X0347273Y0058493D01*
X0348624Y0059844D01*
X0349355Y0061609D01*
X0349355Y0070725D01*
X0348624Y0072490D01*
X0347273Y0073841D01*
X0346253Y0074263D01*
X0346253Y0075778D01*
X0352660Y0081711D01*
X0391250Y0081711D01*
X0398916Y0074045D01*
X0398916Y0073397D01*
X0397895Y0072974D01*
X0396545Y0071623D01*
X0395813Y0069858D01*
X0395813Y0060743D01*
X0396545Y0058978D01*
X0397895Y0057627D01*
X0399660Y0056896D01*
X0401571Y0056896D01*
X0403336Y0057627D01*
X0404687Y0058978D01*
X0405418Y0060743D01*
X0405418Y0069858D01*
X0404687Y0071623D01*
X0403336Y0072974D01*
X0402316Y0073397D01*
X0402316Y0075454D01*
X0393446Y0084324D01*
X0388300Y0089470D01*
X0388300Y0141526D01*
X0389218Y0141526D01*
X0390388Y0142011D01*
X0391284Y0142906D01*
X0391768Y0144077D01*
X0391768Y0145344D01*
X0391284Y0146514D01*
X0390627Y0147171D01*
X0391284Y0147828D01*
X0391768Y0148998D01*
X0391768Y0150265D01*
X0391284Y0151435D01*
X0390627Y0152092D01*
X0391284Y0152749D01*
X0391768Y0153919D01*
X0391768Y0155186D01*
X0391284Y0156356D01*
X0390627Y0157013D01*
X0391391Y0156098D02*
X0443037Y0156098D01*
X0443546Y0154899D02*
X0391768Y0154899D01*
X0391678Y0153701D02*
X0444524Y0153701D01*
X0446722Y0152502D02*
X0391037Y0152502D01*
X0391338Y0151304D02*
X0467356Y0151304D01*
X0467356Y0152502D02*
X0456557Y0152502D01*
X0458755Y0153701D02*
X0467356Y0153701D01*
X0467356Y0154899D02*
X0459732Y0154899D01*
X0460242Y0156098D02*
X0467356Y0156098D01*
X0467356Y0150105D02*
X0391768Y0150105D01*
X0391731Y0148907D02*
X0467356Y0148907D01*
X0467356Y0147708D02*
X0391164Y0147708D01*
X0391286Y0146510D02*
X0467356Y0146510D01*
X0467356Y0145311D02*
X0391768Y0145311D01*
X0391768Y0144112D02*
X0467356Y0144112D01*
X0467356Y0142914D02*
X0391287Y0142914D01*
X0389675Y0141715D02*
X0467356Y0141715D01*
X0467356Y0140517D02*
X0388300Y0140517D01*
X0388300Y0139318D02*
X0467356Y0139318D01*
X0467356Y0138120D02*
X0388300Y0138120D01*
X0388300Y0136921D02*
X0467356Y0136921D01*
X0467356Y0135723D02*
X0388300Y0135723D01*
X0388300Y0134524D02*
X0467356Y0134524D01*
X0467356Y0133326D02*
X0388300Y0133326D01*
X0388300Y0132127D02*
X0467356Y0132127D01*
X0467356Y0130929D02*
X0388300Y0130929D01*
X0388300Y0129730D02*
X0467356Y0129730D01*
X0467356Y0128532D02*
X0388300Y0128532D01*
X0388300Y0127333D02*
X0467356Y0127333D01*
X0467356Y0126135D02*
X0388300Y0126135D01*
X0388300Y0124936D02*
X0467356Y0124936D01*
X0467356Y0123738D02*
X0388300Y0123738D01*
X0388300Y0122539D02*
X0467356Y0122539D01*
X0467356Y0121341D02*
X0388300Y0121341D01*
X0388300Y0120142D02*
X0467356Y0120142D01*
X0467356Y0118944D02*
X0388300Y0118944D01*
X0388300Y0117745D02*
X0467356Y0117745D01*
X0467356Y0116547D02*
X0388300Y0116547D01*
X0388300Y0115348D02*
X0467356Y0115348D01*
X0467356Y0114150D02*
X0388300Y0114150D01*
X0388300Y0112951D02*
X0467356Y0112951D01*
X0467356Y0111753D02*
X0388300Y0111753D01*
X0388300Y0110554D02*
X0467356Y0110554D01*
X0467356Y0109356D02*
X0388300Y0109356D01*
X0388300Y0108157D02*
X0467356Y0108157D01*
X0467356Y0106959D02*
X0388300Y0106959D01*
X0388300Y0105760D02*
X0467356Y0105760D01*
X0467356Y0104562D02*
X0388300Y0104562D01*
X0388300Y0103363D02*
X0467356Y0103363D01*
X0467356Y0102165D02*
X0388300Y0102165D01*
X0388300Y0100966D02*
X0467356Y0100966D01*
X0467356Y0099768D02*
X0388300Y0099768D01*
X0388300Y0098569D02*
X0467356Y0098569D01*
X0467356Y0097371D02*
X0388300Y0097371D01*
X0388300Y0096172D02*
X0467356Y0096172D01*
X0467356Y0094974D02*
X0388300Y0094974D01*
X0388300Y0093775D02*
X0467356Y0093775D01*
X0467356Y0092577D02*
X0388300Y0092577D01*
X0388300Y0091378D02*
X0467356Y0091378D01*
X0467356Y0090179D02*
X0388300Y0090179D01*
X0388789Y0088981D02*
X0467356Y0088981D01*
X0467356Y0087782D02*
X0389987Y0087782D01*
X0391186Y0086584D02*
X0467356Y0086584D01*
X0467356Y0085385D02*
X0392384Y0085385D01*
X0393446Y0084324D02*
X0393446Y0084324D01*
X0393583Y0084187D02*
X0467356Y0084187D01*
X0467356Y0082988D02*
X0394781Y0082988D01*
X0395980Y0081790D02*
X0467356Y0081790D01*
X0467356Y0080591D02*
X0397178Y0080591D01*
X0398377Y0079393D02*
X0467356Y0079393D01*
X0467356Y0078194D02*
X0399575Y0078194D01*
X0400774Y0076996D02*
X0467356Y0076996D01*
X0467356Y0075797D02*
X0401972Y0075797D01*
X0402316Y0074599D02*
X0467356Y0074599D01*
X0467356Y0073400D02*
X0431835Y0073400D01*
X0431099Y0073705D02*
X0429188Y0073705D01*
X0427423Y0072974D01*
X0426072Y0071623D01*
X0425396Y0069991D01*
X0425375Y0070121D01*
X0425122Y0070900D01*
X0424750Y0071630D01*
X0424269Y0072292D01*
X0423690Y0072871D01*
X0423027Y0073353D01*
X0422298Y0073724D01*
X0421519Y0073977D01*
X0420901Y0074075D01*
X0420901Y0065901D01*
X0419701Y0065901D01*
X0419701Y0074075D01*
X0419083Y0073977D01*
X0418304Y0073724D01*
X0417574Y0073353D01*
X0416912Y0072871D01*
X0416333Y0072292D01*
X0415851Y0071630D01*
X0415480Y0070900D01*
X0415227Y0070121D01*
X0415206Y0069991D01*
X0414530Y0071623D01*
X0413179Y0072974D01*
X0411414Y0073705D01*
X0409503Y0073705D01*
X0407738Y0072974D01*
X0406387Y0071623D01*
X0405656Y0069858D01*
X0405656Y0060743D01*
X0406387Y0058978D01*
X0407738Y0057627D01*
X0409503Y0056896D01*
X0411414Y0056896D01*
X0413179Y0057627D01*
X0414530Y0058978D01*
X0415206Y0060611D01*
X0415227Y0060480D01*
X0415480Y0059701D01*
X0415851Y0058972D01*
X0416333Y0058309D01*
X0416912Y0057730D01*
X0417574Y0057249D01*
X0418304Y0056877D01*
X0419083Y0056624D01*
X0419701Y0056526D01*
X0419701Y0064701D01*
X0420901Y0064701D01*
X0420901Y0056526D01*
X0421519Y0056624D01*
X0422298Y0056877D01*
X0423027Y0057249D01*
X0423690Y0057730D01*
X0424269Y0058309D01*
X0424750Y0058972D01*
X0425122Y0059701D01*
X0425375Y0060480D01*
X0425396Y0060611D01*
X0426072Y0058978D01*
X0427423Y0057627D01*
X0429188Y0056896D01*
X0431099Y0056896D01*
X0432864Y0057627D01*
X0434215Y0058978D01*
X0434946Y0060743D01*
X0434946Y0069858D01*
X0434215Y0071623D01*
X0432864Y0072974D01*
X0431099Y0073705D01*
X0428451Y0073400D02*
X0422934Y0073400D01*
X0424335Y0072202D02*
X0426650Y0072202D01*
X0425815Y0071003D02*
X0425069Y0071003D01*
X0420901Y0071003D02*
X0419701Y0071003D01*
X0419701Y0069805D02*
X0420901Y0069805D01*
X0420901Y0068606D02*
X0419701Y0068606D01*
X0419701Y0067408D02*
X0420901Y0067408D01*
X0420901Y0066209D02*
X0419701Y0066209D01*
X0419701Y0063812D02*
X0420901Y0063812D01*
X0420901Y0062614D02*
X0419701Y0062614D01*
X0419701Y0061415D02*
X0420901Y0061415D01*
X0420901Y0060217D02*
X0419701Y0060217D01*
X0419701Y0059018D02*
X0420901Y0059018D01*
X0420901Y0057820D02*
X0419701Y0057820D01*
X0419701Y0056621D02*
X0420901Y0056621D01*
X0421500Y0056621D02*
X0467356Y0056621D01*
X0467356Y0055423D02*
X0077655Y0055423D01*
X0077655Y0056621D02*
X0419102Y0056621D01*
X0416822Y0057820D02*
X0413371Y0057820D01*
X0414546Y0059018D02*
X0415828Y0059018D01*
X0415312Y0060217D02*
X0415043Y0060217D01*
X0423779Y0057820D02*
X0427230Y0057820D01*
X0426055Y0059018D02*
X0424774Y0059018D01*
X0425289Y0060217D02*
X0425559Y0060217D01*
X0433056Y0057820D02*
X0467356Y0057820D01*
X0467356Y0059018D02*
X0434231Y0059018D01*
X0434728Y0060217D02*
X0467356Y0060217D01*
X0467356Y0061415D02*
X0434946Y0061415D01*
X0434946Y0062614D02*
X0467356Y0062614D01*
X0467356Y0063812D02*
X0434946Y0063812D01*
X0434946Y0065011D02*
X0467356Y0065011D01*
X0467356Y0066209D02*
X0434946Y0066209D01*
X0434946Y0067408D02*
X0467356Y0067408D01*
X0467356Y0068606D02*
X0434946Y0068606D01*
X0434946Y0069805D02*
X0467356Y0069805D01*
X0467356Y0071003D02*
X0434471Y0071003D01*
X0433636Y0072202D02*
X0467356Y0072202D01*
X0467356Y0054224D02*
X0077655Y0054224D01*
X0077655Y0053026D02*
X0467356Y0053026D01*
X0467356Y0051827D02*
X0077655Y0051827D01*
X0077655Y0050629D02*
X0467356Y0050629D01*
X0467356Y0049430D02*
X0077655Y0049430D01*
X0077655Y0049033D02*
X0077655Y0438734D01*
X0467356Y0438734D01*
X0467356Y0049033D01*
X0077655Y0049033D01*
X0077655Y0057820D02*
X0302251Y0057820D01*
X0302123Y0057861D02*
X0302901Y0057608D01*
X0303520Y0057510D01*
X0303520Y0065685D01*
X0304720Y0065685D01*
X0304720Y0057510D01*
X0305338Y0057608D01*
X0306117Y0057861D01*
X0306846Y0058233D01*
X0307509Y0058715D01*
X0308088Y0059294D01*
X0308569Y0059956D01*
X0308941Y0060686D01*
X0309194Y0061464D01*
X0309215Y0061595D01*
X0309891Y0059962D01*
X0311242Y0058611D01*
X0313007Y0057880D01*
X0314917Y0057880D01*
X0316683Y0058611D01*
X0318033Y0059962D01*
X0318765Y0061727D01*
X0318765Y0070843D01*
X0318033Y0072608D01*
X0316683Y0073959D01*
X0314917Y0074690D01*
X0313007Y0074690D01*
X0311242Y0073959D01*
X0309891Y0072608D01*
X0309215Y0070975D01*
X0309194Y0071106D01*
X0308941Y0071884D01*
X0308569Y0072614D01*
X0308088Y0073277D01*
X0307509Y0073856D01*
X0306846Y0074337D01*
X0306117Y0074709D01*
X0305338Y0074962D01*
X0304720Y0075060D01*
X0304720Y0066885D01*
X0303520Y0066885D01*
X0303520Y0075060D01*
X0302901Y0074962D01*
X0302123Y0074709D01*
X0301393Y0074337D01*
X0300731Y0073856D01*
X0300152Y0073277D01*
X0299670Y0072614D01*
X0299298Y0071884D01*
X0299045Y0071106D01*
X0299025Y0070975D01*
X0298348Y0072608D01*
X0296997Y0073959D01*
X0295232Y0074690D01*
X0293322Y0074690D01*
X0291557Y0073959D01*
X0290206Y0072608D01*
X0289475Y0070843D01*
X0289475Y0061727D01*
X0290206Y0059962D01*
X0291557Y0058611D01*
X0293322Y0057880D01*
X0295232Y0057880D01*
X0296997Y0058611D01*
X0298348Y0059962D01*
X0299025Y0061595D01*
X0299045Y0061464D01*
X0299298Y0060686D01*
X0299670Y0059956D01*
X0300152Y0059294D01*
X0300731Y0058715D01*
X0301393Y0058233D01*
X0302123Y0057861D01*
X0303520Y0057820D02*
X0304720Y0057820D01*
X0304720Y0059018D02*
X0303520Y0059018D01*
X0303520Y0060217D02*
X0304720Y0060217D01*
X0304720Y0061415D02*
X0303520Y0061415D01*
X0303520Y0062614D02*
X0304720Y0062614D01*
X0304720Y0063812D02*
X0303520Y0063812D01*
X0303520Y0065011D02*
X0304720Y0065011D01*
X0304720Y0067408D02*
X0303520Y0067408D01*
X0303520Y0068606D02*
X0304720Y0068606D01*
X0304720Y0069805D02*
X0303520Y0069805D01*
X0303520Y0071003D02*
X0304720Y0071003D01*
X0304720Y0072202D02*
X0303520Y0072202D01*
X0303520Y0073400D02*
X0304720Y0073400D01*
X0304720Y0074599D02*
X0303520Y0074599D01*
X0301907Y0074599D02*
X0295452Y0074599D01*
X0293102Y0074599D02*
X0286135Y0074599D01*
X0286135Y0075797D02*
X0342853Y0075797D01*
X0342853Y0074599D02*
X0315137Y0074599D01*
X0312787Y0074599D02*
X0306332Y0074599D01*
X0307964Y0073400D02*
X0310684Y0073400D01*
X0309723Y0072202D02*
X0308779Y0072202D01*
X0309210Y0071003D02*
X0309226Y0071003D01*
X0317241Y0073400D02*
X0341392Y0073400D01*
X0340362Y0072202D02*
X0318202Y0072202D01*
X0318698Y0071003D02*
X0339866Y0071003D01*
X0339750Y0069805D02*
X0318765Y0069805D01*
X0318765Y0068606D02*
X0339750Y0068606D01*
X0339750Y0067408D02*
X0318765Y0067408D01*
X0318765Y0066209D02*
X0339750Y0066209D01*
X0339750Y0065011D02*
X0318765Y0065011D01*
X0318765Y0063812D02*
X0339750Y0063812D01*
X0339750Y0062614D02*
X0318765Y0062614D01*
X0318635Y0061415D02*
X0339831Y0061415D01*
X0340327Y0060217D02*
X0318139Y0060217D01*
X0317089Y0059018D02*
X0341308Y0059018D01*
X0343459Y0057820D02*
X0305988Y0057820D01*
X0307812Y0059018D02*
X0310835Y0059018D01*
X0309786Y0060217D02*
X0308702Y0060217D01*
X0309178Y0061415D02*
X0309289Y0061415D01*
X0300427Y0059018D02*
X0297404Y0059018D01*
X0298454Y0060217D02*
X0299537Y0060217D01*
X0299061Y0061415D02*
X0298950Y0061415D01*
X0291150Y0059018D02*
X0287562Y0059018D01*
X0288611Y0060217D02*
X0290101Y0060217D01*
X0289604Y0061415D02*
X0289108Y0061415D01*
X0289237Y0062614D02*
X0289475Y0062614D01*
X0289475Y0063812D02*
X0289237Y0063812D01*
X0289237Y0065011D02*
X0289475Y0065011D01*
X0289475Y0066209D02*
X0289237Y0066209D01*
X0289237Y0067408D02*
X0289475Y0067408D01*
X0289475Y0068606D02*
X0289237Y0068606D01*
X0289237Y0069805D02*
X0289475Y0069805D01*
X0289541Y0071003D02*
X0289170Y0071003D01*
X0288674Y0072202D02*
X0290038Y0072202D01*
X0290999Y0073400D02*
X0287713Y0073400D01*
X0286655Y0076996D02*
X0341831Y0076996D01*
X0340633Y0078194D02*
X0287778Y0078194D01*
X0288901Y0079393D02*
X0339434Y0079393D01*
X0338236Y0080591D02*
X0290024Y0080591D01*
X0291146Y0081790D02*
X0337037Y0081790D01*
X0339449Y0084187D02*
X0350330Y0084187D01*
X0349035Y0082988D02*
X0340647Y0082988D01*
X0341846Y0081790D02*
X0347741Y0081790D01*
X0346446Y0080591D02*
X0343044Y0080591D01*
X0344243Y0079393D02*
X0345152Y0079393D01*
X0347567Y0076996D02*
X0395965Y0076996D01*
X0394767Y0078194D02*
X0348862Y0078194D01*
X0350156Y0079393D02*
X0393568Y0079393D01*
X0392370Y0080591D02*
X0351451Y0080591D01*
X0353440Y0074572D02*
X0351675Y0073841D01*
X0350324Y0072490D01*
X0349593Y0070725D01*
X0349593Y0061609D01*
X0350324Y0059844D01*
X0351675Y0058493D01*
X0353440Y0057762D01*
X0355351Y0057762D01*
X0357116Y0058493D01*
X0358467Y0059844D01*
X0359143Y0061477D01*
X0359164Y0061346D01*
X0359417Y0060568D01*
X0359788Y0059838D01*
X0360270Y0059175D01*
X0360849Y0058596D01*
X0361511Y0058115D01*
X0362241Y0057743D01*
X0363020Y0057490D01*
X0363638Y0057392D01*
X0363638Y0065567D01*
X0364838Y0065567D01*
X0364838Y0057392D01*
X0365456Y0057490D01*
X0366235Y0057743D01*
X0366964Y0058115D01*
X0367627Y0058596D01*
X0368206Y0059175D01*
X0368687Y0059838D01*
X0369059Y0060568D01*
X0369312Y0061346D01*
X0369333Y0061477D01*
X0370009Y0059844D01*
X0371360Y0058493D01*
X0373125Y0057762D01*
X0375036Y0057762D01*
X0376801Y0058493D01*
X0378152Y0059844D01*
X0378883Y0061609D01*
X0378883Y0070725D01*
X0378152Y0072490D01*
X0376801Y0073841D01*
X0375036Y0074572D01*
X0373125Y0074572D01*
X0371360Y0073841D01*
X0370009Y0072490D01*
X0369333Y0070857D01*
X0369312Y0070988D01*
X0369059Y0071766D01*
X0368687Y0072496D01*
X0368206Y0073158D01*
X0367627Y0073737D01*
X0366964Y0074219D01*
X0366235Y0074591D01*
X0365456Y0074844D01*
X0364838Y0074941D01*
X0364838Y0066767D01*
X0363638Y0066767D01*
X0363638Y0074941D01*
X0363020Y0074844D01*
X0362241Y0074591D01*
X0361511Y0074219D01*
X0360849Y0073737D01*
X0360270Y0073158D01*
X0359788Y0072496D01*
X0359417Y0071766D01*
X0359164Y0070988D01*
X0359143Y0070857D01*
X0358467Y0072490D01*
X0357116Y0073841D01*
X0355351Y0074572D01*
X0353440Y0074572D01*
X0351235Y0073400D02*
X0347713Y0073400D01*
X0348743Y0072202D02*
X0350205Y0072202D01*
X0349708Y0071003D02*
X0349240Y0071003D01*
X0349355Y0069805D02*
X0349593Y0069805D01*
X0349593Y0068606D02*
X0349355Y0068606D01*
X0349355Y0067408D02*
X0349593Y0067408D01*
X0349593Y0066209D02*
X0349355Y0066209D01*
X0349355Y0065011D02*
X0349593Y0065011D01*
X0349593Y0063812D02*
X0349355Y0063812D01*
X0349355Y0062614D02*
X0349593Y0062614D01*
X0349673Y0061415D02*
X0349275Y0061415D01*
X0348778Y0060217D02*
X0350170Y0060217D01*
X0351150Y0059018D02*
X0347798Y0059018D01*
X0345647Y0057820D02*
X0353301Y0057820D01*
X0355489Y0057820D02*
X0362091Y0057820D01*
X0363638Y0057820D02*
X0364838Y0057820D01*
X0364838Y0059018D02*
X0363638Y0059018D01*
X0363638Y0060217D02*
X0364838Y0060217D01*
X0364838Y0061415D02*
X0363638Y0061415D01*
X0363638Y0062614D02*
X0364838Y0062614D01*
X0364838Y0063812D02*
X0363638Y0063812D01*
X0363638Y0065011D02*
X0364838Y0065011D01*
X0364838Y0067408D02*
X0363638Y0067408D01*
X0363638Y0068606D02*
X0364838Y0068606D01*
X0364838Y0069805D02*
X0363638Y0069805D01*
X0363638Y0071003D02*
X0364838Y0071003D01*
X0364838Y0072202D02*
X0363638Y0072202D01*
X0363638Y0073400D02*
X0364838Y0073400D01*
X0364838Y0074599D02*
X0363638Y0074599D01*
X0362266Y0074599D02*
X0346253Y0074599D01*
X0346273Y0075797D02*
X0397164Y0075797D01*
X0398362Y0074599D02*
X0366209Y0074599D01*
X0367964Y0073400D02*
X0370920Y0073400D01*
X0369890Y0072202D02*
X0368837Y0072202D01*
X0369307Y0071003D02*
X0369393Y0071003D01*
X0377241Y0073400D02*
X0398916Y0073400D01*
X0397123Y0072202D02*
X0378271Y0072202D01*
X0378767Y0071003D02*
X0396288Y0071003D01*
X0395813Y0069805D02*
X0378883Y0069805D01*
X0378883Y0068606D02*
X0395813Y0068606D01*
X0395813Y0067408D02*
X0378883Y0067408D01*
X0378883Y0066209D02*
X0395813Y0066209D01*
X0395813Y0065011D02*
X0378883Y0065011D01*
X0378883Y0063812D02*
X0395813Y0063812D01*
X0395813Y0062614D02*
X0378883Y0062614D01*
X0378802Y0061415D02*
X0395813Y0061415D01*
X0396031Y0060217D02*
X0378306Y0060217D01*
X0377325Y0059018D02*
X0396528Y0059018D01*
X0397703Y0057820D02*
X0375174Y0057820D01*
X0372986Y0057820D02*
X0366385Y0057820D01*
X0368049Y0059018D02*
X0370835Y0059018D01*
X0369855Y0060217D02*
X0368880Y0060217D01*
X0369323Y0061415D02*
X0369358Y0061415D01*
X0360427Y0059018D02*
X0357640Y0059018D01*
X0358621Y0060217D02*
X0359595Y0060217D01*
X0359153Y0061415D02*
X0359117Y0061415D01*
X0359082Y0071003D02*
X0359169Y0071003D01*
X0359638Y0072202D02*
X0358586Y0072202D01*
X0357556Y0073400D02*
X0360512Y0073400D01*
X0338250Y0085385D02*
X0387576Y0085385D01*
X0386377Y0086584D02*
X0077655Y0086584D01*
X0077655Y0087782D02*
X0385179Y0087782D01*
X0384900Y0088981D02*
X0077655Y0088981D01*
X0077655Y0090179D02*
X0384900Y0090179D01*
X0384900Y0091378D02*
X0077655Y0091378D01*
X0077655Y0092577D02*
X0384900Y0092577D01*
X0384900Y0093775D02*
X0077655Y0093775D01*
X0077655Y0094974D02*
X0384900Y0094974D01*
X0384900Y0096172D02*
X0077655Y0096172D01*
X0077655Y0097371D02*
X0384900Y0097371D01*
X0384900Y0098569D02*
X0077655Y0098569D01*
X0077655Y0099768D02*
X0384900Y0099768D01*
X0384900Y0100966D02*
X0077655Y0100966D01*
X0077655Y0102165D02*
X0384900Y0102165D01*
X0384900Y0103363D02*
X0077655Y0103363D01*
X0077655Y0104562D02*
X0384900Y0104562D01*
X0384900Y0105760D02*
X0077655Y0105760D01*
X0077655Y0106959D02*
X0384900Y0106959D01*
X0384900Y0108157D02*
X0077655Y0108157D01*
X0077655Y0109356D02*
X0384900Y0109356D01*
X0384900Y0110554D02*
X0077655Y0110554D01*
X0077655Y0111753D02*
X0384900Y0111753D01*
X0384900Y0112951D02*
X0077655Y0112951D01*
X0077655Y0114150D02*
X0384900Y0114150D01*
X0384900Y0115348D02*
X0077655Y0115348D01*
X0077655Y0116547D02*
X0384900Y0116547D01*
X0384900Y0117745D02*
X0077655Y0117745D01*
X0077655Y0118944D02*
X0384900Y0118944D01*
X0384900Y0120142D02*
X0077655Y0120142D01*
X0077655Y0121341D02*
X0384900Y0121341D01*
X0384900Y0122539D02*
X0077655Y0122539D01*
X0077655Y0123738D02*
X0384900Y0123738D01*
X0384900Y0124936D02*
X0077655Y0124936D01*
X0077655Y0126135D02*
X0384900Y0126135D01*
X0384900Y0127333D02*
X0077655Y0127333D01*
X0077655Y0128532D02*
X0384900Y0128532D01*
X0384900Y0129730D02*
X0077655Y0129730D01*
X0077655Y0130929D02*
X0384900Y0130929D01*
X0384900Y0132127D02*
X0077655Y0132127D01*
X0077655Y0133326D02*
X0384900Y0133326D01*
X0384900Y0134524D02*
X0337589Y0134524D01*
X0336836Y0134213D02*
X0338582Y0134936D01*
X0339918Y0136272D01*
X0340641Y0138017D01*
X0340641Y0139907D01*
X0339918Y0141653D01*
X0338582Y0142989D01*
X0336836Y0143712D01*
X0334947Y0143712D01*
X0333201Y0142989D01*
X0331865Y0141653D01*
X0331142Y0139907D01*
X0331142Y0138017D01*
X0331865Y0136272D01*
X0333201Y0134936D01*
X0334947Y0134213D01*
X0336836Y0134213D01*
X0334194Y0134524D02*
X0180109Y0134524D01*
X0179356Y0134213D02*
X0181101Y0134936D01*
X0182438Y0136272D01*
X0183161Y0138017D01*
X0183161Y0139907D01*
X0182438Y0141653D01*
X0181101Y0142989D01*
X0179356Y0143712D01*
X0177466Y0143712D01*
X0175721Y0142989D01*
X0174384Y0141653D01*
X0173661Y0139907D01*
X0173661Y0138017D01*
X0174384Y0136272D01*
X0175721Y0134936D01*
X0177466Y0134213D01*
X0179356Y0134213D01*
X0176713Y0134524D02*
X0077655Y0134524D01*
X0077655Y0135723D02*
X0174933Y0135723D01*
X0174115Y0136921D02*
X0077655Y0136921D01*
X0077655Y0138120D02*
X0173661Y0138120D01*
X0173661Y0139318D02*
X0077655Y0139318D01*
X0077655Y0140517D02*
X0173914Y0140517D01*
X0174447Y0141715D02*
X0077655Y0141715D01*
X0077655Y0142914D02*
X0175646Y0142914D01*
X0181176Y0142914D02*
X0333126Y0142914D01*
X0331928Y0141715D02*
X0182375Y0141715D01*
X0182908Y0140517D02*
X0331394Y0140517D01*
X0331142Y0139318D02*
X0183161Y0139318D01*
X0183161Y0138120D02*
X0331142Y0138120D01*
X0331596Y0136921D02*
X0182707Y0136921D01*
X0181889Y0135723D02*
X0332414Y0135723D01*
X0339369Y0135723D02*
X0384900Y0135723D01*
X0384900Y0136921D02*
X0340187Y0136921D01*
X0340641Y0138120D02*
X0384900Y0138120D01*
X0384900Y0139318D02*
X0340641Y0139318D01*
X0340388Y0140517D02*
X0384900Y0140517D01*
X0383525Y0141715D02*
X0339855Y0141715D01*
X0338657Y0142914D02*
X0381913Y0142914D01*
X0381431Y0144112D02*
X0077655Y0144112D01*
X0077655Y0145311D02*
X0381431Y0145311D01*
X0381914Y0146510D02*
X0077655Y0146510D01*
X0077655Y0147708D02*
X0382036Y0147708D01*
X0381469Y0148907D02*
X0077655Y0148907D01*
X0077655Y0150105D02*
X0381431Y0150105D01*
X0381862Y0151304D02*
X0077655Y0151304D01*
X0077655Y0152502D02*
X0382163Y0152502D01*
X0381522Y0153701D02*
X0077655Y0153701D01*
X0077655Y0154899D02*
X0381431Y0154899D01*
X0381809Y0156098D02*
X0077655Y0156098D01*
X0077655Y0157296D02*
X0382290Y0157296D01*
X0381575Y0158495D02*
X0077655Y0158495D01*
X0077655Y0159693D02*
X0381431Y0159693D01*
X0381756Y0160892D02*
X0077655Y0160892D01*
X0077655Y0162090D02*
X0382729Y0162090D01*
X0390471Y0162090D02*
X0445498Y0162090D01*
X0445383Y0163289D02*
X0077655Y0163289D01*
X0077655Y0164487D02*
X0444146Y0164487D01*
X0443544Y0165686D02*
X0077655Y0165686D01*
X0077655Y0166884D02*
X0437337Y0166884D01*
X0436138Y0168083D02*
X0077655Y0168083D01*
X0077655Y0169281D02*
X0434940Y0169281D01*
X0433741Y0170480D02*
X0077655Y0170480D01*
X0077655Y0171678D02*
X0432543Y0171678D01*
X0431344Y0172877D02*
X0077655Y0172877D01*
X0077655Y0174075D02*
X0430146Y0174075D01*
X0428947Y0175274D02*
X0077655Y0175274D01*
X0077655Y0176472D02*
X0427749Y0176472D01*
X0426550Y0177671D02*
X0077655Y0177671D01*
X0077655Y0178869D02*
X0425352Y0178869D01*
X0424153Y0180068D02*
X0077655Y0180068D01*
X0077655Y0181266D02*
X0422955Y0181266D01*
X0421756Y0182465D02*
X0077655Y0182465D01*
X0077655Y0183663D02*
X0420558Y0183663D01*
X0419359Y0184862D02*
X0077655Y0184862D01*
X0077655Y0186060D02*
X0418161Y0186060D01*
X0416962Y0187259D02*
X0077655Y0187259D01*
X0077655Y0188457D02*
X0415764Y0188457D01*
X0414565Y0189656D02*
X0390581Y0189656D01*
X0389858Y0189357D02*
X0391623Y0190088D01*
X0392974Y0191439D01*
X0393705Y0193204D01*
X0393705Y0195114D01*
X0392974Y0196879D01*
X0391623Y0198230D01*
X0389858Y0198961D01*
X0380743Y0198961D01*
X0378978Y0198230D01*
X0377627Y0196879D01*
X0376896Y0195114D01*
X0376896Y0193204D01*
X0377627Y0191439D01*
X0378978Y0190088D01*
X0380743Y0189357D01*
X0389858Y0189357D01*
X0392390Y0190854D02*
X0413367Y0190854D01*
X0412168Y0192053D02*
X0393229Y0192053D01*
X0393705Y0193251D02*
X0410970Y0193251D01*
X0409771Y0194450D02*
X0393705Y0194450D01*
X0393484Y0195648D02*
X0408573Y0195648D01*
X0407374Y0196847D02*
X0392988Y0196847D01*
X0391808Y0198045D02*
X0406176Y0198045D01*
X0404977Y0199244D02*
X0389967Y0199244D01*
X0392136Y0200443D02*
X0403779Y0200443D01*
X0402492Y0201641D02*
X0393123Y0201641D01*
X0380635Y0199244D02*
X0077655Y0199244D01*
X0077655Y0198045D02*
X0378793Y0198045D01*
X0377614Y0196847D02*
X0077655Y0196847D01*
X0077655Y0195648D02*
X0377117Y0195648D01*
X0376896Y0194450D02*
X0077655Y0194450D01*
X0077655Y0193251D02*
X0376896Y0193251D01*
X0377373Y0192053D02*
X0077655Y0192053D01*
X0077655Y0190854D02*
X0378211Y0190854D01*
X0380021Y0189656D02*
X0077655Y0189656D01*
X0077655Y0200443D02*
X0378466Y0200443D01*
X0377478Y0201641D02*
X0077655Y0201641D01*
X0077655Y0202840D02*
X0376982Y0202840D01*
X0376896Y0204038D02*
X0077655Y0204038D01*
X0077655Y0205237D02*
X0377012Y0205237D01*
X0377508Y0206435D02*
X0077655Y0206435D01*
X0093008Y0223214D02*
X0094208Y0223214D01*
X0094208Y0224413D02*
X0093008Y0224413D01*
X0093008Y0225611D02*
X0094208Y0225611D01*
X0088526Y0232802D02*
X0077655Y0232802D01*
X0077655Y0231604D02*
X0086741Y0231604D01*
X0085653Y0230405D02*
X0077655Y0230405D01*
X0077655Y0229207D02*
X0085075Y0229207D01*
X0086601Y0234001D02*
X0077655Y0234001D01*
X0077655Y0235199D02*
X0085714Y0235199D01*
X0085217Y0236398D02*
X0077655Y0236398D01*
X0077655Y0237596D02*
X0085203Y0237596D01*
X0085390Y0238795D02*
X0077655Y0238795D01*
X0077655Y0239993D02*
X0085887Y0239993D01*
X0077655Y0255574D02*
X0122054Y0255574D01*
X0120967Y0256773D02*
X0077655Y0256773D01*
X0077655Y0257971D02*
X0120390Y0257971D01*
X0128323Y0256773D02*
X0129523Y0256773D01*
X0129523Y0255574D02*
X0128323Y0255574D01*
X0208973Y0329882D02*
X0214778Y0329882D01*
X0213182Y0331080D02*
X0210569Y0331080D01*
X0211335Y0332279D02*
X0212416Y0332279D01*
X0211976Y0333477D02*
X0211776Y0333477D01*
X0211776Y0334676D02*
X0211976Y0334676D01*
X0212217Y0335874D02*
X0211534Y0335874D01*
X0211038Y0337073D02*
X0212714Y0337073D01*
X0213901Y0338271D02*
X0209850Y0338271D01*
X0204023Y0349058D02*
X0077655Y0349058D01*
X0077655Y0350256D02*
X0202825Y0350256D01*
X0202291Y0351455D02*
X0077655Y0351455D01*
X0077655Y0352653D02*
X0202015Y0352653D01*
X0202015Y0353852D02*
X0077655Y0353852D01*
X0077655Y0355050D02*
X0202421Y0355050D01*
X0219214Y0357448D02*
X0224616Y0357448D01*
X0224139Y0357250D02*
X0222761Y0355872D01*
X0222015Y0354071D01*
X0222015Y0352121D01*
X0222761Y0350320D01*
X0224139Y0348942D01*
X0225940Y0348196D01*
X0227890Y0348196D01*
X0229691Y0348942D01*
X0231069Y0350320D01*
X0231815Y0352121D01*
X0231815Y0354071D01*
X0231069Y0355872D01*
X0229691Y0357250D01*
X0227890Y0357996D01*
X0225940Y0357996D01*
X0224139Y0357250D01*
X0223138Y0356249D02*
X0220692Y0356249D01*
X0221409Y0355050D02*
X0222421Y0355050D01*
X0222015Y0353852D02*
X0221815Y0353852D01*
X0221815Y0352653D02*
X0222015Y0352653D01*
X0222291Y0351455D02*
X0221539Y0351455D01*
X0221005Y0350256D02*
X0222825Y0350256D01*
X0224023Y0349058D02*
X0219806Y0349058D01*
X0229806Y0349058D02*
X0238470Y0349058D01*
X0237272Y0350256D02*
X0231005Y0350256D01*
X0231539Y0351455D02*
X0236073Y0351455D01*
X0234875Y0352653D02*
X0231815Y0352653D01*
X0231815Y0353852D02*
X0233676Y0353852D01*
X0232478Y0355050D02*
X0231409Y0355050D01*
X0231279Y0356249D02*
X0230692Y0356249D01*
X0230081Y0357448D02*
X0229214Y0357448D01*
X0248497Y0383815D02*
X0258733Y0383815D01*
X0259932Y0385013D02*
X0248497Y0385013D01*
X0248014Y0386212D02*
X0261130Y0386212D01*
X0262329Y0387410D02*
X0246816Y0387410D01*
X0245617Y0388609D02*
X0263527Y0388609D01*
X0264726Y0389807D02*
X0244419Y0389807D01*
X0243220Y0391006D02*
X0265925Y0391006D01*
X0267123Y0392204D02*
X0242022Y0392204D01*
X0240823Y0393403D02*
X0268322Y0393403D01*
X0269520Y0394601D02*
X0239625Y0394601D01*
X0195254Y0388609D02*
X0173711Y0388609D01*
X0174384Y0389807D02*
X0193973Y0389807D01*
X0193973Y0391006D02*
X0174384Y0391006D01*
X0174511Y0392204D02*
X0193973Y0392204D01*
X0193973Y0393403D02*
X0175749Y0393403D01*
X0177002Y0394601D02*
X0194421Y0394601D01*
X0173832Y0413778D02*
X0170328Y0413778D01*
X0171335Y0414976D02*
X0172641Y0414976D01*
X0172145Y0416175D02*
X0171856Y0416175D01*
X0167476Y0416175D02*
X0166276Y0416175D01*
X0166276Y0417373D02*
X0167476Y0417373D01*
X0167476Y0418572D02*
X0166276Y0418572D01*
X0166276Y0419770D02*
X0167476Y0419770D01*
X0166276Y0420969D02*
X0077655Y0420969D01*
X0077655Y0422167D02*
X0161673Y0422167D01*
X0161673Y0423366D02*
X0077655Y0423366D01*
X0077655Y0424564D02*
X0161673Y0424564D01*
X0161747Y0425763D02*
X0077655Y0425763D01*
X0077655Y0426961D02*
X0162093Y0426961D01*
X0162823Y0428160D02*
X0077655Y0428160D01*
X0077655Y0429358D02*
X0164191Y0429358D01*
X0166276Y0429358D02*
X0167476Y0429358D01*
X0167476Y0428160D02*
X0166276Y0428160D01*
X0166276Y0426961D02*
X0167476Y0426961D01*
X0167476Y0425763D02*
X0166276Y0425763D01*
X0166276Y0424564D02*
X0167476Y0424564D01*
X0167476Y0423366D02*
X0166276Y0423366D01*
X0166276Y0422167D02*
X0167476Y0422167D01*
X0161673Y0419770D02*
X0077655Y0419770D01*
X0077655Y0418572D02*
X0161673Y0418572D01*
X0161673Y0417373D02*
X0077655Y0417373D01*
X0077655Y0416175D02*
X0161896Y0416175D01*
X0162416Y0414976D02*
X0077655Y0414976D01*
X0077655Y0413778D02*
X0163423Y0413778D01*
X0166276Y0413778D02*
X0167476Y0413778D01*
X0167476Y0414976D02*
X0166276Y0414976D01*
X0171658Y0426961D02*
X0172379Y0426961D01*
X0173199Y0428160D02*
X0170929Y0428160D01*
X0169560Y0429358D02*
X0174962Y0429358D01*
X0077655Y0432954D02*
X0467356Y0432954D01*
X0467356Y0434152D02*
X0077655Y0434152D01*
X0077655Y0435351D02*
X0467356Y0435351D01*
X0467356Y0436549D02*
X0077655Y0436549D01*
X0077655Y0437748D02*
X0467356Y0437748D01*
X0380813Y0260368D02*
X0364127Y0260368D01*
X0364127Y0259170D02*
X0380194Y0259170D01*
X0379857Y0257971D02*
X0364127Y0257971D01*
X0364127Y0256773D02*
X0379988Y0256773D01*
X0380686Y0255574D02*
X0364127Y0255574D01*
X0364127Y0254376D02*
X0380247Y0254376D01*
X0379857Y0253177D02*
X0364127Y0253177D01*
X0364127Y0251979D02*
X0379935Y0251979D01*
X0380559Y0250780D02*
X0364127Y0250780D01*
X0364369Y0249581D02*
X0380299Y0249581D01*
X0379857Y0248383D02*
X0365568Y0248383D01*
X0366766Y0247184D02*
X0379882Y0247184D01*
X0380431Y0245986D02*
X0367965Y0245986D01*
X0369163Y0244787D02*
X0382185Y0244787D01*
X0375156Y0238795D02*
X0444665Y0238795D01*
X0445526Y0237596D02*
X0376354Y0237596D01*
X0373957Y0239993D02*
X0443364Y0239993D01*
X0442736Y0241192D02*
X0372759Y0241192D01*
X0424879Y0228008D02*
X0446140Y0228008D01*
X0445027Y0190854D02*
X0418175Y0190854D01*
X0419373Y0189656D02*
X0443909Y0189656D01*
X0443413Y0188457D02*
X0420572Y0188457D01*
X0421770Y0187259D02*
X0443235Y0187259D01*
X0443258Y0186060D02*
X0422969Y0186060D01*
X0424167Y0184862D02*
X0443755Y0184862D01*
X0444655Y0183663D02*
X0425366Y0183663D01*
X0426564Y0182465D02*
X0446612Y0182465D01*
X0445282Y0181266D02*
X0427763Y0181266D01*
X0428962Y0180068D02*
X0444083Y0180068D01*
X0443518Y0178869D02*
X0430160Y0178869D01*
X0431359Y0177671D02*
X0443235Y0177671D01*
X0443235Y0176472D02*
X0432557Y0176472D01*
X0433756Y0175274D02*
X0443649Y0175274D01*
X0444400Y0174075D02*
X0434954Y0174075D01*
X0436153Y0172877D02*
X0445997Y0172877D01*
X0445847Y0171678D02*
X0437351Y0171678D01*
X0438550Y0170480D02*
X0444338Y0170480D01*
X0443623Y0169281D02*
X0439748Y0169281D01*
X0444038Y0160892D02*
X0391444Y0160892D01*
X0391768Y0159693D02*
X0443293Y0159693D01*
X0442920Y0158495D02*
X0391625Y0158495D01*
X0451039Y0154899D02*
X0452239Y0154899D01*
X0452239Y0153701D02*
X0451039Y0153701D01*
X0451039Y0152502D02*
X0452239Y0152502D01*
X0420901Y0073400D02*
X0419701Y0073400D01*
X0419701Y0072202D02*
X0420901Y0072202D01*
X0417668Y0073400D02*
X0412150Y0073400D01*
X0413951Y0072202D02*
X0416267Y0072202D01*
X0415532Y0071003D02*
X0414786Y0071003D01*
X0408766Y0073400D02*
X0402316Y0073400D01*
X0404109Y0072202D02*
X0406965Y0072202D01*
X0406130Y0071003D02*
X0404944Y0071003D01*
X0405418Y0069805D02*
X0405656Y0069805D01*
X0405656Y0068606D02*
X0405418Y0068606D01*
X0405418Y0067408D02*
X0405656Y0067408D01*
X0405656Y0066209D02*
X0405418Y0066209D01*
X0405418Y0065011D02*
X0405656Y0065011D01*
X0405656Y0063812D02*
X0405418Y0063812D01*
X0405418Y0062614D02*
X0405656Y0062614D01*
X0405656Y0061415D02*
X0405418Y0061415D01*
X0405200Y0060217D02*
X0405874Y0060217D01*
X0406370Y0059018D02*
X0404704Y0059018D01*
X0403529Y0057820D02*
X0407545Y0057820D01*
X0300275Y0073400D02*
X0297556Y0073400D01*
X0298517Y0072202D02*
X0299460Y0072202D01*
X0299029Y0071003D02*
X0299013Y0071003D01*
X0286488Y0081790D02*
X0077655Y0081790D01*
X0077655Y0082988D02*
X0287610Y0082988D01*
X0288733Y0084187D02*
X0077655Y0084187D01*
X0077655Y0085385D02*
X0289856Y0085385D01*
X0285365Y0080591D02*
X0077655Y0080591D01*
X0077655Y0079393D02*
X0284242Y0079393D01*
X0283113Y0078194D02*
X0077655Y0078194D01*
X0077655Y0076996D02*
X0282735Y0076996D01*
X0282735Y0075797D02*
X0077655Y0075797D01*
X0077655Y0074599D02*
X0282735Y0074599D01*
X0281156Y0073400D02*
X0077655Y0073400D01*
X0077655Y0072202D02*
X0280195Y0072202D01*
X0279699Y0071003D02*
X0077655Y0071003D01*
X0077655Y0069805D02*
X0279632Y0069805D01*
X0279632Y0068606D02*
X0077655Y0068606D01*
X0077655Y0067408D02*
X0279632Y0067408D01*
X0279632Y0066209D02*
X0077655Y0066209D01*
X0077655Y0065011D02*
X0279632Y0065011D01*
X0279632Y0063812D02*
X0077655Y0063812D01*
X0077655Y0062614D02*
X0279632Y0062614D01*
X0279762Y0061415D02*
X0077655Y0061415D01*
X0077655Y0060217D02*
X0280258Y0060217D01*
X0281308Y0059018D02*
X0077655Y0059018D01*
D19*
X0385025Y0247880D02*
X0385025Y0252801D01*
X0450694Y0213293D02*
X0450813Y0213411D01*
M02*
