G75*
%MOIN*%
%OFA0B0*%
%FSLAX25Y25*%
%IPPOS*%
%LPD*%
%AMOC8*
5,1,8,0,0,1.08239X$1,22.5*
%
%ADD10C,0.00800*%
%ADD11C,0.00000*%
D10*
X0075655Y0047033D02*
X0469356Y0047033D01*
X0469356Y0440734D01*
X0075655Y0440734D01*
X0075655Y0047033D01*
D11*
X0175261Y0138962D02*
X0175263Y0139074D01*
X0175269Y0139185D01*
X0175279Y0139297D01*
X0175293Y0139408D01*
X0175310Y0139518D01*
X0175332Y0139628D01*
X0175358Y0139737D01*
X0175387Y0139845D01*
X0175420Y0139951D01*
X0175457Y0140057D01*
X0175498Y0140161D01*
X0175543Y0140264D01*
X0175591Y0140365D01*
X0175642Y0140464D01*
X0175697Y0140561D01*
X0175756Y0140656D01*
X0175817Y0140750D01*
X0175882Y0140841D01*
X0175951Y0140929D01*
X0176022Y0141015D01*
X0176096Y0141099D01*
X0176174Y0141179D01*
X0176254Y0141257D01*
X0176337Y0141333D01*
X0176422Y0141405D01*
X0176510Y0141474D01*
X0176600Y0141540D01*
X0176693Y0141602D01*
X0176788Y0141662D01*
X0176885Y0141718D01*
X0176983Y0141770D01*
X0177084Y0141819D01*
X0177186Y0141864D01*
X0177290Y0141906D01*
X0177395Y0141944D01*
X0177502Y0141978D01*
X0177609Y0142008D01*
X0177718Y0142035D01*
X0177827Y0142057D01*
X0177938Y0142076D01*
X0178048Y0142091D01*
X0178160Y0142102D01*
X0178271Y0142109D01*
X0178383Y0142112D01*
X0178495Y0142111D01*
X0178607Y0142106D01*
X0178718Y0142097D01*
X0178829Y0142084D01*
X0178940Y0142067D01*
X0179050Y0142047D01*
X0179159Y0142022D01*
X0179267Y0141994D01*
X0179374Y0141961D01*
X0179480Y0141925D01*
X0179584Y0141885D01*
X0179687Y0141842D01*
X0179789Y0141795D01*
X0179888Y0141744D01*
X0179986Y0141690D01*
X0180082Y0141632D01*
X0180176Y0141571D01*
X0180267Y0141507D01*
X0180356Y0141440D01*
X0180443Y0141369D01*
X0180527Y0141295D01*
X0180609Y0141219D01*
X0180687Y0141139D01*
X0180763Y0141057D01*
X0180836Y0140972D01*
X0180906Y0140885D01*
X0180972Y0140795D01*
X0181036Y0140703D01*
X0181096Y0140609D01*
X0181153Y0140513D01*
X0181206Y0140414D01*
X0181256Y0140314D01*
X0181302Y0140213D01*
X0181345Y0140109D01*
X0181384Y0140004D01*
X0181419Y0139898D01*
X0181450Y0139791D01*
X0181478Y0139682D01*
X0181501Y0139573D01*
X0181521Y0139463D01*
X0181537Y0139352D01*
X0181549Y0139241D01*
X0181557Y0139130D01*
X0181561Y0139018D01*
X0181561Y0138906D01*
X0181557Y0138794D01*
X0181549Y0138683D01*
X0181537Y0138572D01*
X0181521Y0138461D01*
X0181501Y0138351D01*
X0181478Y0138242D01*
X0181450Y0138133D01*
X0181419Y0138026D01*
X0181384Y0137920D01*
X0181345Y0137815D01*
X0181302Y0137711D01*
X0181256Y0137610D01*
X0181206Y0137510D01*
X0181153Y0137411D01*
X0181096Y0137315D01*
X0181036Y0137221D01*
X0180972Y0137129D01*
X0180906Y0137039D01*
X0180836Y0136952D01*
X0180763Y0136867D01*
X0180687Y0136785D01*
X0180609Y0136705D01*
X0180527Y0136629D01*
X0180443Y0136555D01*
X0180356Y0136484D01*
X0180267Y0136417D01*
X0180176Y0136353D01*
X0180082Y0136292D01*
X0179986Y0136234D01*
X0179888Y0136180D01*
X0179789Y0136129D01*
X0179687Y0136082D01*
X0179584Y0136039D01*
X0179480Y0135999D01*
X0179374Y0135963D01*
X0179267Y0135930D01*
X0179159Y0135902D01*
X0179050Y0135877D01*
X0178940Y0135857D01*
X0178829Y0135840D01*
X0178718Y0135827D01*
X0178607Y0135818D01*
X0178495Y0135813D01*
X0178383Y0135812D01*
X0178271Y0135815D01*
X0178160Y0135822D01*
X0178048Y0135833D01*
X0177938Y0135848D01*
X0177827Y0135867D01*
X0177718Y0135889D01*
X0177609Y0135916D01*
X0177502Y0135946D01*
X0177395Y0135980D01*
X0177290Y0136018D01*
X0177186Y0136060D01*
X0177084Y0136105D01*
X0176983Y0136154D01*
X0176885Y0136206D01*
X0176788Y0136262D01*
X0176693Y0136322D01*
X0176600Y0136384D01*
X0176510Y0136450D01*
X0176422Y0136519D01*
X0176337Y0136591D01*
X0176254Y0136667D01*
X0176174Y0136745D01*
X0176096Y0136825D01*
X0176022Y0136909D01*
X0175951Y0136995D01*
X0175882Y0137083D01*
X0175817Y0137174D01*
X0175756Y0137268D01*
X0175697Y0137363D01*
X0175642Y0137460D01*
X0175591Y0137559D01*
X0175543Y0137660D01*
X0175498Y0137763D01*
X0175457Y0137867D01*
X0175420Y0137973D01*
X0175387Y0138079D01*
X0175358Y0138187D01*
X0175332Y0138296D01*
X0175310Y0138406D01*
X0175293Y0138516D01*
X0175279Y0138627D01*
X0175269Y0138739D01*
X0175263Y0138850D01*
X0175261Y0138962D01*
X0332741Y0138962D02*
X0332743Y0139074D01*
X0332749Y0139185D01*
X0332759Y0139297D01*
X0332773Y0139408D01*
X0332790Y0139518D01*
X0332812Y0139628D01*
X0332838Y0139737D01*
X0332867Y0139845D01*
X0332900Y0139951D01*
X0332937Y0140057D01*
X0332978Y0140161D01*
X0333023Y0140264D01*
X0333071Y0140365D01*
X0333122Y0140464D01*
X0333177Y0140561D01*
X0333236Y0140656D01*
X0333297Y0140750D01*
X0333362Y0140841D01*
X0333431Y0140929D01*
X0333502Y0141015D01*
X0333576Y0141099D01*
X0333654Y0141179D01*
X0333734Y0141257D01*
X0333817Y0141333D01*
X0333902Y0141405D01*
X0333990Y0141474D01*
X0334080Y0141540D01*
X0334173Y0141602D01*
X0334268Y0141662D01*
X0334365Y0141718D01*
X0334463Y0141770D01*
X0334564Y0141819D01*
X0334666Y0141864D01*
X0334770Y0141906D01*
X0334875Y0141944D01*
X0334982Y0141978D01*
X0335089Y0142008D01*
X0335198Y0142035D01*
X0335307Y0142057D01*
X0335418Y0142076D01*
X0335528Y0142091D01*
X0335640Y0142102D01*
X0335751Y0142109D01*
X0335863Y0142112D01*
X0335975Y0142111D01*
X0336087Y0142106D01*
X0336198Y0142097D01*
X0336309Y0142084D01*
X0336420Y0142067D01*
X0336530Y0142047D01*
X0336639Y0142022D01*
X0336747Y0141994D01*
X0336854Y0141961D01*
X0336960Y0141925D01*
X0337064Y0141885D01*
X0337167Y0141842D01*
X0337269Y0141795D01*
X0337368Y0141744D01*
X0337466Y0141690D01*
X0337562Y0141632D01*
X0337656Y0141571D01*
X0337747Y0141507D01*
X0337836Y0141440D01*
X0337923Y0141369D01*
X0338007Y0141295D01*
X0338089Y0141219D01*
X0338167Y0141139D01*
X0338243Y0141057D01*
X0338316Y0140972D01*
X0338386Y0140885D01*
X0338452Y0140795D01*
X0338516Y0140703D01*
X0338576Y0140609D01*
X0338633Y0140513D01*
X0338686Y0140414D01*
X0338736Y0140314D01*
X0338782Y0140213D01*
X0338825Y0140109D01*
X0338864Y0140004D01*
X0338899Y0139898D01*
X0338930Y0139791D01*
X0338958Y0139682D01*
X0338981Y0139573D01*
X0339001Y0139463D01*
X0339017Y0139352D01*
X0339029Y0139241D01*
X0339037Y0139130D01*
X0339041Y0139018D01*
X0339041Y0138906D01*
X0339037Y0138794D01*
X0339029Y0138683D01*
X0339017Y0138572D01*
X0339001Y0138461D01*
X0338981Y0138351D01*
X0338958Y0138242D01*
X0338930Y0138133D01*
X0338899Y0138026D01*
X0338864Y0137920D01*
X0338825Y0137815D01*
X0338782Y0137711D01*
X0338736Y0137610D01*
X0338686Y0137510D01*
X0338633Y0137411D01*
X0338576Y0137315D01*
X0338516Y0137221D01*
X0338452Y0137129D01*
X0338386Y0137039D01*
X0338316Y0136952D01*
X0338243Y0136867D01*
X0338167Y0136785D01*
X0338089Y0136705D01*
X0338007Y0136629D01*
X0337923Y0136555D01*
X0337836Y0136484D01*
X0337747Y0136417D01*
X0337656Y0136353D01*
X0337562Y0136292D01*
X0337466Y0136234D01*
X0337368Y0136180D01*
X0337269Y0136129D01*
X0337167Y0136082D01*
X0337064Y0136039D01*
X0336960Y0135999D01*
X0336854Y0135963D01*
X0336747Y0135930D01*
X0336639Y0135902D01*
X0336530Y0135877D01*
X0336420Y0135857D01*
X0336309Y0135840D01*
X0336198Y0135827D01*
X0336087Y0135818D01*
X0335975Y0135813D01*
X0335863Y0135812D01*
X0335751Y0135815D01*
X0335640Y0135822D01*
X0335528Y0135833D01*
X0335418Y0135848D01*
X0335307Y0135867D01*
X0335198Y0135889D01*
X0335089Y0135916D01*
X0334982Y0135946D01*
X0334875Y0135980D01*
X0334770Y0136018D01*
X0334666Y0136060D01*
X0334564Y0136105D01*
X0334463Y0136154D01*
X0334365Y0136206D01*
X0334268Y0136262D01*
X0334173Y0136322D01*
X0334080Y0136384D01*
X0333990Y0136450D01*
X0333902Y0136519D01*
X0333817Y0136591D01*
X0333734Y0136667D01*
X0333654Y0136745D01*
X0333576Y0136825D01*
X0333502Y0136909D01*
X0333431Y0136995D01*
X0333362Y0137083D01*
X0333297Y0137174D01*
X0333236Y0137268D01*
X0333177Y0137363D01*
X0333122Y0137460D01*
X0333071Y0137559D01*
X0333023Y0137660D01*
X0332978Y0137763D01*
X0332937Y0137867D01*
X0332900Y0137973D01*
X0332867Y0138079D01*
X0332838Y0138187D01*
X0332812Y0138296D01*
X0332790Y0138406D01*
X0332773Y0138516D01*
X0332759Y0138627D01*
X0332749Y0138739D01*
X0332743Y0138850D01*
X0332741Y0138962D01*
X0332741Y0296443D02*
X0332743Y0296555D01*
X0332749Y0296666D01*
X0332759Y0296778D01*
X0332773Y0296889D01*
X0332790Y0296999D01*
X0332812Y0297109D01*
X0332838Y0297218D01*
X0332867Y0297326D01*
X0332900Y0297432D01*
X0332937Y0297538D01*
X0332978Y0297642D01*
X0333023Y0297745D01*
X0333071Y0297846D01*
X0333122Y0297945D01*
X0333177Y0298042D01*
X0333236Y0298137D01*
X0333297Y0298231D01*
X0333362Y0298322D01*
X0333431Y0298410D01*
X0333502Y0298496D01*
X0333576Y0298580D01*
X0333654Y0298660D01*
X0333734Y0298738D01*
X0333817Y0298814D01*
X0333902Y0298886D01*
X0333990Y0298955D01*
X0334080Y0299021D01*
X0334173Y0299083D01*
X0334268Y0299143D01*
X0334365Y0299199D01*
X0334463Y0299251D01*
X0334564Y0299300D01*
X0334666Y0299345D01*
X0334770Y0299387D01*
X0334875Y0299425D01*
X0334982Y0299459D01*
X0335089Y0299489D01*
X0335198Y0299516D01*
X0335307Y0299538D01*
X0335418Y0299557D01*
X0335528Y0299572D01*
X0335640Y0299583D01*
X0335751Y0299590D01*
X0335863Y0299593D01*
X0335975Y0299592D01*
X0336087Y0299587D01*
X0336198Y0299578D01*
X0336309Y0299565D01*
X0336420Y0299548D01*
X0336530Y0299528D01*
X0336639Y0299503D01*
X0336747Y0299475D01*
X0336854Y0299442D01*
X0336960Y0299406D01*
X0337064Y0299366D01*
X0337167Y0299323D01*
X0337269Y0299276D01*
X0337368Y0299225D01*
X0337466Y0299171D01*
X0337562Y0299113D01*
X0337656Y0299052D01*
X0337747Y0298988D01*
X0337836Y0298921D01*
X0337923Y0298850D01*
X0338007Y0298776D01*
X0338089Y0298700D01*
X0338167Y0298620D01*
X0338243Y0298538D01*
X0338316Y0298453D01*
X0338386Y0298366D01*
X0338452Y0298276D01*
X0338516Y0298184D01*
X0338576Y0298090D01*
X0338633Y0297994D01*
X0338686Y0297895D01*
X0338736Y0297795D01*
X0338782Y0297694D01*
X0338825Y0297590D01*
X0338864Y0297485D01*
X0338899Y0297379D01*
X0338930Y0297272D01*
X0338958Y0297163D01*
X0338981Y0297054D01*
X0339001Y0296944D01*
X0339017Y0296833D01*
X0339029Y0296722D01*
X0339037Y0296611D01*
X0339041Y0296499D01*
X0339041Y0296387D01*
X0339037Y0296275D01*
X0339029Y0296164D01*
X0339017Y0296053D01*
X0339001Y0295942D01*
X0338981Y0295832D01*
X0338958Y0295723D01*
X0338930Y0295614D01*
X0338899Y0295507D01*
X0338864Y0295401D01*
X0338825Y0295296D01*
X0338782Y0295192D01*
X0338736Y0295091D01*
X0338686Y0294991D01*
X0338633Y0294892D01*
X0338576Y0294796D01*
X0338516Y0294702D01*
X0338452Y0294610D01*
X0338386Y0294520D01*
X0338316Y0294433D01*
X0338243Y0294348D01*
X0338167Y0294266D01*
X0338089Y0294186D01*
X0338007Y0294110D01*
X0337923Y0294036D01*
X0337836Y0293965D01*
X0337747Y0293898D01*
X0337656Y0293834D01*
X0337562Y0293773D01*
X0337466Y0293715D01*
X0337368Y0293661D01*
X0337269Y0293610D01*
X0337167Y0293563D01*
X0337064Y0293520D01*
X0336960Y0293480D01*
X0336854Y0293444D01*
X0336747Y0293411D01*
X0336639Y0293383D01*
X0336530Y0293358D01*
X0336420Y0293338D01*
X0336309Y0293321D01*
X0336198Y0293308D01*
X0336087Y0293299D01*
X0335975Y0293294D01*
X0335863Y0293293D01*
X0335751Y0293296D01*
X0335640Y0293303D01*
X0335528Y0293314D01*
X0335418Y0293329D01*
X0335307Y0293348D01*
X0335198Y0293370D01*
X0335089Y0293397D01*
X0334982Y0293427D01*
X0334875Y0293461D01*
X0334770Y0293499D01*
X0334666Y0293541D01*
X0334564Y0293586D01*
X0334463Y0293635D01*
X0334365Y0293687D01*
X0334268Y0293743D01*
X0334173Y0293803D01*
X0334080Y0293865D01*
X0333990Y0293931D01*
X0333902Y0294000D01*
X0333817Y0294072D01*
X0333734Y0294148D01*
X0333654Y0294226D01*
X0333576Y0294306D01*
X0333502Y0294390D01*
X0333431Y0294476D01*
X0333362Y0294564D01*
X0333297Y0294655D01*
X0333236Y0294749D01*
X0333177Y0294844D01*
X0333122Y0294941D01*
X0333071Y0295040D01*
X0333023Y0295141D01*
X0332978Y0295244D01*
X0332937Y0295348D01*
X0332900Y0295454D01*
X0332867Y0295560D01*
X0332838Y0295668D01*
X0332812Y0295777D01*
X0332790Y0295887D01*
X0332773Y0295997D01*
X0332759Y0296108D01*
X0332749Y0296220D01*
X0332743Y0296331D01*
X0332741Y0296443D01*
X0175261Y0296443D02*
X0175263Y0296555D01*
X0175269Y0296666D01*
X0175279Y0296778D01*
X0175293Y0296889D01*
X0175310Y0296999D01*
X0175332Y0297109D01*
X0175358Y0297218D01*
X0175387Y0297326D01*
X0175420Y0297432D01*
X0175457Y0297538D01*
X0175498Y0297642D01*
X0175543Y0297745D01*
X0175591Y0297846D01*
X0175642Y0297945D01*
X0175697Y0298042D01*
X0175756Y0298137D01*
X0175817Y0298231D01*
X0175882Y0298322D01*
X0175951Y0298410D01*
X0176022Y0298496D01*
X0176096Y0298580D01*
X0176174Y0298660D01*
X0176254Y0298738D01*
X0176337Y0298814D01*
X0176422Y0298886D01*
X0176510Y0298955D01*
X0176600Y0299021D01*
X0176693Y0299083D01*
X0176788Y0299143D01*
X0176885Y0299199D01*
X0176983Y0299251D01*
X0177084Y0299300D01*
X0177186Y0299345D01*
X0177290Y0299387D01*
X0177395Y0299425D01*
X0177502Y0299459D01*
X0177609Y0299489D01*
X0177718Y0299516D01*
X0177827Y0299538D01*
X0177938Y0299557D01*
X0178048Y0299572D01*
X0178160Y0299583D01*
X0178271Y0299590D01*
X0178383Y0299593D01*
X0178495Y0299592D01*
X0178607Y0299587D01*
X0178718Y0299578D01*
X0178829Y0299565D01*
X0178940Y0299548D01*
X0179050Y0299528D01*
X0179159Y0299503D01*
X0179267Y0299475D01*
X0179374Y0299442D01*
X0179480Y0299406D01*
X0179584Y0299366D01*
X0179687Y0299323D01*
X0179789Y0299276D01*
X0179888Y0299225D01*
X0179986Y0299171D01*
X0180082Y0299113D01*
X0180176Y0299052D01*
X0180267Y0298988D01*
X0180356Y0298921D01*
X0180443Y0298850D01*
X0180527Y0298776D01*
X0180609Y0298700D01*
X0180687Y0298620D01*
X0180763Y0298538D01*
X0180836Y0298453D01*
X0180906Y0298366D01*
X0180972Y0298276D01*
X0181036Y0298184D01*
X0181096Y0298090D01*
X0181153Y0297994D01*
X0181206Y0297895D01*
X0181256Y0297795D01*
X0181302Y0297694D01*
X0181345Y0297590D01*
X0181384Y0297485D01*
X0181419Y0297379D01*
X0181450Y0297272D01*
X0181478Y0297163D01*
X0181501Y0297054D01*
X0181521Y0296944D01*
X0181537Y0296833D01*
X0181549Y0296722D01*
X0181557Y0296611D01*
X0181561Y0296499D01*
X0181561Y0296387D01*
X0181557Y0296275D01*
X0181549Y0296164D01*
X0181537Y0296053D01*
X0181521Y0295942D01*
X0181501Y0295832D01*
X0181478Y0295723D01*
X0181450Y0295614D01*
X0181419Y0295507D01*
X0181384Y0295401D01*
X0181345Y0295296D01*
X0181302Y0295192D01*
X0181256Y0295091D01*
X0181206Y0294991D01*
X0181153Y0294892D01*
X0181096Y0294796D01*
X0181036Y0294702D01*
X0180972Y0294610D01*
X0180906Y0294520D01*
X0180836Y0294433D01*
X0180763Y0294348D01*
X0180687Y0294266D01*
X0180609Y0294186D01*
X0180527Y0294110D01*
X0180443Y0294036D01*
X0180356Y0293965D01*
X0180267Y0293898D01*
X0180176Y0293834D01*
X0180082Y0293773D01*
X0179986Y0293715D01*
X0179888Y0293661D01*
X0179789Y0293610D01*
X0179687Y0293563D01*
X0179584Y0293520D01*
X0179480Y0293480D01*
X0179374Y0293444D01*
X0179267Y0293411D01*
X0179159Y0293383D01*
X0179050Y0293358D01*
X0178940Y0293338D01*
X0178829Y0293321D01*
X0178718Y0293308D01*
X0178607Y0293299D01*
X0178495Y0293294D01*
X0178383Y0293293D01*
X0178271Y0293296D01*
X0178160Y0293303D01*
X0178048Y0293314D01*
X0177938Y0293329D01*
X0177827Y0293348D01*
X0177718Y0293370D01*
X0177609Y0293397D01*
X0177502Y0293427D01*
X0177395Y0293461D01*
X0177290Y0293499D01*
X0177186Y0293541D01*
X0177084Y0293586D01*
X0176983Y0293635D01*
X0176885Y0293687D01*
X0176788Y0293743D01*
X0176693Y0293803D01*
X0176600Y0293865D01*
X0176510Y0293931D01*
X0176422Y0294000D01*
X0176337Y0294072D01*
X0176254Y0294148D01*
X0176174Y0294226D01*
X0176096Y0294306D01*
X0176022Y0294390D01*
X0175951Y0294476D01*
X0175882Y0294564D01*
X0175817Y0294655D01*
X0175756Y0294749D01*
X0175697Y0294844D01*
X0175642Y0294941D01*
X0175591Y0295040D01*
X0175543Y0295141D01*
X0175498Y0295244D01*
X0175457Y0295348D01*
X0175420Y0295454D01*
X0175387Y0295560D01*
X0175358Y0295668D01*
X0175332Y0295777D01*
X0175310Y0295887D01*
X0175293Y0295997D01*
X0175279Y0296108D01*
X0175269Y0296220D01*
X0175263Y0296331D01*
X0175261Y0296443D01*
M02*
