G75*
%MOIN*%
%OFA0B0*%
%FSLAX25Y25*%
%IPPOS*%
%LPD*%
%AMOC8*
5,1,8,0,0,1.08239X$1,22.5*
%
%ADD10R,0.06706X0.05918*%
%ADD11C,0.08005*%
%ADD12C,0.07200*%
%ADD13C,0.05169*%
%ADD14C,0.08200*%
%ADD15R,0.06312X0.05524*%
%ADD16R,0.10800X0.05800*%
%ADD17R,0.05800X0.10800*%
%ADD18R,0.05524X0.02965*%
%ADD19R,0.08800X0.03400*%
%ADD20R,0.05524X0.03950*%
%ADD21R,0.03950X0.05524*%
%ADD22C,0.05200*%
%ADD23R,0.05162X0.05162*%
D10*
X0097595Y0298154D03*
X0097595Y0304846D03*
X0112595Y0304846D03*
X0112595Y0298154D03*
D11*
X0137595Y0312898D02*
X0137595Y0320102D01*
X0147438Y0320102D02*
X0147438Y0312898D01*
X0148698Y0283685D02*
X0141493Y0283685D01*
X0141493Y0273843D02*
X0148698Y0273843D01*
X0148698Y0264000D02*
X0141493Y0264000D01*
X0141493Y0254157D02*
X0148698Y0254157D01*
X0182910Y0252602D02*
X0182910Y0245398D01*
X0192753Y0245398D02*
X0192753Y0252602D01*
X0202595Y0252602D02*
X0202595Y0245398D01*
X0212438Y0245398D02*
X0212438Y0252602D01*
X0212438Y0290398D02*
X0212438Y0297602D01*
X0202595Y0297602D02*
X0202595Y0290398D01*
X0192753Y0290398D02*
X0192753Y0297602D01*
X0182910Y0297602D02*
X0182910Y0290398D01*
X0147438Y0357898D02*
X0147438Y0365102D01*
X0137595Y0365102D02*
X0137595Y0357898D01*
X0107438Y0357898D02*
X0107438Y0365102D01*
X0097595Y0365102D02*
X0097595Y0357898D01*
X0263993Y0151343D02*
X0271198Y0151343D01*
X0271198Y0141500D02*
X0263993Y0141500D01*
X0263993Y0131657D02*
X0271198Y0131657D01*
X0271198Y0121815D02*
X0263993Y0121815D01*
X0297910Y0095102D02*
X0297910Y0087898D01*
X0307753Y0087898D02*
X0307753Y0095102D01*
X0317595Y0095102D02*
X0317595Y0087898D01*
X0327438Y0087898D02*
X0327438Y0095102D01*
X0321198Y0121815D02*
X0313993Y0121815D01*
X0313993Y0131657D02*
X0321198Y0131657D01*
X0321198Y0141500D02*
X0313993Y0141500D01*
X0313993Y0151343D02*
X0321198Y0151343D01*
X0321198Y0176815D02*
X0313993Y0176815D01*
X0313993Y0186657D02*
X0321198Y0186657D01*
X0321198Y0196500D02*
X0313993Y0196500D01*
X0313993Y0206343D02*
X0321198Y0206343D01*
X0321198Y0216185D02*
X0313993Y0216185D01*
X0313993Y0226028D02*
X0321198Y0226028D01*
X0321198Y0056185D02*
X0313993Y0056185D01*
X0313993Y0046343D02*
X0321198Y0046343D01*
X0321198Y0036500D02*
X0313993Y0036500D01*
X0313993Y0026657D02*
X0321198Y0026657D01*
X0271198Y0026657D02*
X0263993Y0026657D01*
X0263993Y0036500D02*
X0271198Y0036500D01*
X0271198Y0046343D02*
X0263993Y0046343D01*
X0263993Y0056185D02*
X0271198Y0056185D01*
D12*
X0065095Y0295800D02*
X0065095Y0302200D01*
X0055095Y0302200D02*
X0055095Y0295800D01*
D13*
X0155371Y0220456D02*
X0155371Y0216087D01*
X0160292Y0216087D02*
X0160292Y0220456D01*
X0165213Y0220456D02*
X0165213Y0216087D01*
X0170135Y0216087D02*
X0170135Y0220456D01*
X0175056Y0220456D02*
X0175056Y0216087D01*
X0179977Y0216087D02*
X0179977Y0220456D01*
X0184898Y0220456D02*
X0184898Y0216087D01*
X0189820Y0216087D02*
X0189820Y0220456D01*
X0267183Y0208803D02*
X0271551Y0208803D01*
X0271551Y0203882D02*
X0267183Y0203882D01*
X0267183Y0198961D02*
X0271551Y0198961D01*
X0271551Y0194039D02*
X0267183Y0194039D01*
X0267183Y0189118D02*
X0271551Y0189118D01*
X0271551Y0184197D02*
X0267183Y0184197D01*
X0268008Y0096382D02*
X0263639Y0096382D01*
X0263639Y0091461D02*
X0268008Y0091461D01*
X0268008Y0086539D02*
X0263639Y0086539D01*
X0263639Y0081618D02*
X0268008Y0081618D01*
D14*
X0107595Y0216500D03*
X0097595Y0216500D03*
X0087595Y0216500D03*
X0087595Y0236500D03*
X0097595Y0236500D03*
X0107595Y0236500D03*
X0107595Y0256500D03*
X0097595Y0256500D03*
X0087595Y0256500D03*
X0067595Y0276500D03*
X0057595Y0276500D03*
X0047595Y0276500D03*
X0252595Y0296500D03*
X0252595Y0306500D03*
X0252595Y0316500D03*
X0252595Y0326500D03*
X0252595Y0336500D03*
X0252595Y0346500D03*
X0252595Y0356500D03*
X0252595Y0366500D03*
X0252595Y0376500D03*
X0252595Y0386500D03*
X0332595Y0386500D03*
X0332595Y0376500D03*
X0332595Y0366500D03*
X0332595Y0356500D03*
X0332595Y0346500D03*
X0332595Y0336500D03*
X0332595Y0326500D03*
X0332595Y0316500D03*
X0332595Y0306500D03*
X0332595Y0296500D03*
D15*
X0257595Y0262406D03*
X0257595Y0250594D03*
D16*
X0222595Y0361500D03*
X0222595Y0371500D03*
X0202595Y0371500D03*
X0202595Y0361500D03*
X0182595Y0361500D03*
X0182595Y0371500D03*
D17*
X0307595Y0271500D03*
X0317595Y0271500D03*
X0317595Y0251500D03*
X0307595Y0251500D03*
D18*
X0110213Y0320260D03*
X0110213Y0324000D03*
X0110213Y0327740D03*
X0099977Y0327740D03*
X0099977Y0320260D03*
D19*
X0042995Y0214000D03*
X0042995Y0219000D03*
X0042995Y0224000D03*
X0042995Y0229000D03*
X0042995Y0234000D03*
X0042995Y0239000D03*
X0042995Y0244000D03*
X0042995Y0249000D03*
X0067195Y0249000D03*
X0067195Y0244000D03*
X0067195Y0239000D03*
X0067195Y0234000D03*
X0067195Y0229000D03*
X0067195Y0224000D03*
X0067195Y0219000D03*
X0067195Y0214000D03*
D20*
X0182595Y0381914D03*
X0182595Y0389000D03*
X0202595Y0389000D03*
X0202595Y0381914D03*
X0257595Y0280043D03*
X0257595Y0272957D03*
X0257595Y0240043D03*
X0257595Y0232957D03*
D21*
X0284052Y0251500D03*
X0291138Y0251500D03*
X0291138Y0271500D03*
X0284052Y0271500D03*
D22*
X0222595Y0341500D03*
X0175095Y0244000D03*
X0165095Y0234000D03*
X0065095Y0256500D03*
D23*
X0202595Y0259000D03*
X0202595Y0269000D03*
X0202595Y0229000D03*
X0202595Y0209000D03*
X0242595Y0329000D03*
X0230095Y0349000D03*
X0217595Y0349000D03*
X0242595Y0379000D03*
X0317595Y0359000D03*
X0317595Y0339000D03*
M02*
