%
M48
M72
T01C0.01969
T02C0.02362
T03C0.02400
T04C0.04000
T05C0.04803
%
T01
X155371Y218272
X160292Y218272
X165213Y218272
X170135Y218272
X175056Y218272
X179977Y218272
X184898Y218272
X189820Y218272
X269367Y208803
X269367Y203882
X269367Y198961
X269367Y194039
X269367Y189118
X269367Y184197
X265823Y96382
X265823Y91461
X265823Y86539
X265823Y81618
T02
X202595Y209000
X202595Y229000
X202595Y259000
X202595Y269000
X242595Y329000
X230095Y349000
X217595Y349000
X242595Y379000
X317595Y359000
X317595Y339000
T03
X222595Y341500
X175095Y244000
X165095Y234000
X65095Y256500
T04
X87595Y216500
X97595Y216500
X107595Y216500
X107595Y236500
X97595Y236500
X87595Y236500
X87595Y256500
X97595Y256500
X107595Y256500
X67595Y276500
X57595Y276500
X47595Y276500
X55095Y299000
X65095Y299000
X252595Y296500
X252595Y306500
X252595Y316500
X252595Y326500
X252595Y336500
X252595Y346500
X252595Y356500
X252595Y366500
X252595Y376500
X252595Y386500
X332595Y386500
X332595Y376500
X332595Y366500
X332595Y356500
X332595Y346500
X332595Y336500
X332595Y326500
X332595Y316500
X332595Y306500
X332595Y296500
T05
X317595Y226028
X317595Y216185
X317595Y206343
X317595Y196500
X317595Y186657
X317595Y176815
X317595Y151343
X317595Y141500
X317595Y131657
X317595Y121815
X317595Y91500
X307753Y91500
X297910Y91500
X327438Y91500
X317595Y56185
X317595Y46343
X317595Y36500
X317595Y26657
X267595Y26657
X267595Y36500
X267595Y46343
X267595Y56185
X267595Y121815
X267595Y131657
X267595Y141500
X267595Y151343
X212438Y249000
X202595Y249000
X192753Y249000
X182910Y249000
X145095Y254157
X145095Y264000
X145095Y273843
X145095Y283685
X147438Y316500
X137595Y316500
X137595Y361500
X147438Y361500
X107438Y361500
X97595Y361500
X182910Y294000
X192753Y294000
X202595Y294000
X212438Y294000
M30
