G75*
%MOIN*%
%OFA0B0*%
%FSLAX25Y25*%
%IPPOS*%
%LPD*%
%AMOC8*
5,1,8,0,0,1.08239X$1,22.5*
%
%ADD10C,0.00000*%
%ADD11R,0.05906X0.05118*%
%ADD12C,0.07205*%
%ADD13C,0.06400*%
%ADD14C,0.04369*%
%ADD15C,0.07400*%
%ADD16R,0.05512X0.04724*%
%ADD17R,0.10000X0.05000*%
%ADD18R,0.05000X0.10000*%
%ADD19R,0.04724X0.02165*%
%ADD20R,0.08000X0.02600*%
%ADD21R,0.04724X0.03150*%
%ADD22R,0.03150X0.04724*%
%ADD23C,0.01000*%
%ADD24C,0.04400*%
%ADD25R,0.04362X0.04362*%
D10*
X0032595Y0001500D02*
X0032595Y0395831D01*
X0347556Y0395831D01*
X0347556Y0001500D01*
X0032595Y0001500D01*
D11*
X0097595Y0298154D03*
X0097595Y0304846D03*
X0112595Y0304846D03*
X0112595Y0298154D03*
D12*
X0137595Y0312898D02*
X0137595Y0320102D01*
X0147438Y0320102D02*
X0147438Y0312898D01*
X0148698Y0283685D02*
X0141493Y0283685D01*
X0141493Y0273843D02*
X0148698Y0273843D01*
X0148698Y0264000D02*
X0141493Y0264000D01*
X0141493Y0254157D02*
X0148698Y0254157D01*
X0182910Y0252602D02*
X0182910Y0245398D01*
X0192753Y0245398D02*
X0192753Y0252602D01*
X0202595Y0252602D02*
X0202595Y0245398D01*
X0212438Y0245398D02*
X0212438Y0252602D01*
X0212438Y0290398D02*
X0212438Y0297602D01*
X0202595Y0297602D02*
X0202595Y0290398D01*
X0192753Y0290398D02*
X0192753Y0297602D01*
X0182910Y0297602D02*
X0182910Y0290398D01*
X0147438Y0357898D02*
X0147438Y0365102D01*
X0137595Y0365102D02*
X0137595Y0357898D01*
X0107438Y0357898D02*
X0107438Y0365102D01*
X0097595Y0365102D02*
X0097595Y0357898D01*
X0263993Y0151343D02*
X0271198Y0151343D01*
X0271198Y0141500D02*
X0263993Y0141500D01*
X0263993Y0131657D02*
X0271198Y0131657D01*
X0271198Y0121815D02*
X0263993Y0121815D01*
X0297910Y0095102D02*
X0297910Y0087898D01*
X0307753Y0087898D02*
X0307753Y0095102D01*
X0317595Y0095102D02*
X0317595Y0087898D01*
X0327438Y0087898D02*
X0327438Y0095102D01*
X0321198Y0121815D02*
X0313993Y0121815D01*
X0313993Y0131657D02*
X0321198Y0131657D01*
X0321198Y0141500D02*
X0313993Y0141500D01*
X0313993Y0151343D02*
X0321198Y0151343D01*
X0321198Y0176815D02*
X0313993Y0176815D01*
X0313993Y0186657D02*
X0321198Y0186657D01*
X0321198Y0196500D02*
X0313993Y0196500D01*
X0313993Y0206343D02*
X0321198Y0206343D01*
X0321198Y0216185D02*
X0313993Y0216185D01*
X0313993Y0226028D02*
X0321198Y0226028D01*
X0321198Y0056185D02*
X0313993Y0056185D01*
X0313993Y0046343D02*
X0321198Y0046343D01*
X0321198Y0036500D02*
X0313993Y0036500D01*
X0313993Y0026657D02*
X0321198Y0026657D01*
X0271198Y0026657D02*
X0263993Y0026657D01*
X0263993Y0036500D02*
X0271198Y0036500D01*
X0271198Y0046343D02*
X0263993Y0046343D01*
X0263993Y0056185D02*
X0271198Y0056185D01*
D13*
X0065095Y0295800D02*
X0065095Y0302200D01*
X0055095Y0302200D02*
X0055095Y0295800D01*
D14*
X0155371Y0220456D02*
X0155371Y0216087D01*
X0160292Y0216087D02*
X0160292Y0220456D01*
X0165213Y0220456D02*
X0165213Y0216087D01*
X0170135Y0216087D02*
X0170135Y0220456D01*
X0175056Y0220456D02*
X0175056Y0216087D01*
X0179977Y0216087D02*
X0179977Y0220456D01*
X0184898Y0220456D02*
X0184898Y0216087D01*
X0189820Y0216087D02*
X0189820Y0220456D01*
X0267183Y0208803D02*
X0271551Y0208803D01*
X0271551Y0203882D02*
X0267183Y0203882D01*
X0267183Y0198961D02*
X0271551Y0198961D01*
X0271551Y0194039D02*
X0267183Y0194039D01*
X0267183Y0189118D02*
X0271551Y0189118D01*
X0271551Y0184197D02*
X0267183Y0184197D01*
X0268008Y0096382D02*
X0263639Y0096382D01*
X0263639Y0091461D02*
X0268008Y0091461D01*
X0268008Y0086539D02*
X0263639Y0086539D01*
X0263639Y0081618D02*
X0268008Y0081618D01*
D15*
X0107595Y0216500D03*
X0097595Y0216500D03*
X0087595Y0216500D03*
X0087595Y0236500D03*
X0097595Y0236500D03*
X0107595Y0236500D03*
X0107595Y0256500D03*
X0097595Y0256500D03*
X0087595Y0256500D03*
X0067595Y0276500D03*
X0057595Y0276500D03*
X0047595Y0276500D03*
X0252595Y0296500D03*
X0252595Y0306500D03*
X0252595Y0316500D03*
X0252595Y0326500D03*
X0252595Y0336500D03*
X0252595Y0346500D03*
X0252595Y0356500D03*
X0252595Y0366500D03*
X0252595Y0376500D03*
X0252595Y0386500D03*
X0332595Y0386500D03*
X0332595Y0376500D03*
X0332595Y0366500D03*
X0332595Y0356500D03*
X0332595Y0346500D03*
X0332595Y0336500D03*
X0332595Y0326500D03*
X0332595Y0316500D03*
X0332595Y0306500D03*
X0332595Y0296500D03*
D16*
X0257595Y0262406D03*
X0257595Y0250594D03*
D17*
X0222595Y0361500D03*
X0222595Y0371500D03*
X0202595Y0371500D03*
X0202595Y0361500D03*
X0182595Y0361500D03*
X0182595Y0371500D03*
D18*
X0307595Y0271500D03*
X0317595Y0271500D03*
X0317595Y0251500D03*
X0307595Y0251500D03*
D19*
X0110213Y0320260D03*
X0110213Y0324000D03*
X0110213Y0327740D03*
X0099977Y0327740D03*
X0099977Y0320260D03*
D20*
X0067195Y0249000D03*
X0067195Y0244000D03*
X0067195Y0239000D03*
X0067195Y0234000D03*
X0067195Y0229000D03*
X0067195Y0224000D03*
X0067195Y0219000D03*
X0067195Y0214000D03*
X0042995Y0214000D03*
X0042995Y0219000D03*
X0042995Y0224000D03*
X0042995Y0229000D03*
X0042995Y0234000D03*
X0042995Y0239000D03*
X0042995Y0244000D03*
X0042995Y0249000D03*
D21*
X0182595Y0381914D03*
X0182595Y0389000D03*
X0202595Y0389000D03*
X0202595Y0381914D03*
X0257595Y0280043D03*
X0257595Y0272957D03*
X0257595Y0240043D03*
X0257595Y0232957D03*
D22*
X0284052Y0251500D03*
X0291138Y0251500D03*
X0291138Y0271500D03*
X0284052Y0271500D03*
D23*
X0285095Y0271500D01*
X0285095Y0251500D01*
X0284052Y0251500D01*
X0282595Y0251500D01*
X0257595Y0251500D01*
X0257595Y0250594D01*
X0257595Y0240043D01*
X0257595Y0232957D02*
X0257595Y0209000D01*
X0262595Y0204000D01*
X0270095Y0204000D01*
X0269367Y0203882D01*
X0269367Y0189118D02*
X0269367Y0184197D01*
X0269367Y0179728D01*
X0272595Y0176500D01*
X0317280Y0176500D01*
X0317595Y0176815D01*
X0317595Y0186657D02*
X0332438Y0186657D01*
X0340095Y0179000D01*
X0340095Y0096500D01*
X0335095Y0091500D01*
X0327438Y0091500D01*
X0327438Y0031657D01*
X0327595Y0031500D01*
X0322595Y0026500D01*
X0317753Y0026500D01*
X0317595Y0026657D01*
X0267595Y0026657D01*
X0267438Y0026500D01*
X0245095Y0026500D01*
X0240095Y0031500D01*
X0240095Y0201500D01*
X0232595Y0209000D01*
X0227595Y0209000D01*
X0202595Y0209000D01*
X0207595Y0219000D02*
X0212595Y0224000D01*
X0212595Y0249000D01*
X0212438Y0249000D01*
X0212595Y0264000D01*
X0180095Y0264000D01*
X0170095Y0254000D01*
X0145095Y0254157D01*
X0145095Y0264000D02*
X0162595Y0264000D01*
X0167595Y0269000D01*
X0202595Y0269000D01*
X0202595Y0294000D01*
X0202595Y0309000D01*
X0202595Y0311500D01*
X0197595Y0316500D01*
X0147438Y0316500D01*
X0147595Y0316343D01*
X0147595Y0309000D01*
X0142595Y0304000D01*
X0122595Y0304000D01*
X0120095Y0301500D01*
X0117595Y0304000D01*
X0113442Y0304000D01*
X0112595Y0304846D01*
X0112595Y0314000D01*
X0110213Y0316382D01*
X0110213Y0320260D01*
X0105095Y0321500D01*
X0105095Y0326500D01*
X0110213Y0327740D01*
X0110213Y0324000D02*
X0110095Y0324000D01*
X0110213Y0324000D02*
X0130095Y0324000D01*
X0137595Y0316500D01*
X0140095Y0339000D02*
X0097595Y0339000D01*
X0092595Y0334000D01*
X0092595Y0324000D01*
X0095095Y0321500D01*
X0099977Y0320260D01*
X0100095Y0319000D01*
X0100095Y0306500D01*
X0097595Y0306500D01*
X0097595Y0304846D01*
X0097595Y0298154D02*
X0112595Y0298154D01*
X0120095Y0301500D02*
X0120095Y0291500D01*
X0117595Y0289000D01*
X0072595Y0289000D01*
X0067595Y0284000D01*
X0067595Y0276500D01*
X0067595Y0266500D01*
X0055095Y0254000D01*
X0055095Y0219000D01*
X0055095Y0216500D01*
X0057595Y0214000D01*
X0062595Y0214000D01*
X0067195Y0214000D01*
X0065095Y0214000D01*
X0067195Y0214000D01*
X0067195Y0219000D02*
X0077595Y0219000D01*
X0080095Y0216500D01*
X0087595Y0216500D01*
X0097595Y0216500D02*
X0102595Y0209000D01*
X0157595Y0209000D01*
X0160095Y0211500D01*
X0160095Y0218075D01*
X0160292Y0218272D01*
X0155371Y0218272D02*
X0155371Y0218724D01*
X0155095Y0219000D01*
X0155095Y0236500D01*
X0157595Y0239000D01*
X0162595Y0239000D01*
X0172595Y0249000D01*
X0175095Y0249000D01*
X0182910Y0249000D01*
X0175095Y0244000D02*
X0175095Y0219000D01*
X0175056Y0218272D01*
X0165213Y0218272D02*
X0165095Y0219000D01*
X0165095Y0234000D01*
X0160095Y0244000D02*
X0167595Y0251500D01*
X0172595Y0251500D01*
X0180095Y0259000D01*
X0185095Y0259000D01*
X0192595Y0251500D01*
X0192595Y0249000D01*
X0192753Y0249000D01*
X0202595Y0249000D02*
X0202595Y0259000D01*
X0212595Y0264000D02*
X0212438Y0294000D01*
X0192753Y0294000D02*
X0192595Y0294000D01*
X0192595Y0291500D01*
X0185095Y0284000D01*
X0155095Y0284000D01*
X0153095Y0288000D01*
X0152095Y0289000D01*
X0125095Y0289000D01*
X0120095Y0284000D01*
X0120095Y0276500D01*
X0120095Y0269000D01*
X0115095Y0264000D01*
X0110095Y0264000D01*
X0107595Y0261500D01*
X0105095Y0264000D01*
X0082595Y0264000D01*
X0080095Y0261500D01*
X0080095Y0251500D01*
X0072595Y0244000D01*
X0067595Y0244000D01*
X0065095Y0244000D01*
X0067195Y0244000D01*
X0067195Y0239000D02*
X0065095Y0239000D01*
X0067195Y0239000D02*
X0072595Y0239000D01*
X0087595Y0254000D01*
X0087595Y0256500D01*
X0085095Y0244000D02*
X0082595Y0244000D01*
X0080095Y0241500D01*
X0072595Y0234000D01*
X0067195Y0234000D01*
X0067195Y0229000D02*
X0065095Y0229000D01*
X0067195Y0229000D02*
X0072595Y0229000D01*
X0080095Y0236500D01*
X0082595Y0236500D01*
X0087595Y0236500D01*
X0085095Y0244000D02*
X0105095Y0244000D01*
X0107595Y0241500D01*
X0110095Y0244000D01*
X0122595Y0244000D01*
X0127595Y0249000D01*
X0127595Y0259000D01*
X0127595Y0266500D01*
X0127595Y0269000D01*
X0132595Y0274000D01*
X0144938Y0274000D01*
X0145095Y0273843D01*
X0153095Y0288000D02*
X0152595Y0289000D01*
X0160095Y0244000D02*
X0132595Y0244000D01*
X0127595Y0239000D01*
X0127595Y0221500D01*
X0122595Y0216500D01*
X0107595Y0216500D01*
X0100095Y0224000D01*
X0065095Y0224000D01*
X0067195Y0224000D01*
X0067195Y0249000D02*
X0065095Y0249000D01*
X0065095Y0256500D01*
X0057595Y0276500D02*
X0057595Y0284000D01*
X0065095Y0291500D01*
X0065095Y0299000D01*
X0060095Y0309000D02*
X0057595Y0309000D01*
X0055095Y0306500D01*
X0055095Y0299000D01*
X0060095Y0309000D02*
X0072595Y0309000D01*
X0075095Y0306500D01*
X0075095Y0301500D01*
X0078442Y0298154D01*
X0097595Y0298154D01*
X0107595Y0261500D02*
X0107595Y0259000D01*
X0107595Y0256500D01*
X0107595Y0241500D02*
X0107595Y0236500D01*
X0189820Y0218272D02*
X0207595Y0219000D01*
X0202595Y0229000D02*
X0202595Y0249000D01*
X0247595Y0296500D02*
X0252595Y0296500D01*
X0252595Y0284000D01*
X0250095Y0281500D01*
X0250095Y0256500D01*
X0257595Y0251500D01*
X0257595Y0262406D02*
X0257595Y0272957D01*
X0257595Y0280043D02*
X0257595Y0289000D01*
X0325095Y0356500D01*
X0332595Y0356500D01*
X0332595Y0366500D02*
X0325095Y0366500D01*
X0317595Y0359000D01*
X0332595Y0346500D02*
X0325095Y0339000D01*
X0325095Y0259000D01*
X0317595Y0251500D01*
X0307595Y0251500D02*
X0292595Y0251500D01*
X0291138Y0251500D01*
X0285095Y0251500D02*
X0285095Y0229000D01*
X0285095Y0204000D01*
X0292595Y0196500D01*
X0317595Y0196500D01*
X0317595Y0206343D02*
X0332595Y0206500D01*
X0340095Y0214000D01*
X0340095Y0301500D01*
X0335095Y0306500D01*
X0332595Y0306500D01*
X0332595Y0296500D02*
X0332595Y0221500D01*
X0327595Y0216500D01*
X0317595Y0216185D01*
X0285095Y0251500D02*
X0284052Y0251500D01*
X0291138Y0271500D02*
X0307595Y0271500D01*
X0317595Y0271500D02*
X0317595Y0339000D01*
X0252595Y0336500D02*
X0217595Y0336500D01*
X0192595Y0361500D01*
X0182595Y0361500D01*
X0182595Y0371500D02*
X0182595Y0381500D01*
X0182595Y0381914D01*
X0182595Y0389000D02*
X0202595Y0389000D01*
X0232595Y0389000D01*
X0242595Y0379000D01*
X0247595Y0371500D02*
X0252595Y0376500D01*
X0247595Y0371500D02*
X0222595Y0371500D01*
X0222595Y0361500D02*
X0222595Y0341500D01*
X0217595Y0349000D02*
X0202595Y0361500D01*
X0202595Y0371500D02*
X0202595Y0381500D01*
X0202595Y0381914D01*
X0182595Y0389000D02*
X0157595Y0389000D01*
X0147595Y0379000D01*
X0147438Y0361500D01*
X0147595Y0346500D01*
X0140095Y0339000D01*
X0230095Y0349000D02*
X0252595Y0346500D01*
X0242595Y0329000D02*
X0242595Y0301500D01*
X0247595Y0296500D01*
X0267595Y0151500D02*
X0267595Y0151343D01*
X0267595Y0151500D02*
X0317595Y0151500D01*
X0317595Y0151343D01*
X0317595Y0141500D02*
X0267595Y0141500D01*
X0267595Y0131657D02*
X0267595Y0131500D01*
X0317595Y0131500D01*
X0317595Y0131657D01*
X0317595Y0121815D02*
X0317595Y0121500D01*
X0267595Y0121500D01*
X0267595Y0121815D01*
X0265095Y0096500D02*
X0257595Y0096500D01*
X0252595Y0091500D01*
X0252595Y0041500D01*
X0255095Y0039000D01*
X0257595Y0036500D01*
X0267595Y0036500D01*
X0317595Y0036500D01*
X0317595Y0046343D02*
X0267595Y0046343D01*
X0267595Y0046500D01*
X0262595Y0046500D01*
X0257595Y0051500D01*
X0257595Y0054000D01*
X0257595Y0081500D01*
X0262595Y0086500D01*
X0265823Y0086539D01*
X0265095Y0086500D01*
X0280095Y0086500D01*
X0282595Y0089000D01*
X0295095Y0101500D01*
X0305095Y0101500D01*
X0307595Y0099000D01*
X0307595Y0091500D01*
X0307753Y0091500D01*
X0317595Y0091500D02*
X0317595Y0099000D01*
X0310095Y0109000D01*
X0292595Y0109000D01*
X0280095Y0096500D01*
X0279977Y0096382D01*
X0265823Y0096382D01*
X0265213Y0096382D01*
X0265095Y0096500D01*
X0265823Y0081618D02*
X0267595Y0081500D01*
X0282595Y0081500D01*
X0292595Y0091500D01*
X0297910Y0091500D01*
X0297595Y0091185D01*
X0297595Y0076500D01*
X0302595Y0071500D01*
X0312595Y0071500D01*
X0317595Y0066500D01*
X0317595Y0056185D01*
X0267595Y0056500D02*
X0267595Y0056185D01*
X0267595Y0056500D02*
X0267595Y0081500D01*
X0265823Y0081618D01*
D24*
X0165095Y0234000D03*
X0175095Y0244000D03*
X0222595Y0341500D03*
X0065095Y0256500D03*
D25*
X0202595Y0259000D03*
X0202595Y0269000D03*
X0202595Y0229000D03*
X0202595Y0209000D03*
X0242595Y0329000D03*
X0230095Y0349000D03*
X0217595Y0349000D03*
X0242595Y0379000D03*
X0317595Y0359000D03*
X0317595Y0339000D03*
M02*
