G75*
%MOIN*%
%OFA0B0*%
%FSLAX25Y25*%
%IPPOS*%
%LPD*%
%AMOC8*
5,1,8,0,0,1.08239X$1,22.5*
%
%ADD10C,0.07205*%
%ADD11C,0.06400*%
%ADD12C,0.04369*%
%ADD13C,0.07400*%
%ADD14C,0.01000*%
%ADD15C,0.04400*%
%ADD16R,0.04362X0.04362*%
D10*
X0182910Y0245398D02*
X0182910Y0252602D01*
X0192753Y0252602D02*
X0192753Y0245398D01*
X0202595Y0245398D02*
X0202595Y0252602D01*
X0212438Y0252602D02*
X0212438Y0245398D01*
X0212438Y0290398D02*
X0212438Y0297602D01*
X0202595Y0297602D02*
X0202595Y0290398D01*
X0192753Y0290398D02*
X0192753Y0297602D01*
X0182910Y0297602D02*
X0182910Y0290398D01*
X0148698Y0283685D02*
X0141493Y0283685D01*
X0141493Y0273843D02*
X0148698Y0273843D01*
X0148698Y0264000D02*
X0141493Y0264000D01*
X0141493Y0254157D02*
X0148698Y0254157D01*
X0147438Y0312898D02*
X0147438Y0320102D01*
X0137595Y0320102D02*
X0137595Y0312898D01*
X0137595Y0357898D02*
X0137595Y0365102D01*
X0147438Y0365102D02*
X0147438Y0357898D01*
X0107438Y0357898D02*
X0107438Y0365102D01*
X0097595Y0365102D02*
X0097595Y0357898D01*
X0263993Y0151343D02*
X0271198Y0151343D01*
X0271198Y0141500D02*
X0263993Y0141500D01*
X0263993Y0131657D02*
X0271198Y0131657D01*
X0271198Y0121815D02*
X0263993Y0121815D01*
X0297910Y0095102D02*
X0297910Y0087898D01*
X0307753Y0087898D02*
X0307753Y0095102D01*
X0317595Y0095102D02*
X0317595Y0087898D01*
X0327438Y0087898D02*
X0327438Y0095102D01*
X0321198Y0121815D02*
X0313993Y0121815D01*
X0313993Y0131657D02*
X0321198Y0131657D01*
X0321198Y0141500D02*
X0313993Y0141500D01*
X0313993Y0151343D02*
X0321198Y0151343D01*
X0321198Y0176815D02*
X0313993Y0176815D01*
X0313993Y0186657D02*
X0321198Y0186657D01*
X0321198Y0196500D02*
X0313993Y0196500D01*
X0313993Y0206343D02*
X0321198Y0206343D01*
X0321198Y0216185D02*
X0313993Y0216185D01*
X0313993Y0226028D02*
X0321198Y0226028D01*
X0321198Y0056185D02*
X0313993Y0056185D01*
X0313993Y0046343D02*
X0321198Y0046343D01*
X0321198Y0036500D02*
X0313993Y0036500D01*
X0313993Y0026657D02*
X0321198Y0026657D01*
X0271198Y0026657D02*
X0263993Y0026657D01*
X0263993Y0036500D02*
X0271198Y0036500D01*
X0271198Y0046343D02*
X0263993Y0046343D01*
X0263993Y0056185D02*
X0271198Y0056185D01*
D11*
X0065095Y0295800D02*
X0065095Y0302200D01*
X0055095Y0302200D02*
X0055095Y0295800D01*
D12*
X0155371Y0220456D02*
X0155371Y0216087D01*
X0160292Y0216087D02*
X0160292Y0220456D01*
X0165213Y0220456D02*
X0165213Y0216087D01*
X0170135Y0216087D02*
X0170135Y0220456D01*
X0175056Y0220456D02*
X0175056Y0216087D01*
X0179977Y0216087D02*
X0179977Y0220456D01*
X0184898Y0220456D02*
X0184898Y0216087D01*
X0189820Y0216087D02*
X0189820Y0220456D01*
X0267183Y0208803D02*
X0271551Y0208803D01*
X0271551Y0203882D02*
X0267183Y0203882D01*
X0267183Y0198961D02*
X0271551Y0198961D01*
X0271551Y0194039D02*
X0267183Y0194039D01*
X0267183Y0189118D02*
X0271551Y0189118D01*
X0271551Y0184197D02*
X0267183Y0184197D01*
X0268008Y0096382D02*
X0263639Y0096382D01*
X0263639Y0091461D02*
X0268008Y0091461D01*
X0268008Y0086539D02*
X0263639Y0086539D01*
X0263639Y0081618D02*
X0268008Y0081618D01*
D13*
X0107595Y0216500D03*
X0097595Y0216500D03*
X0087595Y0216500D03*
X0087595Y0236500D03*
X0097595Y0236500D03*
X0107595Y0236500D03*
X0107595Y0256500D03*
X0097595Y0256500D03*
X0087595Y0256500D03*
X0067595Y0276500D03*
X0057595Y0276500D03*
X0047595Y0276500D03*
X0252595Y0296500D03*
X0252595Y0306500D03*
X0252595Y0316500D03*
X0252595Y0326500D03*
X0252595Y0336500D03*
X0252595Y0346500D03*
X0252595Y0356500D03*
X0252595Y0366500D03*
X0252595Y0376500D03*
X0252595Y0386500D03*
X0332595Y0386500D03*
X0332595Y0376500D03*
X0332595Y0366500D03*
X0332595Y0356500D03*
X0332595Y0346500D03*
X0332595Y0336500D03*
X0332595Y0326500D03*
X0332595Y0316500D03*
X0332595Y0306500D03*
X0332595Y0296500D03*
D14*
X0033895Y0394531D02*
X0033895Y0002800D01*
X0346256Y0002800D01*
X0346256Y0394531D01*
X0033895Y0394531D01*
X0033895Y0393915D02*
X0346256Y0393915D01*
X0346256Y0392916D02*
X0033895Y0392916D01*
X0033895Y0391918D02*
X0346256Y0391918D01*
X0346256Y0390919D02*
X0334991Y0390919D01*
X0335427Y0390739D02*
X0333590Y0391500D01*
X0331601Y0391500D01*
X0329763Y0390739D01*
X0328356Y0389332D01*
X0327595Y0387495D01*
X0327595Y0385505D01*
X0328356Y0383668D01*
X0329763Y0382261D01*
X0331601Y0381500D01*
X0333590Y0381500D01*
X0335427Y0382261D01*
X0336834Y0383668D01*
X0337595Y0385505D01*
X0337595Y0387495D01*
X0336834Y0389332D01*
X0335427Y0390739D01*
X0336245Y0389921D02*
X0346256Y0389921D01*
X0346256Y0388922D02*
X0337004Y0388922D01*
X0337417Y0387924D02*
X0346256Y0387924D01*
X0346256Y0386925D02*
X0337595Y0386925D01*
X0337595Y0385927D02*
X0346256Y0385927D01*
X0346256Y0384928D02*
X0337356Y0384928D01*
X0336942Y0383930D02*
X0346256Y0383930D01*
X0346256Y0382931D02*
X0336098Y0382931D01*
X0334635Y0381933D02*
X0346256Y0381933D01*
X0346256Y0380934D02*
X0334955Y0380934D01*
X0335427Y0380739D02*
X0333590Y0381500D01*
X0331601Y0381500D01*
X0329763Y0380739D01*
X0328356Y0379332D01*
X0327595Y0377495D01*
X0327595Y0375505D01*
X0328356Y0373668D01*
X0329763Y0372261D01*
X0331601Y0371500D01*
X0333590Y0371500D01*
X0335427Y0372261D01*
X0336834Y0373668D01*
X0337595Y0375505D01*
X0337595Y0377495D01*
X0336834Y0379332D01*
X0335427Y0380739D01*
X0336230Y0379936D02*
X0346256Y0379936D01*
X0346256Y0378937D02*
X0336998Y0378937D01*
X0337411Y0377939D02*
X0346256Y0377939D01*
X0346256Y0376940D02*
X0337595Y0376940D01*
X0337595Y0375942D02*
X0346256Y0375942D01*
X0346256Y0374943D02*
X0337362Y0374943D01*
X0336949Y0373945D02*
X0346256Y0373945D01*
X0346256Y0372946D02*
X0336112Y0372946D01*
X0334671Y0371948D02*
X0346256Y0371948D01*
X0346256Y0370949D02*
X0334919Y0370949D01*
X0335427Y0370739D02*
X0333590Y0371500D01*
X0331601Y0371500D01*
X0329763Y0370739D01*
X0328356Y0369332D01*
X0327595Y0367495D01*
X0327595Y0365505D01*
X0328356Y0363668D01*
X0329763Y0362261D01*
X0331601Y0361500D01*
X0333590Y0361500D01*
X0335427Y0362261D01*
X0336834Y0363668D01*
X0337595Y0365505D01*
X0337595Y0367495D01*
X0336834Y0369332D01*
X0335427Y0370739D01*
X0336216Y0369951D02*
X0346256Y0369951D01*
X0346256Y0368952D02*
X0336991Y0368952D01*
X0337405Y0367954D02*
X0346256Y0367954D01*
X0346256Y0366955D02*
X0337595Y0366955D01*
X0337595Y0365957D02*
X0346256Y0365957D01*
X0346256Y0364958D02*
X0337368Y0364958D01*
X0336955Y0363960D02*
X0346256Y0363960D01*
X0346256Y0362961D02*
X0336127Y0362961D01*
X0334706Y0361963D02*
X0346256Y0361963D01*
X0346256Y0360964D02*
X0334884Y0360964D01*
X0335427Y0360739D02*
X0333590Y0361500D01*
X0331601Y0361500D01*
X0329763Y0360739D01*
X0328356Y0359332D01*
X0327595Y0357495D01*
X0327595Y0355505D01*
X0328356Y0353668D01*
X0329763Y0352261D01*
X0331601Y0351500D01*
X0333590Y0351500D01*
X0335427Y0352261D01*
X0336834Y0353668D01*
X0337595Y0355505D01*
X0337595Y0357495D01*
X0336834Y0359332D01*
X0335427Y0360739D01*
X0336201Y0359966D02*
X0346256Y0359966D01*
X0346256Y0358967D02*
X0336985Y0358967D01*
X0337399Y0357969D02*
X0346256Y0357969D01*
X0346256Y0356970D02*
X0337595Y0356970D01*
X0337595Y0355972D02*
X0346256Y0355972D01*
X0346256Y0354973D02*
X0337375Y0354973D01*
X0336961Y0353974D02*
X0346256Y0353974D01*
X0346256Y0352976D02*
X0336142Y0352976D01*
X0334742Y0351977D02*
X0346256Y0351977D01*
X0346256Y0350979D02*
X0334848Y0350979D01*
X0335427Y0350739D02*
X0333590Y0351500D01*
X0331601Y0351500D01*
X0329763Y0350739D01*
X0328356Y0349332D01*
X0327595Y0347495D01*
X0327595Y0345505D01*
X0328356Y0343668D01*
X0329763Y0342261D01*
X0331601Y0341500D01*
X0333590Y0341500D01*
X0335427Y0342261D01*
X0336834Y0343668D01*
X0337595Y0345505D01*
X0337595Y0347495D01*
X0336834Y0349332D01*
X0335427Y0350739D01*
X0336186Y0349980D02*
X0346256Y0349980D01*
X0346256Y0348982D02*
X0336979Y0348982D01*
X0337393Y0347983D02*
X0346256Y0347983D01*
X0346256Y0346985D02*
X0337595Y0346985D01*
X0337595Y0345986D02*
X0346256Y0345986D01*
X0346256Y0344988D02*
X0337381Y0344988D01*
X0336967Y0343989D02*
X0346256Y0343989D01*
X0346256Y0342991D02*
X0336157Y0342991D01*
X0334778Y0341992D02*
X0346256Y0341992D01*
X0346256Y0340994D02*
X0334812Y0340994D01*
X0335427Y0340739D02*
X0333590Y0341500D01*
X0331601Y0341500D01*
X0329763Y0340739D01*
X0328356Y0339332D01*
X0327595Y0337495D01*
X0327595Y0335505D01*
X0328356Y0333668D01*
X0329763Y0332261D01*
X0331601Y0331500D01*
X0333590Y0331500D01*
X0335427Y0332261D01*
X0336834Y0333668D01*
X0337595Y0335505D01*
X0337595Y0337495D01*
X0336834Y0339332D01*
X0335427Y0340739D01*
X0336171Y0339995D02*
X0346256Y0339995D01*
X0346256Y0338997D02*
X0336973Y0338997D01*
X0337386Y0337998D02*
X0346256Y0337998D01*
X0346256Y0337000D02*
X0337595Y0337000D01*
X0337595Y0336001D02*
X0346256Y0336001D01*
X0346256Y0335003D02*
X0337387Y0335003D01*
X0336973Y0334004D02*
X0346256Y0334004D01*
X0346256Y0333006D02*
X0336172Y0333006D01*
X0334814Y0332007D02*
X0346256Y0332007D01*
X0346256Y0331009D02*
X0334776Y0331009D01*
X0335427Y0330739D02*
X0333590Y0331500D01*
X0331601Y0331500D01*
X0329763Y0330739D01*
X0328356Y0329332D01*
X0327595Y0327495D01*
X0327595Y0325505D01*
X0328356Y0323668D01*
X0329763Y0322261D01*
X0331601Y0321500D01*
X0333590Y0321500D01*
X0335427Y0322261D01*
X0336834Y0323668D01*
X0337595Y0325505D01*
X0337595Y0327495D01*
X0336834Y0329332D01*
X0335427Y0330739D01*
X0336156Y0330010D02*
X0346256Y0330010D01*
X0346256Y0329012D02*
X0336967Y0329012D01*
X0337380Y0328013D02*
X0346256Y0328013D01*
X0346256Y0327015D02*
X0337595Y0327015D01*
X0337595Y0326016D02*
X0346256Y0326016D01*
X0346256Y0325018D02*
X0337393Y0325018D01*
X0336979Y0324019D02*
X0346256Y0324019D01*
X0346256Y0323021D02*
X0336187Y0323021D01*
X0334850Y0322022D02*
X0346256Y0322022D01*
X0346256Y0321024D02*
X0334740Y0321024D01*
X0335427Y0320739D02*
X0333590Y0321500D01*
X0331601Y0321500D01*
X0329763Y0320739D01*
X0328356Y0319332D01*
X0327595Y0317495D01*
X0327595Y0315505D01*
X0328356Y0313668D01*
X0329763Y0312261D01*
X0331601Y0311500D01*
X0333590Y0311500D01*
X0335427Y0312261D01*
X0336834Y0313668D01*
X0337595Y0315505D01*
X0337595Y0317495D01*
X0336834Y0319332D01*
X0335427Y0320739D01*
X0336141Y0320025D02*
X0346256Y0320025D01*
X0346256Y0319027D02*
X0336961Y0319027D01*
X0337374Y0318028D02*
X0346256Y0318028D01*
X0346256Y0317030D02*
X0337595Y0317030D01*
X0337595Y0316031D02*
X0346256Y0316031D01*
X0346256Y0315033D02*
X0337399Y0315033D01*
X0336986Y0314034D02*
X0346256Y0314034D01*
X0346256Y0313036D02*
X0336202Y0313036D01*
X0334886Y0312037D02*
X0346256Y0312037D01*
X0346256Y0311039D02*
X0334704Y0311039D01*
X0335427Y0310739D02*
X0333590Y0311500D01*
X0331601Y0311500D01*
X0329763Y0310739D01*
X0328356Y0309332D01*
X0327595Y0307495D01*
X0327595Y0305505D01*
X0328356Y0303668D01*
X0329763Y0302261D01*
X0331601Y0301500D01*
X0333590Y0301500D01*
X0335427Y0302261D01*
X0336834Y0303668D01*
X0337595Y0305505D01*
X0337595Y0307495D01*
X0336834Y0309332D01*
X0335427Y0310739D01*
X0336126Y0310040D02*
X0346256Y0310040D01*
X0346256Y0309041D02*
X0336954Y0309041D01*
X0337368Y0308043D02*
X0346256Y0308043D01*
X0346256Y0307044D02*
X0337595Y0307044D01*
X0337595Y0306046D02*
X0346256Y0306046D01*
X0346256Y0305047D02*
X0337405Y0305047D01*
X0336992Y0304049D02*
X0346256Y0304049D01*
X0346256Y0303050D02*
X0336217Y0303050D01*
X0334922Y0302052D02*
X0346256Y0302052D01*
X0346256Y0301053D02*
X0334668Y0301053D01*
X0335427Y0300739D02*
X0333590Y0301500D01*
X0331601Y0301500D01*
X0329763Y0300739D01*
X0328356Y0299332D01*
X0327595Y0297495D01*
X0327595Y0295505D01*
X0328356Y0293668D01*
X0329763Y0292261D01*
X0331601Y0291500D01*
X0333590Y0291500D01*
X0335427Y0292261D01*
X0336834Y0293668D01*
X0337595Y0295505D01*
X0337595Y0297495D01*
X0336834Y0299332D01*
X0335427Y0300739D01*
X0336111Y0300055D02*
X0346256Y0300055D01*
X0346256Y0299056D02*
X0336948Y0299056D01*
X0337362Y0298058D02*
X0346256Y0298058D01*
X0346256Y0297059D02*
X0337595Y0297059D01*
X0337595Y0296061D02*
X0346256Y0296061D01*
X0346256Y0295062D02*
X0337412Y0295062D01*
X0336998Y0294064D02*
X0346256Y0294064D01*
X0346256Y0293065D02*
X0336232Y0293065D01*
X0334958Y0292067D02*
X0346256Y0292067D01*
X0346256Y0291068D02*
X0224395Y0291068D01*
X0224395Y0290070D02*
X0346256Y0290070D01*
X0346256Y0289071D02*
X0224395Y0289071D01*
X0224395Y0288073D02*
X0346256Y0288073D01*
X0346256Y0287074D02*
X0224395Y0287074D01*
X0224395Y0286076D02*
X0346256Y0286076D01*
X0346256Y0285077D02*
X0224395Y0285077D01*
X0224395Y0284079D02*
X0346256Y0284079D01*
X0346256Y0283080D02*
X0224395Y0283080D01*
X0224395Y0282082D02*
X0346256Y0282082D01*
X0346256Y0281083D02*
X0224395Y0281083D01*
X0224395Y0280085D02*
X0346256Y0280085D01*
X0346256Y0279086D02*
X0224395Y0279086D01*
X0224395Y0278088D02*
X0346256Y0278088D01*
X0346256Y0277089D02*
X0224395Y0277089D01*
X0224395Y0276091D02*
X0346256Y0276091D01*
X0346256Y0275092D02*
X0224395Y0275092D01*
X0224395Y0274094D02*
X0346256Y0274094D01*
X0346256Y0273095D02*
X0224395Y0273095D01*
X0224395Y0272097D02*
X0346256Y0272097D01*
X0346256Y0271098D02*
X0224395Y0271098D01*
X0224395Y0270100D02*
X0346256Y0270100D01*
X0346256Y0269101D02*
X0224395Y0269101D01*
X0224395Y0268103D02*
X0346256Y0268103D01*
X0346256Y0267104D02*
X0224395Y0267104D01*
X0224395Y0266105D02*
X0346256Y0266105D01*
X0346256Y0265107D02*
X0224395Y0265107D01*
X0224395Y0264108D02*
X0346256Y0264108D01*
X0346256Y0263110D02*
X0224395Y0263110D01*
X0224395Y0262111D02*
X0346256Y0262111D01*
X0346256Y0261113D02*
X0224395Y0261113D01*
X0224395Y0260114D02*
X0346256Y0260114D01*
X0346256Y0259116D02*
X0224395Y0259116D01*
X0224395Y0258117D02*
X0346256Y0258117D01*
X0346256Y0257119D02*
X0224395Y0257119D01*
X0224395Y0256120D02*
X0346256Y0256120D01*
X0346256Y0255122D02*
X0224395Y0255122D01*
X0224395Y0254123D02*
X0346256Y0254123D01*
X0346256Y0253125D02*
X0224395Y0253125D01*
X0224395Y0252126D02*
X0346256Y0252126D01*
X0346256Y0251128D02*
X0224395Y0251128D01*
X0224395Y0250129D02*
X0346256Y0250129D01*
X0346256Y0249131D02*
X0224395Y0249131D01*
X0224395Y0248132D02*
X0346256Y0248132D01*
X0346256Y0247134D02*
X0224395Y0247134D01*
X0224395Y0246135D02*
X0346256Y0246135D01*
X0346256Y0245137D02*
X0224395Y0245137D01*
X0224395Y0244138D02*
X0346256Y0244138D01*
X0346256Y0243140D02*
X0224395Y0243140D01*
X0224395Y0242141D02*
X0346256Y0242141D01*
X0346256Y0241143D02*
X0224395Y0241143D01*
X0224395Y0240144D02*
X0346256Y0240144D01*
X0346256Y0239146D02*
X0224395Y0239146D01*
X0224395Y0238147D02*
X0346256Y0238147D01*
X0346256Y0237149D02*
X0224395Y0237149D01*
X0224395Y0236150D02*
X0346256Y0236150D01*
X0346256Y0235152D02*
X0224395Y0235152D01*
X0224395Y0234153D02*
X0346256Y0234153D01*
X0346256Y0233155D02*
X0224395Y0233155D01*
X0224395Y0232246D02*
X0224395Y0338457D01*
X0224578Y0338533D01*
X0225562Y0339517D01*
X0226095Y0340804D01*
X0226095Y0342196D01*
X0225562Y0343483D01*
X0224578Y0344467D01*
X0223291Y0345000D01*
X0221899Y0345000D01*
X0220613Y0344467D01*
X0219628Y0343483D01*
X0219095Y0342196D01*
X0219095Y0340804D01*
X0219628Y0339517D01*
X0220613Y0338533D01*
X0220795Y0338457D01*
X0220795Y0230754D01*
X0225795Y0225754D01*
X0226850Y0224700D01*
X0267567Y0224700D01*
X0267567Y0212287D01*
X0266489Y0212287D01*
X0265209Y0211757D01*
X0264229Y0210777D01*
X0263698Y0209496D01*
X0263698Y0208110D01*
X0264229Y0206829D01*
X0264716Y0206343D01*
X0264229Y0205856D01*
X0263698Y0204575D01*
X0263698Y0203189D01*
X0264229Y0201908D01*
X0264716Y0201421D01*
X0264229Y0200934D01*
X0263698Y0199654D01*
X0263698Y0198268D01*
X0264229Y0196987D01*
X0264716Y0196500D01*
X0264229Y0196013D01*
X0263698Y0194732D01*
X0263698Y0193346D01*
X0264229Y0192066D01*
X0264716Y0191579D01*
X0264229Y0191092D01*
X0263698Y0189811D01*
X0263698Y0188425D01*
X0264229Y0187144D01*
X0264716Y0186657D01*
X0264229Y0186171D01*
X0263698Y0184890D01*
X0263698Y0183504D01*
X0264229Y0182223D01*
X0265209Y0181243D01*
X0266489Y0180713D01*
X0272244Y0180713D01*
X0273525Y0181243D01*
X0274505Y0182223D01*
X0275035Y0183504D01*
X0275035Y0184890D01*
X0274505Y0186171D01*
X0274018Y0186657D01*
X0274505Y0187144D01*
X0275035Y0188425D01*
X0275035Y0189811D01*
X0274505Y0191092D01*
X0274018Y0191579D01*
X0274505Y0192066D01*
X0275035Y0193346D01*
X0275035Y0194732D01*
X0274505Y0196013D01*
X0274018Y0196500D01*
X0274505Y0196987D01*
X0274593Y0197200D01*
X0300841Y0197200D01*
X0301895Y0198254D01*
X0308329Y0204688D01*
X0309379Y0204672D01*
X0309837Y0203566D01*
X0311216Y0202186D01*
X0313018Y0201440D01*
X0322173Y0201440D01*
X0323974Y0202186D01*
X0325354Y0203566D01*
X0326100Y0205367D01*
X0326100Y0207318D01*
X0325354Y0209119D01*
X0323974Y0210499D01*
X0322173Y0211245D01*
X0313018Y0211245D01*
X0311216Y0210499D01*
X0309837Y0209119D01*
X0309485Y0208270D01*
X0308352Y0208288D01*
X0308341Y0208300D01*
X0307609Y0208300D01*
X0306878Y0208312D01*
X0306866Y0208300D01*
X0306850Y0208300D01*
X0306332Y0207783D01*
X0305807Y0207274D01*
X0305807Y0207257D01*
X0299350Y0200800D01*
X0274560Y0200800D01*
X0274505Y0200934D01*
X0274018Y0201421D01*
X0274505Y0201908D01*
X0274626Y0202200D01*
X0295841Y0202200D01*
X0296895Y0203254D01*
X0308317Y0214676D01*
X0309325Y0214645D01*
X0309837Y0213408D01*
X0311216Y0212029D01*
X0313018Y0211283D01*
X0322173Y0211283D01*
X0323974Y0212029D01*
X0325354Y0213408D01*
X0326100Y0215210D01*
X0326100Y0217160D01*
X0325354Y0218962D01*
X0323974Y0220341D01*
X0322173Y0221087D01*
X0313018Y0221087D01*
X0311216Y0220341D01*
X0309837Y0218962D01*
X0309538Y0218240D01*
X0308364Y0218277D01*
X0308341Y0218300D01*
X0307623Y0218300D01*
X0306907Y0218323D01*
X0306883Y0218300D01*
X0306850Y0218300D01*
X0306342Y0217793D01*
X0305820Y0217302D01*
X0305818Y0217269D01*
X0294350Y0205800D01*
X0274528Y0205800D01*
X0274505Y0205856D01*
X0274018Y0206343D01*
X0274505Y0206829D01*
X0275035Y0208110D01*
X0275035Y0209496D01*
X0274505Y0210777D01*
X0273525Y0211757D01*
X0272244Y0212287D01*
X0271167Y0212287D01*
X0271167Y0224700D01*
X0309236Y0224700D01*
X0309837Y0223251D01*
X0311216Y0221872D01*
X0313018Y0221125D01*
X0322173Y0221125D01*
X0323974Y0221872D01*
X0325354Y0223251D01*
X0326100Y0225052D01*
X0326100Y0227003D01*
X0325354Y0228805D01*
X0323974Y0230184D01*
X0322173Y0230930D01*
X0313018Y0230930D01*
X0311216Y0230184D01*
X0309837Y0228805D01*
X0309628Y0228300D01*
X0228341Y0228300D01*
X0224395Y0232246D01*
X0224485Y0232156D02*
X0346256Y0232156D01*
X0346256Y0231158D02*
X0225483Y0231158D01*
X0226482Y0230159D02*
X0311191Y0230159D01*
X0310193Y0229161D02*
X0227480Y0229161D01*
X0227595Y0226500D02*
X0270095Y0226500D01*
X0269367Y0225772D01*
X0269367Y0208803D01*
X0270095Y0209000D01*
X0272489Y0212186D02*
X0300735Y0212186D01*
X0299737Y0211187D02*
X0274094Y0211187D01*
X0274748Y0210189D02*
X0298738Y0210189D01*
X0297740Y0209190D02*
X0275035Y0209190D01*
X0275035Y0208192D02*
X0296741Y0208192D01*
X0295743Y0207193D02*
X0274656Y0207193D01*
X0274166Y0206195D02*
X0294744Y0206195D01*
X0295095Y0204000D02*
X0270095Y0204000D01*
X0269367Y0203882D01*
X0274237Y0201202D02*
X0299752Y0201202D01*
X0300750Y0202201D02*
X0295841Y0202201D01*
X0296840Y0203199D02*
X0301749Y0203199D01*
X0302747Y0204198D02*
X0297839Y0204198D01*
X0298837Y0205196D02*
X0303746Y0205196D01*
X0304744Y0206195D02*
X0299836Y0206195D01*
X0300834Y0207193D02*
X0305743Y0207193D01*
X0306741Y0208192D02*
X0301833Y0208192D01*
X0302831Y0209190D02*
X0309908Y0209190D01*
X0310906Y0210189D02*
X0303830Y0210189D01*
X0304828Y0211187D02*
X0312879Y0211187D01*
X0311059Y0212186D02*
X0305827Y0212186D01*
X0306825Y0213184D02*
X0310060Y0213184D01*
X0309516Y0214183D02*
X0307824Y0214183D01*
X0307595Y0216500D02*
X0295095Y0204000D01*
X0300095Y0199000D02*
X0270095Y0199000D01*
X0269367Y0198961D01*
X0274308Y0196210D02*
X0309090Y0196210D01*
X0309090Y0195525D02*
X0309837Y0193723D01*
X0311216Y0192344D01*
X0313018Y0191598D01*
X0322173Y0191598D01*
X0323974Y0192344D01*
X0325354Y0193723D01*
X0326100Y0195525D01*
X0326100Y0197475D01*
X0325354Y0199277D01*
X0323974Y0200656D01*
X0322173Y0201402D01*
X0313018Y0201402D01*
X0311216Y0200656D01*
X0309837Y0199277D01*
X0309090Y0197475D01*
X0309090Y0195525D01*
X0309220Y0195211D02*
X0274837Y0195211D01*
X0275035Y0194213D02*
X0309634Y0194213D01*
X0310346Y0193214D02*
X0274981Y0193214D01*
X0274567Y0192216D02*
X0311526Y0192216D01*
X0312190Y0191217D02*
X0274379Y0191217D01*
X0274867Y0190219D02*
X0310621Y0190219D01*
X0311216Y0190813D02*
X0309837Y0189434D01*
X0309090Y0187633D01*
X0309090Y0185682D01*
X0309837Y0183881D01*
X0311216Y0182501D01*
X0313018Y0181755D01*
X0322173Y0181755D01*
X0323974Y0182501D01*
X0325354Y0183881D01*
X0326100Y0185682D01*
X0326100Y0187633D01*
X0325354Y0189434D01*
X0323974Y0190813D01*
X0322173Y0191560D01*
X0313018Y0191560D01*
X0311216Y0190813D01*
X0309748Y0189220D02*
X0275035Y0189220D01*
X0274951Y0188222D02*
X0309334Y0188222D01*
X0309090Y0187223D02*
X0274537Y0187223D01*
X0274451Y0186225D02*
X0309090Y0186225D01*
X0309279Y0185226D02*
X0274896Y0185226D01*
X0275035Y0184228D02*
X0309693Y0184228D01*
X0310488Y0183229D02*
X0274921Y0183229D01*
X0274508Y0182231D02*
X0311870Y0182231D01*
X0311846Y0181232D02*
X0273498Y0181232D01*
X0265235Y0181232D02*
X0033895Y0181232D01*
X0033895Y0180234D02*
X0310478Y0180234D01*
X0309837Y0179592D02*
X0309090Y0177790D01*
X0309090Y0175840D01*
X0309837Y0174038D01*
X0311216Y0172659D01*
X0313018Y0171913D01*
X0322173Y0171913D01*
X0323974Y0172659D01*
X0325354Y0174038D01*
X0326100Y0175840D01*
X0326100Y0177790D01*
X0325354Y0179592D01*
X0323974Y0180971D01*
X0322173Y0181717D01*
X0313018Y0181717D01*
X0311216Y0180971D01*
X0309837Y0179592D01*
X0309689Y0179235D02*
X0033895Y0179235D01*
X0033895Y0178237D02*
X0309275Y0178237D01*
X0309090Y0177238D02*
X0033895Y0177238D01*
X0033895Y0176239D02*
X0309090Y0176239D01*
X0309338Y0175241D02*
X0033895Y0175241D01*
X0033895Y0174242D02*
X0309752Y0174242D01*
X0310631Y0173244D02*
X0033895Y0173244D01*
X0033895Y0172245D02*
X0312214Y0172245D01*
X0322976Y0172245D02*
X0346256Y0172245D01*
X0346256Y0171247D02*
X0033895Y0171247D01*
X0033895Y0170248D02*
X0346256Y0170248D01*
X0346256Y0169250D02*
X0033895Y0169250D01*
X0033895Y0168251D02*
X0346256Y0168251D01*
X0346256Y0167253D02*
X0033895Y0167253D01*
X0033895Y0166254D02*
X0346256Y0166254D01*
X0346256Y0165256D02*
X0033895Y0165256D01*
X0033895Y0164257D02*
X0346256Y0164257D01*
X0346256Y0163259D02*
X0033895Y0163259D01*
X0033895Y0162260D02*
X0346256Y0162260D01*
X0346256Y0161262D02*
X0033895Y0161262D01*
X0033895Y0160263D02*
X0346256Y0160263D01*
X0346256Y0159265D02*
X0033895Y0159265D01*
X0033895Y0158266D02*
X0346256Y0158266D01*
X0346256Y0157268D02*
X0033895Y0157268D01*
X0033895Y0156269D02*
X0346256Y0156269D01*
X0346256Y0155271D02*
X0324202Y0155271D01*
X0323974Y0155499D02*
X0322173Y0156245D01*
X0313018Y0156245D01*
X0311216Y0155499D01*
X0309837Y0154119D01*
X0309090Y0152318D01*
X0309090Y0150367D01*
X0309837Y0148566D01*
X0311216Y0147186D01*
X0313018Y0146440D01*
X0322173Y0146440D01*
X0323974Y0147186D01*
X0325354Y0148566D01*
X0326100Y0150367D01*
X0326100Y0152318D01*
X0325354Y0154119D01*
X0323974Y0155499D01*
X0325201Y0154272D02*
X0346256Y0154272D01*
X0346256Y0153274D02*
X0325704Y0153274D01*
X0326100Y0152275D02*
X0346256Y0152275D01*
X0346256Y0151277D02*
X0326100Y0151277D01*
X0326063Y0150278D02*
X0346256Y0150278D01*
X0346256Y0149280D02*
X0325649Y0149280D01*
X0325069Y0148281D02*
X0346256Y0148281D01*
X0346256Y0147283D02*
X0324071Y0147283D01*
X0323974Y0145656D02*
X0322173Y0146402D01*
X0313018Y0146402D01*
X0311216Y0145656D01*
X0309837Y0144277D01*
X0309090Y0142475D01*
X0309090Y0140525D01*
X0309837Y0138723D01*
X0311216Y0137344D01*
X0313018Y0136598D01*
X0322173Y0136598D01*
X0323974Y0137344D01*
X0325354Y0138723D01*
X0326100Y0140525D01*
X0326100Y0142475D01*
X0325354Y0144277D01*
X0323974Y0145656D01*
X0324345Y0145286D02*
X0346256Y0145286D01*
X0346256Y0146284D02*
X0322458Y0146284D01*
X0325343Y0144287D02*
X0346256Y0144287D01*
X0346256Y0143289D02*
X0325763Y0143289D01*
X0326100Y0142290D02*
X0346256Y0142290D01*
X0346256Y0141292D02*
X0326100Y0141292D01*
X0326004Y0140293D02*
X0346256Y0140293D01*
X0346256Y0139295D02*
X0325590Y0139295D01*
X0324927Y0138296D02*
X0346256Y0138296D01*
X0346256Y0137298D02*
X0323862Y0137298D01*
X0322802Y0136299D02*
X0346256Y0136299D01*
X0346256Y0135301D02*
X0324487Y0135301D01*
X0323974Y0135813D02*
X0322173Y0136560D01*
X0313018Y0136560D01*
X0311216Y0135813D01*
X0309837Y0134434D01*
X0309090Y0132633D01*
X0309090Y0130682D01*
X0309837Y0128881D01*
X0311216Y0127501D01*
X0313018Y0126755D01*
X0322173Y0126755D01*
X0323974Y0127501D01*
X0325354Y0128881D01*
X0326100Y0130682D01*
X0326100Y0132633D01*
X0325354Y0134434D01*
X0323974Y0135813D01*
X0325408Y0134302D02*
X0346256Y0134302D01*
X0346256Y0133303D02*
X0325822Y0133303D01*
X0326100Y0132305D02*
X0346256Y0132305D01*
X0346256Y0131306D02*
X0326100Y0131306D01*
X0325945Y0130308D02*
X0346256Y0130308D01*
X0346256Y0129309D02*
X0325531Y0129309D01*
X0324784Y0128311D02*
X0346256Y0128311D01*
X0346256Y0127312D02*
X0323518Y0127312D01*
X0323147Y0126314D02*
X0346256Y0126314D01*
X0346256Y0125315D02*
X0324630Y0125315D01*
X0323974Y0125971D02*
X0322173Y0126717D01*
X0313018Y0126717D01*
X0311216Y0125971D01*
X0309837Y0124592D01*
X0309090Y0122790D01*
X0309090Y0120840D01*
X0309837Y0119038D01*
X0311216Y0117659D01*
X0313018Y0116913D01*
X0322173Y0116913D01*
X0323974Y0117659D01*
X0325354Y0119038D01*
X0326100Y0120840D01*
X0326100Y0122790D01*
X0325354Y0124592D01*
X0323974Y0125971D01*
X0325467Y0124317D02*
X0346256Y0124317D01*
X0346256Y0123318D02*
X0325881Y0123318D01*
X0326100Y0122320D02*
X0346256Y0122320D01*
X0346256Y0121321D02*
X0326100Y0121321D01*
X0325886Y0120323D02*
X0346256Y0120323D01*
X0346256Y0119324D02*
X0325472Y0119324D01*
X0324641Y0118326D02*
X0346256Y0118326D01*
X0346256Y0117327D02*
X0323174Y0117327D01*
X0312016Y0117327D02*
X0273174Y0117327D01*
X0273974Y0117659D02*
X0275354Y0119038D01*
X0276100Y0120840D01*
X0276100Y0122790D01*
X0275354Y0124592D01*
X0273974Y0125971D01*
X0272173Y0126717D01*
X0263018Y0126717D01*
X0261216Y0125971D01*
X0259837Y0124592D01*
X0259090Y0122790D01*
X0259090Y0120840D01*
X0259837Y0119038D01*
X0261216Y0117659D01*
X0263018Y0116913D01*
X0272173Y0116913D01*
X0273974Y0117659D01*
X0274641Y0118326D02*
X0310549Y0118326D01*
X0309718Y0119324D02*
X0275472Y0119324D01*
X0275886Y0120323D02*
X0309305Y0120323D01*
X0309090Y0121321D02*
X0276100Y0121321D01*
X0276100Y0122320D02*
X0309090Y0122320D01*
X0309309Y0123318D02*
X0275881Y0123318D01*
X0275467Y0124317D02*
X0309723Y0124317D01*
X0310560Y0125315D02*
X0274630Y0125315D01*
X0273147Y0126314D02*
X0312044Y0126314D01*
X0311672Y0127312D02*
X0273518Y0127312D01*
X0273974Y0127501D02*
X0275354Y0128881D01*
X0276100Y0130682D01*
X0276100Y0132633D01*
X0275354Y0134434D01*
X0273974Y0135813D01*
X0272173Y0136560D01*
X0263018Y0136560D01*
X0261216Y0135813D01*
X0259837Y0134434D01*
X0259090Y0132633D01*
X0259090Y0130682D01*
X0259837Y0128881D01*
X0261216Y0127501D01*
X0263018Y0126755D01*
X0272173Y0126755D01*
X0273974Y0127501D01*
X0274784Y0128311D02*
X0310406Y0128311D01*
X0309659Y0129309D02*
X0275531Y0129309D01*
X0275945Y0130308D02*
X0309245Y0130308D01*
X0309090Y0131306D02*
X0276100Y0131306D01*
X0276100Y0132305D02*
X0309090Y0132305D01*
X0309368Y0133303D02*
X0275822Y0133303D01*
X0275408Y0134302D02*
X0309782Y0134302D01*
X0310703Y0135301D02*
X0274487Y0135301D01*
X0272802Y0136299D02*
X0312388Y0136299D01*
X0311328Y0137298D02*
X0273862Y0137298D01*
X0273974Y0137344D02*
X0275354Y0138723D01*
X0276100Y0140525D01*
X0276100Y0142475D01*
X0275354Y0144277D01*
X0273974Y0145656D01*
X0272173Y0146402D01*
X0263018Y0146402D01*
X0261216Y0145656D01*
X0259837Y0144277D01*
X0259090Y0142475D01*
X0259090Y0140525D01*
X0259837Y0138723D01*
X0261216Y0137344D01*
X0263018Y0136598D01*
X0272173Y0136598D01*
X0273974Y0137344D01*
X0274927Y0138296D02*
X0310264Y0138296D01*
X0309600Y0139295D02*
X0275590Y0139295D01*
X0276004Y0140293D02*
X0309186Y0140293D01*
X0309090Y0141292D02*
X0276100Y0141292D01*
X0276100Y0142290D02*
X0309090Y0142290D01*
X0309427Y0143289D02*
X0275763Y0143289D01*
X0275343Y0144287D02*
X0309847Y0144287D01*
X0310845Y0145286D02*
X0274345Y0145286D01*
X0273974Y0147186D02*
X0275354Y0148566D01*
X0276100Y0150367D01*
X0276100Y0152318D01*
X0275354Y0154119D01*
X0273974Y0155499D01*
X0272173Y0156245D01*
X0263018Y0156245D01*
X0261216Y0155499D01*
X0259837Y0154119D01*
X0259090Y0152318D01*
X0259090Y0150367D01*
X0259837Y0148566D01*
X0261216Y0147186D01*
X0263018Y0146440D01*
X0272173Y0146440D01*
X0273974Y0147186D01*
X0274071Y0147283D02*
X0311120Y0147283D01*
X0310121Y0148281D02*
X0275069Y0148281D01*
X0275649Y0149280D02*
X0309541Y0149280D01*
X0309127Y0150278D02*
X0276063Y0150278D01*
X0276100Y0151277D02*
X0309090Y0151277D01*
X0309090Y0152275D02*
X0276100Y0152275D01*
X0275704Y0153274D02*
X0309486Y0153274D01*
X0309990Y0154272D02*
X0275201Y0154272D01*
X0274202Y0155271D02*
X0310988Y0155271D01*
X0312732Y0146284D02*
X0272458Y0146284D01*
X0262732Y0146284D02*
X0033895Y0146284D01*
X0033895Y0145286D02*
X0260845Y0145286D01*
X0259847Y0144287D02*
X0033895Y0144287D01*
X0033895Y0143289D02*
X0259427Y0143289D01*
X0259090Y0142290D02*
X0033895Y0142290D01*
X0033895Y0141292D02*
X0259090Y0141292D01*
X0259186Y0140293D02*
X0033895Y0140293D01*
X0033895Y0139295D02*
X0259600Y0139295D01*
X0260264Y0138296D02*
X0033895Y0138296D01*
X0033895Y0137298D02*
X0261328Y0137298D01*
X0262388Y0136299D02*
X0033895Y0136299D01*
X0033895Y0135301D02*
X0260703Y0135301D01*
X0259782Y0134302D02*
X0033895Y0134302D01*
X0033895Y0133303D02*
X0259368Y0133303D01*
X0259090Y0132305D02*
X0033895Y0132305D01*
X0033895Y0131306D02*
X0259090Y0131306D01*
X0259245Y0130308D02*
X0033895Y0130308D01*
X0033895Y0129309D02*
X0259659Y0129309D01*
X0260406Y0128311D02*
X0033895Y0128311D01*
X0033895Y0127312D02*
X0261672Y0127312D01*
X0262044Y0126314D02*
X0033895Y0126314D01*
X0033895Y0125315D02*
X0260560Y0125315D01*
X0259723Y0124317D02*
X0033895Y0124317D01*
X0033895Y0123318D02*
X0259309Y0123318D01*
X0259090Y0122320D02*
X0033895Y0122320D01*
X0033895Y0121321D02*
X0259090Y0121321D01*
X0259305Y0120323D02*
X0033895Y0120323D01*
X0033895Y0119324D02*
X0259718Y0119324D01*
X0260549Y0118326D02*
X0033895Y0118326D01*
X0033895Y0117327D02*
X0262016Y0117327D01*
X0262946Y0099866D02*
X0261666Y0099336D01*
X0260685Y0098356D01*
X0033895Y0098356D01*
X0033895Y0099354D02*
X0261710Y0099354D01*
X0262946Y0099866D02*
X0268701Y0099866D01*
X0269981Y0099336D01*
X0270962Y0098356D01*
X0270961Y0098356D02*
X0294230Y0098356D01*
X0293754Y0097879D02*
X0293008Y0096077D01*
X0293008Y0086922D01*
X0293754Y0085121D01*
X0295133Y0083742D01*
X0296935Y0082995D01*
X0298885Y0082995D01*
X0300687Y0083742D01*
X0302066Y0085121D01*
X0302812Y0086922D01*
X0302812Y0096077D01*
X0302066Y0097879D01*
X0300687Y0099258D01*
X0298885Y0100005D01*
X0296935Y0100005D01*
X0295133Y0099258D01*
X0293754Y0097879D01*
X0293538Y0097357D02*
X0271375Y0097357D01*
X0271492Y0097075D02*
X0270962Y0098356D01*
X0271492Y0097075D02*
X0271492Y0095689D01*
X0270962Y0094408D01*
X0270475Y0093921D01*
X0270962Y0093434D01*
X0271492Y0092154D01*
X0271492Y0090768D01*
X0270962Y0089487D01*
X0270475Y0089000D01*
X0270962Y0088513D01*
X0271492Y0087232D01*
X0271492Y0085846D01*
X0270962Y0084566D01*
X0270475Y0084079D01*
X0270962Y0083592D01*
X0271492Y0082311D01*
X0271492Y0080925D01*
X0270962Y0079644D01*
X0269981Y0078664D01*
X0268701Y0078134D01*
X0262946Y0078134D01*
X0261666Y0078664D01*
X0260685Y0079644D01*
X0260155Y0080925D01*
X0260155Y0082311D01*
X0260685Y0083592D01*
X0261172Y0084079D01*
X0260685Y0084566D01*
X0260155Y0085846D01*
X0260155Y0087232D01*
X0260685Y0088513D01*
X0261172Y0089000D01*
X0260685Y0089487D01*
X0260155Y0090768D01*
X0260155Y0092154D01*
X0260685Y0093434D01*
X0261172Y0093921D01*
X0260685Y0094408D01*
X0260155Y0095689D01*
X0260155Y0097075D01*
X0260685Y0098356D01*
X0260272Y0097357D02*
X0033895Y0097357D01*
X0033895Y0096359D02*
X0260155Y0096359D01*
X0260291Y0095360D02*
X0033895Y0095360D01*
X0033895Y0094362D02*
X0260732Y0094362D01*
X0260656Y0093363D02*
X0033895Y0093363D01*
X0033895Y0092365D02*
X0260242Y0092365D01*
X0260155Y0091366D02*
X0033895Y0091366D01*
X0033895Y0090368D02*
X0260321Y0090368D01*
X0260803Y0089369D02*
X0033895Y0089369D01*
X0033895Y0088370D02*
X0260626Y0088370D01*
X0260213Y0087372D02*
X0033895Y0087372D01*
X0033895Y0086373D02*
X0260155Y0086373D01*
X0260350Y0085375D02*
X0033895Y0085375D01*
X0033895Y0084376D02*
X0260875Y0084376D01*
X0260597Y0083378D02*
X0033895Y0083378D01*
X0033895Y0082379D02*
X0260183Y0082379D01*
X0260155Y0081381D02*
X0033895Y0081381D01*
X0033895Y0080382D02*
X0260380Y0080382D01*
X0260946Y0079384D02*
X0033895Y0079384D01*
X0033895Y0078385D02*
X0262339Y0078385D01*
X0269308Y0078385D02*
X0346256Y0078385D01*
X0346256Y0077387D02*
X0033895Y0077387D01*
X0033895Y0076388D02*
X0346256Y0076388D01*
X0346256Y0075390D02*
X0033895Y0075390D01*
X0033895Y0074391D02*
X0346256Y0074391D01*
X0346256Y0073393D02*
X0033895Y0073393D01*
X0033895Y0072394D02*
X0346256Y0072394D01*
X0346256Y0071396D02*
X0033895Y0071396D01*
X0033895Y0070397D02*
X0346256Y0070397D01*
X0346256Y0069399D02*
X0033895Y0069399D01*
X0033895Y0068400D02*
X0346256Y0068400D01*
X0346256Y0067402D02*
X0033895Y0067402D01*
X0033895Y0066403D02*
X0346256Y0066403D01*
X0346256Y0065405D02*
X0033895Y0065405D01*
X0033895Y0064406D02*
X0346256Y0064406D01*
X0346256Y0063408D02*
X0033895Y0063408D01*
X0033895Y0062409D02*
X0346256Y0062409D01*
X0346256Y0061411D02*
X0033895Y0061411D01*
X0033895Y0060412D02*
X0261387Y0060412D01*
X0261216Y0060341D02*
X0259837Y0058962D01*
X0259090Y0057160D01*
X0259090Y0055210D01*
X0259837Y0053408D01*
X0261216Y0052029D01*
X0263018Y0051283D01*
X0272173Y0051283D01*
X0273974Y0052029D01*
X0275354Y0053408D01*
X0276100Y0055210D01*
X0276100Y0057160D01*
X0275354Y0058962D01*
X0273974Y0060341D01*
X0272173Y0061087D01*
X0263018Y0061087D01*
X0261216Y0060341D01*
X0260288Y0059414D02*
X0033895Y0059414D01*
X0033895Y0058415D02*
X0259610Y0058415D01*
X0259197Y0057417D02*
X0033895Y0057417D01*
X0033895Y0056418D02*
X0259090Y0056418D01*
X0259090Y0055420D02*
X0033895Y0055420D01*
X0033895Y0054421D02*
X0259417Y0054421D01*
X0259831Y0053423D02*
X0033895Y0053423D01*
X0033895Y0052424D02*
X0260821Y0052424D01*
X0261216Y0050499D02*
X0259837Y0049119D01*
X0259090Y0047318D01*
X0259090Y0045367D01*
X0259837Y0043566D01*
X0261216Y0042186D01*
X0263018Y0041440D01*
X0272173Y0041440D01*
X0273974Y0042186D01*
X0275354Y0043566D01*
X0276100Y0045367D01*
X0276100Y0047318D01*
X0275354Y0049119D01*
X0273974Y0050499D01*
X0272173Y0051245D01*
X0263018Y0051245D01*
X0261216Y0050499D01*
X0261144Y0050427D02*
X0033895Y0050427D01*
X0033895Y0049429D02*
X0260146Y0049429D01*
X0259551Y0048430D02*
X0033895Y0048430D01*
X0033895Y0047432D02*
X0259138Y0047432D01*
X0259090Y0046433D02*
X0033895Y0046433D01*
X0033895Y0045434D02*
X0259090Y0045434D01*
X0259476Y0044436D02*
X0033895Y0044436D01*
X0033895Y0043437D02*
X0259965Y0043437D01*
X0260963Y0042439D02*
X0033895Y0042439D01*
X0033895Y0041440D02*
X0263017Y0041440D01*
X0263018Y0041402D02*
X0261216Y0040656D01*
X0259837Y0039277D01*
X0259090Y0037475D01*
X0259090Y0035525D01*
X0259837Y0033723D01*
X0261216Y0032344D01*
X0263018Y0031598D01*
X0272173Y0031598D01*
X0273974Y0032344D01*
X0275354Y0033723D01*
X0276100Y0035525D01*
X0276100Y0037475D01*
X0275354Y0039277D01*
X0273974Y0040656D01*
X0272173Y0041402D01*
X0263018Y0041402D01*
X0261002Y0040442D02*
X0033895Y0040442D01*
X0033895Y0039443D02*
X0260003Y0039443D01*
X0259492Y0038445D02*
X0033895Y0038445D01*
X0033895Y0037446D02*
X0259090Y0037446D01*
X0259090Y0036448D02*
X0033895Y0036448D01*
X0033895Y0035449D02*
X0259122Y0035449D01*
X0259535Y0034451D02*
X0033895Y0034451D01*
X0033895Y0033452D02*
X0260107Y0033452D01*
X0261106Y0032454D02*
X0033895Y0032454D01*
X0033895Y0031455D02*
X0262765Y0031455D01*
X0263018Y0031560D02*
X0261216Y0030813D01*
X0259837Y0029434D01*
X0259090Y0027633D01*
X0259090Y0025682D01*
X0259837Y0023881D01*
X0261216Y0022501D01*
X0263018Y0021755D01*
X0272173Y0021755D01*
X0273974Y0022501D01*
X0275354Y0023881D01*
X0276100Y0025682D01*
X0276100Y0027633D01*
X0275354Y0029434D01*
X0273974Y0030813D01*
X0272173Y0031560D01*
X0263018Y0031560D01*
X0260859Y0030457D02*
X0033895Y0030457D01*
X0033895Y0029458D02*
X0259861Y0029458D01*
X0259433Y0028460D02*
X0033895Y0028460D01*
X0033895Y0027461D02*
X0259090Y0027461D01*
X0259090Y0026463D02*
X0033895Y0026463D01*
X0033895Y0025464D02*
X0259181Y0025464D01*
X0259594Y0024466D02*
X0033895Y0024466D01*
X0033895Y0023467D02*
X0260250Y0023467D01*
X0261295Y0022469D02*
X0033895Y0022469D01*
X0033895Y0021470D02*
X0346256Y0021470D01*
X0346256Y0020472D02*
X0033895Y0020472D01*
X0033895Y0019473D02*
X0346256Y0019473D01*
X0346256Y0018475D02*
X0033895Y0018475D01*
X0033895Y0017476D02*
X0346256Y0017476D01*
X0346256Y0016478D02*
X0033895Y0016478D01*
X0033895Y0015479D02*
X0346256Y0015479D01*
X0346256Y0014481D02*
X0033895Y0014481D01*
X0033895Y0013482D02*
X0346256Y0013482D01*
X0346256Y0012484D02*
X0033895Y0012484D01*
X0033895Y0011485D02*
X0346256Y0011485D01*
X0346256Y0010487D02*
X0033895Y0010487D01*
X0033895Y0009488D02*
X0346256Y0009488D01*
X0346256Y0008490D02*
X0033895Y0008490D01*
X0033895Y0007491D02*
X0346256Y0007491D01*
X0346256Y0006493D02*
X0033895Y0006493D01*
X0033895Y0005494D02*
X0346256Y0005494D01*
X0346256Y0004496D02*
X0033895Y0004496D01*
X0033895Y0003497D02*
X0346256Y0003497D01*
X0346256Y0022469D02*
X0323895Y0022469D01*
X0323974Y0022501D02*
X0325354Y0023881D01*
X0326100Y0025682D01*
X0326100Y0027633D01*
X0325354Y0029434D01*
X0323974Y0030813D01*
X0322173Y0031560D01*
X0313018Y0031560D01*
X0311216Y0030813D01*
X0309837Y0029434D01*
X0309090Y0027633D01*
X0309090Y0025682D01*
X0309837Y0023881D01*
X0311216Y0022501D01*
X0313018Y0021755D01*
X0322173Y0021755D01*
X0323974Y0022501D01*
X0324940Y0023467D02*
X0346256Y0023467D01*
X0346256Y0024466D02*
X0325596Y0024466D01*
X0326010Y0025464D02*
X0346256Y0025464D01*
X0346256Y0026463D02*
X0326100Y0026463D01*
X0326100Y0027461D02*
X0346256Y0027461D01*
X0346256Y0028460D02*
X0325757Y0028460D01*
X0325330Y0029458D02*
X0346256Y0029458D01*
X0346256Y0030457D02*
X0324331Y0030457D01*
X0323974Y0032344D02*
X0325354Y0033723D01*
X0326100Y0035525D01*
X0326100Y0037475D01*
X0325354Y0039277D01*
X0323974Y0040656D01*
X0322173Y0041402D01*
X0313018Y0041402D01*
X0311216Y0040656D01*
X0309837Y0039277D01*
X0309090Y0037475D01*
X0309090Y0035525D01*
X0309837Y0033723D01*
X0311216Y0032344D01*
X0313018Y0031598D01*
X0322173Y0031598D01*
X0323974Y0032344D01*
X0324084Y0032454D02*
X0346256Y0032454D01*
X0346256Y0033452D02*
X0325083Y0033452D01*
X0325655Y0034451D02*
X0346256Y0034451D01*
X0346256Y0035449D02*
X0326069Y0035449D01*
X0326100Y0036448D02*
X0346256Y0036448D01*
X0346256Y0037446D02*
X0326100Y0037446D01*
X0325698Y0038445D02*
X0346256Y0038445D01*
X0346256Y0039443D02*
X0325187Y0039443D01*
X0324189Y0040442D02*
X0346256Y0040442D01*
X0346256Y0041440D02*
X0322173Y0041440D01*
X0323974Y0042186D01*
X0325354Y0043566D01*
X0326100Y0045367D01*
X0326100Y0047318D01*
X0325354Y0049119D01*
X0323974Y0050499D01*
X0322173Y0051245D01*
X0313018Y0051245D01*
X0311216Y0050499D01*
X0309837Y0049119D01*
X0309090Y0047318D01*
X0309090Y0045367D01*
X0309837Y0043566D01*
X0311216Y0042186D01*
X0313018Y0041440D01*
X0322173Y0041440D01*
X0324227Y0042439D02*
X0346256Y0042439D01*
X0346256Y0043437D02*
X0325225Y0043437D01*
X0325714Y0044436D02*
X0346256Y0044436D01*
X0346256Y0045434D02*
X0326100Y0045434D01*
X0326100Y0046433D02*
X0346256Y0046433D01*
X0346256Y0047432D02*
X0326053Y0047432D01*
X0325639Y0048430D02*
X0346256Y0048430D01*
X0346256Y0049429D02*
X0325044Y0049429D01*
X0324046Y0050427D02*
X0346256Y0050427D01*
X0346256Y0051426D02*
X0322518Y0051426D01*
X0322173Y0051283D02*
X0323974Y0052029D01*
X0325354Y0053408D01*
X0326100Y0055210D01*
X0326100Y0057160D01*
X0325354Y0058962D01*
X0323974Y0060341D01*
X0322173Y0061087D01*
X0313018Y0061087D01*
X0311216Y0060341D01*
X0309837Y0058962D01*
X0309090Y0057160D01*
X0309090Y0055210D01*
X0309837Y0053408D01*
X0311216Y0052029D01*
X0313018Y0051283D01*
X0322173Y0051283D01*
X0324370Y0052424D02*
X0346256Y0052424D01*
X0346256Y0053423D02*
X0325360Y0053423D01*
X0325773Y0054421D02*
X0346256Y0054421D01*
X0346256Y0055420D02*
X0326100Y0055420D01*
X0326100Y0056418D02*
X0346256Y0056418D01*
X0346256Y0057417D02*
X0325994Y0057417D01*
X0325580Y0058415D02*
X0346256Y0058415D01*
X0346256Y0059414D02*
X0324902Y0059414D01*
X0323803Y0060412D02*
X0346256Y0060412D01*
X0346256Y0079384D02*
X0270701Y0079384D01*
X0271267Y0080382D02*
X0346256Y0080382D01*
X0346256Y0081381D02*
X0271492Y0081381D01*
X0271464Y0082379D02*
X0346256Y0082379D01*
X0346256Y0083378D02*
X0329337Y0083378D01*
X0330215Y0083742D02*
X0331594Y0085121D01*
X0332340Y0086922D01*
X0332340Y0096077D01*
X0331594Y0097879D01*
X0330215Y0099258D01*
X0328413Y0100005D01*
X0326463Y0100005D01*
X0324661Y0099258D01*
X0323282Y0097879D01*
X0322535Y0096077D01*
X0322535Y0086922D01*
X0323282Y0085121D01*
X0324661Y0083742D01*
X0326463Y0082995D01*
X0328413Y0082995D01*
X0330215Y0083742D01*
X0330849Y0084376D02*
X0346256Y0084376D01*
X0346256Y0085375D02*
X0331699Y0085375D01*
X0332113Y0086373D02*
X0346256Y0086373D01*
X0346256Y0087372D02*
X0332340Y0087372D01*
X0332340Y0088370D02*
X0346256Y0088370D01*
X0346256Y0089369D02*
X0332340Y0089369D01*
X0332340Y0090368D02*
X0346256Y0090368D01*
X0346256Y0091366D02*
X0332340Y0091366D01*
X0332340Y0092365D02*
X0346256Y0092365D01*
X0346256Y0093363D02*
X0332340Y0093363D01*
X0332340Y0094362D02*
X0346256Y0094362D01*
X0346256Y0095360D02*
X0332340Y0095360D01*
X0332224Y0096359D02*
X0346256Y0096359D01*
X0346256Y0097357D02*
X0331810Y0097357D01*
X0331117Y0098356D02*
X0346256Y0098356D01*
X0346256Y0099354D02*
X0329984Y0099354D01*
X0324892Y0099354D02*
X0320141Y0099354D01*
X0320372Y0099258D02*
X0318570Y0100005D01*
X0316620Y0100005D01*
X0314818Y0099258D01*
X0313439Y0097879D01*
X0312693Y0096077D01*
X0312693Y0086922D01*
X0313439Y0085121D01*
X0314818Y0083742D01*
X0316620Y0082995D01*
X0318570Y0082995D01*
X0320372Y0083742D01*
X0321751Y0085121D01*
X0322497Y0086922D01*
X0322497Y0096077D01*
X0321751Y0097879D01*
X0320372Y0099258D01*
X0321275Y0098356D02*
X0323758Y0098356D01*
X0323065Y0097357D02*
X0321967Y0097357D01*
X0322381Y0096359D02*
X0322652Y0096359D01*
X0322535Y0095360D02*
X0322497Y0095360D01*
X0322497Y0094362D02*
X0322535Y0094362D01*
X0322497Y0093363D02*
X0322535Y0093363D01*
X0322497Y0092365D02*
X0322535Y0092365D01*
X0322497Y0091366D02*
X0322535Y0091366D01*
X0322497Y0090368D02*
X0322535Y0090368D01*
X0322497Y0089369D02*
X0322535Y0089369D01*
X0322497Y0088370D02*
X0322535Y0088370D01*
X0322497Y0087372D02*
X0322535Y0087372D01*
X0322763Y0086373D02*
X0322270Y0086373D01*
X0321856Y0085375D02*
X0323176Y0085375D01*
X0324026Y0084376D02*
X0321007Y0084376D01*
X0319494Y0083378D02*
X0325539Y0083378D01*
X0315696Y0083378D02*
X0309652Y0083378D01*
X0310530Y0083742D02*
X0311909Y0085121D01*
X0312655Y0086922D01*
X0312655Y0096077D01*
X0311909Y0097879D01*
X0310530Y0099258D01*
X0308728Y0100005D01*
X0306777Y0100005D01*
X0304976Y0099258D01*
X0303597Y0097879D01*
X0302850Y0096077D01*
X0302850Y0086922D01*
X0303597Y0085121D01*
X0304976Y0083742D01*
X0306777Y0082995D01*
X0308728Y0082995D01*
X0310530Y0083742D01*
X0311164Y0084376D02*
X0314183Y0084376D01*
X0313334Y0085375D02*
X0312014Y0085375D01*
X0312428Y0086373D02*
X0312920Y0086373D01*
X0312693Y0087372D02*
X0312655Y0087372D01*
X0312655Y0088370D02*
X0312693Y0088370D01*
X0312655Y0089369D02*
X0312693Y0089369D01*
X0312655Y0090368D02*
X0312693Y0090368D01*
X0312655Y0091366D02*
X0312693Y0091366D01*
X0312655Y0092365D02*
X0312693Y0092365D01*
X0312655Y0093363D02*
X0312693Y0093363D01*
X0312655Y0094362D02*
X0312693Y0094362D01*
X0312655Y0095360D02*
X0312693Y0095360D01*
X0312809Y0096359D02*
X0312539Y0096359D01*
X0312125Y0097357D02*
X0313223Y0097357D01*
X0313915Y0098356D02*
X0311432Y0098356D01*
X0310298Y0099354D02*
X0315049Y0099354D01*
X0305207Y0099354D02*
X0300456Y0099354D01*
X0301590Y0098356D02*
X0304073Y0098356D01*
X0303380Y0097357D02*
X0302282Y0097357D01*
X0302696Y0096359D02*
X0302967Y0096359D01*
X0302850Y0095360D02*
X0302812Y0095360D01*
X0302812Y0094362D02*
X0302850Y0094362D01*
X0302812Y0093363D02*
X0302850Y0093363D01*
X0302812Y0092365D02*
X0302850Y0092365D01*
X0302812Y0091366D02*
X0302850Y0091366D01*
X0302812Y0090368D02*
X0302850Y0090368D01*
X0302812Y0089369D02*
X0302850Y0089369D01*
X0302812Y0088370D02*
X0302850Y0088370D01*
X0302812Y0087372D02*
X0302850Y0087372D01*
X0303078Y0086373D02*
X0302585Y0086373D01*
X0302171Y0085375D02*
X0303491Y0085375D01*
X0304341Y0084376D02*
X0301322Y0084376D01*
X0299809Y0083378D02*
X0305854Y0083378D01*
X0296011Y0083378D02*
X0271050Y0083378D01*
X0270772Y0084376D02*
X0294498Y0084376D01*
X0293649Y0085375D02*
X0271297Y0085375D01*
X0271492Y0086373D02*
X0293235Y0086373D01*
X0293008Y0087372D02*
X0271434Y0087372D01*
X0271021Y0088370D02*
X0293008Y0088370D01*
X0293008Y0089369D02*
X0270844Y0089369D01*
X0271326Y0090368D02*
X0293008Y0090368D01*
X0293008Y0091366D02*
X0271492Y0091366D01*
X0271405Y0092365D02*
X0293008Y0092365D01*
X0293008Y0093363D02*
X0270991Y0093363D01*
X0270915Y0094362D02*
X0293008Y0094362D01*
X0293008Y0095360D02*
X0271356Y0095360D01*
X0271492Y0096359D02*
X0293124Y0096359D01*
X0295364Y0099354D02*
X0269937Y0099354D01*
X0273803Y0060412D02*
X0311388Y0060412D01*
X0310288Y0059414D02*
X0274902Y0059414D01*
X0275580Y0058415D02*
X0309610Y0058415D01*
X0309197Y0057417D02*
X0275994Y0057417D01*
X0276100Y0056418D02*
X0309090Y0056418D01*
X0309090Y0055420D02*
X0276100Y0055420D01*
X0275773Y0054421D02*
X0309417Y0054421D01*
X0309831Y0053423D02*
X0275360Y0053423D01*
X0274370Y0052424D02*
X0310821Y0052424D01*
X0311144Y0050427D02*
X0274046Y0050427D01*
X0275044Y0049429D02*
X0310146Y0049429D01*
X0309551Y0048430D02*
X0275639Y0048430D01*
X0276053Y0047432D02*
X0309138Y0047432D01*
X0309090Y0046433D02*
X0276100Y0046433D01*
X0276100Y0045434D02*
X0309090Y0045434D01*
X0309476Y0044436D02*
X0275714Y0044436D01*
X0275225Y0043437D02*
X0309965Y0043437D01*
X0310963Y0042439D02*
X0274227Y0042439D01*
X0274189Y0040442D02*
X0311002Y0040442D01*
X0310003Y0039443D02*
X0275187Y0039443D01*
X0275698Y0038445D02*
X0309492Y0038445D01*
X0309090Y0037446D02*
X0276100Y0037446D01*
X0276100Y0036448D02*
X0309090Y0036448D01*
X0309122Y0035449D02*
X0276069Y0035449D01*
X0275655Y0034451D02*
X0309535Y0034451D01*
X0310107Y0033452D02*
X0275083Y0033452D01*
X0274084Y0032454D02*
X0311106Y0032454D01*
X0312765Y0031455D02*
X0272425Y0031455D01*
X0274331Y0030457D02*
X0310859Y0030457D01*
X0309861Y0029458D02*
X0275330Y0029458D01*
X0275757Y0028460D02*
X0309433Y0028460D01*
X0309090Y0027461D02*
X0276100Y0027461D01*
X0276100Y0026463D02*
X0309090Y0026463D01*
X0309181Y0025464D02*
X0276010Y0025464D01*
X0275596Y0024466D02*
X0309594Y0024466D01*
X0310250Y0023467D02*
X0274940Y0023467D01*
X0273895Y0022469D02*
X0311295Y0022469D01*
X0322425Y0031455D02*
X0346256Y0031455D01*
X0313017Y0041440D02*
X0272173Y0041440D01*
X0272518Y0051426D02*
X0312673Y0051426D01*
X0346256Y0100353D02*
X0033895Y0100353D01*
X0033895Y0101351D02*
X0346256Y0101351D01*
X0346256Y0102350D02*
X0033895Y0102350D01*
X0033895Y0103348D02*
X0346256Y0103348D01*
X0346256Y0104347D02*
X0033895Y0104347D01*
X0033895Y0105345D02*
X0346256Y0105345D01*
X0346256Y0106344D02*
X0033895Y0106344D01*
X0033895Y0107342D02*
X0346256Y0107342D01*
X0346256Y0108341D02*
X0033895Y0108341D01*
X0033895Y0109339D02*
X0346256Y0109339D01*
X0346256Y0110338D02*
X0033895Y0110338D01*
X0033895Y0111336D02*
X0346256Y0111336D01*
X0346256Y0112335D02*
X0033895Y0112335D01*
X0033895Y0113333D02*
X0346256Y0113333D01*
X0346256Y0114332D02*
X0033895Y0114332D01*
X0033895Y0115330D02*
X0346256Y0115330D01*
X0346256Y0116329D02*
X0033895Y0116329D01*
X0033895Y0147283D02*
X0261120Y0147283D01*
X0260121Y0148281D02*
X0033895Y0148281D01*
X0033895Y0149280D02*
X0259541Y0149280D01*
X0259127Y0150278D02*
X0033895Y0150278D01*
X0033895Y0151277D02*
X0259090Y0151277D01*
X0259090Y0152275D02*
X0033895Y0152275D01*
X0033895Y0153274D02*
X0259486Y0153274D01*
X0259990Y0154272D02*
X0033895Y0154272D01*
X0033895Y0155271D02*
X0260988Y0155271D01*
X0264226Y0182231D02*
X0033895Y0182231D01*
X0033895Y0183229D02*
X0263812Y0183229D01*
X0263698Y0184228D02*
X0033895Y0184228D01*
X0033895Y0185226D02*
X0263838Y0185226D01*
X0264283Y0186225D02*
X0033895Y0186225D01*
X0033895Y0187223D02*
X0264196Y0187223D01*
X0263783Y0188222D02*
X0033895Y0188222D01*
X0033895Y0189220D02*
X0263698Y0189220D01*
X0263867Y0190219D02*
X0033895Y0190219D01*
X0033895Y0191217D02*
X0264354Y0191217D01*
X0264167Y0192216D02*
X0033895Y0192216D01*
X0033895Y0193214D02*
X0263753Y0193214D01*
X0263698Y0194213D02*
X0033895Y0194213D01*
X0033895Y0195211D02*
X0263897Y0195211D01*
X0264425Y0196210D02*
X0033895Y0196210D01*
X0033895Y0197208D02*
X0264137Y0197208D01*
X0263723Y0198207D02*
X0033895Y0198207D01*
X0033895Y0199205D02*
X0263698Y0199205D01*
X0263926Y0200204D02*
X0033895Y0200204D01*
X0033895Y0201202D02*
X0264497Y0201202D01*
X0264108Y0202201D02*
X0033895Y0202201D01*
X0033895Y0203199D02*
X0263698Y0203199D01*
X0263698Y0204198D02*
X0033895Y0204198D01*
X0033895Y0205196D02*
X0118853Y0205196D01*
X0119350Y0204700D02*
X0168341Y0204700D01*
X0171895Y0208254D01*
X0171895Y0213045D01*
X0172108Y0213134D01*
X0172595Y0213621D01*
X0173082Y0213134D01*
X0174363Y0212603D01*
X0175749Y0212603D01*
X0177029Y0213134D01*
X0177516Y0213621D01*
X0178003Y0213134D01*
X0179284Y0212603D01*
X0180670Y0212603D01*
X0181951Y0213134D01*
X0182438Y0213621D01*
X0182925Y0213134D01*
X0184205Y0212603D01*
X0185591Y0212603D01*
X0186872Y0213134D01*
X0187359Y0213621D01*
X0187846Y0213134D01*
X0189126Y0212603D01*
X0190513Y0212603D01*
X0191793Y0213134D01*
X0192773Y0214114D01*
X0193304Y0215394D01*
X0193304Y0221149D01*
X0192773Y0222430D01*
X0191793Y0223410D01*
X0190513Y0223940D01*
X0189126Y0223940D01*
X0187846Y0223410D01*
X0187359Y0222923D01*
X0186872Y0223410D01*
X0185591Y0223940D01*
X0184205Y0223940D01*
X0182925Y0223410D01*
X0182438Y0222923D01*
X0181951Y0223410D01*
X0181895Y0223433D01*
X0181895Y0224746D01*
X0180841Y0225800D01*
X0178341Y0228300D01*
X0125841Y0228300D01*
X0124395Y0229746D01*
X0124395Y0244746D01*
X0123341Y0245800D01*
X0120841Y0248300D01*
X0100841Y0248300D01*
X0099395Y0249746D01*
X0099395Y0251834D01*
X0100427Y0252261D01*
X0101834Y0253668D01*
X0102595Y0255505D01*
X0102595Y0257495D01*
X0101834Y0259332D01*
X0100427Y0260739D01*
X0098590Y0261500D01*
X0096601Y0261500D01*
X0094763Y0260739D01*
X0093356Y0259332D01*
X0092595Y0257495D01*
X0092595Y0255505D01*
X0093356Y0253668D01*
X0094763Y0252261D01*
X0095795Y0251834D01*
X0095795Y0248254D01*
X0098295Y0245754D01*
X0099350Y0244700D01*
X0119350Y0244700D01*
X0120795Y0243254D01*
X0120795Y0228254D01*
X0123295Y0225754D01*
X0124350Y0224700D01*
X0176850Y0224700D01*
X0178100Y0223450D01*
X0178003Y0223410D01*
X0177516Y0222923D01*
X0177029Y0223410D01*
X0175749Y0223940D01*
X0174363Y0223940D01*
X0173082Y0223410D01*
X0172595Y0222923D01*
X0172108Y0223410D01*
X0170828Y0223940D01*
X0169441Y0223940D01*
X0168161Y0223410D01*
X0167674Y0222923D01*
X0167187Y0223410D01*
X0165906Y0223940D01*
X0164520Y0223940D01*
X0163240Y0223410D01*
X0162753Y0222923D01*
X0162266Y0223410D01*
X0160985Y0223940D01*
X0159599Y0223940D01*
X0158318Y0223410D01*
X0157831Y0222923D01*
X0157344Y0223410D01*
X0156064Y0223940D01*
X0154678Y0223940D01*
X0153397Y0223410D01*
X0152417Y0222430D01*
X0151886Y0221149D01*
X0151886Y0215394D01*
X0152417Y0214114D01*
X0153397Y0213134D01*
X0154678Y0212603D01*
X0156064Y0212603D01*
X0157344Y0213134D01*
X0157831Y0213621D01*
X0158318Y0213134D01*
X0159599Y0212603D01*
X0160985Y0212603D01*
X0162266Y0213134D01*
X0162753Y0213621D01*
X0163240Y0213134D01*
X0164520Y0212603D01*
X0165906Y0212603D01*
X0167187Y0213134D01*
X0167674Y0213621D01*
X0168161Y0213134D01*
X0168295Y0213078D01*
X0168295Y0209746D01*
X0166850Y0208300D01*
X0120841Y0208300D01*
X0119395Y0209746D01*
X0119395Y0224746D01*
X0118341Y0225800D01*
X0115841Y0228300D01*
X0100841Y0228300D01*
X0099395Y0229746D01*
X0099395Y0231834D01*
X0100427Y0232261D01*
X0101834Y0233668D01*
X0102595Y0235505D01*
X0103356Y0233668D01*
X0104763Y0232261D01*
X0106601Y0231500D01*
X0108590Y0231500D01*
X0110427Y0232261D01*
X0111834Y0233668D01*
X0112595Y0235505D01*
X0112595Y0237495D01*
X0111834Y0239332D01*
X0110427Y0240739D01*
X0108590Y0241500D01*
X0106601Y0241500D01*
X0104763Y0240739D01*
X0103356Y0239332D01*
X0102595Y0237495D01*
X0102595Y0235505D01*
X0102595Y0237495D01*
X0101834Y0239332D01*
X0100427Y0240739D01*
X0098590Y0241500D01*
X0096601Y0241500D01*
X0094763Y0240739D01*
X0093356Y0239332D01*
X0092595Y0237495D01*
X0092595Y0235505D01*
X0093356Y0233668D01*
X0094763Y0232261D01*
X0095795Y0231834D01*
X0095795Y0228254D01*
X0098295Y0225754D01*
X0099350Y0224700D01*
X0114350Y0224700D01*
X0115795Y0223254D01*
X0115795Y0208254D01*
X0118295Y0205754D01*
X0119350Y0204700D01*
X0120095Y0206500D02*
X0167595Y0206500D01*
X0170095Y0209000D01*
X0170095Y0218232D01*
X0170135Y0218272D01*
X0172348Y0223170D02*
X0172842Y0223170D01*
X0175095Y0226500D02*
X0177595Y0226500D01*
X0180095Y0224000D01*
X0180095Y0218390D01*
X0179977Y0218272D01*
X0180095Y0219000D01*
X0182191Y0223170D02*
X0182684Y0223170D01*
X0181895Y0224168D02*
X0200795Y0224168D01*
X0200795Y0223170D02*
X0192033Y0223170D01*
X0192880Y0222171D02*
X0200795Y0222171D01*
X0200795Y0221172D02*
X0193294Y0221172D01*
X0193304Y0220174D02*
X0200795Y0220174D01*
X0200795Y0219175D02*
X0193304Y0219175D01*
X0193304Y0218177D02*
X0200795Y0218177D01*
X0200795Y0217178D02*
X0193304Y0217178D01*
X0193304Y0216180D02*
X0200795Y0216180D01*
X0200795Y0215181D02*
X0193216Y0215181D01*
X0192802Y0214183D02*
X0200795Y0214183D01*
X0200795Y0213184D02*
X0191844Y0213184D01*
X0187795Y0213184D02*
X0186923Y0213184D01*
X0182874Y0213184D02*
X0182002Y0213184D01*
X0177953Y0213184D02*
X0177080Y0213184D01*
X0173031Y0213184D02*
X0172159Y0213184D01*
X0171895Y0212186D02*
X0199580Y0212186D01*
X0199876Y0212481D02*
X0199114Y0211720D01*
X0199114Y0206280D01*
X0199876Y0205519D01*
X0205315Y0205519D01*
X0206076Y0206280D01*
X0206076Y0211720D01*
X0205315Y0212481D01*
X0204395Y0212481D01*
X0204395Y0225519D01*
X0205315Y0225519D01*
X0206076Y0226280D01*
X0206076Y0231720D01*
X0205315Y0232481D01*
X0199876Y0232481D01*
X0199114Y0231720D01*
X0199114Y0226280D01*
X0199876Y0225519D01*
X0200795Y0225519D01*
X0200795Y0212481D01*
X0199876Y0212481D01*
X0199114Y0211187D02*
X0171895Y0211187D01*
X0171895Y0210189D02*
X0199114Y0210189D01*
X0199114Y0209190D02*
X0171895Y0209190D01*
X0171833Y0208192D02*
X0199114Y0208192D01*
X0199114Y0207193D02*
X0170834Y0207193D01*
X0169836Y0206195D02*
X0199200Y0206195D01*
X0202595Y0209000D02*
X0202595Y0229000D01*
X0199114Y0229161D02*
X0124980Y0229161D01*
X0124395Y0230159D02*
X0199114Y0230159D01*
X0199114Y0231158D02*
X0167202Y0231158D01*
X0167078Y0231033D02*
X0168062Y0232017D01*
X0168595Y0233304D01*
X0168595Y0234696D01*
X0168062Y0235983D01*
X0167078Y0236967D01*
X0166895Y0237043D01*
X0166895Y0268254D01*
X0166895Y0269746D01*
X0153600Y0283041D01*
X0153600Y0284660D01*
X0152854Y0286462D01*
X0151474Y0287841D01*
X0149673Y0288587D01*
X0140518Y0288587D01*
X0138716Y0287841D01*
X0137337Y0286462D01*
X0136590Y0284660D01*
X0136590Y0282710D01*
X0137337Y0280908D01*
X0138716Y0279529D01*
X0140518Y0278783D01*
X0149673Y0278783D01*
X0151474Y0279529D01*
X0151748Y0279802D01*
X0163295Y0268254D01*
X0163295Y0237043D01*
X0163113Y0236967D01*
X0162128Y0235983D01*
X0161595Y0234696D01*
X0161595Y0233304D01*
X0162128Y0232017D01*
X0163113Y0231033D01*
X0164399Y0230500D01*
X0165791Y0230500D01*
X0167078Y0231033D01*
X0168120Y0232156D02*
X0199551Y0232156D01*
X0199114Y0228162D02*
X0178479Y0228162D01*
X0179477Y0227164D02*
X0199114Y0227164D01*
X0199229Y0226165D02*
X0180476Y0226165D01*
X0181474Y0225167D02*
X0200795Y0225167D01*
X0204395Y0225167D02*
X0226383Y0225167D01*
X0225384Y0226165D02*
X0205961Y0226165D01*
X0206076Y0227164D02*
X0224386Y0227164D01*
X0223387Y0228162D02*
X0206076Y0228162D01*
X0206076Y0229161D02*
X0222389Y0229161D01*
X0221390Y0230159D02*
X0206076Y0230159D01*
X0206076Y0231158D02*
X0220795Y0231158D01*
X0220795Y0232156D02*
X0205640Y0232156D01*
X0204395Y0224168D02*
X0267567Y0224168D01*
X0267567Y0223170D02*
X0204395Y0223170D01*
X0204395Y0222171D02*
X0267567Y0222171D01*
X0267567Y0221172D02*
X0204395Y0221172D01*
X0204395Y0220174D02*
X0267567Y0220174D01*
X0267567Y0219175D02*
X0204395Y0219175D01*
X0204395Y0218177D02*
X0267567Y0218177D01*
X0267567Y0217178D02*
X0204395Y0217178D01*
X0204395Y0216180D02*
X0267567Y0216180D01*
X0267567Y0215181D02*
X0204395Y0215181D01*
X0204395Y0214183D02*
X0267567Y0214183D01*
X0267567Y0213184D02*
X0204395Y0213184D01*
X0205610Y0212186D02*
X0266244Y0212186D01*
X0264639Y0211187D02*
X0206076Y0211187D01*
X0206076Y0210189D02*
X0263985Y0210189D01*
X0263698Y0209190D02*
X0206076Y0209190D01*
X0206076Y0208192D02*
X0263698Y0208192D01*
X0264078Y0207193D02*
X0206076Y0207193D01*
X0205991Y0206195D02*
X0264568Y0206195D01*
X0263956Y0205196D02*
X0168837Y0205196D01*
X0167740Y0209190D02*
X0119950Y0209190D01*
X0119395Y0210189D02*
X0168295Y0210189D01*
X0168295Y0211187D02*
X0119395Y0211187D01*
X0119395Y0212186D02*
X0168295Y0212186D01*
X0168110Y0213184D02*
X0167238Y0213184D01*
X0163189Y0213184D02*
X0162316Y0213184D01*
X0158268Y0213184D02*
X0157395Y0213184D01*
X0153346Y0213184D02*
X0119395Y0213184D01*
X0119395Y0214183D02*
X0152388Y0214183D01*
X0151975Y0215181D02*
X0119395Y0215181D01*
X0119395Y0216180D02*
X0151886Y0216180D01*
X0151886Y0217178D02*
X0119395Y0217178D01*
X0119395Y0218177D02*
X0151886Y0218177D01*
X0151886Y0219175D02*
X0119395Y0219175D01*
X0119395Y0220174D02*
X0151886Y0220174D01*
X0151896Y0221172D02*
X0119395Y0221172D01*
X0119395Y0222171D02*
X0152310Y0222171D01*
X0153157Y0223170D02*
X0119395Y0223170D01*
X0119395Y0224168D02*
X0177382Y0224168D01*
X0177270Y0223170D02*
X0177763Y0223170D01*
X0175095Y0226500D02*
X0125095Y0226500D01*
X0122595Y0229000D01*
X0122595Y0244000D01*
X0120095Y0246500D01*
X0100095Y0246500D01*
X0097595Y0249000D01*
X0097595Y0256500D01*
X0095666Y0261113D02*
X0089524Y0261113D01*
X0090427Y0260739D02*
X0088590Y0261500D01*
X0086601Y0261500D01*
X0084763Y0260739D01*
X0083356Y0259332D01*
X0082595Y0257495D01*
X0082595Y0255505D01*
X0083356Y0253668D01*
X0084763Y0252261D01*
X0086601Y0251500D01*
X0088590Y0251500D01*
X0090427Y0252261D01*
X0091834Y0253668D01*
X0092595Y0255505D01*
X0092595Y0257495D01*
X0091834Y0259332D01*
X0090427Y0260739D01*
X0091052Y0260114D02*
X0094139Y0260114D01*
X0093267Y0259116D02*
X0091924Y0259116D01*
X0092337Y0258117D02*
X0092853Y0258117D01*
X0092595Y0257119D02*
X0092595Y0257119D01*
X0092595Y0256120D02*
X0092595Y0256120D01*
X0092436Y0255122D02*
X0092754Y0255122D01*
X0093168Y0254123D02*
X0092023Y0254123D01*
X0091291Y0253125D02*
X0093899Y0253125D01*
X0095088Y0252126D02*
X0090102Y0252126D01*
X0085088Y0252126D02*
X0033895Y0252126D01*
X0033895Y0251128D02*
X0095795Y0251128D01*
X0095795Y0250129D02*
X0033895Y0250129D01*
X0033895Y0249131D02*
X0095795Y0249131D01*
X0095917Y0248132D02*
X0033895Y0248132D01*
X0033895Y0247134D02*
X0096916Y0247134D01*
X0097914Y0246135D02*
X0033895Y0246135D01*
X0033895Y0245137D02*
X0098913Y0245137D01*
X0099452Y0241143D02*
X0105738Y0241143D01*
X0104168Y0240144D02*
X0101022Y0240144D01*
X0101911Y0239146D02*
X0103279Y0239146D01*
X0102865Y0238147D02*
X0102325Y0238147D01*
X0102595Y0237149D02*
X0102595Y0237149D01*
X0102595Y0236150D02*
X0102595Y0236150D01*
X0102449Y0235152D02*
X0102742Y0235152D01*
X0103155Y0234153D02*
X0102035Y0234153D01*
X0101321Y0233155D02*
X0103869Y0233155D01*
X0105017Y0232156D02*
X0100174Y0232156D01*
X0099395Y0231158D02*
X0120795Y0231158D01*
X0120795Y0232156D02*
X0110174Y0232156D01*
X0111321Y0233155D02*
X0120795Y0233155D01*
X0120795Y0234153D02*
X0112035Y0234153D01*
X0112449Y0235152D02*
X0120795Y0235152D01*
X0120795Y0236150D02*
X0112595Y0236150D01*
X0112595Y0237149D02*
X0120795Y0237149D01*
X0120795Y0238147D02*
X0112325Y0238147D01*
X0111911Y0239146D02*
X0120795Y0239146D01*
X0120795Y0240144D02*
X0111022Y0240144D01*
X0109452Y0241143D02*
X0120795Y0241143D01*
X0120795Y0242141D02*
X0033895Y0242141D01*
X0033895Y0241143D02*
X0085738Y0241143D01*
X0086601Y0241500D02*
X0084763Y0240739D01*
X0083356Y0239332D01*
X0082595Y0237495D01*
X0082595Y0235505D01*
X0083356Y0233668D01*
X0084763Y0232261D01*
X0086601Y0231500D01*
X0088590Y0231500D01*
X0090427Y0232261D01*
X0091834Y0233668D01*
X0092595Y0235505D01*
X0092595Y0237495D01*
X0091834Y0239332D01*
X0090427Y0240739D01*
X0088590Y0241500D01*
X0086601Y0241500D01*
X0084168Y0240144D02*
X0033895Y0240144D01*
X0033895Y0239146D02*
X0083279Y0239146D01*
X0082865Y0238147D02*
X0033895Y0238147D01*
X0033895Y0237149D02*
X0082595Y0237149D01*
X0082595Y0236150D02*
X0033895Y0236150D01*
X0033895Y0235152D02*
X0082742Y0235152D01*
X0083155Y0234153D02*
X0033895Y0234153D01*
X0033895Y0233155D02*
X0083869Y0233155D01*
X0085017Y0232156D02*
X0033895Y0232156D01*
X0033895Y0231158D02*
X0095795Y0231158D01*
X0095795Y0230159D02*
X0033895Y0230159D01*
X0033895Y0229161D02*
X0095795Y0229161D01*
X0095887Y0228162D02*
X0033895Y0228162D01*
X0033895Y0227164D02*
X0096886Y0227164D01*
X0097884Y0226165D02*
X0033895Y0226165D01*
X0033895Y0225167D02*
X0098883Y0225167D01*
X0100095Y0226500D02*
X0115095Y0226500D01*
X0117595Y0224000D01*
X0117595Y0209000D01*
X0120095Y0206500D01*
X0117855Y0206195D02*
X0033895Y0206195D01*
X0033895Y0207193D02*
X0116856Y0207193D01*
X0115858Y0208192D02*
X0033895Y0208192D01*
X0033895Y0209190D02*
X0115795Y0209190D01*
X0115795Y0210189D02*
X0033895Y0210189D01*
X0033895Y0211187D02*
X0115795Y0211187D01*
X0115795Y0212186D02*
X0110246Y0212186D01*
X0110427Y0212261D02*
X0111834Y0213668D01*
X0112595Y0215505D01*
X0112595Y0217495D01*
X0111834Y0219332D01*
X0110427Y0220739D01*
X0108590Y0221500D01*
X0106601Y0221500D01*
X0104763Y0220739D01*
X0103356Y0219332D01*
X0102595Y0217495D01*
X0102595Y0215505D01*
X0103356Y0213668D01*
X0104763Y0212261D01*
X0106601Y0211500D01*
X0108590Y0211500D01*
X0110427Y0212261D01*
X0111351Y0213184D02*
X0115795Y0213184D01*
X0115795Y0214183D02*
X0112047Y0214183D01*
X0112461Y0215181D02*
X0115795Y0215181D01*
X0115795Y0216180D02*
X0112595Y0216180D01*
X0112595Y0217178D02*
X0115795Y0217178D01*
X0115795Y0218177D02*
X0112312Y0218177D01*
X0111899Y0219175D02*
X0115795Y0219175D01*
X0115795Y0220174D02*
X0110992Y0220174D01*
X0109380Y0221172D02*
X0115795Y0221172D01*
X0115795Y0222171D02*
X0033895Y0222171D01*
X0033895Y0223170D02*
X0115795Y0223170D01*
X0114882Y0224168D02*
X0033895Y0224168D01*
X0033895Y0221172D02*
X0085810Y0221172D01*
X0086601Y0221500D02*
X0084763Y0220739D01*
X0083356Y0219332D01*
X0082595Y0217495D01*
X0082595Y0215505D01*
X0083356Y0213668D01*
X0084763Y0212261D01*
X0086601Y0211500D01*
X0088590Y0211500D01*
X0090427Y0212261D01*
X0091834Y0213668D01*
X0092595Y0215505D01*
X0093356Y0213668D01*
X0094763Y0212261D01*
X0096601Y0211500D01*
X0098590Y0211500D01*
X0100427Y0212261D01*
X0101834Y0213668D01*
X0102595Y0215505D01*
X0102595Y0217495D01*
X0101834Y0219332D01*
X0100427Y0220739D01*
X0098590Y0221500D01*
X0096601Y0221500D01*
X0094763Y0220739D01*
X0093356Y0219332D01*
X0092595Y0217495D01*
X0092595Y0215505D01*
X0092595Y0217495D01*
X0091834Y0219332D01*
X0090427Y0220739D01*
X0088590Y0221500D01*
X0086601Y0221500D01*
X0084198Y0220174D02*
X0033895Y0220174D01*
X0033895Y0219175D02*
X0083291Y0219175D01*
X0082878Y0218177D02*
X0033895Y0218177D01*
X0033895Y0217178D02*
X0082595Y0217178D01*
X0082595Y0216180D02*
X0033895Y0216180D01*
X0033895Y0215181D02*
X0082729Y0215181D01*
X0083143Y0214183D02*
X0033895Y0214183D01*
X0033895Y0213184D02*
X0083840Y0213184D01*
X0084945Y0212186D02*
X0033895Y0212186D01*
X0033895Y0243140D02*
X0120795Y0243140D01*
X0119911Y0244138D02*
X0033895Y0244138D01*
X0033895Y0253125D02*
X0083899Y0253125D01*
X0083168Y0254123D02*
X0033895Y0254123D01*
X0033895Y0255122D02*
X0082754Y0255122D01*
X0082595Y0256120D02*
X0033895Y0256120D01*
X0033895Y0257119D02*
X0082595Y0257119D01*
X0082853Y0258117D02*
X0033895Y0258117D01*
X0033895Y0259116D02*
X0083267Y0259116D01*
X0084139Y0260114D02*
X0033895Y0260114D01*
X0033895Y0261113D02*
X0085666Y0261113D01*
X0099524Y0261113D02*
X0105666Y0261113D01*
X0104763Y0260739D02*
X0103356Y0259332D01*
X0102595Y0257495D01*
X0102595Y0255505D01*
X0103356Y0253668D01*
X0104763Y0252261D01*
X0106601Y0251500D01*
X0108590Y0251500D01*
X0110427Y0252261D01*
X0111834Y0253668D01*
X0112595Y0255505D01*
X0112595Y0257495D01*
X0111834Y0259332D01*
X0110427Y0260739D01*
X0108590Y0261500D01*
X0106601Y0261500D01*
X0104763Y0260739D01*
X0104139Y0260114D02*
X0101052Y0260114D01*
X0101924Y0259116D02*
X0103267Y0259116D01*
X0102853Y0258117D02*
X0102337Y0258117D01*
X0102595Y0257119D02*
X0102595Y0257119D01*
X0102595Y0256120D02*
X0102595Y0256120D01*
X0102436Y0255122D02*
X0102754Y0255122D01*
X0103168Y0254123D02*
X0102023Y0254123D01*
X0101291Y0253125D02*
X0103899Y0253125D01*
X0105088Y0252126D02*
X0100102Y0252126D01*
X0099395Y0251128D02*
X0137589Y0251128D01*
X0137337Y0251381D02*
X0138716Y0250001D01*
X0140518Y0249255D01*
X0149673Y0249255D01*
X0151474Y0250001D01*
X0152854Y0251381D01*
X0153600Y0253182D01*
X0153600Y0255133D01*
X0152854Y0256934D01*
X0151474Y0258313D01*
X0149673Y0259060D01*
X0140518Y0259060D01*
X0138716Y0258313D01*
X0137337Y0256934D01*
X0136590Y0255133D01*
X0136590Y0253182D01*
X0137337Y0251381D01*
X0137028Y0252126D02*
X0110102Y0252126D01*
X0111291Y0253125D02*
X0136614Y0253125D01*
X0136590Y0254123D02*
X0112023Y0254123D01*
X0112436Y0255122D02*
X0136590Y0255122D01*
X0137000Y0256120D02*
X0112595Y0256120D01*
X0112595Y0257119D02*
X0137521Y0257119D01*
X0138520Y0258117D02*
X0112337Y0258117D01*
X0111924Y0259116D02*
X0140473Y0259116D01*
X0140518Y0259098D02*
X0149673Y0259098D01*
X0151474Y0259844D01*
X0152854Y0261223D01*
X0153600Y0263025D01*
X0153600Y0264975D01*
X0152854Y0266777D01*
X0151474Y0268156D01*
X0149673Y0268902D01*
X0140518Y0268902D01*
X0138716Y0268156D01*
X0137337Y0266777D01*
X0136590Y0264975D01*
X0136590Y0263025D01*
X0137337Y0261223D01*
X0138716Y0259844D01*
X0140518Y0259098D01*
X0138445Y0260114D02*
X0111052Y0260114D01*
X0109524Y0261113D02*
X0137447Y0261113D01*
X0136969Y0262111D02*
X0033895Y0262111D01*
X0033895Y0263110D02*
X0136590Y0263110D01*
X0136590Y0264108D02*
X0033895Y0264108D01*
X0033895Y0265107D02*
X0136645Y0265107D01*
X0137059Y0266105D02*
X0033895Y0266105D01*
X0033895Y0267104D02*
X0137664Y0267104D01*
X0138662Y0268103D02*
X0033895Y0268103D01*
X0033895Y0269101D02*
X0140129Y0269101D01*
X0140518Y0268940D02*
X0149673Y0268940D01*
X0151474Y0269686D01*
X0152854Y0271066D01*
X0153600Y0272867D01*
X0153600Y0274818D01*
X0152854Y0276619D01*
X0151474Y0277999D01*
X0149673Y0278745D01*
X0140518Y0278745D01*
X0138716Y0277999D01*
X0137337Y0276619D01*
X0136590Y0274818D01*
X0136590Y0272867D01*
X0137337Y0271066D01*
X0138716Y0269686D01*
X0140518Y0268940D01*
X0138303Y0270100D02*
X0033895Y0270100D01*
X0033895Y0271098D02*
X0137323Y0271098D01*
X0136910Y0272097D02*
X0070030Y0272097D01*
X0070427Y0272261D02*
X0071834Y0273668D01*
X0072595Y0275505D01*
X0072595Y0277495D01*
X0071834Y0279332D01*
X0070427Y0280739D01*
X0068590Y0281500D01*
X0066601Y0281500D01*
X0064763Y0280739D01*
X0063356Y0279332D01*
X0062595Y0277495D01*
X0062595Y0275505D01*
X0063356Y0273668D01*
X0064763Y0272261D01*
X0066601Y0271500D01*
X0068590Y0271500D01*
X0070427Y0272261D01*
X0071261Y0273095D02*
X0136590Y0273095D01*
X0136590Y0274094D02*
X0072010Y0274094D01*
X0072424Y0275092D02*
X0136704Y0275092D01*
X0137118Y0276091D02*
X0072595Y0276091D01*
X0072595Y0277089D02*
X0137806Y0277089D01*
X0138931Y0278088D02*
X0072349Y0278088D01*
X0071936Y0279086D02*
X0139785Y0279086D01*
X0138160Y0280085D02*
X0071082Y0280085D01*
X0069596Y0281083D02*
X0137264Y0281083D01*
X0136851Y0282082D02*
X0033895Y0282082D01*
X0033895Y0283080D02*
X0136590Y0283080D01*
X0136590Y0284079D02*
X0033895Y0284079D01*
X0033895Y0285077D02*
X0136763Y0285077D01*
X0137177Y0286076D02*
X0033895Y0286076D01*
X0033895Y0287074D02*
X0137949Y0287074D01*
X0139275Y0288073D02*
X0033895Y0288073D01*
X0033895Y0289071D02*
X0178153Y0289071D01*
X0178008Y0289422D02*
X0178754Y0287621D01*
X0180133Y0286242D01*
X0180795Y0285967D01*
X0180795Y0284963D01*
X0174550Y0280800D01*
X0174350Y0280800D01*
X0173948Y0280399D01*
X0173476Y0280084D01*
X0173437Y0279887D01*
X0173295Y0279746D01*
X0173295Y0279178D01*
X0173184Y0278622D01*
X0173295Y0278455D01*
X0173295Y0247043D01*
X0173113Y0246967D01*
X0172128Y0245983D01*
X0171595Y0244696D01*
X0171595Y0243304D01*
X0172128Y0242017D01*
X0173113Y0241033D01*
X0174399Y0240500D01*
X0175791Y0240500D01*
X0177078Y0241033D01*
X0178062Y0242017D01*
X0178533Y0243154D01*
X0178754Y0242621D01*
X0180133Y0241242D01*
X0181935Y0240495D01*
X0183885Y0240495D01*
X0185687Y0241242D01*
X0187066Y0242621D01*
X0187812Y0244422D01*
X0187812Y0253577D01*
X0187066Y0255379D01*
X0185687Y0256758D01*
X0183885Y0257505D01*
X0181935Y0257505D01*
X0180133Y0256758D01*
X0178754Y0255379D01*
X0178008Y0253577D01*
X0178008Y0246037D01*
X0177078Y0246967D01*
X0176895Y0247043D01*
X0176895Y0278037D01*
X0183140Y0282200D01*
X0183341Y0282200D01*
X0183742Y0282601D01*
X0184214Y0282916D01*
X0184253Y0283113D01*
X0184395Y0283254D01*
X0184395Y0283822D01*
X0184506Y0284378D01*
X0184395Y0284545D01*
X0184395Y0285706D01*
X0185687Y0286242D01*
X0187066Y0287621D01*
X0187812Y0289422D01*
X0187812Y0298577D01*
X0187066Y0300379D01*
X0185687Y0301758D01*
X0183885Y0302505D01*
X0181935Y0302505D01*
X0180133Y0301758D01*
X0178754Y0300379D01*
X0178008Y0298577D01*
X0178008Y0289422D01*
X0178008Y0290070D02*
X0033895Y0290070D01*
X0033895Y0291068D02*
X0178008Y0291068D01*
X0178008Y0292067D02*
X0067726Y0292067D01*
X0067644Y0291985D02*
X0068910Y0293251D01*
X0069595Y0294905D01*
X0069595Y0303095D01*
X0068910Y0304749D01*
X0067644Y0306015D01*
X0065990Y0306700D01*
X0064200Y0306700D01*
X0062546Y0306015D01*
X0061280Y0304749D01*
X0060595Y0303095D01*
X0060595Y0294905D01*
X0061280Y0293251D01*
X0062546Y0291985D01*
X0064200Y0291300D01*
X0065990Y0291300D01*
X0067644Y0291985D01*
X0068724Y0293065D02*
X0178008Y0293065D01*
X0178008Y0294064D02*
X0069247Y0294064D01*
X0069595Y0295062D02*
X0178008Y0295062D01*
X0178008Y0296061D02*
X0069595Y0296061D01*
X0069595Y0297059D02*
X0178008Y0297059D01*
X0178008Y0298058D02*
X0069595Y0298058D01*
X0069595Y0299056D02*
X0178206Y0299056D01*
X0178620Y0300055D02*
X0069595Y0300055D01*
X0069595Y0301053D02*
X0179428Y0301053D01*
X0180842Y0302052D02*
X0069595Y0302052D01*
X0069595Y0303050D02*
X0220795Y0303050D01*
X0220795Y0302052D02*
X0214506Y0302052D01*
X0215215Y0301758D02*
X0213413Y0302505D01*
X0211463Y0302505D01*
X0209661Y0301758D01*
X0208282Y0300379D01*
X0207535Y0298577D01*
X0207535Y0289422D01*
X0208282Y0287621D01*
X0209661Y0286242D01*
X0211463Y0285495D01*
X0213413Y0285495D01*
X0215215Y0286242D01*
X0216594Y0287621D01*
X0217340Y0289422D01*
X0217340Y0298577D01*
X0216594Y0300379D01*
X0215215Y0301758D01*
X0215920Y0301053D02*
X0220795Y0301053D01*
X0220795Y0300055D02*
X0216728Y0300055D01*
X0217142Y0299056D02*
X0220795Y0299056D01*
X0220795Y0298058D02*
X0217340Y0298058D01*
X0217340Y0297059D02*
X0220795Y0297059D01*
X0220795Y0296061D02*
X0217340Y0296061D01*
X0217340Y0295062D02*
X0220795Y0295062D01*
X0220795Y0294064D02*
X0217340Y0294064D01*
X0217340Y0293065D02*
X0220795Y0293065D01*
X0220795Y0292067D02*
X0217340Y0292067D01*
X0217340Y0291068D02*
X0220795Y0291068D01*
X0220795Y0290070D02*
X0217340Y0290070D01*
X0217195Y0289071D02*
X0220795Y0289071D01*
X0220795Y0288073D02*
X0216781Y0288073D01*
X0216047Y0287074D02*
X0220795Y0287074D01*
X0220795Y0286076D02*
X0214814Y0286076D01*
X0210061Y0286076D02*
X0204972Y0286076D01*
X0205372Y0286242D02*
X0206751Y0287621D01*
X0207497Y0289422D01*
X0207497Y0298577D01*
X0206751Y0300379D01*
X0205372Y0301758D01*
X0203570Y0302505D01*
X0201620Y0302505D01*
X0199818Y0301758D01*
X0198439Y0300379D01*
X0197693Y0298577D01*
X0197693Y0289422D01*
X0198439Y0287621D01*
X0199818Y0286242D01*
X0201620Y0285495D01*
X0203570Y0285495D01*
X0205372Y0286242D01*
X0206205Y0287074D02*
X0208828Y0287074D01*
X0208094Y0288073D02*
X0206938Y0288073D01*
X0207352Y0289071D02*
X0207681Y0289071D01*
X0207535Y0290070D02*
X0207497Y0290070D01*
X0207497Y0291068D02*
X0207535Y0291068D01*
X0207497Y0292067D02*
X0207535Y0292067D01*
X0207497Y0293065D02*
X0207535Y0293065D01*
X0207497Y0294064D02*
X0207535Y0294064D01*
X0207497Y0295062D02*
X0207535Y0295062D01*
X0207497Y0296061D02*
X0207535Y0296061D01*
X0207497Y0297059D02*
X0207535Y0297059D01*
X0207497Y0298058D02*
X0207535Y0298058D01*
X0207734Y0299056D02*
X0207299Y0299056D01*
X0206886Y0300055D02*
X0208147Y0300055D01*
X0208956Y0301053D02*
X0206077Y0301053D01*
X0204663Y0302052D02*
X0210369Y0302052D01*
X0200527Y0302052D02*
X0194821Y0302052D01*
X0195530Y0301758D02*
X0193728Y0302505D01*
X0191777Y0302505D01*
X0189976Y0301758D01*
X0188597Y0300379D01*
X0187850Y0298577D01*
X0187850Y0289422D01*
X0188597Y0287621D01*
X0189976Y0286242D01*
X0191777Y0285495D01*
X0193728Y0285495D01*
X0195530Y0286242D01*
X0196909Y0287621D01*
X0197655Y0289422D01*
X0197655Y0298577D01*
X0196909Y0300379D01*
X0195530Y0301758D01*
X0196235Y0301053D02*
X0199113Y0301053D01*
X0198305Y0300055D02*
X0197043Y0300055D01*
X0197457Y0299056D02*
X0197891Y0299056D01*
X0197693Y0298058D02*
X0197655Y0298058D01*
X0197655Y0297059D02*
X0197693Y0297059D01*
X0197655Y0296061D02*
X0197693Y0296061D01*
X0197655Y0295062D02*
X0197693Y0295062D01*
X0197655Y0294064D02*
X0197693Y0294064D01*
X0197655Y0293065D02*
X0197693Y0293065D01*
X0197655Y0292067D02*
X0197693Y0292067D01*
X0197655Y0291068D02*
X0197693Y0291068D01*
X0197655Y0290070D02*
X0197693Y0290070D01*
X0197838Y0289071D02*
X0197509Y0289071D01*
X0197096Y0288073D02*
X0198252Y0288073D01*
X0198986Y0287074D02*
X0196362Y0287074D01*
X0195129Y0286076D02*
X0200219Y0286076D01*
X0190376Y0286076D02*
X0185287Y0286076D01*
X0184395Y0285077D02*
X0220795Y0285077D01*
X0220795Y0284079D02*
X0184447Y0284079D01*
X0184247Y0283080D02*
X0220795Y0283080D01*
X0220795Y0282082D02*
X0182963Y0282082D01*
X0181465Y0281083D02*
X0220795Y0281083D01*
X0220795Y0280085D02*
X0179967Y0280085D01*
X0178469Y0279086D02*
X0220795Y0279086D01*
X0220795Y0278088D02*
X0176972Y0278088D01*
X0176895Y0277089D02*
X0220795Y0277089D01*
X0220795Y0276091D02*
X0176895Y0276091D01*
X0176895Y0275092D02*
X0220795Y0275092D01*
X0220795Y0274094D02*
X0176895Y0274094D01*
X0176895Y0273095D02*
X0220795Y0273095D01*
X0220795Y0272097D02*
X0205699Y0272097D01*
X0206076Y0271720D02*
X0205315Y0272481D01*
X0199876Y0272481D01*
X0199114Y0271720D01*
X0199114Y0266280D01*
X0199876Y0265519D01*
X0200795Y0265519D01*
X0200795Y0262481D01*
X0199876Y0262481D01*
X0199114Y0261720D01*
X0199114Y0256280D01*
X0199227Y0256167D01*
X0198439Y0255379D01*
X0197693Y0253577D01*
X0197693Y0244422D01*
X0198439Y0242621D01*
X0199818Y0241242D01*
X0201620Y0240495D01*
X0203570Y0240495D01*
X0205372Y0241242D01*
X0206751Y0242621D01*
X0207497Y0244422D01*
X0207497Y0253577D01*
X0206751Y0255379D01*
X0205963Y0256167D01*
X0206076Y0256280D01*
X0206076Y0261720D01*
X0205315Y0262481D01*
X0204395Y0262481D01*
X0204395Y0265519D01*
X0205315Y0265519D01*
X0206076Y0266280D01*
X0206076Y0271720D01*
X0206076Y0271098D02*
X0220795Y0271098D01*
X0220795Y0270100D02*
X0206076Y0270100D01*
X0206076Y0269101D02*
X0220795Y0269101D01*
X0220795Y0268103D02*
X0206076Y0268103D01*
X0206076Y0267104D02*
X0220795Y0267104D01*
X0220795Y0266105D02*
X0205901Y0266105D01*
X0204395Y0265107D02*
X0220795Y0265107D01*
X0220795Y0264108D02*
X0204395Y0264108D01*
X0204395Y0263110D02*
X0220795Y0263110D01*
X0220795Y0262111D02*
X0205684Y0262111D01*
X0206076Y0261113D02*
X0220795Y0261113D01*
X0220795Y0260114D02*
X0206076Y0260114D01*
X0206076Y0259116D02*
X0220795Y0259116D01*
X0220795Y0258117D02*
X0206076Y0258117D01*
X0206076Y0257119D02*
X0210531Y0257119D01*
X0209661Y0256758D02*
X0208282Y0255379D01*
X0207535Y0253577D01*
X0207535Y0244422D01*
X0208282Y0242621D01*
X0209661Y0241242D01*
X0211463Y0240495D01*
X0213413Y0240495D01*
X0215215Y0241242D01*
X0216594Y0242621D01*
X0217340Y0244422D01*
X0217340Y0253577D01*
X0216594Y0255379D01*
X0215215Y0256758D01*
X0213413Y0257505D01*
X0211463Y0257505D01*
X0209661Y0256758D01*
X0209023Y0256120D02*
X0206010Y0256120D01*
X0206858Y0255122D02*
X0208175Y0255122D01*
X0207761Y0254123D02*
X0207271Y0254123D01*
X0207497Y0253125D02*
X0207535Y0253125D01*
X0207497Y0252126D02*
X0207535Y0252126D01*
X0207497Y0251128D02*
X0207535Y0251128D01*
X0207497Y0250129D02*
X0207535Y0250129D01*
X0207497Y0249131D02*
X0207535Y0249131D01*
X0207497Y0248132D02*
X0207535Y0248132D01*
X0207497Y0247134D02*
X0207535Y0247134D01*
X0207497Y0246135D02*
X0207535Y0246135D01*
X0207497Y0245137D02*
X0207535Y0245137D01*
X0207653Y0244138D02*
X0207380Y0244138D01*
X0206966Y0243140D02*
X0208067Y0243140D01*
X0208761Y0242141D02*
X0206272Y0242141D01*
X0205133Y0241143D02*
X0209899Y0241143D01*
X0214976Y0241143D02*
X0220795Y0241143D01*
X0220795Y0242141D02*
X0216114Y0242141D01*
X0216809Y0243140D02*
X0220795Y0243140D01*
X0220795Y0244138D02*
X0217222Y0244138D01*
X0217340Y0245137D02*
X0220795Y0245137D01*
X0220795Y0246135D02*
X0217340Y0246135D01*
X0217340Y0247134D02*
X0220795Y0247134D01*
X0220795Y0248132D02*
X0217340Y0248132D01*
X0217340Y0249131D02*
X0220795Y0249131D01*
X0220795Y0250129D02*
X0217340Y0250129D01*
X0217340Y0251128D02*
X0220795Y0251128D01*
X0220795Y0252126D02*
X0217340Y0252126D01*
X0217340Y0253125D02*
X0220795Y0253125D01*
X0220795Y0254123D02*
X0217114Y0254123D01*
X0216700Y0255122D02*
X0220795Y0255122D01*
X0220795Y0256120D02*
X0215853Y0256120D01*
X0214344Y0257119D02*
X0220795Y0257119D01*
X0220795Y0240144D02*
X0166895Y0240144D01*
X0166895Y0239146D02*
X0220795Y0239146D01*
X0220795Y0238147D02*
X0166895Y0238147D01*
X0166895Y0237149D02*
X0220795Y0237149D01*
X0220795Y0236150D02*
X0167895Y0236150D01*
X0168406Y0235152D02*
X0220795Y0235152D01*
X0220795Y0234153D02*
X0168595Y0234153D01*
X0168533Y0233155D02*
X0220795Y0233155D01*
X0222595Y0231500D02*
X0227595Y0226500D01*
X0222595Y0231500D02*
X0222595Y0279000D01*
X0222595Y0341500D01*
X0220135Y0343989D02*
X0130151Y0343989D01*
X0131150Y0342991D02*
X0219424Y0342991D01*
X0219095Y0341992D02*
X0132148Y0341992D01*
X0133147Y0340994D02*
X0219095Y0340994D01*
X0219430Y0339995D02*
X0134145Y0339995D01*
X0135144Y0338997D02*
X0220149Y0338997D01*
X0220795Y0337998D02*
X0136142Y0337998D01*
X0137141Y0337000D02*
X0220795Y0337000D01*
X0220795Y0336001D02*
X0138139Y0336001D01*
X0139138Y0335003D02*
X0220795Y0335003D01*
X0220795Y0334004D02*
X0140136Y0334004D01*
X0141135Y0333006D02*
X0220795Y0333006D01*
X0220795Y0332007D02*
X0142133Y0332007D01*
X0143132Y0331009D02*
X0220795Y0331009D01*
X0220795Y0330010D02*
X0144130Y0330010D01*
X0143341Y0330800D02*
X0112340Y0361801D01*
X0112340Y0366077D01*
X0111594Y0367879D01*
X0110215Y0369258D01*
X0108413Y0370005D01*
X0106463Y0370005D01*
X0104661Y0369258D01*
X0103282Y0367879D01*
X0102587Y0366202D01*
X0102572Y0366297D01*
X0102324Y0367061D01*
X0101959Y0367777D01*
X0101487Y0368426D01*
X0100919Y0368994D01*
X0100269Y0369466D01*
X0099554Y0369831D01*
X0098790Y0370079D01*
X0098095Y0370189D01*
X0098095Y0362000D01*
X0097095Y0362000D01*
X0097095Y0361000D01*
X0092493Y0361000D01*
X0092493Y0357496D01*
X0092618Y0356703D01*
X0092867Y0355939D01*
X0093231Y0355223D01*
X0093703Y0354574D01*
X0094271Y0354006D01*
X0094921Y0353534D01*
X0095637Y0353169D01*
X0096400Y0352921D01*
X0097095Y0352811D01*
X0097095Y0361000D01*
X0098095Y0361000D01*
X0098095Y0352811D01*
X0098790Y0352921D01*
X0099554Y0353169D01*
X0100269Y0353534D01*
X0100919Y0354006D01*
X0101487Y0354574D01*
X0101959Y0355223D01*
X0102324Y0355939D01*
X0102572Y0356703D01*
X0102587Y0356798D01*
X0103282Y0355121D01*
X0104661Y0353742D01*
X0106463Y0352995D01*
X0108413Y0352995D01*
X0110215Y0353742D01*
X0111594Y0355121D01*
X0112278Y0356772D01*
X0140795Y0328254D01*
X0144753Y0324297D01*
X0144661Y0324258D01*
X0143282Y0322879D01*
X0142587Y0321202D01*
X0142572Y0321297D01*
X0142324Y0322061D01*
X0141959Y0322777D01*
X0141487Y0323426D01*
X0140919Y0323994D01*
X0140269Y0324466D01*
X0139554Y0324831D01*
X0138790Y0325079D01*
X0138095Y0325189D01*
X0138095Y0317000D01*
X0137095Y0317000D01*
X0137095Y0316000D01*
X0132493Y0316000D01*
X0132493Y0312496D01*
X0132618Y0311703D01*
X0132867Y0310939D01*
X0133231Y0310223D01*
X0133703Y0309574D01*
X0134271Y0309006D01*
X0134921Y0308534D01*
X0135637Y0308169D01*
X0136400Y0307921D01*
X0137095Y0307811D01*
X0137095Y0316000D01*
X0138095Y0316000D01*
X0138095Y0307811D01*
X0138790Y0307921D01*
X0139554Y0308169D01*
X0140269Y0308534D01*
X0140919Y0309006D01*
X0141487Y0309574D01*
X0141959Y0310223D01*
X0142324Y0310939D01*
X0142572Y0311703D01*
X0142587Y0311798D01*
X0143282Y0310121D01*
X0144661Y0308742D01*
X0146463Y0307995D01*
X0148413Y0307995D01*
X0150215Y0308742D01*
X0151594Y0310121D01*
X0152340Y0311922D01*
X0152340Y0321077D01*
X0151594Y0322879D01*
X0150215Y0324258D01*
X0149395Y0324598D01*
X0149395Y0324746D01*
X0148341Y0325800D01*
X0143341Y0330800D01*
X0142595Y0329000D02*
X0147595Y0324000D01*
X0147595Y0321500D01*
X0147595Y0316500D01*
X0147438Y0316500D01*
X0152340Y0316031D02*
X0220795Y0316031D01*
X0220795Y0315033D02*
X0152340Y0315033D01*
X0152340Y0314034D02*
X0220795Y0314034D01*
X0220795Y0313036D02*
X0152340Y0313036D01*
X0152340Y0312037D02*
X0220795Y0312037D01*
X0220795Y0311039D02*
X0151974Y0311039D01*
X0151513Y0310040D02*
X0220795Y0310040D01*
X0220795Y0309041D02*
X0150514Y0309041D01*
X0148528Y0308043D02*
X0220795Y0308043D01*
X0220795Y0307044D02*
X0033895Y0307044D01*
X0033895Y0306046D02*
X0052393Y0306046D01*
X0052632Y0306220D02*
X0052033Y0305785D01*
X0051510Y0305262D01*
X0051075Y0304663D01*
X0050739Y0304004D01*
X0050511Y0303301D01*
X0050395Y0302570D01*
X0050395Y0299500D01*
X0054595Y0299500D01*
X0054595Y0298500D01*
X0050395Y0298500D01*
X0050395Y0295430D01*
X0050511Y0294699D01*
X0050739Y0293996D01*
X0051075Y0293337D01*
X0051510Y0292738D01*
X0052033Y0292215D01*
X0052632Y0291780D01*
X0053291Y0291444D01*
X0053995Y0291216D01*
X0054595Y0291121D01*
X0054595Y0298500D01*
X0055595Y0298500D01*
X0055595Y0291121D01*
X0056196Y0291216D01*
X0056899Y0291444D01*
X0057558Y0291780D01*
X0058157Y0292215D01*
X0058680Y0292738D01*
X0059115Y0293337D01*
X0059451Y0293996D01*
X0059679Y0294699D01*
X0059795Y0295430D01*
X0059795Y0298500D01*
X0055595Y0298500D01*
X0055595Y0299500D01*
X0054595Y0299500D01*
X0054595Y0306879D01*
X0053995Y0306784D01*
X0053291Y0306556D01*
X0052632Y0306220D01*
X0051354Y0305047D02*
X0033895Y0305047D01*
X0033895Y0304049D02*
X0050762Y0304049D01*
X0050471Y0303050D02*
X0033895Y0303050D01*
X0033895Y0302052D02*
X0050395Y0302052D01*
X0050395Y0301053D02*
X0033895Y0301053D01*
X0033895Y0300055D02*
X0050395Y0300055D01*
X0050395Y0298058D02*
X0033895Y0298058D01*
X0033895Y0299056D02*
X0054595Y0299056D01*
X0054595Y0298058D02*
X0055595Y0298058D01*
X0055595Y0299056D02*
X0060595Y0299056D01*
X0059795Y0299500D02*
X0059795Y0302570D01*
X0059679Y0303301D01*
X0059451Y0304004D01*
X0059115Y0304663D01*
X0058680Y0305262D01*
X0058157Y0305785D01*
X0057558Y0306220D01*
X0056899Y0306556D01*
X0056196Y0306784D01*
X0055595Y0306879D01*
X0055595Y0299500D01*
X0059795Y0299500D01*
X0059795Y0300055D02*
X0060595Y0300055D01*
X0060595Y0301053D02*
X0059795Y0301053D01*
X0059795Y0302052D02*
X0060595Y0302052D01*
X0060595Y0303050D02*
X0059719Y0303050D01*
X0059428Y0304049D02*
X0060990Y0304049D01*
X0061579Y0305047D02*
X0058836Y0305047D01*
X0057798Y0306046D02*
X0062621Y0306046D01*
X0067569Y0306046D02*
X0220795Y0306046D01*
X0220795Y0305047D02*
X0068612Y0305047D01*
X0069200Y0304049D02*
X0220795Y0304049D01*
X0224395Y0304049D02*
X0248008Y0304049D01*
X0248148Y0303775D02*
X0248629Y0303112D01*
X0249208Y0302534D01*
X0249870Y0302053D01*
X0250599Y0301681D01*
X0251377Y0301428D01*
X0251413Y0301422D01*
X0249763Y0300739D01*
X0248356Y0299332D01*
X0247595Y0297495D01*
X0247595Y0295505D01*
X0248356Y0293668D01*
X0249763Y0292261D01*
X0251601Y0291500D01*
X0253590Y0291500D01*
X0255427Y0292261D01*
X0256834Y0293668D01*
X0257595Y0295505D01*
X0257595Y0297495D01*
X0256834Y0299332D01*
X0255427Y0300739D01*
X0253777Y0301422D01*
X0253813Y0301428D01*
X0254591Y0301681D01*
X0255321Y0302053D01*
X0255983Y0302534D01*
X0256561Y0303112D01*
X0257043Y0303775D01*
X0257414Y0304504D01*
X0257667Y0305282D01*
X0257781Y0306000D01*
X0253095Y0306000D01*
X0253095Y0307000D01*
X0257781Y0307000D01*
X0257667Y0307718D01*
X0257414Y0308496D01*
X0257043Y0309225D01*
X0256561Y0309888D01*
X0255983Y0310466D01*
X0255321Y0310947D01*
X0254591Y0311319D01*
X0253813Y0311572D01*
X0253777Y0311578D01*
X0255427Y0312261D01*
X0256834Y0313668D01*
X0257595Y0315505D01*
X0257595Y0317495D01*
X0256834Y0319332D01*
X0255427Y0320739D01*
X0253590Y0321500D01*
X0251601Y0321500D01*
X0249763Y0320739D01*
X0248356Y0319332D01*
X0247595Y0317495D01*
X0247595Y0315505D01*
X0248356Y0313668D01*
X0249763Y0312261D01*
X0251413Y0311578D01*
X0251377Y0311572D01*
X0250599Y0311319D01*
X0249870Y0310947D01*
X0249208Y0310466D01*
X0248629Y0309888D01*
X0248148Y0309225D01*
X0247776Y0308496D01*
X0247523Y0307718D01*
X0247410Y0307000D01*
X0252095Y0307000D01*
X0252095Y0306000D01*
X0247410Y0306000D01*
X0247523Y0305282D01*
X0247776Y0304504D01*
X0248148Y0303775D01*
X0248691Y0303050D02*
X0224395Y0303050D01*
X0224395Y0302052D02*
X0249871Y0302052D01*
X0250522Y0301053D02*
X0224395Y0301053D01*
X0224395Y0300055D02*
X0249079Y0300055D01*
X0248242Y0299056D02*
X0224395Y0299056D01*
X0224395Y0298058D02*
X0247828Y0298058D01*
X0247595Y0297059D02*
X0224395Y0297059D01*
X0224395Y0296061D02*
X0247595Y0296061D01*
X0247779Y0295062D02*
X0224395Y0295062D01*
X0224395Y0294064D02*
X0248192Y0294064D01*
X0248959Y0293065D02*
X0224395Y0293065D01*
X0224395Y0292067D02*
X0250232Y0292067D01*
X0254958Y0292067D02*
X0330232Y0292067D01*
X0328959Y0293065D02*
X0256232Y0293065D01*
X0256998Y0294064D02*
X0328192Y0294064D01*
X0327779Y0295062D02*
X0257412Y0295062D01*
X0257595Y0296061D02*
X0327595Y0296061D01*
X0327595Y0297059D02*
X0257595Y0297059D01*
X0257362Y0298058D02*
X0327828Y0298058D01*
X0328242Y0299056D02*
X0256948Y0299056D01*
X0256111Y0300055D02*
X0329079Y0300055D01*
X0330522Y0301053D02*
X0254668Y0301053D01*
X0255319Y0302052D02*
X0330268Y0302052D01*
X0328974Y0303050D02*
X0256499Y0303050D01*
X0257182Y0304049D02*
X0328198Y0304049D01*
X0327785Y0305047D02*
X0257591Y0305047D01*
X0257774Y0307044D02*
X0327595Y0307044D01*
X0327595Y0306046D02*
X0253095Y0306046D01*
X0252095Y0306046D02*
X0224395Y0306046D01*
X0224395Y0307044D02*
X0247417Y0307044D01*
X0247629Y0308043D02*
X0224395Y0308043D01*
X0224395Y0309041D02*
X0248054Y0309041D01*
X0248781Y0310040D02*
X0224395Y0310040D01*
X0224395Y0311039D02*
X0250048Y0311039D01*
X0250304Y0312037D02*
X0224395Y0312037D01*
X0224395Y0313036D02*
X0248989Y0313036D01*
X0248205Y0314034D02*
X0224395Y0314034D01*
X0224395Y0315033D02*
X0247791Y0315033D01*
X0247595Y0316031D02*
X0224395Y0316031D01*
X0224395Y0317030D02*
X0247595Y0317030D01*
X0247816Y0318028D02*
X0224395Y0318028D01*
X0224395Y0319027D02*
X0248230Y0319027D01*
X0249049Y0320025D02*
X0224395Y0320025D01*
X0224395Y0321024D02*
X0250451Y0321024D01*
X0250340Y0322022D02*
X0224395Y0322022D01*
X0224395Y0323021D02*
X0249003Y0323021D01*
X0248356Y0323668D02*
X0249763Y0322261D01*
X0251601Y0321500D01*
X0253590Y0321500D01*
X0255427Y0322261D01*
X0256834Y0323668D01*
X0257595Y0325505D01*
X0257595Y0327495D01*
X0256834Y0329332D01*
X0255427Y0330739D01*
X0253590Y0331500D01*
X0251601Y0331500D01*
X0249763Y0330739D01*
X0248356Y0329332D01*
X0247595Y0327495D01*
X0247595Y0325505D01*
X0248356Y0323668D01*
X0248211Y0324019D02*
X0224395Y0324019D01*
X0224395Y0325018D02*
X0247797Y0325018D01*
X0247595Y0326016D02*
X0245812Y0326016D01*
X0246076Y0326280D02*
X0246076Y0331720D01*
X0245315Y0332481D01*
X0244395Y0332481D01*
X0244395Y0375519D01*
X0245315Y0375519D01*
X0246076Y0376280D01*
X0246076Y0381720D01*
X0245315Y0382481D01*
X0239876Y0382481D01*
X0239114Y0381720D01*
X0239114Y0376280D01*
X0239876Y0375519D01*
X0240795Y0375519D01*
X0240795Y0332481D01*
X0239876Y0332481D01*
X0239114Y0331720D01*
X0239114Y0326280D01*
X0239876Y0325519D01*
X0245315Y0325519D01*
X0246076Y0326280D01*
X0246076Y0327015D02*
X0247595Y0327015D01*
X0247810Y0328013D02*
X0246076Y0328013D01*
X0246076Y0329012D02*
X0248224Y0329012D01*
X0249034Y0330010D02*
X0246076Y0330010D01*
X0246076Y0331009D02*
X0250415Y0331009D01*
X0250376Y0332007D02*
X0245789Y0332007D01*
X0244395Y0333006D02*
X0249018Y0333006D01*
X0248356Y0333668D02*
X0249763Y0332261D01*
X0251601Y0331500D01*
X0253590Y0331500D01*
X0255427Y0332261D01*
X0256834Y0333668D01*
X0257595Y0335505D01*
X0257595Y0337495D01*
X0256834Y0339332D01*
X0255427Y0340739D01*
X0253590Y0341500D01*
X0251601Y0341500D01*
X0249763Y0340739D01*
X0248356Y0339332D01*
X0247595Y0337495D01*
X0247595Y0335505D01*
X0248356Y0333668D01*
X0248217Y0334004D02*
X0244395Y0334004D01*
X0244395Y0335003D02*
X0247803Y0335003D01*
X0247595Y0336001D02*
X0244395Y0336001D01*
X0244395Y0337000D02*
X0247595Y0337000D01*
X0247804Y0337998D02*
X0244395Y0337998D01*
X0244395Y0338997D02*
X0248217Y0338997D01*
X0249019Y0339995D02*
X0244395Y0339995D01*
X0244395Y0340994D02*
X0250379Y0340994D01*
X0250412Y0341992D02*
X0244395Y0341992D01*
X0244395Y0342991D02*
X0249033Y0342991D01*
X0248356Y0343668D02*
X0249763Y0342261D01*
X0251601Y0341500D01*
X0253590Y0341500D01*
X0255427Y0342261D01*
X0256834Y0343668D01*
X0257595Y0345505D01*
X0257595Y0347495D01*
X0256834Y0349332D01*
X0255427Y0350739D01*
X0253590Y0351500D01*
X0251601Y0351500D01*
X0249763Y0350739D01*
X0248356Y0349332D01*
X0247595Y0347495D01*
X0247595Y0345505D01*
X0248356Y0343668D01*
X0248223Y0343989D02*
X0244395Y0343989D01*
X0244395Y0344988D02*
X0247809Y0344988D01*
X0247595Y0345986D02*
X0244395Y0345986D01*
X0244395Y0346985D02*
X0247595Y0346985D01*
X0247798Y0347983D02*
X0244395Y0347983D01*
X0244395Y0348982D02*
X0248211Y0348982D01*
X0249005Y0349980D02*
X0244395Y0349980D01*
X0244395Y0350979D02*
X0250343Y0350979D01*
X0250448Y0351977D02*
X0244395Y0351977D01*
X0244395Y0352976D02*
X0249048Y0352976D01*
X0248356Y0353668D02*
X0249763Y0352261D01*
X0251601Y0351500D01*
X0253590Y0351500D01*
X0255427Y0352261D01*
X0256834Y0353668D01*
X0257595Y0355505D01*
X0257595Y0357495D01*
X0256834Y0359332D01*
X0255427Y0360739D01*
X0253590Y0361500D01*
X0251601Y0361500D01*
X0249763Y0360739D01*
X0248356Y0359332D01*
X0247595Y0357495D01*
X0247595Y0355505D01*
X0248356Y0353668D01*
X0248229Y0353974D02*
X0244395Y0353974D01*
X0244395Y0354973D02*
X0247816Y0354973D01*
X0247595Y0355972D02*
X0244395Y0355972D01*
X0244395Y0356970D02*
X0247595Y0356970D01*
X0247791Y0357969D02*
X0244395Y0357969D01*
X0244395Y0358967D02*
X0248205Y0358967D01*
X0248990Y0359966D02*
X0244395Y0359966D01*
X0244395Y0360964D02*
X0250307Y0360964D01*
X0250484Y0361963D02*
X0244395Y0361963D01*
X0244395Y0362961D02*
X0249063Y0362961D01*
X0249763Y0362261D02*
X0251601Y0361500D01*
X0253590Y0361500D01*
X0255427Y0362261D01*
X0256834Y0363668D01*
X0257595Y0365505D01*
X0257595Y0367495D01*
X0256834Y0369332D01*
X0255427Y0370739D01*
X0253590Y0371500D01*
X0251601Y0371500D01*
X0249763Y0370739D01*
X0248356Y0369332D01*
X0247595Y0367495D01*
X0247595Y0365505D01*
X0248356Y0363668D01*
X0249763Y0362261D01*
X0248235Y0363960D02*
X0244395Y0363960D01*
X0244395Y0364958D02*
X0247822Y0364958D01*
X0247595Y0365957D02*
X0244395Y0365957D01*
X0244395Y0366955D02*
X0247595Y0366955D01*
X0247785Y0367954D02*
X0244395Y0367954D01*
X0244395Y0368952D02*
X0248199Y0368952D01*
X0248975Y0369951D02*
X0244395Y0369951D01*
X0244395Y0370949D02*
X0250271Y0370949D01*
X0250520Y0371948D02*
X0244395Y0371948D01*
X0244395Y0372946D02*
X0249078Y0372946D01*
X0249763Y0372261D02*
X0251601Y0371500D01*
X0253590Y0371500D01*
X0255427Y0372261D01*
X0256834Y0373668D01*
X0257595Y0375505D01*
X0257595Y0377495D01*
X0256834Y0379332D01*
X0255427Y0380739D01*
X0253590Y0381500D01*
X0251601Y0381500D01*
X0249763Y0380739D01*
X0248356Y0379332D01*
X0247595Y0377495D01*
X0247595Y0375505D01*
X0248356Y0373668D01*
X0249763Y0372261D01*
X0248242Y0373945D02*
X0244395Y0373945D01*
X0244395Y0374943D02*
X0247828Y0374943D01*
X0247595Y0375942D02*
X0245738Y0375942D01*
X0246076Y0376940D02*
X0247595Y0376940D01*
X0247779Y0377939D02*
X0246076Y0377939D01*
X0246076Y0378937D02*
X0248193Y0378937D01*
X0248960Y0379936D02*
X0246076Y0379936D01*
X0246076Y0380934D02*
X0250235Y0380934D01*
X0250556Y0381933D02*
X0245863Y0381933D01*
X0248356Y0383668D02*
X0247595Y0385505D01*
X0247595Y0387495D01*
X0248356Y0389332D01*
X0249763Y0390739D01*
X0251601Y0391500D01*
X0253590Y0391500D01*
X0255427Y0390739D01*
X0256834Y0389332D01*
X0257595Y0387495D01*
X0257595Y0385505D01*
X0256834Y0383668D01*
X0255427Y0382261D01*
X0253590Y0381500D01*
X0251601Y0381500D01*
X0249763Y0382261D01*
X0248356Y0383668D01*
X0248248Y0383930D02*
X0033895Y0383930D01*
X0033895Y0384928D02*
X0247834Y0384928D01*
X0247595Y0385927D02*
X0033895Y0385927D01*
X0033895Y0386925D02*
X0247595Y0386925D01*
X0247773Y0387924D02*
X0033895Y0387924D01*
X0033895Y0388922D02*
X0248187Y0388922D01*
X0248945Y0389921D02*
X0033895Y0389921D01*
X0033895Y0390919D02*
X0250199Y0390919D01*
X0254991Y0390919D02*
X0330199Y0390919D01*
X0328945Y0389921D02*
X0256245Y0389921D01*
X0257004Y0388922D02*
X0328187Y0388922D01*
X0327773Y0387924D02*
X0257417Y0387924D01*
X0257595Y0386925D02*
X0327595Y0386925D01*
X0327595Y0385927D02*
X0257595Y0385927D01*
X0257356Y0384928D02*
X0327834Y0384928D01*
X0328248Y0383930D02*
X0256942Y0383930D01*
X0256098Y0382931D02*
X0329093Y0382931D01*
X0330556Y0381933D02*
X0254635Y0381933D01*
X0254955Y0380934D02*
X0330235Y0380934D01*
X0328960Y0379936D02*
X0256230Y0379936D01*
X0256998Y0378937D02*
X0328193Y0378937D01*
X0327779Y0377939D02*
X0257411Y0377939D01*
X0257595Y0376940D02*
X0327595Y0376940D01*
X0327595Y0375942D02*
X0257595Y0375942D01*
X0257362Y0374943D02*
X0327828Y0374943D01*
X0328242Y0373945D02*
X0256949Y0373945D01*
X0256112Y0372946D02*
X0329078Y0372946D01*
X0330520Y0371948D02*
X0254671Y0371948D01*
X0254919Y0370949D02*
X0330271Y0370949D01*
X0328975Y0369951D02*
X0256216Y0369951D01*
X0256991Y0368952D02*
X0328199Y0368952D01*
X0327785Y0367954D02*
X0257405Y0367954D01*
X0257595Y0366955D02*
X0327595Y0366955D01*
X0327595Y0365957D02*
X0257595Y0365957D01*
X0257368Y0364958D02*
X0327822Y0364958D01*
X0328235Y0363960D02*
X0256955Y0363960D01*
X0256127Y0362961D02*
X0329063Y0362961D01*
X0330484Y0361963D02*
X0320833Y0361963D01*
X0321076Y0361720D02*
X0320315Y0362481D01*
X0314876Y0362481D01*
X0314114Y0361720D01*
X0314114Y0356280D01*
X0314876Y0355519D01*
X0315795Y0355519D01*
X0315795Y0342481D01*
X0314876Y0342481D01*
X0314114Y0341720D01*
X0314114Y0336280D01*
X0314876Y0335519D01*
X0320315Y0335519D01*
X0321076Y0336280D01*
X0321076Y0341720D01*
X0320315Y0342481D01*
X0319395Y0342481D01*
X0319395Y0355519D01*
X0320315Y0355519D01*
X0321076Y0356280D01*
X0321076Y0361720D01*
X0321076Y0360964D02*
X0330307Y0360964D01*
X0328990Y0359966D02*
X0321076Y0359966D01*
X0321076Y0358967D02*
X0328205Y0358967D01*
X0327791Y0357969D02*
X0321076Y0357969D01*
X0321076Y0356970D02*
X0327595Y0356970D01*
X0327595Y0355972D02*
X0320767Y0355972D01*
X0319395Y0354973D02*
X0327816Y0354973D01*
X0328229Y0353974D02*
X0319395Y0353974D01*
X0319395Y0352976D02*
X0329048Y0352976D01*
X0330448Y0351977D02*
X0319395Y0351977D01*
X0319395Y0350979D02*
X0330343Y0350979D01*
X0329005Y0349980D02*
X0319395Y0349980D01*
X0319395Y0348982D02*
X0328211Y0348982D01*
X0327798Y0347983D02*
X0319395Y0347983D01*
X0319395Y0346985D02*
X0327595Y0346985D01*
X0327595Y0345986D02*
X0319395Y0345986D01*
X0319395Y0344988D02*
X0327809Y0344988D01*
X0328223Y0343989D02*
X0319395Y0343989D01*
X0319395Y0342991D02*
X0329033Y0342991D01*
X0330412Y0341992D02*
X0320803Y0341992D01*
X0321076Y0340994D02*
X0330379Y0340994D01*
X0329019Y0339995D02*
X0321076Y0339995D01*
X0321076Y0338997D02*
X0328217Y0338997D01*
X0327804Y0337998D02*
X0321076Y0337998D01*
X0321076Y0337000D02*
X0327595Y0337000D01*
X0327595Y0336001D02*
X0320797Y0336001D01*
X0317595Y0339000D02*
X0317595Y0359000D01*
X0314114Y0358967D02*
X0256985Y0358967D01*
X0257399Y0357969D02*
X0314114Y0357969D01*
X0314114Y0356970D02*
X0257595Y0356970D01*
X0257595Y0355972D02*
X0314423Y0355972D01*
X0315795Y0354973D02*
X0257375Y0354973D01*
X0256961Y0353974D02*
X0315795Y0353974D01*
X0315795Y0352976D02*
X0256142Y0352976D01*
X0254742Y0351977D02*
X0315795Y0351977D01*
X0315795Y0350979D02*
X0254848Y0350979D01*
X0256186Y0349980D02*
X0315795Y0349980D01*
X0315795Y0348982D02*
X0256979Y0348982D01*
X0257393Y0347983D02*
X0315795Y0347983D01*
X0315795Y0346985D02*
X0257595Y0346985D01*
X0257595Y0345986D02*
X0315795Y0345986D01*
X0315795Y0344988D02*
X0257381Y0344988D01*
X0256967Y0343989D02*
X0315795Y0343989D01*
X0315795Y0342991D02*
X0256157Y0342991D01*
X0254778Y0341992D02*
X0314387Y0341992D01*
X0314114Y0340994D02*
X0254812Y0340994D01*
X0256171Y0339995D02*
X0314114Y0339995D01*
X0314114Y0338997D02*
X0256973Y0338997D01*
X0257386Y0337998D02*
X0314114Y0337998D01*
X0314114Y0337000D02*
X0257595Y0337000D01*
X0257595Y0336001D02*
X0314393Y0336001D01*
X0327803Y0335003D02*
X0257387Y0335003D01*
X0256973Y0334004D02*
X0328217Y0334004D01*
X0329018Y0333006D02*
X0256172Y0333006D01*
X0254814Y0332007D02*
X0330376Y0332007D01*
X0330415Y0331009D02*
X0254776Y0331009D01*
X0256156Y0330010D02*
X0329034Y0330010D01*
X0328224Y0329012D02*
X0256967Y0329012D01*
X0257380Y0328013D02*
X0327810Y0328013D01*
X0327595Y0327015D02*
X0257595Y0327015D01*
X0257595Y0326016D02*
X0327595Y0326016D01*
X0327797Y0325018D02*
X0257393Y0325018D01*
X0256979Y0324019D02*
X0328211Y0324019D01*
X0329003Y0323021D02*
X0256187Y0323021D01*
X0254850Y0322022D02*
X0330340Y0322022D01*
X0330451Y0321024D02*
X0254740Y0321024D01*
X0256141Y0320025D02*
X0329049Y0320025D01*
X0328230Y0319027D02*
X0256961Y0319027D01*
X0257374Y0318028D02*
X0327816Y0318028D01*
X0327595Y0317030D02*
X0257595Y0317030D01*
X0257595Y0316031D02*
X0327595Y0316031D01*
X0327791Y0315033D02*
X0257399Y0315033D01*
X0256986Y0314034D02*
X0328205Y0314034D01*
X0328989Y0313036D02*
X0256202Y0313036D01*
X0254886Y0312037D02*
X0330304Y0312037D01*
X0330486Y0311039D02*
X0255142Y0311039D01*
X0256409Y0310040D02*
X0329064Y0310040D01*
X0328236Y0309041D02*
X0257136Y0309041D01*
X0257561Y0308043D02*
X0327822Y0308043D01*
X0314114Y0359966D02*
X0256201Y0359966D01*
X0254884Y0360964D02*
X0314114Y0360964D01*
X0314357Y0361963D02*
X0254706Y0361963D01*
X0240795Y0361963D02*
X0152340Y0361963D01*
X0152340Y0362961D02*
X0240795Y0362961D01*
X0240795Y0363960D02*
X0152340Y0363960D01*
X0152340Y0364958D02*
X0240795Y0364958D01*
X0240795Y0365957D02*
X0152340Y0365957D01*
X0152340Y0366077D02*
X0151594Y0367879D01*
X0150215Y0369258D01*
X0148413Y0370005D01*
X0146463Y0370005D01*
X0144661Y0369258D01*
X0143282Y0367879D01*
X0142587Y0366202D01*
X0142572Y0366297D01*
X0142324Y0367061D01*
X0141959Y0367777D01*
X0141487Y0368426D01*
X0140919Y0368994D01*
X0140269Y0369466D01*
X0139554Y0369831D01*
X0138790Y0370079D01*
X0138095Y0370189D01*
X0138095Y0362000D01*
X0137095Y0362000D01*
X0137095Y0361000D01*
X0132493Y0361000D01*
X0132493Y0357496D01*
X0132618Y0356703D01*
X0132867Y0355939D01*
X0133231Y0355223D01*
X0133703Y0354574D01*
X0134271Y0354006D01*
X0134921Y0353534D01*
X0135637Y0353169D01*
X0136400Y0352921D01*
X0137095Y0352811D01*
X0137095Y0361000D01*
X0138095Y0361000D01*
X0138095Y0352811D01*
X0138790Y0352921D01*
X0139554Y0353169D01*
X0140269Y0353534D01*
X0140919Y0354006D01*
X0141487Y0354574D01*
X0141959Y0355223D01*
X0142324Y0355939D01*
X0142572Y0356703D01*
X0142587Y0356798D01*
X0143282Y0355121D01*
X0144661Y0353742D01*
X0146463Y0352995D01*
X0148413Y0352995D01*
X0150215Y0353742D01*
X0151594Y0355121D01*
X0152340Y0356922D01*
X0152340Y0366077D01*
X0151976Y0366955D02*
X0240795Y0366955D01*
X0240795Y0367954D02*
X0151519Y0367954D01*
X0150521Y0368952D02*
X0240795Y0368952D01*
X0240795Y0369951D02*
X0148543Y0369951D01*
X0146332Y0369951D02*
X0139185Y0369951D01*
X0138095Y0369951D02*
X0137095Y0369951D01*
X0137095Y0370189D02*
X0136400Y0370079D01*
X0135637Y0369831D01*
X0134921Y0369466D01*
X0134271Y0368994D01*
X0133703Y0368426D01*
X0133231Y0367777D01*
X0132867Y0367061D01*
X0132618Y0366297D01*
X0132493Y0365504D01*
X0132493Y0362000D01*
X0137095Y0362000D01*
X0137095Y0370189D01*
X0136005Y0369951D02*
X0108543Y0369951D01*
X0106332Y0369951D02*
X0099185Y0369951D01*
X0098095Y0369951D02*
X0097095Y0369951D01*
X0097095Y0370189D02*
X0096400Y0370079D01*
X0095637Y0369831D01*
X0094921Y0369466D01*
X0094271Y0368994D01*
X0093703Y0368426D01*
X0093231Y0367777D01*
X0092867Y0367061D01*
X0092618Y0366297D01*
X0092493Y0365504D01*
X0092493Y0362000D01*
X0097095Y0362000D01*
X0097095Y0370189D01*
X0096005Y0369951D02*
X0033895Y0369951D01*
X0033895Y0370949D02*
X0240795Y0370949D01*
X0240795Y0371948D02*
X0033895Y0371948D01*
X0033895Y0372946D02*
X0240795Y0372946D01*
X0240795Y0373945D02*
X0033895Y0373945D01*
X0033895Y0374943D02*
X0240795Y0374943D01*
X0239453Y0375942D02*
X0033895Y0375942D01*
X0033895Y0376940D02*
X0239114Y0376940D01*
X0239114Y0377939D02*
X0033895Y0377939D01*
X0033895Y0378937D02*
X0239114Y0378937D01*
X0239114Y0379936D02*
X0033895Y0379936D01*
X0033895Y0380934D02*
X0239114Y0380934D01*
X0239327Y0381933D02*
X0033895Y0381933D01*
X0033895Y0382931D02*
X0249093Y0382931D01*
X0242595Y0379000D02*
X0242595Y0329000D01*
X0239114Y0329012D02*
X0224395Y0329012D01*
X0224395Y0330010D02*
X0239114Y0330010D01*
X0239114Y0331009D02*
X0224395Y0331009D01*
X0224395Y0332007D02*
X0239402Y0332007D01*
X0240795Y0333006D02*
X0224395Y0333006D01*
X0224395Y0334004D02*
X0240795Y0334004D01*
X0240795Y0335003D02*
X0224395Y0335003D01*
X0224395Y0336001D02*
X0240795Y0336001D01*
X0240795Y0337000D02*
X0224395Y0337000D01*
X0224395Y0337998D02*
X0240795Y0337998D01*
X0240795Y0338997D02*
X0225042Y0338997D01*
X0225760Y0339995D02*
X0240795Y0339995D01*
X0240795Y0340994D02*
X0226095Y0340994D01*
X0226095Y0341992D02*
X0240795Y0341992D01*
X0240795Y0342991D02*
X0225766Y0342991D01*
X0225055Y0343989D02*
X0240795Y0343989D01*
X0240795Y0344988D02*
X0223321Y0344988D01*
X0221870Y0344988D02*
X0129153Y0344988D01*
X0128154Y0345986D02*
X0214408Y0345986D01*
X0214114Y0346280D02*
X0214876Y0345519D01*
X0220315Y0345519D01*
X0221076Y0346280D01*
X0221076Y0347200D01*
X0226614Y0347200D01*
X0226614Y0346280D01*
X0227376Y0345519D01*
X0232815Y0345519D01*
X0233576Y0346280D01*
X0233576Y0351720D01*
X0232815Y0352481D01*
X0227376Y0352481D01*
X0226614Y0351720D01*
X0226614Y0350800D01*
X0221076Y0350800D01*
X0221076Y0351720D01*
X0220315Y0352481D01*
X0214876Y0352481D01*
X0214114Y0351720D01*
X0214114Y0346280D01*
X0214114Y0346985D02*
X0127156Y0346985D01*
X0126157Y0347983D02*
X0214114Y0347983D01*
X0214114Y0348982D02*
X0125159Y0348982D01*
X0124160Y0349980D02*
X0214114Y0349980D01*
X0214114Y0350979D02*
X0123162Y0350979D01*
X0122163Y0351977D02*
X0214372Y0351977D01*
X0217595Y0349000D02*
X0230095Y0349000D01*
X0233576Y0348982D02*
X0240795Y0348982D01*
X0240795Y0349980D02*
X0233576Y0349980D01*
X0233576Y0350979D02*
X0240795Y0350979D01*
X0240795Y0351977D02*
X0233318Y0351977D01*
X0233576Y0347983D02*
X0240795Y0347983D01*
X0240795Y0346985D02*
X0233576Y0346985D01*
X0233282Y0345986D02*
X0240795Y0345986D01*
X0240795Y0352976D02*
X0138959Y0352976D01*
X0138095Y0352976D02*
X0137095Y0352976D01*
X0136231Y0352976D02*
X0121165Y0352976D01*
X0120166Y0353974D02*
X0134314Y0353974D01*
X0133413Y0354973D02*
X0119168Y0354973D01*
X0118169Y0355972D02*
X0132856Y0355972D01*
X0132576Y0356970D02*
X0117171Y0356970D01*
X0116172Y0357969D02*
X0132493Y0357969D01*
X0132493Y0358967D02*
X0115174Y0358967D01*
X0114175Y0359966D02*
X0132493Y0359966D01*
X0132493Y0360964D02*
X0113177Y0360964D01*
X0112340Y0361963D02*
X0137095Y0361963D01*
X0137095Y0362961D02*
X0138095Y0362961D01*
X0138095Y0363960D02*
X0137095Y0363960D01*
X0137095Y0364958D02*
X0138095Y0364958D01*
X0138095Y0365957D02*
X0137095Y0365957D01*
X0137095Y0366955D02*
X0138095Y0366955D01*
X0138095Y0367954D02*
X0137095Y0367954D01*
X0137095Y0368952D02*
X0138095Y0368952D01*
X0140961Y0368952D02*
X0144354Y0368952D01*
X0143356Y0367954D02*
X0141830Y0367954D01*
X0142358Y0366955D02*
X0142899Y0366955D01*
X0138095Y0360964D02*
X0137095Y0360964D01*
X0137095Y0359966D02*
X0138095Y0359966D01*
X0138095Y0358967D02*
X0137095Y0358967D01*
X0137095Y0357969D02*
X0138095Y0357969D01*
X0138095Y0356970D02*
X0137095Y0356970D01*
X0137095Y0355972D02*
X0138095Y0355972D01*
X0138095Y0354973D02*
X0137095Y0354973D01*
X0137095Y0353974D02*
X0138095Y0353974D01*
X0140876Y0353974D02*
X0144428Y0353974D01*
X0143429Y0354973D02*
X0141777Y0354973D01*
X0142334Y0355972D02*
X0142929Y0355972D01*
X0150448Y0353974D02*
X0240795Y0353974D01*
X0240795Y0354973D02*
X0151446Y0354973D01*
X0151946Y0355972D02*
X0240795Y0355972D01*
X0240795Y0356970D02*
X0152340Y0356970D01*
X0152340Y0357969D02*
X0240795Y0357969D01*
X0240795Y0358967D02*
X0152340Y0358967D01*
X0152340Y0359966D02*
X0240795Y0359966D01*
X0240795Y0360964D02*
X0152340Y0360964D01*
X0134229Y0368952D02*
X0110521Y0368952D01*
X0111519Y0367954D02*
X0133360Y0367954D01*
X0132832Y0366955D02*
X0111976Y0366955D01*
X0112340Y0365957D02*
X0132564Y0365957D01*
X0132493Y0364958D02*
X0112340Y0364958D01*
X0112340Y0363960D02*
X0132493Y0363960D01*
X0132493Y0362961D02*
X0112340Y0362961D01*
X0110095Y0361500D02*
X0142595Y0329000D01*
X0141036Y0328013D02*
X0033895Y0328013D01*
X0033895Y0327015D02*
X0142035Y0327015D01*
X0143033Y0326016D02*
X0033895Y0326016D01*
X0033895Y0325018D02*
X0136211Y0325018D01*
X0136400Y0325079D02*
X0135637Y0324831D01*
X0134921Y0324466D01*
X0134271Y0323994D01*
X0133703Y0323426D01*
X0133231Y0322777D01*
X0132867Y0322061D01*
X0132618Y0321297D01*
X0132493Y0320504D01*
X0132493Y0317000D01*
X0137095Y0317000D01*
X0137095Y0325189D01*
X0136400Y0325079D01*
X0137095Y0325018D02*
X0138095Y0325018D01*
X0138979Y0325018D02*
X0144032Y0325018D01*
X0144421Y0324019D02*
X0140885Y0324019D01*
X0141782Y0323021D02*
X0143423Y0323021D01*
X0142927Y0322022D02*
X0142336Y0322022D01*
X0138095Y0322022D02*
X0137095Y0322022D01*
X0137095Y0321024D02*
X0138095Y0321024D01*
X0138095Y0320025D02*
X0137095Y0320025D01*
X0137095Y0319027D02*
X0138095Y0319027D01*
X0138095Y0318028D02*
X0137095Y0318028D01*
X0137095Y0317030D02*
X0138095Y0317030D01*
X0137095Y0316031D02*
X0033895Y0316031D01*
X0033895Y0315033D02*
X0132493Y0315033D01*
X0132493Y0314034D02*
X0033895Y0314034D01*
X0033895Y0313036D02*
X0132493Y0313036D01*
X0132565Y0312037D02*
X0033895Y0312037D01*
X0033895Y0311039D02*
X0132834Y0311039D01*
X0133364Y0310040D02*
X0033895Y0310040D01*
X0033895Y0309041D02*
X0134235Y0309041D01*
X0136025Y0308043D02*
X0033895Y0308043D01*
X0033895Y0317030D02*
X0132493Y0317030D01*
X0132493Y0318028D02*
X0033895Y0318028D01*
X0033895Y0319027D02*
X0132493Y0319027D01*
X0132493Y0320025D02*
X0033895Y0320025D01*
X0033895Y0321024D02*
X0132575Y0321024D01*
X0132854Y0322022D02*
X0033895Y0322022D01*
X0033895Y0323021D02*
X0133409Y0323021D01*
X0134305Y0324019D02*
X0033895Y0324019D01*
X0033895Y0329012D02*
X0140038Y0329012D01*
X0139039Y0330010D02*
X0033895Y0330010D01*
X0033895Y0331009D02*
X0138041Y0331009D01*
X0137042Y0332007D02*
X0033895Y0332007D01*
X0033895Y0333006D02*
X0136044Y0333006D01*
X0135045Y0334004D02*
X0033895Y0334004D01*
X0033895Y0335003D02*
X0134047Y0335003D01*
X0133048Y0336001D02*
X0033895Y0336001D01*
X0033895Y0337000D02*
X0132050Y0337000D01*
X0131051Y0337998D02*
X0033895Y0337998D01*
X0033895Y0338997D02*
X0130053Y0338997D01*
X0129054Y0339995D02*
X0033895Y0339995D01*
X0033895Y0340994D02*
X0128056Y0340994D01*
X0127057Y0341992D02*
X0033895Y0341992D01*
X0033895Y0342991D02*
X0126059Y0342991D01*
X0125060Y0343989D02*
X0033895Y0343989D01*
X0033895Y0344988D02*
X0124062Y0344988D01*
X0123063Y0345986D02*
X0033895Y0345986D01*
X0033895Y0346985D02*
X0122065Y0346985D01*
X0121066Y0347983D02*
X0033895Y0347983D01*
X0033895Y0348982D02*
X0120068Y0348982D01*
X0119069Y0349980D02*
X0033895Y0349980D01*
X0033895Y0350979D02*
X0118071Y0350979D01*
X0117072Y0351977D02*
X0033895Y0351977D01*
X0033895Y0352976D02*
X0096231Y0352976D01*
X0097095Y0352976D02*
X0098095Y0352976D01*
X0098959Y0352976D02*
X0116074Y0352976D01*
X0115075Y0353974D02*
X0110448Y0353974D01*
X0111446Y0354973D02*
X0114077Y0354973D01*
X0113078Y0355972D02*
X0111946Y0355972D01*
X0110095Y0361500D02*
X0107438Y0361500D01*
X0102899Y0366955D02*
X0102358Y0366955D01*
X0101830Y0367954D02*
X0103356Y0367954D01*
X0104354Y0368952D02*
X0100961Y0368952D01*
X0098095Y0368952D02*
X0097095Y0368952D01*
X0097095Y0367954D02*
X0098095Y0367954D01*
X0098095Y0366955D02*
X0097095Y0366955D01*
X0097095Y0365957D02*
X0098095Y0365957D01*
X0098095Y0364958D02*
X0097095Y0364958D01*
X0097095Y0363960D02*
X0098095Y0363960D01*
X0098095Y0362961D02*
X0097095Y0362961D01*
X0097095Y0361963D02*
X0033895Y0361963D01*
X0033895Y0362961D02*
X0092493Y0362961D01*
X0092493Y0363960D02*
X0033895Y0363960D01*
X0033895Y0364958D02*
X0092493Y0364958D01*
X0092564Y0365957D02*
X0033895Y0365957D01*
X0033895Y0366955D02*
X0092832Y0366955D01*
X0093360Y0367954D02*
X0033895Y0367954D01*
X0033895Y0368952D02*
X0094229Y0368952D01*
X0092493Y0360964D02*
X0033895Y0360964D01*
X0033895Y0359966D02*
X0092493Y0359966D01*
X0092493Y0358967D02*
X0033895Y0358967D01*
X0033895Y0357969D02*
X0092493Y0357969D01*
X0092576Y0356970D02*
X0033895Y0356970D01*
X0033895Y0355972D02*
X0092856Y0355972D01*
X0093413Y0354973D02*
X0033895Y0354973D01*
X0033895Y0353974D02*
X0094314Y0353974D01*
X0097095Y0353974D02*
X0098095Y0353974D01*
X0098095Y0354973D02*
X0097095Y0354973D01*
X0097095Y0355972D02*
X0098095Y0355972D01*
X0098095Y0356970D02*
X0097095Y0356970D01*
X0097095Y0357969D02*
X0098095Y0357969D01*
X0098095Y0358967D02*
X0097095Y0358967D01*
X0097095Y0359966D02*
X0098095Y0359966D01*
X0098095Y0360964D02*
X0097095Y0360964D01*
X0102334Y0355972D02*
X0102929Y0355972D01*
X0103429Y0354973D02*
X0101777Y0354973D01*
X0100876Y0353974D02*
X0104428Y0353974D01*
X0137095Y0324019D02*
X0138095Y0324019D01*
X0138095Y0323021D02*
X0137095Y0323021D01*
X0137095Y0315033D02*
X0138095Y0315033D01*
X0138095Y0314034D02*
X0137095Y0314034D01*
X0137095Y0313036D02*
X0138095Y0313036D01*
X0138095Y0312037D02*
X0137095Y0312037D01*
X0137095Y0311039D02*
X0138095Y0311039D01*
X0138095Y0310040D02*
X0137095Y0310040D01*
X0137095Y0309041D02*
X0138095Y0309041D01*
X0138095Y0308043D02*
X0137095Y0308043D01*
X0139166Y0308043D02*
X0146347Y0308043D01*
X0144361Y0309041D02*
X0140955Y0309041D01*
X0141826Y0310040D02*
X0143362Y0310040D01*
X0142901Y0311039D02*
X0142356Y0311039D01*
X0152340Y0317030D02*
X0220795Y0317030D01*
X0220795Y0318028D02*
X0152340Y0318028D01*
X0152340Y0319027D02*
X0220795Y0319027D01*
X0220795Y0320025D02*
X0152340Y0320025D01*
X0152340Y0321024D02*
X0220795Y0321024D01*
X0220795Y0322022D02*
X0151949Y0322022D01*
X0151452Y0323021D02*
X0220795Y0323021D01*
X0220795Y0324019D02*
X0150454Y0324019D01*
X0149123Y0325018D02*
X0220795Y0325018D01*
X0220795Y0326016D02*
X0148125Y0326016D01*
X0147126Y0327015D02*
X0220795Y0327015D01*
X0220795Y0328013D02*
X0146128Y0328013D01*
X0145129Y0329012D02*
X0220795Y0329012D01*
X0224395Y0328013D02*
X0239114Y0328013D01*
X0239114Y0327015D02*
X0224395Y0327015D01*
X0224395Y0326016D02*
X0239378Y0326016D01*
X0247599Y0305047D02*
X0224395Y0305047D01*
X0199491Y0272097D02*
X0176895Y0272097D01*
X0176895Y0271098D02*
X0199114Y0271098D01*
X0199114Y0270100D02*
X0176895Y0270100D01*
X0176895Y0269101D02*
X0199114Y0269101D01*
X0199114Y0268103D02*
X0176895Y0268103D01*
X0176895Y0267104D02*
X0199114Y0267104D01*
X0199289Y0266105D02*
X0176895Y0266105D01*
X0176895Y0265107D02*
X0200795Y0265107D01*
X0200795Y0264108D02*
X0176895Y0264108D01*
X0176895Y0263110D02*
X0200795Y0263110D01*
X0199506Y0262111D02*
X0176895Y0262111D01*
X0176895Y0261113D02*
X0199114Y0261113D01*
X0199114Y0260114D02*
X0176895Y0260114D01*
X0176895Y0259116D02*
X0199114Y0259116D01*
X0199114Y0258117D02*
X0176895Y0258117D01*
X0176895Y0257119D02*
X0181004Y0257119D01*
X0179495Y0256120D02*
X0176895Y0256120D01*
X0176895Y0255122D02*
X0178647Y0255122D01*
X0178234Y0254123D02*
X0176895Y0254123D01*
X0176895Y0253125D02*
X0178008Y0253125D01*
X0178008Y0252126D02*
X0176895Y0252126D01*
X0176895Y0251128D02*
X0178008Y0251128D01*
X0178008Y0250129D02*
X0176895Y0250129D01*
X0176895Y0249131D02*
X0178008Y0249131D01*
X0178008Y0248132D02*
X0176895Y0248132D01*
X0176895Y0247134D02*
X0178008Y0247134D01*
X0178008Y0246135D02*
X0177910Y0246135D01*
X0178527Y0243140D02*
X0178539Y0243140D01*
X0178114Y0242141D02*
X0179234Y0242141D01*
X0180372Y0241143D02*
X0177188Y0241143D01*
X0175095Y0244000D02*
X0175095Y0279000D01*
X0182595Y0284000D01*
X0182595Y0294000D01*
X0182910Y0294000D01*
X0187812Y0294064D02*
X0187850Y0294064D01*
X0187812Y0295062D02*
X0187850Y0295062D01*
X0187812Y0296061D02*
X0187850Y0296061D01*
X0187812Y0297059D02*
X0187850Y0297059D01*
X0187812Y0298058D02*
X0187850Y0298058D01*
X0188049Y0299056D02*
X0187614Y0299056D01*
X0187201Y0300055D02*
X0188462Y0300055D01*
X0189271Y0301053D02*
X0186392Y0301053D01*
X0184978Y0302052D02*
X0190684Y0302052D01*
X0187850Y0293065D02*
X0187812Y0293065D01*
X0187812Y0292067D02*
X0187850Y0292067D01*
X0187812Y0291068D02*
X0187850Y0291068D01*
X0187812Y0290070D02*
X0187850Y0290070D01*
X0187996Y0289071D02*
X0187667Y0289071D01*
X0187253Y0288073D02*
X0188409Y0288073D01*
X0189143Y0287074D02*
X0186520Y0287074D01*
X0180795Y0285077D02*
X0153427Y0285077D01*
X0153600Y0284079D02*
X0179468Y0284079D01*
X0177970Y0283080D02*
X0153600Y0283080D01*
X0154559Y0282082D02*
X0176473Y0282082D01*
X0174975Y0281083D02*
X0155558Y0281083D01*
X0156556Y0280085D02*
X0173477Y0280085D01*
X0173277Y0279086D02*
X0157555Y0279086D01*
X0158553Y0278088D02*
X0173295Y0278088D01*
X0173295Y0277089D02*
X0159552Y0277089D01*
X0160550Y0276091D02*
X0173295Y0276091D01*
X0173295Y0275092D02*
X0161549Y0275092D01*
X0162547Y0274094D02*
X0173295Y0274094D01*
X0173295Y0273095D02*
X0163546Y0273095D01*
X0164544Y0272097D02*
X0173295Y0272097D01*
X0173295Y0271098D02*
X0165543Y0271098D01*
X0166541Y0270100D02*
X0173295Y0270100D01*
X0173295Y0269101D02*
X0166895Y0269101D01*
X0166895Y0268103D02*
X0173295Y0268103D01*
X0173295Y0267104D02*
X0166895Y0267104D01*
X0166895Y0266105D02*
X0173295Y0266105D01*
X0173295Y0265107D02*
X0166895Y0265107D01*
X0166895Y0264108D02*
X0173295Y0264108D01*
X0173295Y0263110D02*
X0166895Y0263110D01*
X0166895Y0262111D02*
X0173295Y0262111D01*
X0173295Y0261113D02*
X0166895Y0261113D01*
X0166895Y0260114D02*
X0173295Y0260114D01*
X0173295Y0259116D02*
X0166895Y0259116D01*
X0166895Y0258117D02*
X0173295Y0258117D01*
X0173295Y0257119D02*
X0166895Y0257119D01*
X0166895Y0256120D02*
X0173295Y0256120D01*
X0173295Y0255122D02*
X0166895Y0255122D01*
X0166895Y0254123D02*
X0173295Y0254123D01*
X0173295Y0253125D02*
X0166895Y0253125D01*
X0166895Y0252126D02*
X0173295Y0252126D01*
X0173295Y0251128D02*
X0166895Y0251128D01*
X0166895Y0250129D02*
X0173295Y0250129D01*
X0173295Y0249131D02*
X0166895Y0249131D01*
X0166895Y0248132D02*
X0173295Y0248132D01*
X0173295Y0247134D02*
X0166895Y0247134D01*
X0166895Y0246135D02*
X0172281Y0246135D01*
X0171778Y0245137D02*
X0166895Y0245137D01*
X0166895Y0244138D02*
X0171595Y0244138D01*
X0171663Y0243140D02*
X0166895Y0243140D01*
X0166895Y0242141D02*
X0172077Y0242141D01*
X0173003Y0241143D02*
X0166895Y0241143D01*
X0163295Y0241143D02*
X0124395Y0241143D01*
X0124395Y0242141D02*
X0163295Y0242141D01*
X0163295Y0243140D02*
X0124395Y0243140D01*
X0124395Y0244138D02*
X0163295Y0244138D01*
X0163295Y0245137D02*
X0124004Y0245137D01*
X0123005Y0246135D02*
X0163295Y0246135D01*
X0163295Y0247134D02*
X0122007Y0247134D01*
X0121008Y0248132D02*
X0163295Y0248132D01*
X0163295Y0249131D02*
X0100010Y0249131D01*
X0099395Y0250129D02*
X0138588Y0250129D01*
X0149717Y0259116D02*
X0163295Y0259116D01*
X0163295Y0260114D02*
X0151745Y0260114D01*
X0152743Y0261113D02*
X0163295Y0261113D01*
X0163295Y0262111D02*
X0153222Y0262111D01*
X0153600Y0263110D02*
X0163295Y0263110D01*
X0163295Y0264108D02*
X0153600Y0264108D01*
X0153545Y0265107D02*
X0163295Y0265107D01*
X0163295Y0266105D02*
X0153132Y0266105D01*
X0152526Y0267104D02*
X0163295Y0267104D01*
X0163295Y0268103D02*
X0151528Y0268103D01*
X0150061Y0269101D02*
X0162449Y0269101D01*
X0161450Y0270100D02*
X0151888Y0270100D01*
X0152867Y0271098D02*
X0160451Y0271098D01*
X0159453Y0272097D02*
X0153281Y0272097D01*
X0153600Y0273095D02*
X0158454Y0273095D01*
X0157456Y0274094D02*
X0153600Y0274094D01*
X0153486Y0275092D02*
X0156457Y0275092D01*
X0155459Y0276091D02*
X0153073Y0276091D01*
X0152384Y0277089D02*
X0154460Y0277089D01*
X0153462Y0278088D02*
X0151259Y0278088D01*
X0150405Y0279086D02*
X0152463Y0279086D01*
X0150095Y0284000D02*
X0145095Y0284000D01*
X0145095Y0283685D01*
X0150095Y0284000D02*
X0165095Y0269000D01*
X0165095Y0234000D01*
X0161595Y0234153D02*
X0124395Y0234153D01*
X0124395Y0233155D02*
X0161657Y0233155D01*
X0162071Y0232156D02*
X0124395Y0232156D01*
X0124395Y0231158D02*
X0162988Y0231158D01*
X0161784Y0235152D02*
X0124395Y0235152D01*
X0124395Y0236150D02*
X0162296Y0236150D01*
X0163295Y0237149D02*
X0124395Y0237149D01*
X0124395Y0238147D02*
X0163295Y0238147D01*
X0163295Y0239146D02*
X0124395Y0239146D01*
X0124395Y0240144D02*
X0163295Y0240144D01*
X0163295Y0250129D02*
X0151602Y0250129D01*
X0152601Y0251128D02*
X0163295Y0251128D01*
X0163295Y0252126D02*
X0153162Y0252126D01*
X0153576Y0253125D02*
X0163295Y0253125D01*
X0163295Y0254123D02*
X0153600Y0254123D01*
X0153600Y0255122D02*
X0163295Y0255122D01*
X0163295Y0256120D02*
X0153191Y0256120D01*
X0152669Y0257119D02*
X0163295Y0257119D01*
X0163295Y0258117D02*
X0151671Y0258117D01*
X0153014Y0286076D02*
X0180534Y0286076D01*
X0179301Y0287074D02*
X0152241Y0287074D01*
X0150915Y0288073D02*
X0178567Y0288073D01*
X0202595Y0269000D02*
X0202595Y0259000D01*
X0199114Y0257119D02*
X0194659Y0257119D01*
X0195530Y0256758D02*
X0193728Y0257505D01*
X0191777Y0257505D01*
X0189976Y0256758D01*
X0188597Y0255379D01*
X0187850Y0253577D01*
X0187850Y0244422D01*
X0188597Y0242621D01*
X0189976Y0241242D01*
X0191777Y0240495D01*
X0193728Y0240495D01*
X0195530Y0241242D01*
X0196909Y0242621D01*
X0197655Y0244422D01*
X0197655Y0253577D01*
X0196909Y0255379D01*
X0195530Y0256758D01*
X0196168Y0256120D02*
X0199180Y0256120D01*
X0198332Y0255122D02*
X0197015Y0255122D01*
X0197429Y0254123D02*
X0197919Y0254123D01*
X0197693Y0253125D02*
X0197655Y0253125D01*
X0197655Y0252126D02*
X0197693Y0252126D01*
X0197655Y0251128D02*
X0197693Y0251128D01*
X0197655Y0250129D02*
X0197693Y0250129D01*
X0197655Y0249131D02*
X0197693Y0249131D01*
X0197655Y0248132D02*
X0197693Y0248132D01*
X0197655Y0247134D02*
X0197693Y0247134D01*
X0197655Y0246135D02*
X0197693Y0246135D01*
X0197655Y0245137D02*
X0197693Y0245137D01*
X0197811Y0244138D02*
X0197537Y0244138D01*
X0197124Y0243140D02*
X0198224Y0243140D01*
X0198919Y0242141D02*
X0196429Y0242141D01*
X0195291Y0241143D02*
X0200057Y0241143D01*
X0190214Y0241143D02*
X0185448Y0241143D01*
X0186587Y0242141D02*
X0189076Y0242141D01*
X0188382Y0243140D02*
X0187281Y0243140D01*
X0187695Y0244138D02*
X0187968Y0244138D01*
X0187850Y0245137D02*
X0187812Y0245137D01*
X0187812Y0246135D02*
X0187850Y0246135D01*
X0187812Y0247134D02*
X0187850Y0247134D01*
X0187812Y0248132D02*
X0187850Y0248132D01*
X0187812Y0249131D02*
X0187850Y0249131D01*
X0187812Y0250129D02*
X0187850Y0250129D01*
X0187812Y0251128D02*
X0187850Y0251128D01*
X0187812Y0252126D02*
X0187850Y0252126D01*
X0187812Y0253125D02*
X0187850Y0253125D01*
X0188076Y0254123D02*
X0187586Y0254123D01*
X0187173Y0255122D02*
X0188490Y0255122D01*
X0189338Y0256120D02*
X0186325Y0256120D01*
X0184817Y0257119D02*
X0190846Y0257119D01*
X0187606Y0223170D02*
X0187112Y0223170D01*
X0167921Y0223170D02*
X0167427Y0223170D01*
X0162999Y0223170D02*
X0162506Y0223170D01*
X0158078Y0223170D02*
X0157585Y0223170D01*
X0123883Y0225167D02*
X0118974Y0225167D01*
X0117976Y0226165D02*
X0122884Y0226165D01*
X0121886Y0227164D02*
X0116977Y0227164D01*
X0115979Y0228162D02*
X0120887Y0228162D01*
X0120795Y0229161D02*
X0099980Y0229161D01*
X0099395Y0230159D02*
X0120795Y0230159D01*
X0105810Y0221172D02*
X0099380Y0221172D01*
X0100992Y0220174D02*
X0104198Y0220174D01*
X0103291Y0219175D02*
X0101899Y0219175D01*
X0102312Y0218177D02*
X0102878Y0218177D01*
X0102595Y0217178D02*
X0102595Y0217178D01*
X0102595Y0216180D02*
X0102595Y0216180D01*
X0102461Y0215181D02*
X0102729Y0215181D01*
X0103143Y0214183D02*
X0102047Y0214183D01*
X0101351Y0213184D02*
X0103840Y0213184D01*
X0104945Y0212186D02*
X0100246Y0212186D01*
X0094945Y0212186D02*
X0090246Y0212186D01*
X0091351Y0213184D02*
X0093840Y0213184D01*
X0093143Y0214183D02*
X0092047Y0214183D01*
X0092461Y0215181D02*
X0092729Y0215181D01*
X0092595Y0216180D02*
X0092595Y0216180D01*
X0092595Y0217178D02*
X0092595Y0217178D01*
X0092312Y0218177D02*
X0092878Y0218177D01*
X0093291Y0219175D02*
X0091899Y0219175D01*
X0090992Y0220174D02*
X0094198Y0220174D01*
X0095810Y0221172D02*
X0089380Y0221172D01*
X0090174Y0232156D02*
X0095017Y0232156D01*
X0093869Y0233155D02*
X0091321Y0233155D01*
X0092035Y0234153D02*
X0093155Y0234153D01*
X0092742Y0235152D02*
X0092449Y0235152D01*
X0092595Y0236150D02*
X0092595Y0236150D01*
X0092595Y0237149D02*
X0092595Y0237149D01*
X0092325Y0238147D02*
X0092865Y0238147D01*
X0093279Y0239146D02*
X0091911Y0239146D01*
X0091022Y0240144D02*
X0094168Y0240144D01*
X0095738Y0241143D02*
X0089452Y0241143D01*
X0097595Y0236500D02*
X0097595Y0229000D01*
X0100095Y0226500D01*
X0065160Y0272097D02*
X0060030Y0272097D01*
X0060427Y0272261D02*
X0061834Y0273668D01*
X0062595Y0275505D01*
X0062595Y0277495D01*
X0061834Y0279332D01*
X0060427Y0280739D01*
X0058590Y0281500D01*
X0056601Y0281500D01*
X0054763Y0280739D01*
X0053356Y0279332D01*
X0052595Y0277495D01*
X0052595Y0275505D01*
X0053356Y0273668D01*
X0054763Y0272261D01*
X0056601Y0271500D01*
X0058590Y0271500D01*
X0060427Y0272261D01*
X0061261Y0273095D02*
X0063929Y0273095D01*
X0063180Y0274094D02*
X0062010Y0274094D01*
X0062424Y0275092D02*
X0062766Y0275092D01*
X0062595Y0276091D02*
X0062595Y0276091D01*
X0062595Y0277089D02*
X0062595Y0277089D01*
X0062349Y0278088D02*
X0062841Y0278088D01*
X0063254Y0279086D02*
X0061936Y0279086D01*
X0061082Y0280085D02*
X0064109Y0280085D01*
X0065594Y0281083D02*
X0059596Y0281083D01*
X0055594Y0281083D02*
X0049596Y0281083D01*
X0050427Y0280739D02*
X0048590Y0281500D01*
X0046601Y0281500D01*
X0044763Y0280739D01*
X0043356Y0279332D01*
X0042595Y0277495D01*
X0042595Y0275505D01*
X0043356Y0273668D01*
X0044763Y0272261D01*
X0046601Y0271500D01*
X0048590Y0271500D01*
X0050427Y0272261D01*
X0051834Y0273668D01*
X0052595Y0275505D01*
X0052595Y0277495D01*
X0051834Y0279332D01*
X0050427Y0280739D01*
X0051082Y0280085D02*
X0054109Y0280085D01*
X0053254Y0279086D02*
X0051936Y0279086D01*
X0052349Y0278088D02*
X0052841Y0278088D01*
X0052595Y0277089D02*
X0052595Y0277089D01*
X0052595Y0276091D02*
X0052595Y0276091D01*
X0052424Y0275092D02*
X0052766Y0275092D01*
X0053180Y0274094D02*
X0052010Y0274094D01*
X0051261Y0273095D02*
X0053929Y0273095D01*
X0055160Y0272097D02*
X0050030Y0272097D01*
X0045160Y0272097D02*
X0033895Y0272097D01*
X0033895Y0273095D02*
X0043929Y0273095D01*
X0043180Y0274094D02*
X0033895Y0274094D01*
X0033895Y0275092D02*
X0042766Y0275092D01*
X0042595Y0276091D02*
X0033895Y0276091D01*
X0033895Y0277089D02*
X0042595Y0277089D01*
X0042841Y0278088D02*
X0033895Y0278088D01*
X0033895Y0279086D02*
X0043254Y0279086D01*
X0044109Y0280085D02*
X0033895Y0280085D01*
X0033895Y0281083D02*
X0045594Y0281083D01*
X0052237Y0292067D02*
X0033895Y0292067D01*
X0033895Y0293065D02*
X0051272Y0293065D01*
X0050717Y0294064D02*
X0033895Y0294064D01*
X0033895Y0295062D02*
X0050453Y0295062D01*
X0050395Y0296061D02*
X0033895Y0296061D01*
X0033895Y0297059D02*
X0050395Y0297059D01*
X0054595Y0297059D02*
X0055595Y0297059D01*
X0055595Y0296061D02*
X0054595Y0296061D01*
X0054595Y0295062D02*
X0055595Y0295062D01*
X0055595Y0294064D02*
X0054595Y0294064D01*
X0054595Y0293065D02*
X0055595Y0293065D01*
X0055595Y0292067D02*
X0054595Y0292067D01*
X0057953Y0292067D02*
X0062464Y0292067D01*
X0061466Y0293065D02*
X0058918Y0293065D01*
X0059473Y0294064D02*
X0060944Y0294064D01*
X0060595Y0295062D02*
X0059737Y0295062D01*
X0059795Y0296061D02*
X0060595Y0296061D01*
X0060595Y0297059D02*
X0059795Y0297059D01*
X0059795Y0298058D02*
X0060595Y0298058D01*
X0055595Y0300055D02*
X0054595Y0300055D01*
X0054595Y0301053D02*
X0055595Y0301053D01*
X0055595Y0302052D02*
X0054595Y0302052D01*
X0054595Y0303050D02*
X0055595Y0303050D01*
X0055595Y0304049D02*
X0054595Y0304049D01*
X0054595Y0305047D02*
X0055595Y0305047D01*
X0055595Y0306046D02*
X0054595Y0306046D01*
X0220782Y0345986D02*
X0226908Y0345986D01*
X0226614Y0346985D02*
X0221076Y0346985D01*
X0221076Y0350979D02*
X0226614Y0350979D01*
X0226872Y0351977D02*
X0220818Y0351977D01*
X0323999Y0230159D02*
X0346256Y0230159D01*
X0346256Y0229161D02*
X0324997Y0229161D01*
X0325620Y0228162D02*
X0346256Y0228162D01*
X0346256Y0227164D02*
X0326033Y0227164D01*
X0326100Y0226165D02*
X0346256Y0226165D01*
X0346256Y0225167D02*
X0326100Y0225167D01*
X0325734Y0224168D02*
X0346256Y0224168D01*
X0346256Y0223170D02*
X0325272Y0223170D01*
X0324274Y0222171D02*
X0346256Y0222171D01*
X0346256Y0221172D02*
X0322287Y0221172D01*
X0324142Y0220174D02*
X0346256Y0220174D01*
X0346256Y0219175D02*
X0325140Y0219175D01*
X0325679Y0218177D02*
X0346256Y0218177D01*
X0346256Y0217178D02*
X0326092Y0217178D01*
X0326100Y0216180D02*
X0346256Y0216180D01*
X0346256Y0215181D02*
X0326088Y0215181D01*
X0325674Y0214183D02*
X0346256Y0214183D01*
X0346256Y0213184D02*
X0325130Y0213184D01*
X0324131Y0212186D02*
X0346256Y0212186D01*
X0346256Y0211187D02*
X0322311Y0211187D01*
X0324284Y0210189D02*
X0346256Y0210189D01*
X0346256Y0209190D02*
X0325283Y0209190D01*
X0325738Y0208192D02*
X0346256Y0208192D01*
X0346256Y0207193D02*
X0326100Y0207193D01*
X0326100Y0206195D02*
X0346256Y0206195D01*
X0346256Y0205196D02*
X0326029Y0205196D01*
X0325615Y0204198D02*
X0346256Y0204198D01*
X0346256Y0203199D02*
X0324987Y0203199D01*
X0323989Y0202201D02*
X0346256Y0202201D01*
X0346256Y0201202D02*
X0322656Y0201202D01*
X0324427Y0200204D02*
X0346256Y0200204D01*
X0346256Y0199205D02*
X0325383Y0199205D01*
X0325797Y0198207D02*
X0346256Y0198207D01*
X0346256Y0197208D02*
X0326100Y0197208D01*
X0326100Y0196210D02*
X0346256Y0196210D01*
X0346256Y0195211D02*
X0325970Y0195211D01*
X0325556Y0194213D02*
X0346256Y0194213D01*
X0346256Y0193214D02*
X0324845Y0193214D01*
X0323665Y0192216D02*
X0346256Y0192216D01*
X0346256Y0191217D02*
X0323000Y0191217D01*
X0324569Y0190219D02*
X0346256Y0190219D01*
X0346256Y0189220D02*
X0325442Y0189220D01*
X0325856Y0188222D02*
X0346256Y0188222D01*
X0346256Y0187223D02*
X0326100Y0187223D01*
X0326100Y0186225D02*
X0346256Y0186225D01*
X0346256Y0185226D02*
X0325911Y0185226D01*
X0325497Y0184228D02*
X0346256Y0184228D01*
X0346256Y0183229D02*
X0324702Y0183229D01*
X0323320Y0182231D02*
X0346256Y0182231D01*
X0346256Y0181232D02*
X0323344Y0181232D01*
X0324712Y0180234D02*
X0346256Y0180234D01*
X0346256Y0179235D02*
X0325501Y0179235D01*
X0325915Y0178237D02*
X0346256Y0178237D01*
X0346256Y0177238D02*
X0326100Y0177238D01*
X0326100Y0176239D02*
X0346256Y0176239D01*
X0346256Y0175241D02*
X0325852Y0175241D01*
X0325438Y0174242D02*
X0346256Y0174242D01*
X0346256Y0173244D02*
X0324559Y0173244D01*
X0309090Y0197208D02*
X0300849Y0197208D01*
X0301847Y0198207D02*
X0309393Y0198207D01*
X0309807Y0199205D02*
X0302846Y0199205D01*
X0303844Y0200204D02*
X0310764Y0200204D01*
X0312535Y0201202D02*
X0304843Y0201202D01*
X0305841Y0202201D02*
X0311202Y0202201D01*
X0310203Y0203199D02*
X0306840Y0203199D01*
X0307839Y0204198D02*
X0309575Y0204198D01*
X0307595Y0206500D02*
X0300095Y0199000D01*
X0307595Y0206500D02*
X0317595Y0206343D01*
X0317595Y0216185D02*
X0307595Y0216500D01*
X0306727Y0218177D02*
X0271167Y0218177D01*
X0271167Y0219175D02*
X0310050Y0219175D01*
X0311049Y0220174D02*
X0271167Y0220174D01*
X0271167Y0221172D02*
X0312903Y0221172D01*
X0310916Y0222171D02*
X0271167Y0222171D01*
X0271167Y0223170D02*
X0309918Y0223170D01*
X0309457Y0224168D02*
X0271167Y0224168D01*
X0270095Y0226500D02*
X0317123Y0226500D01*
X0317595Y0226028D01*
X0317595Y0226500D01*
X0305728Y0217178D02*
X0271167Y0217178D01*
X0271167Y0216180D02*
X0304730Y0216180D01*
X0303731Y0215181D02*
X0271167Y0215181D01*
X0271167Y0214183D02*
X0302732Y0214183D01*
X0301734Y0213184D02*
X0271167Y0213184D01*
X0262673Y0051426D02*
X0033895Y0051426D01*
D15*
X0165095Y0234000D03*
X0175095Y0244000D03*
X0222595Y0341500D03*
X0065095Y0256500D03*
D16*
X0202595Y0259000D03*
X0202595Y0269000D03*
X0202595Y0229000D03*
X0202595Y0209000D03*
X0242595Y0329000D03*
X0230095Y0349000D03*
X0217595Y0349000D03*
X0242595Y0379000D03*
X0317595Y0359000D03*
X0317595Y0339000D03*
M02*
