G75*
%MOIN*%
%OFA0B0*%
%FSLAX25Y25*%
%IPPOS*%
%LPD*%
%AMOC8*
5,1,8,0,0,1.08239X$1,22.5*
%
%ADD10C,0.00800*%
%ADD11C,0.00600*%
%ADD12C,0.01200*%
%ADD13C,0.00000*%
%ADD14C,0.00300*%
%ADD15C,0.00200*%
%ADD16C,0.00400*%
%ADD17C,0.00500*%
%ADD18C,0.00700*%
%ADD19R,0.45276X0.01476*%
%ADD20R,0.01476X0.35433*%
%ADD21R,0.01476X0.25591*%
%ADD22C,0.00100*%
D10*
X0075655Y0047033D02*
X0469356Y0047033D01*
X0469356Y0440734D01*
X0075655Y0440734D01*
X0075655Y0047033D01*
X0084145Y0093496D02*
X0082610Y0095031D01*
X0084145Y0093496D02*
X0087214Y0093496D01*
X0088749Y0095031D01*
X0088749Y0096565D01*
X0087214Y0098100D01*
X0084145Y0098100D01*
X0082610Y0099635D01*
X0082610Y0101169D01*
X0084145Y0102704D01*
X0087214Y0102704D01*
X0088749Y0101169D01*
X0091818Y0098100D02*
X0091818Y0095031D01*
X0093353Y0093496D01*
X0096422Y0093496D01*
X0097957Y0096565D02*
X0091818Y0096565D01*
X0091818Y0098100D02*
X0093353Y0099635D01*
X0096422Y0099635D01*
X0097957Y0098100D01*
X0097957Y0096565D01*
X0101026Y0093496D02*
X0104095Y0093496D01*
X0102561Y0093496D02*
X0102561Y0102704D01*
X0101026Y0102704D01*
X0107165Y0098100D02*
X0110234Y0098100D01*
X0113303Y0098100D02*
X0119442Y0098100D01*
X0122511Y0099635D02*
X0125580Y0099635D01*
X0124046Y0101169D02*
X0124046Y0095031D01*
X0125580Y0093496D01*
X0128650Y0095031D02*
X0128650Y0099635D01*
X0128650Y0095031D02*
X0130184Y0093496D01*
X0134788Y0093496D01*
X0134788Y0099635D01*
X0137857Y0099635D02*
X0142461Y0099635D01*
X0143996Y0098100D01*
X0143996Y0093496D01*
X0147065Y0093496D02*
X0150135Y0093496D01*
X0148600Y0093496D02*
X0148600Y0099635D01*
X0147065Y0099635D01*
X0148600Y0102704D02*
X0148600Y0104239D01*
X0153204Y0099635D02*
X0157808Y0099635D01*
X0159342Y0098100D01*
X0159342Y0093496D01*
X0162412Y0095031D02*
X0163946Y0093496D01*
X0168550Y0093496D01*
X0168550Y0091961D02*
X0168550Y0099635D01*
X0163946Y0099635D01*
X0162412Y0098100D01*
X0162412Y0095031D01*
X0165481Y0090427D02*
X0167016Y0090427D01*
X0168550Y0091961D01*
X0180827Y0093496D02*
X0183897Y0093496D01*
X0182362Y0093496D02*
X0182362Y0102704D01*
X0180827Y0102704D01*
X0188501Y0099635D02*
X0191570Y0099635D01*
X0193105Y0098100D01*
X0193105Y0093496D01*
X0188501Y0093496D01*
X0186966Y0095031D01*
X0188501Y0096565D01*
X0193105Y0096565D01*
X0196174Y0093496D02*
X0200778Y0093496D01*
X0202312Y0095031D01*
X0202312Y0098100D01*
X0200778Y0099635D01*
X0196174Y0099635D01*
X0196174Y0102704D02*
X0196174Y0093496D01*
X0158726Y0119277D02*
X0355576Y0119277D01*
X0355576Y0316128D01*
X0158726Y0316128D01*
X0158726Y0119277D01*
X0153204Y0099635D02*
X0153204Y0093496D01*
X0137857Y0093496D02*
X0137857Y0099635D01*
X0110234Y0102704D02*
X0108699Y0101169D01*
X0108699Y0093496D01*
X0131108Y0294454D02*
X0085320Y0294454D01*
X0085320Y0311580D01*
X0131108Y0311580D01*
X0131108Y0294454D01*
X0201876Y0331817D02*
X0204376Y0329317D01*
X0209376Y0329317D01*
X0211876Y0331817D01*
X0214376Y0329317D01*
X0219376Y0329317D01*
X0221876Y0331817D01*
X0224376Y0329317D01*
X0229376Y0329317D01*
X0231876Y0331817D01*
X0231876Y0336817D01*
X0229376Y0339317D01*
X0224376Y0339317D01*
X0221876Y0336817D01*
X0219376Y0339317D01*
X0214376Y0339317D01*
X0211876Y0336817D01*
X0209376Y0339317D01*
X0204376Y0339317D01*
X0201876Y0336817D01*
X0201876Y0331817D01*
X0204415Y0348096D02*
X0201915Y0350596D01*
X0201915Y0355596D01*
X0204415Y0358096D01*
X0209415Y0358096D01*
X0211915Y0355596D01*
X0214415Y0358096D01*
X0219415Y0358096D01*
X0221915Y0355596D01*
X0224415Y0358096D01*
X0229415Y0358096D01*
X0231915Y0355596D01*
X0231915Y0350596D01*
X0229415Y0348096D01*
X0224415Y0348096D01*
X0221915Y0350596D01*
X0219415Y0348096D01*
X0214415Y0348096D01*
X0211915Y0350596D01*
X0209415Y0348096D01*
X0204415Y0348096D01*
X0204415Y0368096D02*
X0201915Y0370596D01*
X0201915Y0375596D01*
X0204415Y0378096D01*
X0209415Y0378096D01*
X0211915Y0375596D01*
X0214415Y0378096D01*
X0219415Y0378096D01*
X0221915Y0375596D01*
X0224415Y0378096D01*
X0229415Y0378096D01*
X0231915Y0375596D01*
X0231915Y0370596D01*
X0229415Y0368096D01*
X0224415Y0368096D01*
X0221915Y0370596D01*
X0219415Y0368096D01*
X0214415Y0368096D01*
X0211915Y0370596D01*
X0209415Y0368096D01*
X0204415Y0368096D01*
X0252880Y0335340D02*
X0252880Y0323529D01*
X0298352Y0323529D01*
X0298352Y0335340D01*
X0252880Y0335340D01*
X0367072Y0336620D02*
X0367072Y0331620D01*
X0369572Y0329120D01*
X0374572Y0329120D01*
X0377072Y0331620D01*
X0377072Y0336620D01*
X0374572Y0339120D01*
X0377072Y0341620D01*
X0377072Y0346620D01*
X0374572Y0349120D01*
X0377072Y0351620D01*
X0377072Y0356620D01*
X0374572Y0359120D01*
X0377072Y0361620D01*
X0377072Y0366620D01*
X0374572Y0369120D01*
X0377072Y0371620D01*
X0377072Y0376620D01*
X0374572Y0379120D01*
X0377072Y0381620D01*
X0377072Y0386620D01*
X0374572Y0389120D01*
X0377072Y0391620D01*
X0377072Y0396620D01*
X0374572Y0399120D01*
X0377072Y0401620D01*
X0377072Y0406620D01*
X0374572Y0409120D01*
X0377072Y0411620D01*
X0377072Y0416620D01*
X0374572Y0419120D01*
X0377072Y0421620D01*
X0377072Y0426620D01*
X0374572Y0429120D01*
X0369572Y0429120D01*
X0367072Y0426620D01*
X0367072Y0421620D01*
X0369572Y0419120D01*
X0367072Y0416620D01*
X0367072Y0411620D01*
X0369572Y0409120D01*
X0367072Y0406620D01*
X0367072Y0401620D01*
X0369572Y0399120D01*
X0367072Y0396620D01*
X0367072Y0391620D01*
X0369572Y0389120D01*
X0367072Y0386620D01*
X0367072Y0381620D01*
X0369572Y0379120D01*
X0367072Y0376620D01*
X0367072Y0371620D01*
X0369572Y0369120D01*
X0367072Y0366620D01*
X0367072Y0361620D01*
X0369572Y0359120D01*
X0367072Y0356620D01*
X0367072Y0351620D01*
X0369572Y0349120D01*
X0367072Y0346620D01*
X0367072Y0341620D01*
X0369572Y0339120D01*
X0367072Y0336620D01*
X0373647Y0304159D02*
X0381521Y0304159D01*
X0381521Y0298647D01*
X0380340Y0295891D02*
X0377584Y0295891D01*
X0379946Y0293529D01*
X0375222Y0293529D01*
X0377584Y0295891D01*
X0374828Y0295891D01*
X0373647Y0298647D02*
X0373647Y0304159D01*
X0373647Y0290773D02*
X0373647Y0285261D01*
X0381521Y0285261D01*
X0381521Y0290773D01*
X0377348Y0277998D02*
X0389159Y0277998D01*
X0389159Y0242368D01*
X0377348Y0242368D01*
X0377348Y0277998D01*
X0447072Y0331620D02*
X0449572Y0329120D01*
X0454572Y0329120D01*
X0457072Y0331620D01*
X0457072Y0336620D01*
X0454572Y0339120D01*
X0457072Y0341620D01*
X0457072Y0346620D01*
X0454572Y0349120D01*
X0457072Y0351620D01*
X0457072Y0356620D01*
X0454572Y0359120D01*
X0457072Y0361620D01*
X0457072Y0366620D01*
X0454572Y0369120D01*
X0457072Y0371620D01*
X0457072Y0376620D01*
X0454572Y0379120D01*
X0457072Y0381620D01*
X0457072Y0386620D01*
X0454572Y0389120D01*
X0457072Y0391620D01*
X0457072Y0396620D01*
X0454572Y0399120D01*
X0457072Y0401620D01*
X0457072Y0406620D01*
X0454572Y0409120D01*
X0457072Y0411620D01*
X0457072Y0416620D01*
X0454572Y0419120D01*
X0457072Y0421620D01*
X0457072Y0426620D01*
X0454572Y0429120D01*
X0449572Y0429120D01*
X0447072Y0426620D01*
X0447072Y0421620D01*
X0449572Y0419120D01*
X0447072Y0416620D01*
X0447072Y0411620D01*
X0449572Y0409120D01*
X0447072Y0406620D01*
X0447072Y0401620D01*
X0449572Y0399120D01*
X0447072Y0396620D01*
X0447072Y0391620D01*
X0449572Y0389120D01*
X0447072Y0386620D01*
X0447072Y0381620D01*
X0449572Y0379120D01*
X0447072Y0376620D01*
X0447072Y0371620D01*
X0449572Y0369120D01*
X0447072Y0366620D01*
X0447072Y0361620D01*
X0449572Y0359120D01*
X0447072Y0356620D01*
X0447072Y0351620D01*
X0449572Y0349120D01*
X0447072Y0346620D01*
X0447072Y0341620D01*
X0449572Y0339120D01*
X0447072Y0336620D01*
X0447072Y0331620D01*
X0394277Y0164986D02*
X0382466Y0164986D01*
X0382466Y0139198D01*
X0394277Y0139198D01*
X0394277Y0164986D01*
D11*
X0394080Y0285576D02*
X0391718Y0285576D01*
X0391718Y0290301D02*
X0394080Y0290301D01*
X0392781Y0302230D02*
X0392781Y0304592D01*
X0397506Y0304592D02*
X0397506Y0302230D01*
X0408435Y0307919D02*
X0408435Y0322919D01*
X0408437Y0322979D01*
X0408442Y0323040D01*
X0408451Y0323099D01*
X0408464Y0323158D01*
X0408480Y0323217D01*
X0408500Y0323274D01*
X0408523Y0323329D01*
X0408550Y0323384D01*
X0408579Y0323436D01*
X0408612Y0323487D01*
X0408648Y0323536D01*
X0408686Y0323582D01*
X0408728Y0323626D01*
X0408772Y0323668D01*
X0408818Y0323706D01*
X0408867Y0323742D01*
X0408918Y0323775D01*
X0408970Y0323804D01*
X0409025Y0323831D01*
X0409080Y0323854D01*
X0409137Y0323874D01*
X0409196Y0323890D01*
X0409255Y0323903D01*
X0409314Y0323912D01*
X0409375Y0323917D01*
X0409435Y0323919D01*
X0419435Y0323919D01*
X0419495Y0323917D01*
X0419556Y0323912D01*
X0419615Y0323903D01*
X0419674Y0323890D01*
X0419733Y0323874D01*
X0419790Y0323854D01*
X0419845Y0323831D01*
X0419900Y0323804D01*
X0419952Y0323775D01*
X0420003Y0323742D01*
X0420052Y0323706D01*
X0420098Y0323668D01*
X0420142Y0323626D01*
X0420184Y0323582D01*
X0420222Y0323536D01*
X0420258Y0323487D01*
X0420291Y0323436D01*
X0420320Y0323384D01*
X0420347Y0323329D01*
X0420370Y0323274D01*
X0420390Y0323217D01*
X0420406Y0323158D01*
X0420419Y0323099D01*
X0420428Y0323040D01*
X0420433Y0322979D01*
X0420435Y0322919D01*
X0420435Y0307919D01*
X0420433Y0307859D01*
X0420428Y0307798D01*
X0420419Y0307739D01*
X0420406Y0307680D01*
X0420390Y0307621D01*
X0420370Y0307564D01*
X0420347Y0307509D01*
X0420320Y0307454D01*
X0420291Y0307402D01*
X0420258Y0307351D01*
X0420222Y0307302D01*
X0420184Y0307256D01*
X0420142Y0307212D01*
X0420098Y0307170D01*
X0420052Y0307132D01*
X0420003Y0307096D01*
X0419952Y0307063D01*
X0419900Y0307034D01*
X0419845Y0307007D01*
X0419790Y0306984D01*
X0419733Y0306964D01*
X0419674Y0306948D01*
X0419615Y0306935D01*
X0419556Y0306926D01*
X0419495Y0306921D01*
X0419435Y0306919D01*
X0409435Y0306919D01*
X0409375Y0306921D01*
X0409314Y0306926D01*
X0409255Y0306935D01*
X0409196Y0306948D01*
X0409137Y0306964D01*
X0409080Y0306984D01*
X0409025Y0307007D01*
X0408970Y0307034D01*
X0408918Y0307063D01*
X0408867Y0307096D01*
X0408818Y0307132D01*
X0408772Y0307170D01*
X0408728Y0307212D01*
X0408686Y0307256D01*
X0408648Y0307302D01*
X0408612Y0307351D01*
X0408579Y0307402D01*
X0408550Y0307454D01*
X0408523Y0307509D01*
X0408500Y0307564D01*
X0408480Y0307621D01*
X0408464Y0307680D01*
X0408451Y0307739D01*
X0408442Y0307798D01*
X0408437Y0307859D01*
X0408435Y0307919D01*
X0416679Y0302191D02*
X0419041Y0302191D01*
X0419041Y0297466D02*
X0416679Y0297466D01*
X0429419Y0308431D02*
X0429419Y0323431D01*
X0429421Y0323491D01*
X0429426Y0323552D01*
X0429435Y0323611D01*
X0429448Y0323670D01*
X0429464Y0323729D01*
X0429484Y0323786D01*
X0429507Y0323841D01*
X0429534Y0323896D01*
X0429563Y0323948D01*
X0429596Y0323999D01*
X0429632Y0324048D01*
X0429670Y0324094D01*
X0429712Y0324138D01*
X0429756Y0324180D01*
X0429802Y0324218D01*
X0429851Y0324254D01*
X0429902Y0324287D01*
X0429954Y0324316D01*
X0430009Y0324343D01*
X0430064Y0324366D01*
X0430121Y0324386D01*
X0430180Y0324402D01*
X0430239Y0324415D01*
X0430298Y0324424D01*
X0430359Y0324429D01*
X0430419Y0324431D01*
X0440419Y0324431D01*
X0440479Y0324429D01*
X0440540Y0324424D01*
X0440599Y0324415D01*
X0440658Y0324402D01*
X0440717Y0324386D01*
X0440774Y0324366D01*
X0440829Y0324343D01*
X0440884Y0324316D01*
X0440936Y0324287D01*
X0440987Y0324254D01*
X0441036Y0324218D01*
X0441082Y0324180D01*
X0441126Y0324138D01*
X0441168Y0324094D01*
X0441206Y0324048D01*
X0441242Y0323999D01*
X0441275Y0323948D01*
X0441304Y0323896D01*
X0441331Y0323841D01*
X0441354Y0323786D01*
X0441374Y0323729D01*
X0441390Y0323670D01*
X0441403Y0323611D01*
X0441412Y0323552D01*
X0441417Y0323491D01*
X0441419Y0323431D01*
X0441419Y0308431D01*
X0441417Y0308371D01*
X0441412Y0308310D01*
X0441403Y0308251D01*
X0441390Y0308192D01*
X0441374Y0308133D01*
X0441354Y0308076D01*
X0441331Y0308021D01*
X0441304Y0307966D01*
X0441275Y0307914D01*
X0441242Y0307863D01*
X0441206Y0307814D01*
X0441168Y0307768D01*
X0441126Y0307724D01*
X0441082Y0307682D01*
X0441036Y0307644D01*
X0440987Y0307608D01*
X0440936Y0307575D01*
X0440884Y0307546D01*
X0440829Y0307519D01*
X0440774Y0307496D01*
X0440717Y0307476D01*
X0440658Y0307460D01*
X0440599Y0307447D01*
X0440540Y0307438D01*
X0440479Y0307433D01*
X0440419Y0307431D01*
X0430419Y0307431D01*
X0430359Y0307433D01*
X0430298Y0307438D01*
X0430239Y0307447D01*
X0430180Y0307460D01*
X0430121Y0307476D01*
X0430064Y0307496D01*
X0430009Y0307519D01*
X0429954Y0307546D01*
X0429902Y0307575D01*
X0429851Y0307608D01*
X0429802Y0307644D01*
X0429756Y0307682D01*
X0429712Y0307724D01*
X0429670Y0307768D01*
X0429632Y0307814D01*
X0429596Y0307863D01*
X0429563Y0307914D01*
X0429534Y0307966D01*
X0429507Y0308021D01*
X0429484Y0308076D01*
X0429464Y0308133D01*
X0429448Y0308192D01*
X0429435Y0308251D01*
X0429426Y0308310D01*
X0429421Y0308371D01*
X0429419Y0308431D01*
X0414272Y0341920D02*
X0407867Y0341920D01*
X0407867Y0345122D01*
X0408935Y0346190D01*
X0410002Y0346190D01*
X0411070Y0345122D01*
X0411070Y0341920D01*
X0411070Y0345122D02*
X0412137Y0346190D01*
X0413205Y0346190D01*
X0414272Y0345122D01*
X0414272Y0341920D01*
X0414272Y0348365D02*
X0414272Y0350500D01*
X0414272Y0349433D02*
X0407867Y0349433D01*
X0407867Y0348365D01*
X0410002Y0352662D02*
X0413205Y0352662D01*
X0414272Y0353730D01*
X0414272Y0356932D01*
X0410002Y0356932D01*
X0411070Y0359108D02*
X0410002Y0360175D01*
X0410002Y0362310D01*
X0411070Y0363378D01*
X0412137Y0363378D01*
X0412137Y0359108D01*
X0411070Y0359108D02*
X0413205Y0359108D01*
X0414272Y0360175D01*
X0414272Y0362310D01*
X0413205Y0366621D02*
X0414272Y0367688D01*
X0413205Y0366621D02*
X0408935Y0366621D01*
X0410002Y0367688D02*
X0410002Y0365553D01*
X0411070Y0369850D02*
X0413205Y0369850D01*
X0414272Y0370918D01*
X0414272Y0373053D01*
X0413205Y0374120D01*
X0411070Y0374120D01*
X0410002Y0373053D01*
X0410002Y0370918D01*
X0411070Y0369850D01*
X0411070Y0376296D02*
X0413205Y0376296D01*
X0414272Y0377363D01*
X0414272Y0379498D01*
X0413205Y0380566D01*
X0411070Y0380566D01*
X0410002Y0379498D01*
X0410002Y0377363D01*
X0411070Y0376296D01*
X0410002Y0382741D02*
X0410002Y0384876D01*
X0408935Y0383809D02*
X0413205Y0383809D01*
X0414272Y0384876D01*
X0414272Y0387038D02*
X0407867Y0387038D01*
X0410002Y0388106D02*
X0410002Y0390241D01*
X0411070Y0391308D01*
X0414272Y0391308D01*
X0411070Y0387038D02*
X0410002Y0388106D01*
X0407867Y0399929D02*
X0410002Y0402064D01*
X0407867Y0404199D01*
X0414272Y0404199D01*
X0413205Y0406375D02*
X0414272Y0407442D01*
X0414272Y0409577D01*
X0413205Y0410645D01*
X0411070Y0410645D01*
X0410002Y0409577D01*
X0410002Y0407442D01*
X0411070Y0406375D01*
X0413205Y0406375D01*
X0413205Y0412820D02*
X0411070Y0412820D01*
X0410002Y0413888D01*
X0410002Y0417090D01*
X0407867Y0417090D02*
X0414272Y0417090D01*
X0414272Y0413888D01*
X0413205Y0412820D01*
X0413205Y0419266D02*
X0414272Y0420333D01*
X0414272Y0423536D01*
X0410002Y0423536D01*
X0407867Y0425711D02*
X0407867Y0426779D01*
X0414272Y0426779D01*
X0414272Y0427846D02*
X0414272Y0425711D01*
X0413205Y0430008D02*
X0411070Y0430008D01*
X0410002Y0431076D01*
X0410002Y0433211D01*
X0411070Y0434278D01*
X0412137Y0434278D01*
X0412137Y0430008D01*
X0413205Y0430008D02*
X0414272Y0431076D01*
X0414272Y0433211D01*
X0413205Y0419266D02*
X0410002Y0419266D01*
X0407867Y0399929D02*
X0414272Y0399929D01*
X0350474Y0380911D02*
X0350474Y0365911D01*
X0350472Y0365851D01*
X0350467Y0365790D01*
X0350458Y0365731D01*
X0350445Y0365672D01*
X0350429Y0365613D01*
X0350409Y0365556D01*
X0350386Y0365501D01*
X0350359Y0365446D01*
X0350330Y0365394D01*
X0350297Y0365343D01*
X0350261Y0365294D01*
X0350223Y0365248D01*
X0350181Y0365204D01*
X0350137Y0365162D01*
X0350091Y0365124D01*
X0350042Y0365088D01*
X0349991Y0365055D01*
X0349939Y0365026D01*
X0349884Y0364999D01*
X0349829Y0364976D01*
X0349772Y0364956D01*
X0349713Y0364940D01*
X0349654Y0364927D01*
X0349595Y0364918D01*
X0349534Y0364913D01*
X0349474Y0364911D01*
X0339474Y0364911D01*
X0339414Y0364913D01*
X0339353Y0364918D01*
X0339294Y0364927D01*
X0339235Y0364940D01*
X0339176Y0364956D01*
X0339119Y0364976D01*
X0339064Y0364999D01*
X0339009Y0365026D01*
X0338957Y0365055D01*
X0338906Y0365088D01*
X0338857Y0365124D01*
X0338811Y0365162D01*
X0338767Y0365204D01*
X0338725Y0365248D01*
X0338687Y0365294D01*
X0338651Y0365343D01*
X0338618Y0365394D01*
X0338589Y0365446D01*
X0338562Y0365501D01*
X0338539Y0365556D01*
X0338519Y0365613D01*
X0338503Y0365672D01*
X0338490Y0365731D01*
X0338481Y0365790D01*
X0338476Y0365851D01*
X0338474Y0365911D01*
X0338474Y0380911D01*
X0338476Y0380971D01*
X0338481Y0381032D01*
X0338490Y0381091D01*
X0338503Y0381150D01*
X0338519Y0381209D01*
X0338539Y0381266D01*
X0338562Y0381321D01*
X0338589Y0381376D01*
X0338618Y0381428D01*
X0338651Y0381479D01*
X0338687Y0381528D01*
X0338725Y0381574D01*
X0338767Y0381618D01*
X0338811Y0381660D01*
X0338857Y0381698D01*
X0338906Y0381734D01*
X0338957Y0381767D01*
X0339009Y0381796D01*
X0339064Y0381823D01*
X0339119Y0381846D01*
X0339176Y0381866D01*
X0339235Y0381882D01*
X0339294Y0381895D01*
X0339353Y0381904D01*
X0339414Y0381909D01*
X0339474Y0381911D01*
X0349474Y0381911D01*
X0349534Y0381909D01*
X0349595Y0381904D01*
X0349654Y0381895D01*
X0349713Y0381882D01*
X0349772Y0381866D01*
X0349829Y0381846D01*
X0349884Y0381823D01*
X0349939Y0381796D01*
X0349991Y0381767D01*
X0350042Y0381734D01*
X0350091Y0381698D01*
X0350137Y0381660D01*
X0350181Y0381618D01*
X0350223Y0381574D01*
X0350261Y0381528D01*
X0350297Y0381479D01*
X0350330Y0381428D01*
X0350359Y0381376D01*
X0350386Y0381321D01*
X0350409Y0381266D01*
X0350429Y0381209D01*
X0350445Y0381150D01*
X0350458Y0381091D01*
X0350467Y0381032D01*
X0350472Y0380971D01*
X0350474Y0380911D01*
X0327954Y0381029D02*
X0327954Y0366029D01*
X0327952Y0365969D01*
X0327947Y0365908D01*
X0327938Y0365849D01*
X0327925Y0365790D01*
X0327909Y0365731D01*
X0327889Y0365674D01*
X0327866Y0365619D01*
X0327839Y0365564D01*
X0327810Y0365512D01*
X0327777Y0365461D01*
X0327741Y0365412D01*
X0327703Y0365366D01*
X0327661Y0365322D01*
X0327617Y0365280D01*
X0327571Y0365242D01*
X0327522Y0365206D01*
X0327471Y0365173D01*
X0327419Y0365144D01*
X0327364Y0365117D01*
X0327309Y0365094D01*
X0327252Y0365074D01*
X0327193Y0365058D01*
X0327134Y0365045D01*
X0327075Y0365036D01*
X0327014Y0365031D01*
X0326954Y0365029D01*
X0316954Y0365029D01*
X0316894Y0365031D01*
X0316833Y0365036D01*
X0316774Y0365045D01*
X0316715Y0365058D01*
X0316656Y0365074D01*
X0316599Y0365094D01*
X0316544Y0365117D01*
X0316489Y0365144D01*
X0316437Y0365173D01*
X0316386Y0365206D01*
X0316337Y0365242D01*
X0316291Y0365280D01*
X0316247Y0365322D01*
X0316205Y0365366D01*
X0316167Y0365412D01*
X0316131Y0365461D01*
X0316098Y0365512D01*
X0316069Y0365564D01*
X0316042Y0365619D01*
X0316019Y0365674D01*
X0315999Y0365731D01*
X0315983Y0365790D01*
X0315970Y0365849D01*
X0315961Y0365908D01*
X0315956Y0365969D01*
X0315954Y0366029D01*
X0315954Y0381029D01*
X0315956Y0381089D01*
X0315961Y0381150D01*
X0315970Y0381209D01*
X0315983Y0381268D01*
X0315999Y0381327D01*
X0316019Y0381384D01*
X0316042Y0381439D01*
X0316069Y0381494D01*
X0316098Y0381546D01*
X0316131Y0381597D01*
X0316167Y0381646D01*
X0316205Y0381692D01*
X0316247Y0381736D01*
X0316291Y0381778D01*
X0316337Y0381816D01*
X0316386Y0381852D01*
X0316437Y0381885D01*
X0316489Y0381914D01*
X0316544Y0381941D01*
X0316599Y0381964D01*
X0316656Y0381984D01*
X0316715Y0382000D01*
X0316774Y0382013D01*
X0316833Y0382022D01*
X0316894Y0382027D01*
X0316954Y0382029D01*
X0326954Y0382029D01*
X0327014Y0382027D01*
X0327075Y0382022D01*
X0327134Y0382013D01*
X0327193Y0382000D01*
X0327252Y0381984D01*
X0327309Y0381964D01*
X0327364Y0381941D01*
X0327419Y0381914D01*
X0327471Y0381885D01*
X0327522Y0381852D01*
X0327571Y0381816D01*
X0327617Y0381778D01*
X0327661Y0381736D01*
X0327703Y0381692D01*
X0327741Y0381646D01*
X0327777Y0381597D01*
X0327810Y0381546D01*
X0327839Y0381494D01*
X0327866Y0381439D01*
X0327889Y0381384D01*
X0327909Y0381327D01*
X0327925Y0381268D01*
X0327938Y0381209D01*
X0327947Y0381150D01*
X0327952Y0381089D01*
X0327954Y0381029D01*
X0305317Y0380793D02*
X0305317Y0365793D01*
X0305315Y0365733D01*
X0305310Y0365672D01*
X0305301Y0365613D01*
X0305288Y0365554D01*
X0305272Y0365495D01*
X0305252Y0365438D01*
X0305229Y0365383D01*
X0305202Y0365328D01*
X0305173Y0365276D01*
X0305140Y0365225D01*
X0305104Y0365176D01*
X0305066Y0365130D01*
X0305024Y0365086D01*
X0304980Y0365044D01*
X0304934Y0365006D01*
X0304885Y0364970D01*
X0304834Y0364937D01*
X0304782Y0364908D01*
X0304727Y0364881D01*
X0304672Y0364858D01*
X0304615Y0364838D01*
X0304556Y0364822D01*
X0304497Y0364809D01*
X0304438Y0364800D01*
X0304377Y0364795D01*
X0304317Y0364793D01*
X0294317Y0364793D01*
X0294257Y0364795D01*
X0294196Y0364800D01*
X0294137Y0364809D01*
X0294078Y0364822D01*
X0294019Y0364838D01*
X0293962Y0364858D01*
X0293907Y0364881D01*
X0293852Y0364908D01*
X0293800Y0364937D01*
X0293749Y0364970D01*
X0293700Y0365006D01*
X0293654Y0365044D01*
X0293610Y0365086D01*
X0293568Y0365130D01*
X0293530Y0365176D01*
X0293494Y0365225D01*
X0293461Y0365276D01*
X0293432Y0365328D01*
X0293405Y0365383D01*
X0293382Y0365438D01*
X0293362Y0365495D01*
X0293346Y0365554D01*
X0293333Y0365613D01*
X0293324Y0365672D01*
X0293319Y0365733D01*
X0293317Y0365793D01*
X0293317Y0380793D01*
X0293319Y0380853D01*
X0293324Y0380914D01*
X0293333Y0380973D01*
X0293346Y0381032D01*
X0293362Y0381091D01*
X0293382Y0381148D01*
X0293405Y0381203D01*
X0293432Y0381258D01*
X0293461Y0381310D01*
X0293494Y0381361D01*
X0293530Y0381410D01*
X0293568Y0381456D01*
X0293610Y0381500D01*
X0293654Y0381542D01*
X0293700Y0381580D01*
X0293749Y0381616D01*
X0293800Y0381649D01*
X0293852Y0381678D01*
X0293907Y0381705D01*
X0293962Y0381728D01*
X0294019Y0381748D01*
X0294078Y0381764D01*
X0294137Y0381777D01*
X0294196Y0381786D01*
X0294257Y0381791D01*
X0294317Y0381793D01*
X0304317Y0381793D01*
X0304377Y0381791D01*
X0304438Y0381786D01*
X0304497Y0381777D01*
X0304556Y0381764D01*
X0304615Y0381748D01*
X0304672Y0381728D01*
X0304727Y0381705D01*
X0304782Y0381678D01*
X0304834Y0381649D01*
X0304885Y0381616D01*
X0304934Y0381580D01*
X0304980Y0381542D01*
X0305024Y0381500D01*
X0305066Y0381456D01*
X0305104Y0381410D01*
X0305140Y0381361D01*
X0305173Y0381310D01*
X0305202Y0381258D01*
X0305229Y0381203D01*
X0305252Y0381148D01*
X0305272Y0381091D01*
X0305288Y0381032D01*
X0305301Y0380973D01*
X0305310Y0380914D01*
X0305315Y0380853D01*
X0305317Y0380793D01*
X0305694Y0353076D02*
X0305694Y0350714D01*
X0310419Y0350714D02*
X0310419Y0353076D01*
X0343372Y0352564D02*
X0343372Y0350202D01*
X0348096Y0350202D02*
X0348096Y0352564D01*
X0374710Y0315498D02*
X0374710Y0313135D01*
X0379435Y0313135D02*
X0379435Y0315498D01*
X0175146Y0328336D02*
X0175146Y0365336D01*
X0175144Y0365412D01*
X0175138Y0365488D01*
X0175129Y0365563D01*
X0175115Y0365638D01*
X0175098Y0365712D01*
X0175077Y0365785D01*
X0175053Y0365857D01*
X0175024Y0365928D01*
X0174993Y0365997D01*
X0174958Y0366064D01*
X0174919Y0366129D01*
X0174877Y0366193D01*
X0174832Y0366254D01*
X0174784Y0366313D01*
X0174733Y0366369D01*
X0174679Y0366423D01*
X0174623Y0366474D01*
X0174564Y0366522D01*
X0174503Y0366567D01*
X0174439Y0366609D01*
X0174374Y0366648D01*
X0174307Y0366683D01*
X0174238Y0366714D01*
X0174167Y0366743D01*
X0174095Y0366767D01*
X0174022Y0366788D01*
X0173948Y0366805D01*
X0173873Y0366819D01*
X0173798Y0366828D01*
X0173722Y0366834D01*
X0173646Y0366836D01*
X0161246Y0366836D01*
X0161170Y0366834D01*
X0161094Y0366828D01*
X0161019Y0366819D01*
X0160944Y0366805D01*
X0160870Y0366788D01*
X0160797Y0366767D01*
X0160725Y0366743D01*
X0160654Y0366714D01*
X0160585Y0366683D01*
X0160518Y0366648D01*
X0160453Y0366609D01*
X0160389Y0366567D01*
X0160328Y0366522D01*
X0160269Y0366474D01*
X0160213Y0366423D01*
X0160159Y0366369D01*
X0160108Y0366313D01*
X0160060Y0366254D01*
X0160015Y0366193D01*
X0159973Y0366129D01*
X0159934Y0366064D01*
X0159899Y0365997D01*
X0159868Y0365928D01*
X0159839Y0365857D01*
X0159815Y0365785D01*
X0159794Y0365712D01*
X0159777Y0365638D01*
X0159763Y0365563D01*
X0159754Y0365488D01*
X0159748Y0365412D01*
X0159746Y0365336D01*
X0159746Y0328336D01*
X0159748Y0328260D01*
X0159754Y0328184D01*
X0159763Y0328109D01*
X0159777Y0328034D01*
X0159794Y0327960D01*
X0159815Y0327887D01*
X0159839Y0327815D01*
X0159868Y0327744D01*
X0159899Y0327675D01*
X0159934Y0327608D01*
X0159973Y0327543D01*
X0160015Y0327479D01*
X0160060Y0327418D01*
X0160108Y0327359D01*
X0160159Y0327303D01*
X0160213Y0327249D01*
X0160269Y0327198D01*
X0160328Y0327150D01*
X0160389Y0327105D01*
X0160453Y0327063D01*
X0160518Y0327024D01*
X0160585Y0326989D01*
X0160654Y0326958D01*
X0160725Y0326929D01*
X0160797Y0326905D01*
X0160870Y0326884D01*
X0160944Y0326867D01*
X0161019Y0326853D01*
X0161094Y0326844D01*
X0161170Y0326838D01*
X0161246Y0326836D01*
X0165446Y0326836D01*
X0169446Y0326836D01*
X0173646Y0326836D01*
X0173722Y0326838D01*
X0173798Y0326844D01*
X0173873Y0326853D01*
X0173948Y0326867D01*
X0174022Y0326884D01*
X0174095Y0326905D01*
X0174167Y0326929D01*
X0174238Y0326958D01*
X0174307Y0326989D01*
X0174374Y0327024D01*
X0174439Y0327063D01*
X0174503Y0327105D01*
X0174564Y0327150D01*
X0174623Y0327198D01*
X0174679Y0327249D01*
X0174733Y0327303D01*
X0174784Y0327359D01*
X0174832Y0327418D01*
X0174877Y0327479D01*
X0174919Y0327543D01*
X0174958Y0327608D01*
X0174993Y0327675D01*
X0175024Y0327744D01*
X0175053Y0327815D01*
X0175077Y0327887D01*
X0175098Y0327960D01*
X0175115Y0328034D01*
X0175129Y0328109D01*
X0175138Y0328184D01*
X0175144Y0328260D01*
X0175146Y0328336D01*
X0169446Y0326836D02*
X0169444Y0326924D01*
X0169438Y0327013D01*
X0169428Y0327101D01*
X0169415Y0327188D01*
X0169397Y0327275D01*
X0169376Y0327361D01*
X0169351Y0327446D01*
X0169322Y0327529D01*
X0169289Y0327612D01*
X0169253Y0327692D01*
X0169214Y0327771D01*
X0169171Y0327849D01*
X0169124Y0327924D01*
X0169074Y0327997D01*
X0169021Y0328068D01*
X0168965Y0328137D01*
X0168906Y0328203D01*
X0168844Y0328266D01*
X0168780Y0328326D01*
X0168713Y0328384D01*
X0168643Y0328438D01*
X0168571Y0328490D01*
X0168497Y0328538D01*
X0168420Y0328583D01*
X0168342Y0328624D01*
X0168262Y0328662D01*
X0168181Y0328696D01*
X0168098Y0328727D01*
X0168013Y0328754D01*
X0167928Y0328777D01*
X0167842Y0328796D01*
X0167754Y0328812D01*
X0167667Y0328824D01*
X0167579Y0328832D01*
X0167490Y0328836D01*
X0167402Y0328836D01*
X0167313Y0328832D01*
X0167225Y0328824D01*
X0167138Y0328812D01*
X0167050Y0328796D01*
X0166964Y0328777D01*
X0166879Y0328754D01*
X0166794Y0328727D01*
X0166711Y0328696D01*
X0166630Y0328662D01*
X0166550Y0328624D01*
X0166472Y0328583D01*
X0166395Y0328538D01*
X0166321Y0328490D01*
X0166249Y0328438D01*
X0166179Y0328384D01*
X0166112Y0328326D01*
X0166048Y0328266D01*
X0165986Y0328203D01*
X0165927Y0328137D01*
X0165871Y0328068D01*
X0165818Y0327997D01*
X0165768Y0327924D01*
X0165721Y0327849D01*
X0165678Y0327771D01*
X0165639Y0327692D01*
X0165603Y0327612D01*
X0165570Y0327529D01*
X0165541Y0327446D01*
X0165516Y0327361D01*
X0165495Y0327275D01*
X0165477Y0327188D01*
X0165464Y0327101D01*
X0165454Y0327013D01*
X0165448Y0326924D01*
X0165446Y0326836D01*
X0124494Y0331128D02*
X0121994Y0328628D01*
X0116994Y0328628D01*
X0114494Y0331128D01*
X0111994Y0328628D01*
X0106994Y0328628D01*
X0104494Y0331128D01*
X0104494Y0336128D01*
X0106994Y0338628D01*
X0111994Y0338628D01*
X0114494Y0336128D01*
X0116994Y0338628D01*
X0121994Y0338628D01*
X0124494Y0336128D01*
X0124494Y0331128D01*
X0114494Y0331128D02*
X0114494Y0336128D01*
X0113491Y0346428D02*
X0113491Y0349630D01*
X0114559Y0350698D01*
X0115626Y0350698D01*
X0116694Y0349630D01*
X0116694Y0346428D01*
X0110288Y0346428D01*
X0110288Y0349630D01*
X0111356Y0350698D01*
X0112423Y0350698D01*
X0113491Y0349630D01*
X0113491Y0352873D02*
X0115626Y0352873D01*
X0116694Y0353941D01*
X0116694Y0356076D01*
X0115626Y0357143D01*
X0113491Y0357143D01*
X0112423Y0356076D01*
X0112423Y0353941D01*
X0113491Y0352873D01*
X0113491Y0359319D02*
X0115626Y0359319D01*
X0116694Y0360386D01*
X0116694Y0362521D01*
X0115626Y0363589D01*
X0113491Y0363589D01*
X0112423Y0362521D01*
X0112423Y0360386D01*
X0113491Y0359319D01*
X0113491Y0365764D02*
X0112423Y0366832D01*
X0112423Y0370034D01*
X0112423Y0372210D02*
X0112423Y0374345D01*
X0111356Y0373277D02*
X0115626Y0373277D01*
X0116694Y0374345D01*
X0115626Y0370034D02*
X0114559Y0368967D01*
X0114559Y0366832D01*
X0113491Y0365764D01*
X0116694Y0365764D02*
X0116694Y0368967D01*
X0115626Y0370034D01*
X0115626Y0382952D02*
X0116694Y0384020D01*
X0116694Y0387222D01*
X0115626Y0389398D02*
X0116694Y0390465D01*
X0116694Y0392600D01*
X0115626Y0393668D01*
X0113491Y0393668D01*
X0112423Y0392600D01*
X0112423Y0390465D01*
X0113491Y0389398D01*
X0115626Y0389398D01*
X0112423Y0387222D02*
X0112423Y0384020D01*
X0113491Y0382952D01*
X0115626Y0382952D01*
X0116694Y0395843D02*
X0112423Y0395843D01*
X0112423Y0399046D01*
X0113491Y0400113D01*
X0116694Y0400113D01*
X0116694Y0404424D02*
X0112423Y0402289D01*
X0112423Y0406559D02*
X0116694Y0404424D01*
X0115626Y0408734D02*
X0113491Y0408734D01*
X0112423Y0409802D01*
X0112423Y0411937D01*
X0113491Y0413004D01*
X0114559Y0413004D01*
X0114559Y0408734D01*
X0115626Y0408734D02*
X0116694Y0409802D01*
X0116694Y0411937D01*
X0116694Y0415180D02*
X0112423Y0415180D01*
X0112423Y0417315D02*
X0112423Y0418382D01*
X0112423Y0417315D02*
X0114559Y0415180D01*
X0112423Y0420551D02*
X0112423Y0422686D01*
X0111356Y0421618D02*
X0115626Y0421618D01*
X0116694Y0422686D01*
X0115626Y0424848D02*
X0113491Y0424848D01*
X0112423Y0425915D01*
X0112423Y0428051D01*
X0113491Y0429118D01*
X0114559Y0429118D01*
X0114559Y0424848D01*
X0115626Y0424848D02*
X0116694Y0425915D01*
X0116694Y0428051D01*
X0116694Y0431293D02*
X0112423Y0431293D01*
X0112423Y0433428D02*
X0114559Y0431293D01*
X0112423Y0433428D02*
X0112423Y0434496D01*
X0168470Y0387887D02*
X0168470Y0387517D01*
X0168470Y0387887D02*
X0174848Y0387887D01*
X0174848Y0387517D01*
X0174848Y0384344D02*
X0174848Y0380234D01*
X0174848Y0377061D02*
X0174848Y0376691D01*
X0168470Y0376691D01*
X0168470Y0377061D01*
X0168470Y0380234D02*
X0168470Y0380604D01*
X0168470Y0383974D02*
X0168470Y0384344D01*
X0095878Y0088141D02*
X0095878Y0087073D01*
X0095878Y0084938D02*
X0095878Y0080668D01*
X0094811Y0080668D02*
X0096946Y0080668D01*
X0099108Y0080668D02*
X0099108Y0087073D01*
X0102310Y0084938D02*
X0099108Y0082803D01*
X0102310Y0080668D01*
X0104479Y0081735D02*
X0105546Y0080668D01*
X0107682Y0080668D01*
X0108749Y0081735D01*
X0108749Y0083870D01*
X0107682Y0084938D01*
X0105546Y0084938D01*
X0104479Y0083870D01*
X0104479Y0081735D01*
X0110924Y0078533D02*
X0113060Y0080668D01*
X0111992Y0080668D01*
X0111992Y0081735D01*
X0113060Y0081735D01*
X0113060Y0080668D01*
X0113066Y0074438D02*
X0115201Y0074438D01*
X0116269Y0073370D01*
X0116269Y0070168D01*
X0113066Y0070168D01*
X0111999Y0071235D01*
X0113066Y0072303D01*
X0116269Y0072303D01*
X0118444Y0072303D02*
X0120579Y0074438D01*
X0121647Y0074438D01*
X0123815Y0074438D02*
X0124883Y0074438D01*
X0124883Y0070168D01*
X0123815Y0070168D02*
X0125951Y0070168D01*
X0128112Y0068033D02*
X0130248Y0070168D01*
X0129180Y0070168D01*
X0129180Y0071235D01*
X0130248Y0071235D01*
X0130248Y0070168D01*
X0124883Y0076573D02*
X0124883Y0077641D01*
X0124870Y0080668D02*
X0125937Y0081735D01*
X0124870Y0080668D02*
X0122734Y0080668D01*
X0121667Y0081735D01*
X0121667Y0086006D01*
X0122734Y0087073D01*
X0124870Y0087073D01*
X0125937Y0086006D01*
X0128112Y0087073D02*
X0128112Y0080668D01*
X0128112Y0083870D02*
X0129180Y0084938D01*
X0131315Y0084938D01*
X0132383Y0083870D01*
X0132383Y0080668D01*
X0134558Y0081735D02*
X0134558Y0083870D01*
X0135625Y0084938D01*
X0137761Y0084938D01*
X0138828Y0083870D01*
X0138828Y0082803D01*
X0134558Y0082803D01*
X0134558Y0081735D02*
X0135625Y0080668D01*
X0137761Y0080668D01*
X0141003Y0080668D02*
X0141003Y0087073D01*
X0142071Y0084938D02*
X0144206Y0084938D01*
X0145274Y0083870D01*
X0145274Y0080668D01*
X0147449Y0081735D02*
X0148516Y0082803D01*
X0151719Y0082803D01*
X0151719Y0083870D02*
X0151719Y0080668D01*
X0148516Y0080668D01*
X0147449Y0081735D01*
X0148516Y0084938D02*
X0150652Y0084938D01*
X0151719Y0083870D01*
X0153894Y0083870D02*
X0154962Y0084938D01*
X0158165Y0084938D01*
X0158165Y0087073D02*
X0158165Y0080668D01*
X0154962Y0080668D01*
X0153894Y0081735D01*
X0153894Y0083870D01*
X0160340Y0083870D02*
X0160340Y0081735D01*
X0161407Y0080668D01*
X0163543Y0080668D01*
X0164610Y0082803D02*
X0160340Y0082803D01*
X0160340Y0083870D02*
X0161407Y0084938D01*
X0163543Y0084938D01*
X0164610Y0083870D01*
X0164610Y0082803D01*
X0166785Y0083870D02*
X0167853Y0084938D01*
X0169988Y0084938D01*
X0171056Y0083870D01*
X0171056Y0080668D01*
X0173231Y0078533D02*
X0175366Y0080668D01*
X0174298Y0080668D01*
X0174298Y0081735D01*
X0175366Y0081735D01*
X0175366Y0080668D01*
X0181825Y0074438D02*
X0183960Y0076573D01*
X0186095Y0074438D01*
X0186095Y0070168D01*
X0188270Y0070168D02*
X0190406Y0070168D01*
X0189338Y0070168D02*
X0189338Y0076573D01*
X0188270Y0076573D01*
X0186095Y0073370D02*
X0181825Y0073370D01*
X0181825Y0074438D02*
X0181825Y0070168D01*
X0182833Y0061829D02*
X0184969Y0061829D01*
X0186036Y0060762D01*
X0181766Y0056491D01*
X0182833Y0055424D01*
X0184969Y0055424D01*
X0186036Y0056491D01*
X0186036Y0060762D01*
X0182833Y0061829D02*
X0181766Y0060762D01*
X0181766Y0056491D01*
X0179611Y0056491D02*
X0179611Y0055424D01*
X0178543Y0055424D01*
X0178543Y0056491D01*
X0179611Y0056491D01*
X0176368Y0055424D02*
X0172098Y0055424D01*
X0174233Y0055424D02*
X0174233Y0061829D01*
X0172098Y0059694D01*
X0169922Y0057559D02*
X0169922Y0061829D01*
X0165652Y0061829D02*
X0165652Y0057559D01*
X0167787Y0055424D01*
X0169922Y0057559D01*
X0171082Y0068033D02*
X0173218Y0070168D01*
X0172150Y0070168D01*
X0172150Y0071235D01*
X0173218Y0071235D01*
X0173218Y0070168D01*
X0168907Y0070168D02*
X0168907Y0076573D01*
X0168907Y0074438D02*
X0165704Y0074438D01*
X0164637Y0073370D01*
X0164637Y0071235D01*
X0165704Y0070168D01*
X0168907Y0070168D01*
X0162462Y0070168D02*
X0162462Y0073370D01*
X0161394Y0074438D01*
X0159259Y0074438D01*
X0159259Y0072303D02*
X0162462Y0072303D01*
X0162462Y0070168D02*
X0159259Y0070168D01*
X0158191Y0071235D01*
X0159259Y0072303D01*
X0156016Y0074438D02*
X0156016Y0069100D01*
X0154949Y0068033D01*
X0153881Y0068033D01*
X0152813Y0070168D02*
X0156016Y0070168D01*
X0152813Y0070168D02*
X0151746Y0071235D01*
X0151746Y0074438D01*
X0149571Y0074438D02*
X0149571Y0069100D01*
X0148503Y0068033D01*
X0147436Y0068033D01*
X0146368Y0070168D02*
X0149571Y0070168D01*
X0146368Y0070168D02*
X0145300Y0071235D01*
X0145300Y0074438D01*
X0143125Y0074438D02*
X0143125Y0070168D01*
X0143125Y0073370D02*
X0138855Y0073370D01*
X0138855Y0074438D02*
X0140990Y0076573D01*
X0143125Y0074438D01*
X0138855Y0074438D02*
X0138855Y0070168D01*
X0137702Y0059694D02*
X0135566Y0059694D01*
X0134499Y0058626D01*
X0134499Y0056491D01*
X0135566Y0055424D01*
X0137702Y0055424D01*
X0138769Y0056491D01*
X0138769Y0058626D01*
X0137702Y0059694D01*
X0142012Y0059694D02*
X0144147Y0059694D01*
X0145215Y0058626D01*
X0145215Y0055424D01*
X0142012Y0055424D01*
X0140944Y0056491D01*
X0142012Y0057559D01*
X0145215Y0057559D01*
X0147390Y0057559D02*
X0149525Y0059694D01*
X0150593Y0059694D01*
X0152761Y0058626D02*
X0153829Y0059694D01*
X0157031Y0059694D01*
X0157031Y0061829D02*
X0157031Y0055424D01*
X0153829Y0055424D01*
X0152761Y0056491D01*
X0152761Y0058626D01*
X0147390Y0059694D02*
X0147390Y0055424D01*
X0132324Y0056491D02*
X0132324Y0058626D01*
X0131256Y0059694D01*
X0128053Y0059694D01*
X0128053Y0061829D02*
X0128053Y0055424D01*
X0131256Y0055424D01*
X0132324Y0056491D01*
X0119453Y0056491D02*
X0119453Y0055424D01*
X0118385Y0055424D01*
X0118385Y0056491D01*
X0119453Y0056491D01*
X0116223Y0055424D02*
X0115156Y0056491D01*
X0115156Y0060762D01*
X0116223Y0059694D02*
X0114088Y0059694D01*
X0111913Y0059694D02*
X0107643Y0055424D01*
X0105467Y0057559D02*
X0105467Y0058626D01*
X0104400Y0059694D01*
X0102265Y0059694D01*
X0101197Y0058626D01*
X0101197Y0056491D01*
X0102265Y0055424D01*
X0104400Y0055424D01*
X0105467Y0057559D02*
X0101197Y0057559D01*
X0107643Y0059694D02*
X0111913Y0055424D01*
X0108756Y0070168D02*
X0105553Y0070168D01*
X0103378Y0070168D02*
X0103378Y0073370D01*
X0102310Y0074438D01*
X0099108Y0074438D01*
X0099108Y0070168D01*
X0096932Y0070168D02*
X0093730Y0070168D01*
X0092662Y0071235D01*
X0093730Y0072303D01*
X0096932Y0072303D01*
X0096932Y0073370D02*
X0096932Y0070168D01*
X0096932Y0073370D02*
X0095865Y0074438D01*
X0093730Y0074438D01*
X0089433Y0076573D02*
X0089433Y0070168D01*
X0090500Y0070168D02*
X0088365Y0070168D01*
X0086190Y0070168D02*
X0086190Y0074438D01*
X0084055Y0076573D01*
X0081920Y0074438D01*
X0081920Y0070168D01*
X0081920Y0073370D02*
X0086190Y0073370D01*
X0088365Y0076573D02*
X0089433Y0076573D01*
X0089433Y0080668D02*
X0088365Y0081735D01*
X0088365Y0083870D01*
X0089433Y0084938D01*
X0091568Y0084938D01*
X0092635Y0083870D01*
X0092635Y0081735D01*
X0091568Y0080668D01*
X0089433Y0080668D01*
X0086190Y0081735D02*
X0085122Y0080668D01*
X0081920Y0080668D01*
X0081920Y0087073D01*
X0085122Y0087073D01*
X0086190Y0086006D01*
X0086190Y0084938D01*
X0085122Y0083870D01*
X0081920Y0083870D01*
X0085122Y0083870D02*
X0086190Y0082803D01*
X0086190Y0081735D01*
X0094811Y0084938D02*
X0095878Y0084938D01*
X0106621Y0074438D02*
X0105553Y0073370D01*
X0106621Y0072303D01*
X0108756Y0072303D01*
X0109823Y0071235D01*
X0108756Y0070168D01*
X0109823Y0074438D02*
X0106621Y0074438D01*
X0118444Y0074438D02*
X0118444Y0070168D01*
X0141003Y0083870D02*
X0142071Y0084938D01*
X0166785Y0087073D02*
X0166785Y0080668D01*
X0192567Y0074438D02*
X0192567Y0070168D01*
X0192567Y0072303D02*
X0194703Y0074438D01*
X0195770Y0074438D01*
X0197939Y0073370D02*
X0199006Y0074438D01*
X0201141Y0074438D01*
X0202209Y0073370D01*
X0202209Y0070168D01*
X0204384Y0071235D02*
X0204384Y0073370D01*
X0205452Y0074438D01*
X0207587Y0074438D01*
X0208654Y0073370D01*
X0208654Y0072303D01*
X0204384Y0072303D01*
X0204384Y0071235D02*
X0205452Y0070168D01*
X0207587Y0070168D01*
X0210830Y0070168D02*
X0212965Y0070168D01*
X0211897Y0070168D02*
X0211897Y0074438D01*
X0210830Y0074438D01*
X0211897Y0076573D02*
X0211897Y0077641D01*
X0215127Y0073370D02*
X0216194Y0072303D01*
X0218329Y0072303D01*
X0219397Y0071235D01*
X0218329Y0070168D01*
X0215127Y0070168D01*
X0215127Y0073370D02*
X0216194Y0074438D01*
X0219397Y0074438D01*
X0197939Y0076573D02*
X0197939Y0070168D01*
X0092576Y0061829D02*
X0092576Y0055424D01*
X0090441Y0057559D01*
X0088306Y0055424D01*
X0088306Y0061829D01*
X0086131Y0061829D02*
X0086131Y0055424D01*
X0081861Y0055424D02*
X0081861Y0061829D01*
X0083996Y0059694D01*
X0086131Y0061829D01*
D12*
X0192259Y0212535D02*
X0192259Y0226346D01*
X0196863Y0221743D01*
X0201467Y0226346D01*
X0201467Y0212535D01*
X0206071Y0214837D02*
X0208373Y0212535D01*
X0215279Y0212535D01*
X0215279Y0221743D01*
X0219883Y0226346D02*
X0222185Y0226346D01*
X0222185Y0212535D01*
X0219883Y0212535D02*
X0224487Y0212535D01*
X0231392Y0214837D02*
X0233694Y0212535D01*
X0231392Y0214837D02*
X0231392Y0224044D01*
X0229091Y0221743D02*
X0233694Y0221743D01*
X0238298Y0221743D02*
X0240600Y0221743D01*
X0240600Y0212535D01*
X0238298Y0212535D02*
X0242902Y0212535D01*
X0247506Y0212535D02*
X0252110Y0217139D01*
X0256714Y0212535D01*
X0256714Y0226346D01*
X0261318Y0221743D02*
X0263620Y0221743D01*
X0263620Y0212535D01*
X0261318Y0212535D02*
X0265922Y0212535D01*
X0270526Y0212535D02*
X0275130Y0212535D01*
X0272828Y0212535D02*
X0272828Y0221743D01*
X0270526Y0221743D01*
X0272828Y0226346D02*
X0272828Y0228648D01*
X0263620Y0228648D02*
X0263620Y0226346D01*
X0247506Y0226346D02*
X0247506Y0212535D01*
X0240600Y0226346D02*
X0240600Y0228648D01*
X0206071Y0221743D02*
X0206071Y0214837D01*
X0293546Y0212535D02*
X0300451Y0212535D01*
X0302753Y0214837D01*
X0302753Y0217139D01*
X0300451Y0219441D01*
X0293546Y0219441D01*
X0293546Y0226346D02*
X0300451Y0226346D01*
X0302753Y0224044D01*
X0302753Y0221743D01*
X0300451Y0219441D01*
X0307357Y0219441D02*
X0307357Y0214837D01*
X0309659Y0212535D01*
X0314263Y0212535D01*
X0316565Y0214837D01*
X0316565Y0219441D01*
X0314263Y0221743D01*
X0309659Y0221743D01*
X0307357Y0219441D01*
X0293546Y0226346D02*
X0293546Y0212535D01*
X0321169Y0214837D02*
X0323471Y0212535D01*
X0330377Y0212535D01*
X0330377Y0219441D01*
X0328075Y0221743D01*
X0323471Y0221743D01*
X0323471Y0217139D02*
X0330377Y0217139D01*
X0334981Y0217139D02*
X0339585Y0221743D01*
X0341887Y0221743D01*
X0346491Y0219441D02*
X0346491Y0214837D01*
X0348793Y0212535D01*
X0355699Y0212535D01*
X0355699Y0226346D01*
X0355699Y0221743D02*
X0348793Y0221743D01*
X0346491Y0219441D01*
X0334981Y0221743D02*
X0334981Y0212535D01*
X0323471Y0217139D02*
X0321169Y0214837D01*
D13*
X0332741Y0138962D02*
X0332743Y0139074D01*
X0332749Y0139185D01*
X0332759Y0139297D01*
X0332773Y0139408D01*
X0332790Y0139518D01*
X0332812Y0139628D01*
X0332838Y0139737D01*
X0332867Y0139845D01*
X0332900Y0139951D01*
X0332937Y0140057D01*
X0332978Y0140161D01*
X0333023Y0140264D01*
X0333071Y0140365D01*
X0333122Y0140464D01*
X0333177Y0140561D01*
X0333236Y0140656D01*
X0333297Y0140750D01*
X0333362Y0140841D01*
X0333431Y0140929D01*
X0333502Y0141015D01*
X0333576Y0141099D01*
X0333654Y0141179D01*
X0333734Y0141257D01*
X0333817Y0141333D01*
X0333902Y0141405D01*
X0333990Y0141474D01*
X0334080Y0141540D01*
X0334173Y0141602D01*
X0334268Y0141662D01*
X0334365Y0141718D01*
X0334463Y0141770D01*
X0334564Y0141819D01*
X0334666Y0141864D01*
X0334770Y0141906D01*
X0334875Y0141944D01*
X0334982Y0141978D01*
X0335089Y0142008D01*
X0335198Y0142035D01*
X0335307Y0142057D01*
X0335418Y0142076D01*
X0335528Y0142091D01*
X0335640Y0142102D01*
X0335751Y0142109D01*
X0335863Y0142112D01*
X0335975Y0142111D01*
X0336087Y0142106D01*
X0336198Y0142097D01*
X0336309Y0142084D01*
X0336420Y0142067D01*
X0336530Y0142047D01*
X0336639Y0142022D01*
X0336747Y0141994D01*
X0336854Y0141961D01*
X0336960Y0141925D01*
X0337064Y0141885D01*
X0337167Y0141842D01*
X0337269Y0141795D01*
X0337368Y0141744D01*
X0337466Y0141690D01*
X0337562Y0141632D01*
X0337656Y0141571D01*
X0337747Y0141507D01*
X0337836Y0141440D01*
X0337923Y0141369D01*
X0338007Y0141295D01*
X0338089Y0141219D01*
X0338167Y0141139D01*
X0338243Y0141057D01*
X0338316Y0140972D01*
X0338386Y0140885D01*
X0338452Y0140795D01*
X0338516Y0140703D01*
X0338576Y0140609D01*
X0338633Y0140513D01*
X0338686Y0140414D01*
X0338736Y0140314D01*
X0338782Y0140213D01*
X0338825Y0140109D01*
X0338864Y0140004D01*
X0338899Y0139898D01*
X0338930Y0139791D01*
X0338958Y0139682D01*
X0338981Y0139573D01*
X0339001Y0139463D01*
X0339017Y0139352D01*
X0339029Y0139241D01*
X0339037Y0139130D01*
X0339041Y0139018D01*
X0339041Y0138906D01*
X0339037Y0138794D01*
X0339029Y0138683D01*
X0339017Y0138572D01*
X0339001Y0138461D01*
X0338981Y0138351D01*
X0338958Y0138242D01*
X0338930Y0138133D01*
X0338899Y0138026D01*
X0338864Y0137920D01*
X0338825Y0137815D01*
X0338782Y0137711D01*
X0338736Y0137610D01*
X0338686Y0137510D01*
X0338633Y0137411D01*
X0338576Y0137315D01*
X0338516Y0137221D01*
X0338452Y0137129D01*
X0338386Y0137039D01*
X0338316Y0136952D01*
X0338243Y0136867D01*
X0338167Y0136785D01*
X0338089Y0136705D01*
X0338007Y0136629D01*
X0337923Y0136555D01*
X0337836Y0136484D01*
X0337747Y0136417D01*
X0337656Y0136353D01*
X0337562Y0136292D01*
X0337466Y0136234D01*
X0337368Y0136180D01*
X0337269Y0136129D01*
X0337167Y0136082D01*
X0337064Y0136039D01*
X0336960Y0135999D01*
X0336854Y0135963D01*
X0336747Y0135930D01*
X0336639Y0135902D01*
X0336530Y0135877D01*
X0336420Y0135857D01*
X0336309Y0135840D01*
X0336198Y0135827D01*
X0336087Y0135818D01*
X0335975Y0135813D01*
X0335863Y0135812D01*
X0335751Y0135815D01*
X0335640Y0135822D01*
X0335528Y0135833D01*
X0335418Y0135848D01*
X0335307Y0135867D01*
X0335198Y0135889D01*
X0335089Y0135916D01*
X0334982Y0135946D01*
X0334875Y0135980D01*
X0334770Y0136018D01*
X0334666Y0136060D01*
X0334564Y0136105D01*
X0334463Y0136154D01*
X0334365Y0136206D01*
X0334268Y0136262D01*
X0334173Y0136322D01*
X0334080Y0136384D01*
X0333990Y0136450D01*
X0333902Y0136519D01*
X0333817Y0136591D01*
X0333734Y0136667D01*
X0333654Y0136745D01*
X0333576Y0136825D01*
X0333502Y0136909D01*
X0333431Y0136995D01*
X0333362Y0137083D01*
X0333297Y0137174D01*
X0333236Y0137268D01*
X0333177Y0137363D01*
X0333122Y0137460D01*
X0333071Y0137559D01*
X0333023Y0137660D01*
X0332978Y0137763D01*
X0332937Y0137867D01*
X0332900Y0137973D01*
X0332867Y0138079D01*
X0332838Y0138187D01*
X0332812Y0138296D01*
X0332790Y0138406D01*
X0332773Y0138516D01*
X0332759Y0138627D01*
X0332749Y0138739D01*
X0332743Y0138850D01*
X0332741Y0138962D01*
X0175261Y0138962D02*
X0175263Y0139074D01*
X0175269Y0139185D01*
X0175279Y0139297D01*
X0175293Y0139408D01*
X0175310Y0139518D01*
X0175332Y0139628D01*
X0175358Y0139737D01*
X0175387Y0139845D01*
X0175420Y0139951D01*
X0175457Y0140057D01*
X0175498Y0140161D01*
X0175543Y0140264D01*
X0175591Y0140365D01*
X0175642Y0140464D01*
X0175697Y0140561D01*
X0175756Y0140656D01*
X0175817Y0140750D01*
X0175882Y0140841D01*
X0175951Y0140929D01*
X0176022Y0141015D01*
X0176096Y0141099D01*
X0176174Y0141179D01*
X0176254Y0141257D01*
X0176337Y0141333D01*
X0176422Y0141405D01*
X0176510Y0141474D01*
X0176600Y0141540D01*
X0176693Y0141602D01*
X0176788Y0141662D01*
X0176885Y0141718D01*
X0176983Y0141770D01*
X0177084Y0141819D01*
X0177186Y0141864D01*
X0177290Y0141906D01*
X0177395Y0141944D01*
X0177502Y0141978D01*
X0177609Y0142008D01*
X0177718Y0142035D01*
X0177827Y0142057D01*
X0177938Y0142076D01*
X0178048Y0142091D01*
X0178160Y0142102D01*
X0178271Y0142109D01*
X0178383Y0142112D01*
X0178495Y0142111D01*
X0178607Y0142106D01*
X0178718Y0142097D01*
X0178829Y0142084D01*
X0178940Y0142067D01*
X0179050Y0142047D01*
X0179159Y0142022D01*
X0179267Y0141994D01*
X0179374Y0141961D01*
X0179480Y0141925D01*
X0179584Y0141885D01*
X0179687Y0141842D01*
X0179789Y0141795D01*
X0179888Y0141744D01*
X0179986Y0141690D01*
X0180082Y0141632D01*
X0180176Y0141571D01*
X0180267Y0141507D01*
X0180356Y0141440D01*
X0180443Y0141369D01*
X0180527Y0141295D01*
X0180609Y0141219D01*
X0180687Y0141139D01*
X0180763Y0141057D01*
X0180836Y0140972D01*
X0180906Y0140885D01*
X0180972Y0140795D01*
X0181036Y0140703D01*
X0181096Y0140609D01*
X0181153Y0140513D01*
X0181206Y0140414D01*
X0181256Y0140314D01*
X0181302Y0140213D01*
X0181345Y0140109D01*
X0181384Y0140004D01*
X0181419Y0139898D01*
X0181450Y0139791D01*
X0181478Y0139682D01*
X0181501Y0139573D01*
X0181521Y0139463D01*
X0181537Y0139352D01*
X0181549Y0139241D01*
X0181557Y0139130D01*
X0181561Y0139018D01*
X0181561Y0138906D01*
X0181557Y0138794D01*
X0181549Y0138683D01*
X0181537Y0138572D01*
X0181521Y0138461D01*
X0181501Y0138351D01*
X0181478Y0138242D01*
X0181450Y0138133D01*
X0181419Y0138026D01*
X0181384Y0137920D01*
X0181345Y0137815D01*
X0181302Y0137711D01*
X0181256Y0137610D01*
X0181206Y0137510D01*
X0181153Y0137411D01*
X0181096Y0137315D01*
X0181036Y0137221D01*
X0180972Y0137129D01*
X0180906Y0137039D01*
X0180836Y0136952D01*
X0180763Y0136867D01*
X0180687Y0136785D01*
X0180609Y0136705D01*
X0180527Y0136629D01*
X0180443Y0136555D01*
X0180356Y0136484D01*
X0180267Y0136417D01*
X0180176Y0136353D01*
X0180082Y0136292D01*
X0179986Y0136234D01*
X0179888Y0136180D01*
X0179789Y0136129D01*
X0179687Y0136082D01*
X0179584Y0136039D01*
X0179480Y0135999D01*
X0179374Y0135963D01*
X0179267Y0135930D01*
X0179159Y0135902D01*
X0179050Y0135877D01*
X0178940Y0135857D01*
X0178829Y0135840D01*
X0178718Y0135827D01*
X0178607Y0135818D01*
X0178495Y0135813D01*
X0178383Y0135812D01*
X0178271Y0135815D01*
X0178160Y0135822D01*
X0178048Y0135833D01*
X0177938Y0135848D01*
X0177827Y0135867D01*
X0177718Y0135889D01*
X0177609Y0135916D01*
X0177502Y0135946D01*
X0177395Y0135980D01*
X0177290Y0136018D01*
X0177186Y0136060D01*
X0177084Y0136105D01*
X0176983Y0136154D01*
X0176885Y0136206D01*
X0176788Y0136262D01*
X0176693Y0136322D01*
X0176600Y0136384D01*
X0176510Y0136450D01*
X0176422Y0136519D01*
X0176337Y0136591D01*
X0176254Y0136667D01*
X0176174Y0136745D01*
X0176096Y0136825D01*
X0176022Y0136909D01*
X0175951Y0136995D01*
X0175882Y0137083D01*
X0175817Y0137174D01*
X0175756Y0137268D01*
X0175697Y0137363D01*
X0175642Y0137460D01*
X0175591Y0137559D01*
X0175543Y0137660D01*
X0175498Y0137763D01*
X0175457Y0137867D01*
X0175420Y0137973D01*
X0175387Y0138079D01*
X0175358Y0138187D01*
X0175332Y0138296D01*
X0175310Y0138406D01*
X0175293Y0138516D01*
X0175279Y0138627D01*
X0175269Y0138739D01*
X0175263Y0138850D01*
X0175261Y0138962D01*
X0175261Y0296443D02*
X0175263Y0296555D01*
X0175269Y0296666D01*
X0175279Y0296778D01*
X0175293Y0296889D01*
X0175310Y0296999D01*
X0175332Y0297109D01*
X0175358Y0297218D01*
X0175387Y0297326D01*
X0175420Y0297432D01*
X0175457Y0297538D01*
X0175498Y0297642D01*
X0175543Y0297745D01*
X0175591Y0297846D01*
X0175642Y0297945D01*
X0175697Y0298042D01*
X0175756Y0298137D01*
X0175817Y0298231D01*
X0175882Y0298322D01*
X0175951Y0298410D01*
X0176022Y0298496D01*
X0176096Y0298580D01*
X0176174Y0298660D01*
X0176254Y0298738D01*
X0176337Y0298814D01*
X0176422Y0298886D01*
X0176510Y0298955D01*
X0176600Y0299021D01*
X0176693Y0299083D01*
X0176788Y0299143D01*
X0176885Y0299199D01*
X0176983Y0299251D01*
X0177084Y0299300D01*
X0177186Y0299345D01*
X0177290Y0299387D01*
X0177395Y0299425D01*
X0177502Y0299459D01*
X0177609Y0299489D01*
X0177718Y0299516D01*
X0177827Y0299538D01*
X0177938Y0299557D01*
X0178048Y0299572D01*
X0178160Y0299583D01*
X0178271Y0299590D01*
X0178383Y0299593D01*
X0178495Y0299592D01*
X0178607Y0299587D01*
X0178718Y0299578D01*
X0178829Y0299565D01*
X0178940Y0299548D01*
X0179050Y0299528D01*
X0179159Y0299503D01*
X0179267Y0299475D01*
X0179374Y0299442D01*
X0179480Y0299406D01*
X0179584Y0299366D01*
X0179687Y0299323D01*
X0179789Y0299276D01*
X0179888Y0299225D01*
X0179986Y0299171D01*
X0180082Y0299113D01*
X0180176Y0299052D01*
X0180267Y0298988D01*
X0180356Y0298921D01*
X0180443Y0298850D01*
X0180527Y0298776D01*
X0180609Y0298700D01*
X0180687Y0298620D01*
X0180763Y0298538D01*
X0180836Y0298453D01*
X0180906Y0298366D01*
X0180972Y0298276D01*
X0181036Y0298184D01*
X0181096Y0298090D01*
X0181153Y0297994D01*
X0181206Y0297895D01*
X0181256Y0297795D01*
X0181302Y0297694D01*
X0181345Y0297590D01*
X0181384Y0297485D01*
X0181419Y0297379D01*
X0181450Y0297272D01*
X0181478Y0297163D01*
X0181501Y0297054D01*
X0181521Y0296944D01*
X0181537Y0296833D01*
X0181549Y0296722D01*
X0181557Y0296611D01*
X0181561Y0296499D01*
X0181561Y0296387D01*
X0181557Y0296275D01*
X0181549Y0296164D01*
X0181537Y0296053D01*
X0181521Y0295942D01*
X0181501Y0295832D01*
X0181478Y0295723D01*
X0181450Y0295614D01*
X0181419Y0295507D01*
X0181384Y0295401D01*
X0181345Y0295296D01*
X0181302Y0295192D01*
X0181256Y0295091D01*
X0181206Y0294991D01*
X0181153Y0294892D01*
X0181096Y0294796D01*
X0181036Y0294702D01*
X0180972Y0294610D01*
X0180906Y0294520D01*
X0180836Y0294433D01*
X0180763Y0294348D01*
X0180687Y0294266D01*
X0180609Y0294186D01*
X0180527Y0294110D01*
X0180443Y0294036D01*
X0180356Y0293965D01*
X0180267Y0293898D01*
X0180176Y0293834D01*
X0180082Y0293773D01*
X0179986Y0293715D01*
X0179888Y0293661D01*
X0179789Y0293610D01*
X0179687Y0293563D01*
X0179584Y0293520D01*
X0179480Y0293480D01*
X0179374Y0293444D01*
X0179267Y0293411D01*
X0179159Y0293383D01*
X0179050Y0293358D01*
X0178940Y0293338D01*
X0178829Y0293321D01*
X0178718Y0293308D01*
X0178607Y0293299D01*
X0178495Y0293294D01*
X0178383Y0293293D01*
X0178271Y0293296D01*
X0178160Y0293303D01*
X0178048Y0293314D01*
X0177938Y0293329D01*
X0177827Y0293348D01*
X0177718Y0293370D01*
X0177609Y0293397D01*
X0177502Y0293427D01*
X0177395Y0293461D01*
X0177290Y0293499D01*
X0177186Y0293541D01*
X0177084Y0293586D01*
X0176983Y0293635D01*
X0176885Y0293687D01*
X0176788Y0293743D01*
X0176693Y0293803D01*
X0176600Y0293865D01*
X0176510Y0293931D01*
X0176422Y0294000D01*
X0176337Y0294072D01*
X0176254Y0294148D01*
X0176174Y0294226D01*
X0176096Y0294306D01*
X0176022Y0294390D01*
X0175951Y0294476D01*
X0175882Y0294564D01*
X0175817Y0294655D01*
X0175756Y0294749D01*
X0175697Y0294844D01*
X0175642Y0294941D01*
X0175591Y0295040D01*
X0175543Y0295141D01*
X0175498Y0295244D01*
X0175457Y0295348D01*
X0175420Y0295454D01*
X0175387Y0295560D01*
X0175358Y0295668D01*
X0175332Y0295777D01*
X0175310Y0295887D01*
X0175293Y0295997D01*
X0175279Y0296108D01*
X0175269Y0296220D01*
X0175263Y0296331D01*
X0175261Y0296443D01*
X0332741Y0296443D02*
X0332743Y0296555D01*
X0332749Y0296666D01*
X0332759Y0296778D01*
X0332773Y0296889D01*
X0332790Y0296999D01*
X0332812Y0297109D01*
X0332838Y0297218D01*
X0332867Y0297326D01*
X0332900Y0297432D01*
X0332937Y0297538D01*
X0332978Y0297642D01*
X0333023Y0297745D01*
X0333071Y0297846D01*
X0333122Y0297945D01*
X0333177Y0298042D01*
X0333236Y0298137D01*
X0333297Y0298231D01*
X0333362Y0298322D01*
X0333431Y0298410D01*
X0333502Y0298496D01*
X0333576Y0298580D01*
X0333654Y0298660D01*
X0333734Y0298738D01*
X0333817Y0298814D01*
X0333902Y0298886D01*
X0333990Y0298955D01*
X0334080Y0299021D01*
X0334173Y0299083D01*
X0334268Y0299143D01*
X0334365Y0299199D01*
X0334463Y0299251D01*
X0334564Y0299300D01*
X0334666Y0299345D01*
X0334770Y0299387D01*
X0334875Y0299425D01*
X0334982Y0299459D01*
X0335089Y0299489D01*
X0335198Y0299516D01*
X0335307Y0299538D01*
X0335418Y0299557D01*
X0335528Y0299572D01*
X0335640Y0299583D01*
X0335751Y0299590D01*
X0335863Y0299593D01*
X0335975Y0299592D01*
X0336087Y0299587D01*
X0336198Y0299578D01*
X0336309Y0299565D01*
X0336420Y0299548D01*
X0336530Y0299528D01*
X0336639Y0299503D01*
X0336747Y0299475D01*
X0336854Y0299442D01*
X0336960Y0299406D01*
X0337064Y0299366D01*
X0337167Y0299323D01*
X0337269Y0299276D01*
X0337368Y0299225D01*
X0337466Y0299171D01*
X0337562Y0299113D01*
X0337656Y0299052D01*
X0337747Y0298988D01*
X0337836Y0298921D01*
X0337923Y0298850D01*
X0338007Y0298776D01*
X0338089Y0298700D01*
X0338167Y0298620D01*
X0338243Y0298538D01*
X0338316Y0298453D01*
X0338386Y0298366D01*
X0338452Y0298276D01*
X0338516Y0298184D01*
X0338576Y0298090D01*
X0338633Y0297994D01*
X0338686Y0297895D01*
X0338736Y0297795D01*
X0338782Y0297694D01*
X0338825Y0297590D01*
X0338864Y0297485D01*
X0338899Y0297379D01*
X0338930Y0297272D01*
X0338958Y0297163D01*
X0338981Y0297054D01*
X0339001Y0296944D01*
X0339017Y0296833D01*
X0339029Y0296722D01*
X0339037Y0296611D01*
X0339041Y0296499D01*
X0339041Y0296387D01*
X0339037Y0296275D01*
X0339029Y0296164D01*
X0339017Y0296053D01*
X0339001Y0295942D01*
X0338981Y0295832D01*
X0338958Y0295723D01*
X0338930Y0295614D01*
X0338899Y0295507D01*
X0338864Y0295401D01*
X0338825Y0295296D01*
X0338782Y0295192D01*
X0338736Y0295091D01*
X0338686Y0294991D01*
X0338633Y0294892D01*
X0338576Y0294796D01*
X0338516Y0294702D01*
X0338452Y0294610D01*
X0338386Y0294520D01*
X0338316Y0294433D01*
X0338243Y0294348D01*
X0338167Y0294266D01*
X0338089Y0294186D01*
X0338007Y0294110D01*
X0337923Y0294036D01*
X0337836Y0293965D01*
X0337747Y0293898D01*
X0337656Y0293834D01*
X0337562Y0293773D01*
X0337466Y0293715D01*
X0337368Y0293661D01*
X0337269Y0293610D01*
X0337167Y0293563D01*
X0337064Y0293520D01*
X0336960Y0293480D01*
X0336854Y0293444D01*
X0336747Y0293411D01*
X0336639Y0293383D01*
X0336530Y0293358D01*
X0336420Y0293338D01*
X0336309Y0293321D01*
X0336198Y0293308D01*
X0336087Y0293299D01*
X0335975Y0293294D01*
X0335863Y0293293D01*
X0335751Y0293296D01*
X0335640Y0293303D01*
X0335528Y0293314D01*
X0335418Y0293329D01*
X0335307Y0293348D01*
X0335198Y0293370D01*
X0335089Y0293397D01*
X0334982Y0293427D01*
X0334875Y0293461D01*
X0334770Y0293499D01*
X0334666Y0293541D01*
X0334564Y0293586D01*
X0334463Y0293635D01*
X0334365Y0293687D01*
X0334268Y0293743D01*
X0334173Y0293803D01*
X0334080Y0293865D01*
X0333990Y0293931D01*
X0333902Y0294000D01*
X0333817Y0294072D01*
X0333734Y0294148D01*
X0333654Y0294226D01*
X0333576Y0294306D01*
X0333502Y0294390D01*
X0333431Y0294476D01*
X0333362Y0294564D01*
X0333297Y0294655D01*
X0333236Y0294749D01*
X0333177Y0294844D01*
X0333122Y0294941D01*
X0333071Y0295040D01*
X0333023Y0295141D01*
X0332978Y0295244D01*
X0332937Y0295348D01*
X0332900Y0295454D01*
X0332867Y0295560D01*
X0332838Y0295668D01*
X0332812Y0295777D01*
X0332790Y0295887D01*
X0332773Y0295997D01*
X0332759Y0296108D01*
X0332749Y0296220D01*
X0332743Y0296331D01*
X0332741Y0296443D01*
D14*
X0394385Y0222195D02*
X0398088Y0222195D01*
X0398088Y0220961D02*
X0398088Y0223429D01*
X0395619Y0220961D02*
X0394385Y0222195D01*
X0460723Y0185581D02*
X0464426Y0185581D01*
X0464426Y0186815D02*
X0464426Y0184346D01*
X0461958Y0184346D02*
X0460723Y0185581D01*
X0461131Y0259898D02*
X0459896Y0261132D01*
X0463600Y0261132D01*
X0463600Y0259898D02*
X0463600Y0262366D01*
X0310695Y0431691D02*
X0308226Y0431691D01*
X0309461Y0431691D02*
X0309461Y0435394D01*
X0308226Y0434160D01*
X0256857Y0431061D02*
X0254388Y0431061D01*
X0255622Y0431061D02*
X0255622Y0434764D01*
X0254388Y0433530D01*
X0202624Y0430549D02*
X0200156Y0430549D01*
X0201390Y0430549D02*
X0201390Y0434252D01*
X0200156Y0433018D01*
X0168687Y0430372D02*
X0166219Y0430372D01*
X0167453Y0430372D02*
X0167453Y0434075D01*
X0166219Y0432841D01*
X0112700Y0325729D02*
X0110849Y0325729D01*
X0110849Y0322026D01*
X0112700Y0322026D01*
X0113317Y0322643D01*
X0113317Y0325112D01*
X0112700Y0325729D01*
X0109634Y0325729D02*
X0109634Y0322026D01*
X0107165Y0325729D01*
X0107165Y0322026D01*
X0105951Y0322643D02*
X0105951Y0323877D01*
X0104717Y0323877D01*
X0105951Y0322643D02*
X0105334Y0322026D01*
X0104099Y0322026D01*
X0103482Y0322643D01*
X0103482Y0325112D01*
X0104099Y0325729D01*
X0105334Y0325729D01*
X0105951Y0325112D01*
X0119836Y0261443D02*
X0119836Y0258974D01*
X0119836Y0260209D02*
X0116133Y0260209D01*
X0117367Y0258974D01*
X0104625Y0240185D02*
X0102156Y0240185D01*
X0102156Y0237717D02*
X0104625Y0237717D01*
X0105859Y0238951D01*
X0104625Y0240185D01*
X0104008Y0236502D02*
X0105242Y0236502D01*
X0105859Y0235885D01*
X0105859Y0234651D01*
X0105242Y0234033D01*
X0104008Y0234033D02*
X0103391Y0235268D01*
X0103391Y0235885D01*
X0104008Y0236502D01*
X0102156Y0236502D02*
X0102156Y0234033D01*
X0104008Y0234033D01*
X0084521Y0229357D02*
X0084521Y0226888D01*
X0084521Y0228122D02*
X0080818Y0228122D01*
X0082052Y0226888D01*
X0311236Y0055967D02*
X0312471Y0057201D01*
X0312471Y0053498D01*
X0313705Y0053498D02*
X0311236Y0053498D01*
X0371354Y0053380D02*
X0373823Y0053380D01*
X0372589Y0053380D02*
X0372589Y0057083D01*
X0371354Y0055849D01*
X0427417Y0054983D02*
X0428652Y0056217D01*
X0428652Y0052514D01*
X0429886Y0052514D02*
X0427417Y0052514D01*
D15*
X0393293Y0140773D02*
X0389356Y0140773D01*
X0389356Y0139297D01*
X0386895Y0139297D02*
X0386895Y0140773D01*
X0383943Y0140773D01*
X0382958Y0139789D01*
X0383943Y0140773D02*
X0383943Y0163411D01*
X0382958Y0164395D01*
X0383943Y0163411D02*
X0386895Y0163411D01*
X0386895Y0164887D01*
X0389356Y0164887D02*
X0389356Y0163411D01*
X0393293Y0163411D01*
X0384730Y0242466D02*
X0384730Y0243943D01*
X0387683Y0243943D01*
X0388667Y0242958D01*
X0387683Y0243943D02*
X0387683Y0276423D01*
X0388667Y0277407D01*
X0387683Y0276423D02*
X0384730Y0276423D01*
X0384730Y0277899D01*
X0382269Y0277899D02*
X0382269Y0276423D01*
X0378332Y0276423D01*
X0378332Y0243943D02*
X0382269Y0243943D01*
X0382269Y0242466D01*
X0296777Y0324513D02*
X0296777Y0328450D01*
X0298254Y0328450D01*
X0298254Y0330911D02*
X0296777Y0330911D01*
X0296777Y0333864D01*
X0297761Y0334848D01*
X0296777Y0333864D02*
X0254454Y0333864D01*
X0253470Y0334848D01*
X0254454Y0333864D02*
X0254454Y0330911D01*
X0252978Y0330911D01*
X0252978Y0328450D02*
X0254454Y0328450D01*
X0254454Y0324513D01*
X0173746Y0326836D02*
X0173746Y0366836D01*
X0173872Y0429739D02*
X0173271Y0429739D01*
X0172971Y0430040D01*
X0173572Y0430640D02*
X0173872Y0430640D01*
X0174172Y0430340D01*
X0174172Y0430040D01*
X0173872Y0429739D01*
X0173872Y0430640D02*
X0174172Y0430940D01*
X0174172Y0431241D01*
X0173872Y0431541D01*
X0173271Y0431541D01*
X0172971Y0431241D01*
X0174813Y0430040D02*
X0175113Y0430040D01*
X0175113Y0429739D01*
X0174813Y0429739D01*
X0174813Y0430040D01*
X0175733Y0430040D02*
X0176034Y0429739D01*
X0176634Y0429739D01*
X0176934Y0430040D01*
X0176934Y0430340D01*
X0176634Y0430640D01*
X0176334Y0430640D01*
X0176634Y0430640D02*
X0176934Y0430940D01*
X0176934Y0431241D01*
X0176634Y0431541D01*
X0176034Y0431541D01*
X0175733Y0431241D01*
X0177575Y0431541D02*
X0177575Y0430340D01*
X0178175Y0429739D01*
X0178776Y0430340D01*
X0178776Y0431541D01*
D16*
X0183792Y0395876D02*
X0183024Y0395109D01*
X0183024Y0392040D01*
X0183792Y0391272D01*
X0185326Y0391272D01*
X0186094Y0392040D01*
X0187628Y0391272D02*
X0190698Y0394342D01*
X0190698Y0395109D01*
X0189930Y0395876D01*
X0188396Y0395876D01*
X0187628Y0395109D01*
X0186094Y0395109D02*
X0185326Y0395876D01*
X0183792Y0395876D01*
X0187628Y0391272D02*
X0190698Y0391272D01*
X0174710Y0374908D02*
X0174710Y0370304D01*
X0173176Y0370304D02*
X0176245Y0370304D01*
X0173176Y0373373D02*
X0174710Y0374908D01*
X0171641Y0374908D02*
X0171641Y0371071D01*
X0170874Y0370304D01*
X0169339Y0370304D01*
X0168572Y0371071D01*
X0168572Y0374908D01*
X0148139Y0387611D02*
X0145069Y0387611D01*
X0146604Y0387611D02*
X0146604Y0392215D01*
X0145069Y0390680D01*
X0143535Y0391448D02*
X0142767Y0392215D01*
X0141233Y0392215D01*
X0140465Y0391448D01*
X0140465Y0388378D01*
X0141233Y0387611D01*
X0142767Y0387611D01*
X0143535Y0388378D01*
X0259536Y0340676D02*
X0259536Y0337607D01*
X0260304Y0336839D01*
X0261838Y0336839D01*
X0262605Y0337607D01*
X0264140Y0336839D02*
X0264140Y0341443D01*
X0267209Y0336839D01*
X0267209Y0341443D01*
X0268744Y0340676D02*
X0269511Y0341443D01*
X0271046Y0341443D01*
X0271813Y0340676D01*
X0271813Y0339909D01*
X0268744Y0336839D01*
X0271813Y0336839D01*
X0262605Y0340676D02*
X0261838Y0341443D01*
X0260304Y0341443D01*
X0259536Y0340676D01*
X0390339Y0275305D02*
X0391107Y0276072D01*
X0391874Y0276072D01*
X0392641Y0275305D01*
X0393409Y0276072D01*
X0394176Y0276072D01*
X0394943Y0275305D01*
X0394943Y0273770D01*
X0394176Y0273003D01*
X0394943Y0271468D02*
X0390339Y0271468D01*
X0391107Y0273003D02*
X0390339Y0273770D01*
X0390339Y0275305D01*
X0392641Y0275305D02*
X0392641Y0274538D01*
X0394943Y0271468D02*
X0390339Y0268399D01*
X0394943Y0268399D01*
X0394176Y0266865D02*
X0394943Y0266097D01*
X0394943Y0264563D01*
X0394176Y0263795D01*
X0391107Y0263795D01*
X0390339Y0264563D01*
X0390339Y0266097D01*
X0391107Y0266865D01*
X0396993Y0155967D02*
X0396993Y0152898D01*
X0399295Y0152898D01*
X0398528Y0154432D01*
X0398528Y0155200D01*
X0399295Y0155967D01*
X0400830Y0155967D01*
X0401597Y0155200D01*
X0401597Y0153665D01*
X0400830Y0152898D01*
X0401597Y0151363D02*
X0396993Y0151363D01*
X0396993Y0148294D02*
X0401597Y0151363D01*
X0401597Y0148294D02*
X0396993Y0148294D01*
X0397760Y0146759D02*
X0396993Y0145992D01*
X0396993Y0144457D01*
X0397760Y0143690D01*
X0400830Y0143690D01*
X0401597Y0144457D01*
X0401597Y0145992D01*
X0400830Y0146759D01*
D17*
X0435498Y0148883D02*
X0435498Y0153411D01*
X0437072Y0154395D02*
X0439435Y0154395D01*
X0439435Y0183529D01*
X0437072Y0183529D01*
X0437072Y0187072D01*
X0439435Y0187072D01*
X0439435Y0193372D01*
X0463057Y0193372D01*
X0463057Y0192191D01*
X0463057Y0191797D02*
X0463057Y0188647D01*
X0463844Y0188647D01*
X0463844Y0191797D01*
X0466206Y0191797D01*
X0466206Y0187072D01*
X0466206Y0187860D02*
X0466206Y0182348D01*
X0463844Y0182348D01*
X0463844Y0185498D01*
X0463057Y0185498D01*
X0463057Y0181954D01*
X0463057Y0182348D02*
X0463057Y0178805D01*
X0463844Y0178805D01*
X0463844Y0181954D01*
X0466206Y0181954D01*
X0466206Y0177230D01*
X0466206Y0172506D01*
X0463844Y0172506D01*
X0463844Y0175655D01*
X0463057Y0175655D01*
X0463057Y0172112D01*
X0463057Y0172506D02*
X0463057Y0168962D01*
X0463844Y0168962D01*
X0463844Y0172112D01*
X0466206Y0172112D01*
X0466206Y0167387D01*
X0466206Y0162663D01*
X0463844Y0162663D01*
X0463844Y0165813D01*
X0463057Y0165813D01*
X0463057Y0162269D01*
X0463057Y0162663D02*
X0463057Y0159120D01*
X0463844Y0159120D01*
X0463844Y0162269D01*
X0466206Y0162269D01*
X0466206Y0157545D01*
X0466206Y0152820D01*
X0463844Y0152820D01*
X0463844Y0155970D01*
X0463057Y0155970D01*
X0463057Y0152427D01*
X0463057Y0152033D02*
X0463057Y0151246D01*
X0437072Y0151246D01*
X0437072Y0154395D01*
X0435498Y0157348D02*
X0435498Y0161876D01*
X0435498Y0165813D02*
X0435498Y0170340D01*
X0435498Y0174277D02*
X0435498Y0178805D01*
X0435498Y0182742D02*
X0435498Y0187269D01*
X0435498Y0191206D02*
X0435498Y0195734D01*
X0440616Y0195734D01*
X0444553Y0195734D02*
X0449671Y0195734D01*
X0453608Y0195734D02*
X0458726Y0195734D01*
X0462663Y0195734D02*
X0467781Y0195734D01*
X0467781Y0191206D01*
X0467781Y0187269D02*
X0467781Y0182742D01*
X0467781Y0178805D02*
X0467781Y0174277D01*
X0467781Y0170340D02*
X0467781Y0165813D01*
X0467781Y0161876D02*
X0467781Y0157348D01*
X0467781Y0153411D02*
X0467781Y0148883D01*
X0462663Y0148883D01*
X0458726Y0148883D02*
X0453608Y0148883D01*
X0449671Y0148883D02*
X0444553Y0148883D01*
X0440616Y0148883D02*
X0435498Y0148883D01*
X0401443Y0185498D02*
X0396324Y0185498D01*
X0396718Y0187860D02*
X0370734Y0187860D01*
X0370734Y0191009D01*
X0373096Y0191009D01*
X0373096Y0220143D01*
X0370734Y0220143D01*
X0370734Y0223687D01*
X0373096Y0223687D01*
X0373096Y0229986D01*
X0396718Y0229986D01*
X0396718Y0228805D01*
X0396718Y0228411D02*
X0396718Y0225261D01*
X0397506Y0225261D01*
X0397506Y0228411D01*
X0399868Y0228411D01*
X0399868Y0223687D01*
X0399868Y0224474D02*
X0399868Y0218962D01*
X0397506Y0218962D01*
X0397506Y0222112D01*
X0396718Y0222112D01*
X0396718Y0218569D01*
X0396718Y0218962D02*
X0396718Y0215419D01*
X0397506Y0215419D01*
X0397506Y0218569D01*
X0399868Y0218569D01*
X0399868Y0213844D01*
X0399868Y0209120D01*
X0397506Y0209120D01*
X0397506Y0212269D01*
X0396718Y0212269D01*
X0396718Y0208726D01*
X0396718Y0209120D02*
X0396718Y0205576D01*
X0397506Y0205576D01*
X0397506Y0208726D01*
X0399868Y0208726D01*
X0399868Y0204002D01*
X0399868Y0199277D01*
X0397506Y0199277D01*
X0397506Y0202427D01*
X0396718Y0202427D01*
X0396718Y0198883D01*
X0396718Y0199277D02*
X0396718Y0195734D01*
X0397506Y0195734D01*
X0397506Y0198883D01*
X0399868Y0198883D01*
X0399868Y0194159D01*
X0399868Y0189435D01*
X0397506Y0189435D01*
X0397506Y0192584D01*
X0396718Y0192584D01*
X0396718Y0189041D01*
X0396718Y0188647D02*
X0396718Y0187860D01*
X0392387Y0185498D02*
X0387269Y0185498D01*
X0383332Y0185498D02*
X0378214Y0185498D01*
X0374277Y0185498D02*
X0369159Y0185498D01*
X0369159Y0190025D01*
X0369159Y0193962D02*
X0369159Y0198490D01*
X0369159Y0202427D02*
X0369159Y0206954D01*
X0369159Y0210891D02*
X0369159Y0215419D01*
X0369159Y0219356D02*
X0369159Y0223883D01*
X0369159Y0227820D02*
X0369159Y0232348D01*
X0374277Y0232348D01*
X0378214Y0232348D02*
X0383332Y0232348D01*
X0387269Y0232348D02*
X0392387Y0232348D01*
X0396324Y0232348D02*
X0401443Y0232348D01*
X0401443Y0227820D01*
X0401443Y0223883D02*
X0401443Y0219356D01*
X0401443Y0215419D02*
X0401443Y0210891D01*
X0401443Y0206954D02*
X0401443Y0202427D01*
X0401443Y0198490D02*
X0401443Y0193962D01*
X0401443Y0190025D02*
X0401443Y0185498D01*
X0434671Y0204750D02*
X0434671Y0209622D01*
X0436246Y0210261D02*
X0436246Y0207112D01*
X0462230Y0207112D01*
X0462230Y0207899D01*
X0462230Y0208293D02*
X0462230Y0211836D01*
X0463017Y0211836D01*
X0463017Y0208687D01*
X0465380Y0208687D01*
X0465380Y0213411D01*
X0465380Y0218135D01*
X0463017Y0218135D01*
X0463017Y0214986D01*
X0462230Y0214986D01*
X0462230Y0218529D01*
X0462230Y0218135D02*
X0462230Y0221679D01*
X0463017Y0221679D01*
X0463017Y0218529D01*
X0465380Y0218529D01*
X0465380Y0223254D01*
X0465380Y0227978D01*
X0463017Y0227978D01*
X0463017Y0224828D01*
X0462230Y0224828D01*
X0462230Y0228372D01*
X0462230Y0227978D02*
X0462230Y0231521D01*
X0463017Y0231521D01*
X0463017Y0228372D01*
X0465380Y0228372D01*
X0465380Y0233096D01*
X0465380Y0237820D01*
X0463017Y0237820D01*
X0463017Y0234671D01*
X0462230Y0234671D01*
X0462230Y0238214D01*
X0462230Y0237820D02*
X0462230Y0241364D01*
X0463017Y0241364D01*
X0463017Y0238214D01*
X0465380Y0238214D01*
X0465380Y0242939D01*
X0465380Y0247663D01*
X0463017Y0247663D01*
X0463017Y0244513D01*
X0462230Y0244513D01*
X0462230Y0248057D01*
X0462230Y0247663D02*
X0462230Y0251206D01*
X0463017Y0251206D01*
X0463017Y0248057D01*
X0465380Y0248057D01*
X0465380Y0252781D01*
X0465380Y0257506D01*
X0463017Y0257506D01*
X0463017Y0254356D01*
X0462230Y0254356D01*
X0462230Y0257899D01*
X0462230Y0257506D02*
X0462230Y0261049D01*
X0463017Y0261049D01*
X0463017Y0257899D01*
X0465380Y0257899D01*
X0465380Y0263411D01*
X0465380Y0262624D02*
X0465380Y0267348D01*
X0463017Y0267348D01*
X0463017Y0264198D01*
X0462230Y0264198D01*
X0462230Y0267348D01*
X0462230Y0267742D02*
X0462230Y0268923D01*
X0438608Y0268923D01*
X0438608Y0262624D01*
X0436246Y0262624D01*
X0436246Y0259080D01*
X0438608Y0259080D01*
X0438608Y0210261D01*
X0436246Y0210261D01*
X0434671Y0213559D02*
X0434671Y0218431D01*
X0434671Y0222368D02*
X0434671Y0227240D01*
X0434671Y0231177D02*
X0434671Y0236049D01*
X0434671Y0239986D02*
X0434671Y0244858D01*
X0434671Y0248795D02*
X0434671Y0253667D01*
X0434671Y0257604D02*
X0434671Y0262476D01*
X0434671Y0266413D02*
X0434671Y0271285D01*
X0439789Y0271285D01*
X0443726Y0271285D02*
X0448844Y0271285D01*
X0452781Y0271285D02*
X0457899Y0271285D01*
X0461836Y0271285D02*
X0466954Y0271285D01*
X0466954Y0266413D01*
X0466954Y0262476D02*
X0466954Y0257604D01*
X0466954Y0253667D02*
X0466954Y0248795D01*
X0466954Y0244858D02*
X0466954Y0239986D01*
X0466954Y0236049D02*
X0466954Y0231177D01*
X0466954Y0227240D02*
X0466954Y0222368D01*
X0466954Y0218431D02*
X0466954Y0213559D01*
X0466954Y0209622D02*
X0466954Y0204750D01*
X0461836Y0204750D01*
X0457899Y0204750D02*
X0452781Y0204750D01*
X0448844Y0204750D02*
X0443726Y0204750D01*
X0439789Y0204750D02*
X0434671Y0204750D01*
X0425434Y0310357D02*
X0426185Y0311108D01*
X0426185Y0312609D01*
X0425434Y0313360D01*
X0424683Y0313360D01*
X0423933Y0312609D01*
X0423933Y0311108D01*
X0423182Y0310357D01*
X0422431Y0310357D01*
X0421681Y0311108D01*
X0421681Y0312609D01*
X0422431Y0313360D01*
X0421681Y0316462D02*
X0421681Y0317964D01*
X0421681Y0317213D02*
X0425434Y0317213D01*
X0426185Y0316462D01*
X0426185Y0315712D01*
X0425434Y0314961D01*
X0425434Y0319565D02*
X0426185Y0320316D01*
X0426185Y0321817D01*
X0425434Y0322568D01*
X0423933Y0322568D01*
X0423182Y0321817D01*
X0423182Y0321066D01*
X0423933Y0319565D01*
X0421681Y0319565D01*
X0421681Y0322568D01*
X0442665Y0322329D02*
X0444917Y0320077D01*
X0444917Y0323079D01*
X0447169Y0322329D02*
X0442665Y0322329D01*
X0442665Y0318475D02*
X0442665Y0316974D01*
X0442665Y0317725D02*
X0446418Y0317725D01*
X0447169Y0316974D01*
X0447169Y0316223D01*
X0446418Y0315473D01*
X0446418Y0313871D02*
X0447169Y0313121D01*
X0447169Y0311620D01*
X0446418Y0310869D01*
X0444917Y0311620D02*
X0444917Y0313121D01*
X0445668Y0313871D01*
X0446418Y0313871D01*
X0444917Y0311620D02*
X0444166Y0310869D01*
X0443416Y0310869D01*
X0442665Y0311620D01*
X0442665Y0313121D01*
X0443416Y0313871D01*
X0363599Y0342931D02*
X0363599Y0344432D01*
X0362848Y0345182D01*
X0363599Y0346784D02*
X0359095Y0346784D01*
X0363599Y0349786D01*
X0359095Y0349786D01*
X0359846Y0351388D02*
X0359095Y0352138D01*
X0359095Y0353640D01*
X0359846Y0354390D01*
X0360596Y0354390D01*
X0363599Y0351388D01*
X0363599Y0354390D01*
X0361347Y0355992D02*
X0359095Y0358244D01*
X0363599Y0358244D01*
X0361347Y0358994D02*
X0361347Y0355992D01*
X0359846Y0345182D02*
X0359095Y0344432D01*
X0359095Y0342931D01*
X0359846Y0342180D01*
X0362848Y0342180D01*
X0363599Y0342931D01*
X0355473Y0368349D02*
X0356224Y0369100D01*
X0356224Y0370601D01*
X0355473Y0371352D01*
X0354723Y0371352D01*
X0353972Y0370601D01*
X0353972Y0369100D01*
X0353221Y0368349D01*
X0352471Y0368349D01*
X0351720Y0369100D01*
X0351720Y0370601D01*
X0352471Y0371352D01*
X0351720Y0374454D02*
X0351720Y0375956D01*
X0351720Y0375205D02*
X0355473Y0375205D01*
X0356224Y0374454D01*
X0356224Y0373704D01*
X0355473Y0372953D01*
X0356224Y0377557D02*
X0356224Y0380560D01*
X0356224Y0379058D02*
X0351720Y0379058D01*
X0353221Y0377557D01*
X0333704Y0377675D02*
X0330702Y0380678D01*
X0329951Y0380678D01*
X0329200Y0379927D01*
X0329200Y0378426D01*
X0329951Y0377675D01*
X0329200Y0376074D02*
X0329200Y0374573D01*
X0329200Y0375323D02*
X0332954Y0375323D01*
X0333704Y0374573D01*
X0333704Y0373822D01*
X0332954Y0373071D01*
X0332954Y0371470D02*
X0333704Y0370719D01*
X0333704Y0369218D01*
X0332954Y0368467D01*
X0331452Y0369218D02*
X0331452Y0370719D01*
X0332203Y0371470D01*
X0332954Y0371470D01*
X0331452Y0369218D02*
X0330702Y0368467D01*
X0329951Y0368467D01*
X0329200Y0369218D01*
X0329200Y0370719D01*
X0329951Y0371470D01*
X0333704Y0377675D02*
X0333704Y0380678D01*
X0311067Y0379691D02*
X0311067Y0378190D01*
X0310316Y0377439D01*
X0308815Y0378940D02*
X0308815Y0379691D01*
X0309565Y0380442D01*
X0310316Y0380442D01*
X0311067Y0379691D01*
X0308815Y0379691D02*
X0308064Y0380442D01*
X0307313Y0380442D01*
X0306563Y0379691D01*
X0306563Y0378190D01*
X0307313Y0377439D01*
X0306563Y0375838D02*
X0306563Y0374336D01*
X0306563Y0375087D02*
X0310316Y0375087D01*
X0311067Y0374336D01*
X0311067Y0373586D01*
X0310316Y0372835D01*
X0310316Y0371234D02*
X0311067Y0370483D01*
X0311067Y0368982D01*
X0310316Y0368231D01*
X0308815Y0368982D02*
X0308815Y0370483D01*
X0309565Y0371234D01*
X0310316Y0371234D01*
X0308815Y0368982D02*
X0308064Y0368231D01*
X0307313Y0368231D01*
X0306563Y0368982D01*
X0306563Y0370483D01*
X0307313Y0371234D01*
X0308687Y0406462D02*
X0313214Y0406462D01*
X0312427Y0408037D02*
X0308883Y0408037D01*
X0308883Y0410399D01*
X0302584Y0410399D01*
X0302584Y0434021D01*
X0303765Y0434021D01*
X0304159Y0434021D02*
X0307309Y0434021D01*
X0307309Y0434809D01*
X0304159Y0434809D01*
X0304159Y0437171D01*
X0308883Y0437171D01*
X0308096Y0437171D02*
X0313608Y0437171D01*
X0313608Y0434809D01*
X0310458Y0434809D01*
X0310458Y0434021D01*
X0314002Y0434021D01*
X0313608Y0434021D02*
X0317151Y0434021D01*
X0317151Y0434809D01*
X0314002Y0434809D01*
X0314002Y0437171D01*
X0318726Y0437171D01*
X0323450Y0437171D01*
X0323450Y0434809D01*
X0320301Y0434809D01*
X0320301Y0434021D01*
X0323844Y0434021D01*
X0323450Y0434021D02*
X0326994Y0434021D01*
X0326994Y0434809D01*
X0323844Y0434809D01*
X0323844Y0437171D01*
X0328569Y0437171D01*
X0333293Y0437171D01*
X0333293Y0434809D01*
X0330143Y0434809D01*
X0330143Y0434021D01*
X0333687Y0434021D01*
X0333293Y0434021D02*
X0336836Y0434021D01*
X0336836Y0434809D01*
X0333687Y0434809D01*
X0333687Y0437171D01*
X0338411Y0437171D01*
X0343135Y0437171D01*
X0343135Y0434809D01*
X0339986Y0434809D01*
X0339986Y0434021D01*
X0343529Y0434021D01*
X0343923Y0434021D02*
X0344710Y0434021D01*
X0344710Y0408037D01*
X0341561Y0408037D01*
X0341561Y0410399D01*
X0312427Y0410399D01*
X0312427Y0408037D01*
X0317151Y0406462D02*
X0321679Y0406462D01*
X0325616Y0406462D02*
X0330143Y0406462D01*
X0334080Y0406462D02*
X0338608Y0406462D01*
X0342545Y0406462D02*
X0347072Y0406462D01*
X0347072Y0411580D01*
X0347072Y0415517D02*
X0347072Y0420635D01*
X0347072Y0424572D02*
X0347072Y0429691D01*
X0347072Y0433628D02*
X0347072Y0438746D01*
X0342545Y0438746D01*
X0338608Y0438746D02*
X0334080Y0438746D01*
X0330143Y0438746D02*
X0325616Y0438746D01*
X0321679Y0438746D02*
X0317151Y0438746D01*
X0313214Y0438746D02*
X0308687Y0438746D01*
X0304750Y0438746D02*
X0300222Y0438746D01*
X0300222Y0433628D01*
X0300222Y0429691D02*
X0300222Y0424572D01*
X0300222Y0420635D02*
X0300222Y0415517D01*
X0300222Y0411580D02*
X0300222Y0406462D01*
X0304750Y0406462D01*
X0293234Y0405832D02*
X0288706Y0405832D01*
X0287722Y0407407D02*
X0287722Y0409769D01*
X0258588Y0409769D01*
X0258588Y0407407D01*
X0255045Y0407407D01*
X0255045Y0409769D01*
X0248746Y0409769D01*
X0248746Y0433391D01*
X0249927Y0433391D01*
X0250320Y0433391D02*
X0253470Y0433391D01*
X0253470Y0434179D01*
X0250320Y0434179D01*
X0250320Y0436541D01*
X0255045Y0436541D01*
X0254257Y0436541D02*
X0259769Y0436541D01*
X0259769Y0434179D01*
X0256620Y0434179D01*
X0256620Y0433391D01*
X0260163Y0433391D01*
X0259769Y0433391D02*
X0263313Y0433391D01*
X0263313Y0434179D01*
X0260163Y0434179D01*
X0260163Y0436541D01*
X0264887Y0436541D01*
X0269612Y0436541D01*
X0269612Y0434179D01*
X0266462Y0434179D01*
X0266462Y0433391D01*
X0270006Y0433391D01*
X0269612Y0433391D02*
X0273155Y0433391D01*
X0273155Y0434179D01*
X0270006Y0434179D01*
X0270006Y0436541D01*
X0274730Y0436541D01*
X0279454Y0436541D01*
X0279454Y0434179D01*
X0276305Y0434179D01*
X0276305Y0433391D01*
X0279848Y0433391D01*
X0279454Y0433391D02*
X0282998Y0433391D01*
X0282998Y0434179D01*
X0279848Y0434179D01*
X0279848Y0436541D01*
X0284572Y0436541D01*
X0289297Y0436541D01*
X0289297Y0434179D01*
X0286147Y0434179D01*
X0286147Y0433391D01*
X0289691Y0433391D01*
X0290084Y0433391D02*
X0290872Y0433391D01*
X0290872Y0407407D01*
X0287722Y0407407D01*
X0284769Y0405832D02*
X0280242Y0405832D01*
X0276305Y0405832D02*
X0271777Y0405832D01*
X0267840Y0405832D02*
X0263313Y0405832D01*
X0259376Y0405832D02*
X0254848Y0405832D01*
X0250911Y0405832D02*
X0246383Y0405832D01*
X0246383Y0410950D01*
X0246383Y0414887D02*
X0246383Y0420006D01*
X0246383Y0423943D02*
X0246383Y0429061D01*
X0246383Y0432998D02*
X0246383Y0438116D01*
X0250911Y0438116D01*
X0254848Y0438116D02*
X0259376Y0438116D01*
X0263313Y0438116D02*
X0267840Y0438116D01*
X0271777Y0438116D02*
X0276305Y0438116D01*
X0280242Y0438116D02*
X0284769Y0438116D01*
X0288706Y0438116D02*
X0293234Y0438116D01*
X0293234Y0432998D01*
X0293234Y0429061D02*
X0293234Y0423943D01*
X0293234Y0420006D02*
X0293234Y0414887D01*
X0293234Y0410950D02*
X0293234Y0405832D01*
X0239002Y0405320D02*
X0234474Y0405320D01*
X0233490Y0406895D02*
X0236639Y0406895D01*
X0236639Y0432880D01*
X0235852Y0432880D01*
X0235458Y0432880D02*
X0231915Y0432880D01*
X0231915Y0433667D01*
X0235065Y0433667D01*
X0235065Y0436029D01*
X0230340Y0436029D01*
X0225616Y0436029D01*
X0225616Y0433667D01*
X0228765Y0433667D01*
X0228765Y0432880D01*
X0225222Y0432880D01*
X0225616Y0432880D02*
X0222072Y0432880D01*
X0222072Y0433667D01*
X0225222Y0433667D01*
X0225222Y0436029D01*
X0220498Y0436029D01*
X0215773Y0436029D01*
X0215773Y0433667D01*
X0218923Y0433667D01*
X0218923Y0432880D01*
X0215380Y0432880D01*
X0215773Y0432880D02*
X0212230Y0432880D01*
X0212230Y0433667D01*
X0215380Y0433667D01*
X0215380Y0436029D01*
X0210655Y0436029D01*
X0205931Y0436029D01*
X0205931Y0433667D01*
X0209080Y0433667D01*
X0209080Y0432880D01*
X0205537Y0432880D01*
X0205931Y0432880D02*
X0202387Y0432880D01*
X0202387Y0433667D01*
X0205537Y0433667D01*
X0205537Y0436029D01*
X0200025Y0436029D01*
X0200813Y0436029D02*
X0196088Y0436029D01*
X0196088Y0433667D01*
X0199238Y0433667D01*
X0199238Y0432880D01*
X0196088Y0432880D01*
X0195694Y0432880D02*
X0194513Y0432880D01*
X0194513Y0409257D01*
X0200813Y0409257D01*
X0200813Y0406895D01*
X0204356Y0406895D01*
X0204356Y0409257D01*
X0233490Y0409257D01*
X0233490Y0406895D01*
X0230537Y0405320D02*
X0226009Y0405320D01*
X0222072Y0405320D02*
X0217545Y0405320D01*
X0213608Y0405320D02*
X0209080Y0405320D01*
X0205143Y0405320D02*
X0200616Y0405320D01*
X0196679Y0405320D02*
X0192151Y0405320D01*
X0192151Y0410439D01*
X0192151Y0414376D02*
X0192151Y0419494D01*
X0192151Y0423431D02*
X0192151Y0428549D01*
X0192151Y0432486D02*
X0192151Y0437604D01*
X0196679Y0437604D01*
X0200616Y0437604D02*
X0205143Y0437604D01*
X0209080Y0437604D02*
X0213608Y0437604D01*
X0217545Y0437604D02*
X0222072Y0437604D01*
X0226009Y0437604D02*
X0230537Y0437604D01*
X0234474Y0437604D02*
X0239002Y0437604D01*
X0239002Y0432486D01*
X0239002Y0428549D02*
X0239002Y0423431D01*
X0239002Y0419494D02*
X0239002Y0414376D01*
X0239002Y0410439D02*
X0239002Y0405320D01*
X0230113Y0365650D02*
X0230864Y0364899D01*
X0230864Y0364149D01*
X0230113Y0363398D01*
X0230864Y0362647D01*
X0230864Y0361897D01*
X0230113Y0361146D01*
X0228612Y0361146D01*
X0227861Y0361897D01*
X0229362Y0363398D02*
X0230113Y0363398D01*
X0230113Y0365650D02*
X0228612Y0365650D01*
X0227861Y0364899D01*
X0226260Y0364899D02*
X0226260Y0363398D01*
X0225509Y0362647D01*
X0223257Y0362647D01*
X0223257Y0361146D02*
X0223257Y0365650D01*
X0225509Y0365650D01*
X0226260Y0364899D01*
X0221656Y0365650D02*
X0220154Y0365650D01*
X0220905Y0365650D02*
X0220905Y0361897D01*
X0220154Y0361146D01*
X0219404Y0361146D01*
X0218653Y0361897D01*
X0220154Y0345650D02*
X0221656Y0345650D01*
X0220905Y0345650D02*
X0220905Y0341897D01*
X0220154Y0341146D01*
X0219404Y0341146D01*
X0218653Y0341897D01*
X0223257Y0342647D02*
X0225509Y0342647D01*
X0226260Y0343398D01*
X0226260Y0344899D01*
X0225509Y0345650D01*
X0223257Y0345650D01*
X0223257Y0341146D01*
X0227861Y0341146D02*
X0230864Y0344149D01*
X0230864Y0344899D01*
X0230113Y0345650D01*
X0228612Y0345650D01*
X0227861Y0344899D01*
X0227861Y0341146D02*
X0230864Y0341146D01*
X0229323Y0326870D02*
X0229323Y0322367D01*
X0227822Y0322367D02*
X0230824Y0322367D01*
X0227822Y0325369D02*
X0229323Y0326870D01*
X0226220Y0326120D02*
X0226220Y0324618D01*
X0225470Y0323868D01*
X0223218Y0323868D01*
X0223218Y0322367D02*
X0223218Y0326870D01*
X0225470Y0326870D01*
X0226220Y0326120D01*
X0221616Y0326870D02*
X0220115Y0326870D01*
X0220866Y0326870D02*
X0220866Y0323117D01*
X0220115Y0322367D01*
X0219364Y0322367D01*
X0218614Y0323117D01*
X0170355Y0333854D02*
X0167352Y0333854D01*
X0170355Y0336856D01*
X0170355Y0337607D01*
X0169604Y0338358D01*
X0168103Y0338358D01*
X0167352Y0337607D01*
X0165751Y0338358D02*
X0165751Y0334605D01*
X0165000Y0333854D01*
X0163499Y0333854D01*
X0162748Y0334605D01*
X0162748Y0338358D01*
X0100962Y0333221D02*
X0097959Y0333221D01*
X0100211Y0335473D01*
X0100211Y0330969D01*
X0096358Y0330969D02*
X0093355Y0330969D01*
X0094857Y0330969D02*
X0094857Y0335473D01*
X0093355Y0333971D01*
X0091754Y0335473D02*
X0091754Y0330969D01*
X0088752Y0335473D01*
X0088752Y0330969D01*
X0087150Y0331720D02*
X0086400Y0330969D01*
X0084898Y0330969D01*
X0084148Y0331720D01*
X0084148Y0334722D01*
X0084898Y0335473D01*
X0086400Y0335473D01*
X0087150Y0334722D01*
X0112781Y0278135D02*
X0117899Y0278135D01*
X0117506Y0275773D02*
X0143490Y0275773D01*
X0143490Y0272624D01*
X0141128Y0272624D01*
X0141128Y0263175D01*
X0143490Y0263175D01*
X0143490Y0259631D01*
X0141128Y0259631D01*
X0141128Y0253332D01*
X0117506Y0253332D01*
X0117506Y0254513D01*
X0117506Y0254907D02*
X0117506Y0258057D01*
X0116718Y0258057D01*
X0116718Y0254907D01*
X0114356Y0254907D01*
X0114356Y0259631D01*
X0114356Y0258844D02*
X0114356Y0264356D01*
X0116718Y0264356D01*
X0116718Y0261206D01*
X0117506Y0261206D01*
X0117506Y0264750D01*
X0117506Y0264356D02*
X0117506Y0267899D01*
X0116718Y0267899D01*
X0116718Y0264750D01*
X0114356Y0264750D01*
X0114356Y0269474D01*
X0114356Y0274198D01*
X0116718Y0274198D01*
X0116718Y0271049D01*
X0117506Y0271049D01*
X0117506Y0274592D01*
X0117506Y0274986D02*
X0117506Y0275773D01*
X0121836Y0278135D02*
X0126954Y0278135D01*
X0130891Y0278135D02*
X0136009Y0278135D01*
X0139946Y0278135D02*
X0145065Y0278135D01*
X0145065Y0271705D01*
X0145065Y0267768D02*
X0145065Y0261338D01*
X0145065Y0257401D02*
X0145065Y0250970D01*
X0139946Y0250970D01*
X0136009Y0250970D02*
X0130891Y0250970D01*
X0126954Y0250970D02*
X0121836Y0250970D01*
X0117899Y0250970D02*
X0112781Y0250970D01*
X0112781Y0257401D01*
X0112781Y0261338D02*
X0112781Y0267768D01*
X0112781Y0271705D02*
X0112781Y0278135D01*
X0109750Y0246049D02*
X0104631Y0246049D01*
X0100694Y0246049D02*
X0095576Y0246049D01*
X0091639Y0246049D02*
X0086521Y0246049D01*
X0082584Y0246049D02*
X0077466Y0246049D01*
X0077466Y0239618D01*
X0079041Y0237387D02*
X0079041Y0242112D01*
X0081403Y0242112D01*
X0081403Y0238962D01*
X0082191Y0238962D01*
X0082191Y0242506D01*
X0082191Y0242899D02*
X0082191Y0243687D01*
X0108175Y0243687D01*
X0108175Y0240537D01*
X0105813Y0240537D01*
X0105813Y0231088D01*
X0108175Y0231088D01*
X0108175Y0227545D01*
X0105813Y0227545D01*
X0105813Y0221246D01*
X0082191Y0221246D01*
X0082191Y0222427D01*
X0082191Y0222820D02*
X0082191Y0225970D01*
X0081403Y0225970D01*
X0081403Y0222820D01*
X0079041Y0222820D01*
X0079041Y0227545D01*
X0079041Y0226757D02*
X0079041Y0232269D01*
X0081403Y0232269D01*
X0081403Y0229120D01*
X0082191Y0229120D01*
X0082191Y0232663D01*
X0082191Y0232269D02*
X0082191Y0235813D01*
X0081403Y0235813D01*
X0081403Y0232663D01*
X0079041Y0232663D01*
X0079041Y0237387D01*
X0077466Y0235681D02*
X0077466Y0229251D01*
X0077466Y0225314D02*
X0077466Y0218883D01*
X0082584Y0218883D01*
X0086521Y0218883D02*
X0091639Y0218883D01*
X0095576Y0218883D02*
X0100694Y0218883D01*
X0104631Y0218883D02*
X0109750Y0218883D01*
X0109750Y0225314D01*
X0109750Y0229251D02*
X0109750Y0235681D01*
X0109750Y0239618D02*
X0109750Y0246049D01*
X0158214Y0405143D02*
X0158214Y0410261D01*
X0160576Y0409080D02*
X0160576Y0432702D01*
X0161757Y0432702D01*
X0162151Y0432702D02*
X0165301Y0432702D01*
X0165301Y0433490D01*
X0162151Y0433490D01*
X0162151Y0435852D01*
X0166876Y0435852D01*
X0166088Y0435852D02*
X0171600Y0435852D01*
X0171600Y0433490D01*
X0168450Y0433490D01*
X0168450Y0432702D01*
X0171994Y0432702D01*
X0171600Y0432702D02*
X0175143Y0432702D01*
X0175143Y0433490D01*
X0171994Y0433490D01*
X0171994Y0435852D01*
X0176718Y0435852D01*
X0181443Y0435852D01*
X0181443Y0433490D01*
X0178293Y0433490D01*
X0178293Y0432702D01*
X0181836Y0432702D01*
X0182230Y0432702D02*
X0183017Y0432702D01*
X0183017Y0406718D01*
X0179868Y0406718D01*
X0179868Y0409080D01*
X0170419Y0409080D01*
X0170419Y0406718D01*
X0166876Y0406718D01*
X0166876Y0409080D01*
X0160576Y0409080D01*
X0158214Y0405143D02*
X0164645Y0405143D01*
X0168582Y0405143D02*
X0175012Y0405143D01*
X0178949Y0405143D02*
X0185380Y0405143D01*
X0185380Y0410261D01*
X0185380Y0414198D02*
X0185380Y0419317D01*
X0185380Y0423254D02*
X0185380Y0428372D01*
X0185380Y0432309D02*
X0185380Y0437427D01*
X0178949Y0437427D01*
X0175012Y0437427D02*
X0168582Y0437427D01*
X0164645Y0437427D02*
X0158214Y0437427D01*
X0158214Y0432309D01*
X0158214Y0428372D02*
X0158214Y0423254D01*
X0158214Y0419317D02*
X0158214Y0414198D01*
X0459243Y0414687D02*
X0463747Y0414687D01*
X0459243Y0411685D01*
X0463747Y0411685D01*
X0462996Y0410083D02*
X0463747Y0409333D01*
X0463747Y0407831D01*
X0462996Y0407081D01*
X0459994Y0407081D01*
X0459243Y0407831D01*
X0459243Y0409333D01*
X0459994Y0410083D01*
X0459994Y0416289D02*
X0459243Y0417039D01*
X0459243Y0418540D01*
X0459994Y0419291D01*
X0460744Y0419291D01*
X0463747Y0416289D01*
X0463747Y0419291D01*
X0462996Y0420892D02*
X0463747Y0421643D01*
X0463747Y0423144D01*
X0462996Y0423895D01*
X0461495Y0423895D01*
X0460744Y0423144D01*
X0460744Y0422394D01*
X0461495Y0420892D01*
X0459243Y0420892D01*
X0459243Y0423895D01*
X0438805Y0081443D02*
X0434277Y0081443D01*
X0430340Y0081443D02*
X0425813Y0081443D01*
X0426600Y0079868D02*
X0430143Y0079868D01*
X0430143Y0077506D01*
X0436443Y0077506D01*
X0436443Y0053883D01*
X0435261Y0053883D01*
X0434868Y0053883D02*
X0431718Y0053883D01*
X0431718Y0053096D01*
X0434868Y0053096D01*
X0434868Y0050734D01*
X0430143Y0050734D01*
X0430931Y0050734D02*
X0425419Y0050734D01*
X0425419Y0053096D01*
X0428569Y0053096D01*
X0428569Y0053883D01*
X0425025Y0053883D01*
X0425419Y0053883D02*
X0421876Y0053883D01*
X0421876Y0053096D01*
X0425025Y0053096D01*
X0425025Y0050734D01*
X0420301Y0050734D01*
X0415576Y0050734D01*
X0415576Y0053096D01*
X0418726Y0053096D01*
X0418726Y0053883D01*
X0415183Y0053883D01*
X0415576Y0053883D02*
X0412033Y0053883D01*
X0412033Y0053096D01*
X0415183Y0053096D01*
X0415183Y0050734D01*
X0410458Y0050734D01*
X0405734Y0050734D01*
X0405734Y0053096D01*
X0408883Y0053096D01*
X0408883Y0053883D01*
X0405340Y0053883D01*
X0405734Y0053883D02*
X0402191Y0053883D01*
X0402191Y0053096D01*
X0405340Y0053096D01*
X0405340Y0050734D01*
X0400616Y0050734D01*
X0395891Y0050734D01*
X0395891Y0053096D01*
X0399041Y0053096D01*
X0399041Y0053883D01*
X0395498Y0053883D01*
X0395104Y0053883D02*
X0394317Y0053883D01*
X0394317Y0079868D01*
X0397466Y0079868D01*
X0397466Y0077506D01*
X0426600Y0077506D01*
X0426600Y0079868D01*
X0421876Y0081443D02*
X0417348Y0081443D01*
X0413411Y0081443D02*
X0408883Y0081443D01*
X0404946Y0081443D02*
X0400419Y0081443D01*
X0396482Y0081443D02*
X0391954Y0081443D01*
X0391954Y0076324D01*
X0391954Y0072387D02*
X0391954Y0067269D01*
X0391954Y0063332D02*
X0391954Y0058214D01*
X0391954Y0054277D02*
X0391954Y0049159D01*
X0396482Y0049159D01*
X0400419Y0049159D02*
X0404946Y0049159D01*
X0408883Y0049159D02*
X0413411Y0049159D01*
X0417348Y0049159D02*
X0421876Y0049159D01*
X0425813Y0049159D02*
X0430340Y0049159D01*
X0434277Y0049159D02*
X0438805Y0049159D01*
X0438805Y0054277D01*
X0438805Y0058214D02*
X0438805Y0063332D01*
X0438805Y0067269D02*
X0438805Y0072387D01*
X0438805Y0076324D02*
X0438805Y0081443D01*
X0382742Y0082309D02*
X0382742Y0077191D01*
X0380380Y0078372D02*
X0380380Y0054750D01*
X0379198Y0054750D01*
X0378805Y0054750D02*
X0375655Y0054750D01*
X0375655Y0053962D01*
X0378805Y0053962D01*
X0378805Y0051600D01*
X0374080Y0051600D01*
X0374868Y0051600D02*
X0369356Y0051600D01*
X0369356Y0053962D01*
X0372506Y0053962D01*
X0372506Y0054750D01*
X0368962Y0054750D01*
X0369356Y0054750D02*
X0365813Y0054750D01*
X0365813Y0053962D01*
X0368962Y0053962D01*
X0368962Y0051600D01*
X0364238Y0051600D01*
X0359513Y0051600D01*
X0359513Y0053962D01*
X0362663Y0053962D01*
X0362663Y0054750D01*
X0359120Y0054750D01*
X0359513Y0054750D02*
X0355970Y0054750D01*
X0355970Y0053962D01*
X0359120Y0053962D01*
X0359120Y0051600D01*
X0354395Y0051600D01*
X0349671Y0051600D01*
X0349671Y0053962D01*
X0352820Y0053962D01*
X0352820Y0054750D01*
X0349277Y0054750D01*
X0349671Y0054750D02*
X0346128Y0054750D01*
X0346128Y0053962D01*
X0349277Y0053962D01*
X0349277Y0051600D01*
X0344553Y0051600D01*
X0339828Y0051600D01*
X0339828Y0053962D01*
X0342978Y0053962D01*
X0342978Y0054750D01*
X0339435Y0054750D01*
X0339041Y0054750D02*
X0338254Y0054750D01*
X0338254Y0080734D01*
X0341403Y0080734D01*
X0341403Y0078372D01*
X0370537Y0078372D01*
X0370537Y0080734D01*
X0374080Y0080734D01*
X0374080Y0078372D01*
X0380380Y0078372D01*
X0378214Y0082309D02*
X0382742Y0082309D01*
X0382742Y0073254D02*
X0382742Y0068135D01*
X0382742Y0064198D02*
X0382742Y0059080D01*
X0382742Y0055143D02*
X0382742Y0050025D01*
X0378214Y0050025D01*
X0374277Y0050025D02*
X0369750Y0050025D01*
X0365813Y0050025D02*
X0361285Y0050025D01*
X0357348Y0050025D02*
X0352820Y0050025D01*
X0348883Y0050025D02*
X0344356Y0050025D01*
X0340419Y0050025D02*
X0335891Y0050025D01*
X0335891Y0055143D01*
X0335891Y0059080D02*
X0335891Y0064198D01*
X0335891Y0068135D02*
X0335891Y0073254D01*
X0335891Y0077191D02*
X0335891Y0082309D01*
X0340419Y0082309D01*
X0344356Y0082309D02*
X0348883Y0082309D01*
X0352820Y0082309D02*
X0357348Y0082309D01*
X0361285Y0082309D02*
X0365813Y0082309D01*
X0369750Y0082309D02*
X0374277Y0082309D01*
X0322624Y0082427D02*
X0322624Y0077309D01*
X0320261Y0078490D02*
X0313962Y0078490D01*
X0313962Y0080852D01*
X0310419Y0080852D01*
X0310419Y0078490D01*
X0281285Y0078490D01*
X0281285Y0080852D01*
X0278135Y0080852D01*
X0278135Y0054868D01*
X0278923Y0054868D01*
X0279317Y0054868D02*
X0282860Y0054868D01*
X0282860Y0054080D01*
X0279710Y0054080D01*
X0279710Y0051718D01*
X0284435Y0051718D01*
X0289159Y0051718D01*
X0289159Y0054080D01*
X0286009Y0054080D01*
X0286009Y0054868D01*
X0289553Y0054868D01*
X0289159Y0054868D02*
X0292702Y0054868D01*
X0292702Y0054080D01*
X0289553Y0054080D01*
X0289553Y0051718D01*
X0294277Y0051718D01*
X0299002Y0051718D01*
X0299002Y0054080D01*
X0295852Y0054080D01*
X0295852Y0054868D01*
X0299395Y0054868D01*
X0299002Y0054868D02*
X0302545Y0054868D01*
X0302545Y0054080D01*
X0299395Y0054080D01*
X0299395Y0051718D01*
X0304120Y0051718D01*
X0308844Y0051718D01*
X0308844Y0054080D01*
X0305694Y0054080D01*
X0305694Y0054868D01*
X0309238Y0054868D01*
X0308844Y0054868D02*
X0312387Y0054868D01*
X0312387Y0054080D01*
X0309238Y0054080D01*
X0309238Y0051718D01*
X0314750Y0051718D01*
X0313962Y0051718D02*
X0318687Y0051718D01*
X0318687Y0054080D01*
X0315537Y0054080D01*
X0315537Y0054868D01*
X0318687Y0054868D01*
X0319080Y0054868D02*
X0320261Y0054868D01*
X0320261Y0078490D01*
X0318096Y0082427D02*
X0322624Y0082427D01*
X0314159Y0082427D02*
X0309631Y0082427D01*
X0305694Y0082427D02*
X0301167Y0082427D01*
X0297230Y0082427D02*
X0292702Y0082427D01*
X0288765Y0082427D02*
X0284238Y0082427D01*
X0280301Y0082427D02*
X0275773Y0082427D01*
X0275773Y0077309D01*
X0275773Y0073372D02*
X0275773Y0068254D01*
X0275773Y0064317D02*
X0275773Y0059198D01*
X0275773Y0055261D02*
X0275773Y0050143D01*
X0280301Y0050143D01*
X0284238Y0050143D02*
X0288765Y0050143D01*
X0292702Y0050143D02*
X0297230Y0050143D01*
X0301167Y0050143D02*
X0305694Y0050143D01*
X0309631Y0050143D02*
X0314159Y0050143D01*
X0318096Y0050143D02*
X0322624Y0050143D01*
X0322624Y0055261D01*
X0322624Y0059198D02*
X0322624Y0064317D01*
X0322624Y0068254D02*
X0322624Y0073372D01*
D18*
X0311677Y0084832D02*
X0307473Y0084832D01*
X0309575Y0084832D02*
X0309575Y0091137D01*
X0307473Y0089035D01*
X0305231Y0084832D02*
X0301027Y0084832D01*
X0303129Y0084832D02*
X0303129Y0091137D01*
X0301027Y0089035D01*
X0298786Y0091137D02*
X0298786Y0084832D01*
X0294582Y0091137D01*
X0294582Y0084832D01*
X0292340Y0085883D02*
X0291289Y0084832D01*
X0289187Y0084832D01*
X0288136Y0085883D01*
X0288136Y0090086D01*
X0289187Y0091137D01*
X0291289Y0091137D01*
X0292340Y0090086D01*
X0347073Y0089693D02*
X0347073Y0085489D01*
X0348124Y0084438D01*
X0350226Y0084438D01*
X0351277Y0085489D01*
X0353519Y0084438D02*
X0353519Y0090744D01*
X0357723Y0084438D01*
X0357723Y0090744D01*
X0359964Y0088642D02*
X0362066Y0090744D01*
X0362066Y0084438D01*
X0359964Y0084438D02*
X0364168Y0084438D01*
X0366410Y0084438D02*
X0370614Y0088642D01*
X0370614Y0089693D01*
X0369563Y0090744D01*
X0367461Y0090744D01*
X0366410Y0089693D01*
X0366410Y0084438D02*
X0370614Y0084438D01*
X0351277Y0089693D02*
X0350226Y0090744D01*
X0348124Y0090744D01*
X0347073Y0089693D01*
X0402585Y0089890D02*
X0402585Y0085686D01*
X0403636Y0084635D01*
X0405738Y0084635D01*
X0406789Y0085686D01*
X0409031Y0084635D02*
X0409031Y0090940D01*
X0413234Y0084635D01*
X0413234Y0090940D01*
X0415476Y0088839D02*
X0417578Y0090940D01*
X0417578Y0084635D01*
X0415476Y0084635D02*
X0419680Y0084635D01*
X0421922Y0085686D02*
X0422973Y0084635D01*
X0425074Y0084635D01*
X0426125Y0085686D01*
X0426125Y0086737D01*
X0425074Y0087788D01*
X0424024Y0087788D01*
X0425074Y0087788D02*
X0426125Y0088839D01*
X0426125Y0089890D01*
X0425074Y0090940D01*
X0422973Y0090940D01*
X0421922Y0089890D01*
X0406789Y0089890D02*
X0405738Y0090940D01*
X0403636Y0090940D01*
X0402585Y0089890D01*
X0426854Y0155814D02*
X0431057Y0155814D01*
X0432108Y0156865D01*
X0432108Y0158966D01*
X0431057Y0160017D01*
X0432108Y0162259D02*
X0425803Y0162259D01*
X0432108Y0166463D01*
X0425803Y0166463D01*
X0427905Y0168705D02*
X0425803Y0170806D01*
X0432108Y0170806D01*
X0432108Y0168705D02*
X0432108Y0172908D01*
X0431057Y0175150D02*
X0426854Y0179354D01*
X0431057Y0179354D01*
X0432108Y0178303D01*
X0432108Y0176201D01*
X0431057Y0175150D01*
X0426854Y0175150D01*
X0425803Y0176201D01*
X0425803Y0178303D01*
X0426854Y0179354D01*
X0411242Y0185436D02*
X0410191Y0184385D01*
X0405988Y0184385D01*
X0404937Y0185436D01*
X0404937Y0187538D01*
X0405988Y0188589D01*
X0404937Y0190831D02*
X0411242Y0195034D01*
X0404937Y0195034D01*
X0408089Y0197276D02*
X0408089Y0201480D01*
X0404937Y0200429D02*
X0408089Y0197276D01*
X0404937Y0200429D02*
X0411242Y0200429D01*
X0411242Y0190831D02*
X0404937Y0190831D01*
X0410191Y0188589D02*
X0411242Y0187538D01*
X0411242Y0185436D01*
X0426854Y0160017D02*
X0425803Y0158966D01*
X0425803Y0156865D01*
X0426854Y0155814D01*
X0424807Y0244503D02*
X0423756Y0245554D01*
X0423756Y0247656D01*
X0424807Y0248707D01*
X0423756Y0250949D02*
X0430061Y0255152D01*
X0423756Y0255152D01*
X0424807Y0257394D02*
X0423756Y0258445D01*
X0423756Y0260547D01*
X0424807Y0261598D01*
X0429010Y0261598D01*
X0430061Y0260547D01*
X0430061Y0258445D01*
X0429010Y0257394D01*
X0426908Y0258445D02*
X0425857Y0257394D01*
X0424807Y0257394D01*
X0426908Y0258445D02*
X0426908Y0261598D01*
X0430061Y0250949D02*
X0423756Y0250949D01*
X0429010Y0248707D02*
X0430061Y0247656D01*
X0430061Y0245554D01*
X0429010Y0244503D01*
X0424807Y0244503D01*
X0328939Y0397206D02*
X0326837Y0397206D01*
X0325786Y0398257D01*
X0325786Y0399308D01*
X0326837Y0400359D01*
X0328939Y0400359D01*
X0329989Y0399308D01*
X0329989Y0398257D01*
X0328939Y0397206D01*
X0328939Y0400359D02*
X0329989Y0401409D01*
X0329989Y0402460D01*
X0328939Y0403511D01*
X0326837Y0403511D01*
X0325786Y0402460D01*
X0325786Y0401409D01*
X0326837Y0400359D01*
X0323544Y0403511D02*
X0323544Y0397206D01*
X0319340Y0403511D01*
X0319340Y0397206D01*
X0317098Y0398257D02*
X0316048Y0397206D01*
X0313946Y0397206D01*
X0312895Y0398257D01*
X0312895Y0402460D01*
X0313946Y0403511D01*
X0316048Y0403511D01*
X0317098Y0402460D01*
X0290915Y0402657D02*
X0286711Y0398454D01*
X0286711Y0397403D01*
X0284469Y0397403D02*
X0284469Y0403708D01*
X0286711Y0403708D02*
X0290915Y0403708D01*
X0290915Y0402657D01*
X0284469Y0397403D02*
X0280266Y0403708D01*
X0280266Y0397403D01*
X0278024Y0398454D02*
X0276973Y0397403D01*
X0274871Y0397403D01*
X0273820Y0398454D01*
X0273820Y0402657D01*
X0274871Y0403708D01*
X0276973Y0403708D01*
X0278024Y0402657D01*
X0222430Y0414556D02*
X0222430Y0415607D01*
X0221380Y0416658D01*
X0218227Y0416658D01*
X0218227Y0414556D01*
X0219278Y0413505D01*
X0221380Y0413505D01*
X0222430Y0414556D01*
X0220329Y0418760D02*
X0218227Y0416658D01*
X0220329Y0418760D02*
X0222430Y0419811D01*
X0215985Y0419811D02*
X0215985Y0413505D01*
X0211781Y0419811D01*
X0211781Y0413505D01*
X0209539Y0414556D02*
X0208489Y0413505D01*
X0206387Y0413505D01*
X0205336Y0414556D01*
X0205336Y0418760D01*
X0206387Y0419811D01*
X0208489Y0419811D01*
X0209539Y0418760D01*
X0173403Y0401956D02*
X0173403Y0400905D01*
X0169200Y0396702D01*
X0169200Y0395651D01*
X0166958Y0395651D02*
X0162754Y0395651D01*
X0164856Y0395651D02*
X0164856Y0401956D01*
X0162754Y0399854D01*
X0160512Y0401956D02*
X0160512Y0395651D01*
X0156309Y0401956D01*
X0156309Y0395651D01*
X0154067Y0396702D02*
X0153016Y0395651D01*
X0150914Y0395651D01*
X0149863Y0396702D01*
X0149863Y0400905D01*
X0150914Y0401956D01*
X0153016Y0401956D01*
X0154067Y0400905D01*
X0169200Y0401956D02*
X0173403Y0401956D01*
X0140455Y0304787D02*
X0140455Y0300583D01*
X0140455Y0302685D02*
X0134149Y0302685D01*
X0136251Y0300583D01*
X0134149Y0298341D02*
X0140455Y0298341D01*
X0138353Y0296240D01*
X0140455Y0294138D01*
X0134149Y0294138D01*
X0135200Y0291896D02*
X0134149Y0290845D01*
X0134149Y0288743D01*
X0135200Y0287692D01*
X0136251Y0287692D01*
X0137302Y0288743D01*
X0137302Y0290845D01*
X0138353Y0291896D01*
X0139404Y0291896D01*
X0140455Y0290845D01*
X0140455Y0288743D01*
X0139404Y0287692D01*
X0147661Y0276081D02*
X0147661Y0271877D01*
X0150814Y0271877D01*
X0149763Y0273979D01*
X0149763Y0275030D01*
X0150814Y0276081D01*
X0152916Y0276081D01*
X0153967Y0275030D01*
X0153967Y0272928D01*
X0152916Y0271877D01*
X0153967Y0269635D02*
X0153967Y0265432D01*
X0153967Y0267533D02*
X0147661Y0267533D01*
X0149763Y0265432D01*
X0147661Y0263190D02*
X0153967Y0263190D01*
X0147661Y0258986D01*
X0153967Y0258986D01*
X0152916Y0256744D02*
X0153967Y0255693D01*
X0153967Y0253591D01*
X0152916Y0252541D01*
X0148712Y0252541D01*
X0147661Y0253591D01*
X0147661Y0255693D01*
X0148712Y0256744D01*
X0120030Y0242707D02*
X0118979Y0243758D01*
X0117928Y0243758D01*
X0116877Y0242707D01*
X0116877Y0239554D01*
X0118979Y0239554D01*
X0120030Y0240605D01*
X0120030Y0242707D01*
X0116877Y0239554D02*
X0114775Y0241656D01*
X0113724Y0243758D01*
X0113724Y0235211D02*
X0120030Y0235211D01*
X0120030Y0237312D02*
X0120030Y0233109D01*
X0120030Y0230867D02*
X0113724Y0230867D01*
X0115826Y0233109D02*
X0113724Y0235211D01*
X0120030Y0230867D02*
X0113724Y0226663D01*
X0120030Y0226663D01*
X0118979Y0224421D02*
X0120030Y0223370D01*
X0120030Y0221269D01*
X0118979Y0220218D01*
X0114775Y0220218D01*
X0113724Y0221269D01*
X0113724Y0223370D01*
X0114775Y0224421D01*
D19*
X0275616Y0324267D03*
D20*
X0378086Y0260183D03*
D21*
X0393539Y0152092D03*
D22*
X0394004Y0283139D02*
X0393503Y0283639D01*
X0393753Y0283639D02*
X0393003Y0283639D01*
X0393003Y0283139D02*
X0393003Y0284640D01*
X0393753Y0284640D01*
X0394004Y0284390D01*
X0394004Y0283889D01*
X0393753Y0283639D01*
X0394476Y0283389D02*
X0394726Y0283139D01*
X0395227Y0283139D01*
X0395477Y0283389D01*
X0395477Y0283639D01*
X0395227Y0283889D01*
X0394476Y0283889D01*
X0394476Y0283389D01*
X0394476Y0283889D02*
X0394976Y0284390D01*
X0395477Y0284640D01*
X0398442Y0303515D02*
X0398442Y0304265D01*
X0398692Y0304515D01*
X0399193Y0304515D01*
X0399443Y0304265D01*
X0399443Y0303515D01*
X0399443Y0304015D02*
X0399943Y0304515D01*
X0399693Y0304988D02*
X0399943Y0305238D01*
X0399943Y0305738D01*
X0399693Y0305989D01*
X0399193Y0305989D01*
X0398942Y0305738D01*
X0398942Y0305488D01*
X0399193Y0304988D01*
X0398442Y0304988D01*
X0398442Y0305989D01*
X0398442Y0303515D02*
X0399943Y0303515D01*
X0417963Y0296530D02*
X0417963Y0295028D01*
X0417963Y0295529D02*
X0418714Y0295529D01*
X0418964Y0295779D01*
X0418964Y0296279D01*
X0418714Y0296530D01*
X0417963Y0296530D01*
X0418464Y0295529D02*
X0418964Y0295028D01*
X0419437Y0295279D02*
X0419687Y0295028D01*
X0420187Y0295028D01*
X0420437Y0295279D01*
X0420437Y0295529D01*
X0420187Y0295779D01*
X0419937Y0295779D01*
X0420187Y0295779D02*
X0420437Y0296029D01*
X0420437Y0296279D01*
X0420187Y0296530D01*
X0419687Y0296530D01*
X0419437Y0296279D01*
X0381872Y0314420D02*
X0380371Y0314420D01*
X0380371Y0315171D01*
X0380621Y0315421D01*
X0381122Y0315421D01*
X0381372Y0315171D01*
X0381372Y0314420D01*
X0381372Y0314920D02*
X0381872Y0315421D01*
X0381122Y0315893D02*
X0381122Y0316894D01*
X0381872Y0316644D02*
X0380371Y0316644D01*
X0381122Y0315893D01*
X0372034Y0293734D02*
X0372034Y0292733D01*
X0372034Y0293234D02*
X0370533Y0293234D01*
X0371033Y0292733D01*
X0370783Y0292261D02*
X0370533Y0292011D01*
X0370533Y0291260D01*
X0372034Y0291260D01*
X0372034Y0292011D01*
X0371784Y0292261D01*
X0370783Y0292261D01*
X0350534Y0351487D02*
X0349033Y0351487D01*
X0349033Y0352237D01*
X0349283Y0352487D01*
X0349783Y0352487D01*
X0350033Y0352237D01*
X0350033Y0351487D01*
X0350033Y0351987D02*
X0350534Y0352487D01*
X0350534Y0352960D02*
X0350534Y0353961D01*
X0350534Y0353460D02*
X0349033Y0353460D01*
X0349533Y0352960D01*
X0312857Y0352999D02*
X0312356Y0352499D01*
X0312356Y0352749D02*
X0312356Y0351998D01*
X0312857Y0351998D02*
X0311355Y0351998D01*
X0311355Y0352749D01*
X0311606Y0352999D01*
X0312106Y0352999D01*
X0312356Y0352749D01*
X0312857Y0353472D02*
X0311856Y0354473D01*
X0311606Y0354473D01*
X0311355Y0354222D01*
X0311355Y0353722D01*
X0311606Y0353472D01*
X0312857Y0353472D02*
X0312857Y0354473D01*
M02*
